<svg width="50" height="50" viewBox="0 0 50 50" fill="none" xmlns="http://www.w3.org/2000/svg">
<path d="M24.9964 1.19002e-05C19.8959 0.000746265 14.9177 1.56153 10.7298 4.47293C6.54188 7.38432 3.34466 11.507 1.5672 16.2877C-0.21027 21.0685 -0.482936 26.2785 0.785789 31.2187C2.05451 36.1588 4.80392 40.5927 8.66505 43.9253C12.5262 47.258 17.3143 49.3299 22.3868 49.863C27.4593 50.3962 32.5736 49.365 37.0432 46.908C41.5129 44.4509 45.124 40.6855 47.3921 36.1171C49.6603 31.5487 50.4767 26.3958 49.7321 21.35C49.6882 21.0486 49.568 20.7634 49.3829 20.5215C49.1977 20.2797 48.9538 20.0892 48.6742 19.9683C48.3947 19.8473 48.0889 19.7998 47.7858 19.8304C47.4827 19.8609 47.1926 19.9685 46.9428 20.1429C45.9636 20.8265 44.8287 21.2537 43.6418 21.3855C42.4549 21.5172 41.2539 21.3493 40.1487 20.897C39.0434 20.4448 38.0692 19.7226 37.3151 18.7966C36.561 17.8706 36.0511 16.7704 35.8321 15.5964C35.7658 15.2414 35.5935 14.9148 35.3378 14.6598C35.0821 14.4048 34.7551 14.2332 34.4 14.1679C33.2249 13.9494 32.1234 13.4395 31.1964 12.6849C30.2695 11.9304 29.5467 10.9553 29.0943 9.84898C28.6419 8.74268 28.4744 7.54054 28.607 6.35269C28.7396 5.16484 29.1682 4.02927 29.8535 3.05001C30.027 2.80031 30.1339 2.51044 30.164 2.20787C30.1941 1.9053 30.1464 1.60006 30.0255 1.32107C29.9046 1.04207 29.7145 0.798571 29.4732 0.613635C29.2318 0.428699 28.9472 0.308455 28.6464 0.264297C27.4378 0.0871518 26.2179 -0.00117992 24.9964 1.19002e-05ZM24.9964 27.6786C24.286 27.6786 23.6047 27.3964 23.1024 26.894C22.6 26.3917 22.3178 25.7104 22.3178 25C22.3178 24.2896 22.6 23.6083 23.1024 23.106C23.6047 22.6036 24.286 22.3214 24.9964 22.3214C25.7068 22.3214 26.3881 22.6036 26.8904 23.106C27.3927 23.6083 27.675 24.2896 27.675 25C27.675 25.7104 27.3927 26.3917 26.8904 26.894C26.3881 27.3964 25.7068 27.6786 24.9964 27.6786ZM17.8535 34.8214C17.8535 35.5318 17.5713 36.2131 17.069 36.7155C16.5667 37.2178 15.8854 37.5 15.175 37.5C14.4646 37.5 13.7833 37.2178 13.2809 36.7155C12.7786 36.2131 12.4964 35.5318 12.4964 34.8214C12.4964 34.111 12.7786 33.4297 13.2809 32.9274C13.7833 32.4251 14.4646 32.1428 15.175 32.1428C15.8854 32.1428 16.5667 32.4251 17.069 32.9274C17.5713 33.4297 17.8535 34.111 17.8535 34.8214ZM13.3893 21.4286C13.0375 21.4286 12.6892 21.3593 12.3642 21.2247C12.0392 21.0901 11.7439 20.8928 11.4952 20.644C11.2465 20.3953 11.0492 20.1 10.9146 19.775C10.78 19.4501 10.7107 19.1018 10.7107 18.75C10.7107 18.3982 10.78 18.0499 10.9146 17.725C11.0492 17.4 11.2465 17.1047 11.4952 16.856C11.7439 16.6072 12.0392 16.4099 12.3642 16.2753C12.6892 16.1407 13.0375 16.0714 13.3893 16.0714C14.0997 16.0714 14.781 16.3536 15.2833 16.856C15.7856 17.3583 16.0678 18.0396 16.0678 18.75C16.0678 19.4604 15.7856 20.1417 15.2833 20.644C14.781 21.1464 14.0997 21.4286 13.3893 21.4286ZM33.925 36.6071C33.925 37.3175 33.6427 37.9988 33.1404 38.5012C32.6381 39.0035 31.9568 39.2857 31.2464 39.2857C30.536 39.2857 29.8547 39.0035 29.3523 38.5012C28.85 37.9988 28.5678 37.3175 28.5678 36.6071C28.5678 35.8967 28.85 35.2154 29.3523 34.7131C29.8547 34.2108 30.536 33.9286 31.2464 33.9286C31.9568 33.9286 32.6381 34.2108 33.1404 34.7131C33.6427 35.2154 33.925 35.8967 33.925 36.6071Z" fill="#0062DD"/>
</svg>
