<svg width="43" height="43" viewBox="0 0 43 43" fill="none" xmlns="http://www.w3.org/2000/svg">
<path d="M22.9997 16.7498C27.0268 16.7498 30.2913 13.4852 30.2913 9.45817C30.2913 5.43109 27.0268 2.1665 22.9997 2.1665C18.9726 2.1665 15.708 5.43109 15.708 9.45817C15.708 13.4852 18.9726 16.7498 22.9997 16.7498Z" stroke="#0062DD" stroke-width="4" stroke-linecap="round" stroke-linejoin="round"/>
<path d="M2.1665 40.7082C2.1665 31.503 10.5613 24.0415 20.9165 24.0415M36.5415 30.2915V27.1665C36.5415 26.3377 36.2123 25.5428 35.6262 24.9568C35.0402 24.3707 34.2453 24.0415 33.4165 24.0415C32.5877 24.0415 31.7928 24.3707 31.2068 24.9568C30.6207 25.5428 30.2915 26.3377 30.2915 27.1665V30.2915M26.1248 30.2915H40.7082V40.7082H26.1248V30.2915Z" stroke="#0062DD" stroke-width="4" stroke-linecap="round" stroke-linejoin="round"/>
</svg>
