<svg width="45" height="49" viewBox="0 0 45 49" fill="none" xmlns="http://www.w3.org/2000/svg">
<path d="M36.2857 23.4286V10.0336C36.2858 9.86442 36.2526 9.69691 36.1879 9.54064C36.1232 9.38436 36.0282 9.24239 35.9086 9.12286L29.1629 2.37714C28.922 2.13596 28.5952 2.0003 28.2543 2H3.28571C2.94472 2 2.6177 2.13546 2.37658 2.37658C2.13546 2.6177 2 2.94472 2 3.28571V43.5714C2 43.9124 2.13546 44.2394 2.37658 44.4806C2.6177 44.7217 2.94472 44.8571 3.28571 44.8571H21.2857M10.5714 19.1429H27.7143M10.5714 10.5714H19.1429M10.5714 27.7143H17" stroke="#0062DD" stroke-width="3.5" stroke-linecap="round" stroke-linejoin="round"/>
<path d="M27.7144 2V9.28571C27.7144 9.62671 27.8498 9.95373 28.0909 10.1949C28.332 10.436 28.6591 10.5714 29.0001 10.5714H36.2858M36.2686 30.125L41.7458 31.5157C42.3158 31.6614 42.7165 32.18 42.6994 32.7671C42.3308 45.1057 35.2144 47 35.2144 47C35.2144 47 28.0979 45.1057 27.7294 32.7671C27.7235 32.4815 27.8146 32.2023 27.9878 31.975C28.1609 31.7478 28.406 31.5859 28.6829 31.5157L34.1601 30.125C34.8522 29.9493 35.5765 29.9493 36.2686 30.125Z" stroke="#0062DD" stroke-width="3.5" stroke-linecap="round" stroke-linejoin="round"/>
</svg>
