<svg width="216" height="219" viewBox="0 0 216 219" fill="none" xmlns="http://www.w3.org/2000/svg">
<path d="M53.5144 212.611H20.3977C20.3262 212.611 20.2576 212.583 20.207 212.532C20.1564 212.482 20.1279 212.413 20.1279 212.341C20.1279 212.27 20.1564 212.201 20.207 212.151C20.2576 212.1 20.3262 212.072 20.3977 212.072H53.509C53.5805 212.071 53.6494 212.099 53.7005 212.149C53.7516 212.199 53.7808 212.267 53.7815 212.339C53.7822 212.41 53.7544 212.479 53.7044 212.53C53.6543 212.581 53.5859 212.61 53.5144 212.611Z" fill="#9AB3DA"/>
<path d="M142.849 212.611H109.732C109.661 212.611 109.592 212.583 109.541 212.532C109.491 212.482 109.462 212.413 109.462 212.341C109.462 212.27 109.491 212.201 109.541 212.151C109.592 212.1 109.661 212.072 109.732 212.072H142.843C142.915 212.071 142.984 212.099 143.035 212.149C143.086 212.199 143.115 212.267 143.116 212.339C143.117 212.41 143.089 212.479 143.039 212.53C142.989 212.581 142.92 212.61 142.849 212.611Z" fill="#9AB3DA"/>
<path d="M166.538 218.909H133.427C133.355 218.909 133.287 218.88 133.236 218.829C133.186 218.779 133.157 218.71 133.157 218.639C133.157 218.567 133.186 218.499 133.236 218.448C133.287 218.397 133.355 218.369 133.427 218.369H166.538C166.61 218.369 166.678 218.397 166.729 218.448C166.78 218.499 166.808 218.567 166.808 218.639C166.808 218.71 166.78 218.779 166.729 218.829C166.678 218.88 166.61 218.909 166.538 218.909Z" fill="#9AB3DA"/>
<path d="M33.4081 218.909H0.296911C0.225352 218.909 0.156725 218.88 0.106125 218.829C0.0555258 218.779 0.0270996 218.71 0.0270996 218.639C0.0270996 218.567 0.0555258 218.499 0.106125 218.448C0.156725 218.397 0.225352 218.369 0.296911 218.369H33.4081C33.4797 218.369 33.5483 218.397 33.5989 218.448C33.6495 218.499 33.6779 218.567 33.6779 218.639C33.6779 218.71 33.6495 218.779 33.5989 218.829C33.5483 218.88 33.4797 218.909 33.4081 218.909Z" fill="#9AB3DA"/>
<path d="M183.747 212.611H159.291C159.219 212.611 159.151 212.583 159.1 212.532C159.05 212.482 159.021 212.413 159.021 212.341C159.021 212.27 159.05 212.201 159.1 212.151C159.151 212.1 159.219 212.072 159.291 212.072H183.752C183.788 212.072 183.823 212.079 183.855 212.093C183.888 212.107 183.917 212.127 183.942 212.152C183.967 212.178 183.986 212.208 184 212.241C184.013 212.273 184.02 212.309 184.019 212.344C184.019 212.379 184.012 212.414 183.998 212.447C183.984 212.48 183.964 212.509 183.938 212.534C183.913 212.559 183.883 212.578 183.85 212.592C183.817 212.605 183.782 212.612 183.747 212.611Z" fill="#9AB3DA"/>
<path d="M93.112 122.791C61.5711 122.791 39.2091 120.055 35.0486 119.51L31.6382 119.062L31.3576 115.636C30.5967 106.268 29.6902 91.3527 29.6902 73.448C29.6902 55.5434 30.5967 40.6282 31.3576 31.2604L31.6382 27.8338L35.0486 27.3859C39.2091 26.8463 61.5711 24.105 93.112 24.105C124.653 24.105 147.015 26.8409 151.175 27.3859L154.586 27.8338L154.866 31.2604C155.627 40.6282 156.534 55.5434 156.534 73.448C156.534 91.3527 155.627 106.268 154.866 115.636L154.586 119.062L151.175 119.51C147.015 120.055 124.653 122.791 93.112 122.791Z" fill="#9AB3DA"/>
<path d="M93 30H108C107.518 27.4232 106.892 24.8794 106.125 22.3823C106.125 22.3823 99.962 22 93 22C86.038 22 79.875 22.3823 79.875 22.3823C79.1081 24.8794 78.482 27.4232 78 30H93Z" fill="#404B7C"/>
<path d="M150.348 115.732C146.436 116.277 124.131 119 93 119C61.8695 119 39.5588 116.244 35.652 115.732C34.8233 105.422 34 90.809 34 73.5C34 56.191 34.8233 41.5781 35.652 31.2679C39.5642 30.7232 61.8695 28 93 28C124.131 28 146.441 30.7559 150.348 31.2679C151.177 41.5781 152 56.191 152 73.5C152 90.809 151.171 105.422 150.348 115.732Z" fill="#E9F3FF"/>
<path d="M95.3042 47C95.3042 47 94.4254 54.5651 98 58H84.796C81.1999 54.5651 82.1002 47 82.1002 47H95.3042Z" fill="#9AB3DA"/>
<path d="M87 44H89V48H87V44Z" fill="#404B7C"/>
<path d="M114.307 37C114.307 37 113.429 44.5651 117 48H103.793C100.201 44.5651 101.1 37 101.1 37H114.328H114.307Z" fill="#9AB3DA"/>
<path d="M106 34H109V38H106V34Z" fill="#404B7C"/>
<path d="M141.523 35H128.477C127.661 35 127 35.6556 127 36.4642V36.5358C127 37.3444 127.661 38 128.477 38H141.523C142.339 38 143 37.3444 143 36.5358V36.4642C143 35.6556 142.339 35 141.523 35Z" fill="#9AB3DA"/>
<path d="M141.523 41H128.477C127.661 41 127 41.6556 127 42.4642V42.5358C127 43.3444 127.661 44 128.477 44H141.523C142.339 44 143 43.3444 143 42.5358V42.4642C143 41.6556 142.339 41 141.523 41Z" fill="#9AB3DA"/>
<path d="M73.1718 38H48.8282C47.2662 38 46 39.2733 46 40.8439V77.1561C46 78.7267 47.2662 80 48.8282 80H73.1718C74.7337 80 76 78.7267 76 77.1561V40.8439C76 39.2733 74.7337 38 73.1718 38Z" fill="#404B7C"/>
<path d="M69.6311 66H51.3689C50.6129 66 50 66.5962 50 67.3316V74.6684C50 75.4038 50.6129 76 51.3689 76H69.6311C70.3871 76 71 75.4038 71 74.6684V67.3316C71 66.5962 70.3871 66 69.6311 66Z" fill="#E9F3FF"/>
<path d="M60.3137 59H56.6863C56.3073 59 56 59.3073 56 59.6863V63.3137C56 63.6927 56.3073 64 56.6863 64H60.3137C60.6927 64 61 63.6927 61 63.3137V59.6863C61 59.3073 60.6927 59 60.3137 59Z" fill="#9AB3DA"/>
<path d="M68.3137 53H64.6863C64.3073 53 64 53.2972 64 53.6638V63.3362C64 63.7028 64.3073 64 64.6863 64H68.3137C68.6927 64 69 63.7028 69 63.3362V53.6638C69 53.2972 68.6927 53 68.3137 53Z" fill="#9AB3DA"/>
<path d="M64.2677 104C64.1967 104 64.1286 103.971 64.0784 103.921C64.0282 103.87 64 103.801 64 103.729V97.5672C64 97.4954 64.0282 97.4264 64.0784 97.3756C64.1286 97.3248 64.1967 97.2963 64.2677 97.2963H75.6162V85.8072C75.6162 85.7354 75.6444 85.6664 75.6946 85.6156C75.7448 85.5648 75.8128 85.5363 75.8838 85.5363H87.2324V74.0472C87.2324 73.9754 87.2605 73.9064 87.3107 73.8556C87.3609 73.8048 87.429 73.7763 87.5 73.7763H98.8485V62.271C98.8485 62.1991 98.8767 62.1302 98.9269 62.0794C98.9771 62.0286 99.0452 62 99.1162 62H110.732C110.803 62 110.871 62.0286 110.922 62.0794C110.972 62.1302 111 62.1991 111 62.271C111 62.3428 110.972 62.4118 110.922 62.4626C110.871 62.5134 110.803 62.5419 110.732 62.5419H99.3838V74.031C99.3838 74.1028 99.3556 74.1718 99.3054 74.2226C99.2552 74.2734 99.1872 74.3019 99.1162 74.3019H87.7677V85.791C87.7677 85.8628 87.7395 85.9318 87.6893 85.9826C87.6391 86.0334 87.571 86.0619 87.5 86.0619H76.1515V97.551C76.1515 97.6228 76.1233 97.6918 76.0731 97.7426C76.0229 97.7934 75.9548 97.8219 75.8838 97.8219H64.5353V103.734C64.5339 103.805 64.5051 103.873 64.455 103.923C64.405 103.972 64.3377 104 64.2677 104Z" fill="#9AB3DA"/>
<path d="M67 99H72V105H67V99Z" fill="#404B7C"/>
<path d="M79 89H84V105H79V89Z" fill="#404B7C"/>
<path d="M90 77H96V105H90V77Z" fill="#404B7C"/>
<path d="M102 65H108V105H102V65Z" fill="#404B7C"/>
<path d="M189.505 64C184.264 63.9989 179.14 65.5231 174.781 68.3796C170.422 71.2361 167.025 75.2967 165.018 80.0478C163.012 84.7989 162.487 90.027 163.509 95.071C164.531 100.115 167.055 104.748 170.762 108.385C174.468 112.021 179.19 114.498 184.331 115.501C189.472 116.504 194.801 115.988 199.644 114.02C204.486 112.051 208.625 108.718 211.536 104.442C214.448 100.165 216.001 95.1374 216 89.9947C215.999 83.1009 213.207 76.4899 208.238 71.6152C203.27 66.7406 196.532 64.0014 189.505 64ZM189.505 107.176C186.043 107.176 182.659 106.168 179.78 104.281C176.902 102.394 174.658 99.7121 173.333 96.574C172.008 93.4359 171.661 89.9828 172.336 86.6512C173.011 83.3196 174.677 80.2592 177.125 77.8569C179.573 75.4547 182.691 73.8185 186.087 73.1551C189.482 72.4918 193.002 72.8312 196.201 74.1304C199.4 75.4295 202.134 77.6301 204.058 80.4539C205.983 83.2777 207.01 86.5979 207.011 89.9947C207.012 92.2506 206.56 94.4847 205.68 96.5691C204.801 98.6535 203.511 100.548 201.886 102.143C200.26 103.739 198.33 105.004 196.206 105.868C194.082 106.731 191.805 107.176 189.505 107.176Z" fill="#E9F3FF"/>
<path d="M189.5 98C193.642 98 197 94.4183 197 90C197 85.5817 193.642 82 189.5 82C185.358 82 182 85.5817 182 90C182 94.4183 185.358 98 189.5 98Z" fill="#E9F3FF"/>
<path d="M190 70.7309C193.811 70.7309 197.537 71.861 200.705 73.9783C203.874 76.0956 206.344 79.105 207.802 82.626C209.261 86.147 209.642 90.0214 208.899 93.7592C208.155 97.4971 206.32 100.93 203.625 103.625C200.931 106.32 197.497 108.155 193.759 108.899C190.021 109.642 186.147 109.261 182.626 107.802C179.105 106.344 176.096 103.874 173.978 100.705C171.861 97.5366 170.731 93.8111 170.731 90H165C165 94.9445 166.466 99.778 169.213 103.889C171.96 108 175.865 111.205 180.433 113.097C185.001 114.989 190.028 115.484 194.877 114.52C199.727 113.555 204.181 111.174 207.678 107.678C211.174 104.181 213.555 99.7268 214.52 94.8773C215.484 90.0277 214.989 85.0011 213.097 80.4329C211.205 75.8648 208 71.9603 203.889 69.2133C199.778 66.4662 194.945 65 190 65V70.7309Z" fill="#9AB3DA"/>
<path d="M179.235 37.7241L180.17 38.1831C180.474 38.3326 180.707 38.5969 180.817 38.9179C180.926 39.2389 180.904 39.5902 180.754 39.8947L180.352 40.7133C180.203 41.0178 179.938 41.2504 179.617 41.36C179.296 41.4696 178.945 41.4472 178.641 41.2977L177.706 40.8387C177.401 40.6892 177.169 40.4249 177.059 40.1039C176.949 39.7829 176.972 39.4315 177.121 39.127L177.516 38.323C177.589 38.1705 177.692 38.0341 177.818 37.9214C177.944 37.8088 178.091 37.7221 178.251 37.6665C178.411 37.6108 178.58 37.5873 178.749 37.5971C178.918 37.607 179.083 37.6502 179.235 37.7241Z" fill="#E9F3FF"/>
<path d="M178.426 31.7539L185.382 35.1691L182.99 40.042C182.84 40.3465 182.576 40.5791 182.255 40.6887C181.934 40.7983 181.582 40.7758 181.278 40.6264L176.623 38.3409C176.318 38.1914 176.086 37.9271 175.976 37.6061C175.867 37.2851 175.889 36.9337 176.039 36.6292L178.431 31.7563L178.426 31.7539Z" fill="#9AB3DA"/>
<path d="M177.439 34.157L185.321 35.9863C185.466 36.0197 185.617 35.9914 185.742 35.9078C185.867 35.8242 185.955 35.692 185.987 35.5404C186.019 35.3888 185.992 35.2302 185.912 35.0994C185.832 34.9686 185.706 34.8764 185.561 34.843L177.679 33.0137C177.534 32.9803 177.383 33.0086 177.258 33.0922C177.133 33.1758 177.045 33.308 177.013 33.4596C176.981 33.6112 177.008 33.7698 177.088 33.9006C177.168 34.0314 177.294 34.1236 177.439 34.157Z" fill="#E9F3FF"/>
<path d="M176.408 36.0984L184.368 37.987C184.503 38.0187 184.644 37.9919 184.76 37.9125C184.876 37.8331 184.958 37.7076 184.988 37.5637C185.017 37.4198 184.992 37.2692 184.918 37.145C184.844 37.0208 184.726 36.9333 184.592 36.9016L176.632 35.013C176.497 34.9813 176.356 35.0081 176.24 35.0875C176.124 35.1669 176.042 35.2924 176.012 35.4363C175.983 35.5802 176.008 35.7308 176.082 35.855C176.156 35.9792 176.274 36.0667 176.408 36.0984Z" fill="#E9F3FF"/>
<path d="M175.449 38.7833L183.305 39.9907C183.453 40.0133 183.608 39.9942 183.736 39.9376C183.864 39.881 183.954 39.7915 183.987 39.6889C184.019 39.5862 183.992 39.4788 183.91 39.3903C183.828 39.3017 183.699 39.2393 183.551 39.2167L175.695 38.0093C175.547 37.9867 175.392 38.0058 175.264 38.0624C175.136 38.119 175.046 38.2085 175.013 38.3111C174.981 38.4138 175.008 38.5212 175.09 38.6097C175.172 38.6983 175.301 38.7607 175.449 38.7833Z" fill="#E9F3FF"/>
<path d="M194.947 29.8562C197.412 24.8348 195.34 18.7656 190.319 16.3003C185.298 13.8349 179.228 15.9069 176.763 20.9283C174.298 25.9497 176.37 32.0188 181.391 34.4842C186.412 36.9496 192.482 34.8776 194.947 29.8562Z" fill="#9AB3DA"/>
<path d="M185.792 32C185.717 32 185.646 31.9718 185.593 31.9215C185.54 31.8713 185.51 31.8032 185.51 31.7322C185.51 31.6611 185.54 31.593 185.593 31.5428C185.646 31.4925 185.717 31.4643 185.792 31.4643C187.889 31.309 189.709 29.4019 190.251 27.6448C190.703 26.1877 190.33 24.8967 189.228 24.0985C188.666 23.6464 187.948 23.4078 187.211 23.4289C187.38 24.9396 186.544 26.5092 185.6 26.9913C185.389 27.116 185.139 27.1681 184.892 27.1388C184.645 27.1096 184.416 27.0007 184.244 26.8306C183.679 26.2949 183.939 25.036 184.843 24.0611C185.288 23.5575 185.877 23.1857 186.538 22.9897C186.392 22.6011 186.133 22.2596 185.791 22.0046C185.449 21.7496 185.038 21.5915 184.606 21.5487C183.249 21.3987 181.95 22.3254 181.141 24.0289C180.621 25.0545 180.443 26.2062 180.632 27.3301C180.821 28.454 181.367 29.4964 182.198 30.3179C182.247 30.3675 182.274 30.4328 182.274 30.5006C182.275 30.5685 182.247 30.6338 182.199 30.6835C182.15 30.7332 182.083 30.7634 182.012 30.7681C181.94 30.7729 181.869 30.7517 181.814 30.709C180.9 29.8095 180.296 28.6674 180.084 27.4347C179.872 26.202 180.062 24.9374 180.627 23.8093C181.543 21.8861 183.063 20.8469 184.673 21.0183C185.225 21.0751 185.748 21.2824 186.179 21.6152C186.609 21.948 186.928 22.3919 187.098 22.8932C187.993 22.8447 188.873 23.1205 189.562 23.6646C190.861 24.6021 191.308 26.102 190.788 27.7841C190.093 30.0233 187.962 31.8339 185.832 31.9893L185.792 32ZM186.634 23.5307C186.098 23.7028 185.62 24.008 185.25 24.4146C184.51 25.2181 184.312 26.1556 184.628 26.4556C184.715 26.5447 184.833 26.6006 184.96 26.6124C185.087 26.6243 185.214 26.5913 185.318 26.5199C185.99 26.177 186.776 24.886 186.634 23.5307Z" fill="#E9F3FF"/>
<path d="M27.1217 16.9022L27.0451 16.9283C26.4556 17.1296 26.1409 17.7706 26.3422 18.36C26.5434 18.9495 27.1844 19.2642 27.7739 19.063L27.8505 19.0368C28.44 18.8356 28.7547 18.1946 28.5534 17.6051C28.3522 17.0157 27.7112 16.7009 27.1217 16.9022Z" fill="#E9F3FF"/>
<path d="M23.6627 14.6535L28.412 13.0321L29.3971 15.9174C29.5067 16.2384 29.4843 16.5898 29.3348 16.8943C29.1853 17.1987 28.921 17.4314 28.6 17.5409L26.2968 18.3272C26.1369 18.3856 25.9669 18.4115 25.7969 18.4034C25.6268 18.3952 25.4601 18.3532 25.3065 18.2797C25.1529 18.2063 25.0156 18.1029 24.9024 17.9757C24.7893 17.8485 24.7027 17.7 24.6478 17.5389L23.6575 14.6382L23.6627 14.6535Z" fill="#9AB3DA"/>
<path d="M24.526 15.9471L28.8544 13.5546C28.9273 13.5086 28.9772 13.4403 28.9939 13.3635C29.0106 13.2867 28.9928 13.2072 28.9443 13.1414C28.8957 13.0756 28.82 13.0283 28.7326 13.0092C28.6452 12.9902 28.5527 13.0008 28.474 13.0389L24.1456 15.4454C24.0727 15.4914 24.0228 15.5597 24.0061 15.6365C23.9894 15.7133 24.0072 15.7928 24.0557 15.8586C24.1043 15.9244 24.18 15.9717 24.2674 15.9908C24.3548 16.0098 24.4473 15.9992 24.526 15.9611" fill="#E9F3FF"/>
<path d="M24.5042 17.9512L28.8645 14.6953C28.9323 14.6377 28.9788 14.552 28.9943 14.4557C29.0098 14.3594 28.9933 14.2598 28.9482 14.1773C28.903 14.0947 28.8326 14.0355 28.7513 14.0116C28.67 13.9877 28.5839 14.001 28.5107 14.0488L24.1355 17.3047C24.0677 17.3623 24.0212 17.448 24.0057 17.5443C23.9902 17.6406 24.0067 17.7402 24.0518 17.8227C24.097 17.9053 24.1674 17.9645 24.2487 17.9884C24.33 18.0123 24.4161 17.999 24.4893 17.9512" fill="#E9F3FF"/>
<path d="M25.5381 18.96L29.851 16.5705C29.9256 16.5232 29.9766 16.4529 29.9937 16.3739C30.0108 16.2949 29.9927 16.2132 29.943 16.1455C29.8933 16.0777 29.8159 16.0291 29.7264 16.0095C29.637 15.9899 29.5424 16.0008 29.4619 16.04L25.149 18.4295C25.0744 18.4768 25.0234 18.5471 25.0063 18.6261C24.9892 18.7051 25.0073 18.7868 25.057 18.8545C25.1067 18.9223 25.1841 18.9709 25.2735 18.9905C25.363 19.0101 25.4576 18.9992 25.5381 18.96Z" fill="#E9F3FF"/>
<path d="M26.272 14.5399C29.7017 13.3691 31.5327 9.63961 30.3618 6.20998C29.191 2.78036 25.4615 0.949289 22.0319 2.12017C18.6023 3.29105 16.7712 7.02049 17.9421 10.4501C19.113 13.8797 22.8424 15.7108 26.272 14.5399Z" fill="#9AB3DA"/>
<path d="M24.9263 12.9945C24.12 12.9754 23.3382 12.6986 22.6845 12.2007C22.0309 11.7029 21.5363 11.0074 21.2662 10.2066C20.7799 8.85125 20.9682 7.63913 21.7629 6.97246C22.0273 6.74941 22.3455 6.60854 22.6818 6.56571C23.018 6.52288 23.359 6.57979 23.6662 6.73004C24.0347 6.32618 24.5279 6.07415 25.057 6.01929C25.5591 5.95328 26.068 6.05765 26.51 6.31724C26.9519 6.57683 27.3038 6.97812 27.5145 7.46282C28.2413 8.86227 28.142 10.7135 27.2844 11.7658C27.2394 11.8214 27.1752 11.8558 27.1061 11.8614C27.037 11.8671 26.9685 11.8436 26.9158 11.7961C26.8631 11.7487 26.8305 11.6811 26.8251 11.6082C26.8197 11.5354 26.842 11.4632 26.8871 11.4077C27.6818 10.4325 27.5982 8.7686 27.0596 7.72177C26.8957 7.33934 26.6215 7.02113 26.2761 6.81241C25.9306 6.60369 25.5315 6.5151 25.1354 6.55924C24.7451 6.59274 24.3768 6.7635 24.0897 7.04409C24.4228 7.33529 24.6777 7.71333 24.829 8.14057C24.9804 8.56782 25.0229 9.02939 24.9524 9.47934C24.9131 9.65162 24.8191 9.80456 24.6859 9.91279C24.5528 10.021 24.3885 10.078 24.2204 10.0744C23.6087 10.0744 23.1747 9.2259 23.1433 8.4215C23.1112 8.00157 23.1833 7.58007 23.3525 7.19836C23.1398 7.1125 22.9095 7.08715 22.6846 7.12487C22.4597 7.16259 22.2482 7.26205 22.0714 7.41323C21.4597 7.92012 21.3394 8.89533 21.7368 10.0193C21.9672 10.7172 22.3948 11.3242 22.9622 11.7585C23.5295 12.1929 24.2095 12.4338 24.9106 12.449C24.9451 12.4468 24.9797 12.4519 25.0123 12.4642C25.0448 12.4764 25.0747 12.4954 25.1001 12.5201C25.1255 12.5448 25.1459 12.5747 25.1601 12.6079C25.1742 12.6412 25.1819 12.6771 25.1825 12.7135C25.1839 12.7497 25.1785 12.7858 25.1667 12.8198C25.1548 12.8538 25.1367 12.885 25.1134 12.9116C25.0901 12.9382 25.062 12.9597 25.0308 12.9749C24.9996 12.99 24.9659 12.9986 24.9315 13L24.9263 12.9945ZM23.8126 7.53444C23.7042 7.80971 23.6577 8.10763 23.6766 8.40497C23.7185 9.09367 24.0426 9.55097 24.2361 9.55648C24.2924 9.55826 24.3472 9.53774 24.3898 9.49897C24.4324 9.46021 24.4597 9.40602 24.4662 9.34711C24.5023 9.01195 24.4618 8.67255 24.3481 8.35723C24.2344 8.04191 24.0508 7.75981 23.8126 7.53444Z" fill="#E9F3FF"/>
<path d="M0 20.9972L0.69667 20.9015C1.98935 20.7433 3.19722 20.1496 4.13684 19.2105C5.07646 18.2714 5.6965 17.0382 5.90279 15.6983L6 15L6.11341 15.6983C6.3197 17.0382 6.93974 18.2714 7.87936 19.2105C8.81898 20.1496 10.0269 20.7433 11.3195 20.9015L12 20.9972L11.3033 21.0929C10.0128 21.2548 8.80802 21.8509 7.87151 22.7908C6.93501 23.7307 6.31781 24.9632 6.11341 26.3017L6.0162 27L5.91899 26.3017C5.7127 24.9618 5.09266 23.7286 4.15304 22.7895C3.21342 21.8504 2.00555 21.2567 0.712871 21.0985L0 20.9972Z" fill="#E9F3FF"/>
<path d="M109 134.5L109.41 134.442C110.163 134.341 110.865 133.991 111.412 133.444C111.958 132.898 112.32 132.184 112.444 131.408L112.5 131L112.556 131.408C112.68 132.184 113.042 132.898 113.588 133.444C114.135 133.991 114.837 134.341 115.59 134.442L116 134.5L115.59 134.558C114.837 134.659 114.135 135.009 113.588 135.556C113.042 136.102 112.68 136.816 112.556 137.592L112.5 138L112.444 137.592C112.32 136.816 111.958 136.102 111.412 135.556C110.865 135.009 110.163 134.659 109.41 134.558L109 134.5Z" fill="#9AB3DA"/>
<path d="M159 56.5L159.586 56.4288C160.662 56.3104 161.667 55.8673 162.449 55.1668C163.231 54.4663 163.747 53.5466 163.918 52.5474L164 52L164.082 52.5474C164.253 53.5466 164.769 54.4663 165.551 55.1668C166.333 55.8673 167.338 56.3104 168.414 56.4288L169 56.5L168.414 56.5712C167.338 56.6896 166.333 57.1327 165.551 57.8332C164.769 58.5337 164.253 59.4534 164.082 60.4526L164 61L163.918 60.4526C163.747 59.4534 163.231 58.5337 162.449 57.8332C161.667 57.1327 160.662 56.6896 159.586 56.5712L159 56.5Z" fill="#E9F3FF"/>
<path d="M24.5 35C25.3284 35 26 34.3284 26 33.5C26 32.6716 25.3284 32 24.5 32C23.6716 32 23 32.6716 23 33.5C23 34.3284 23.6716 35 24.5 35Z" fill="#9AB3DA"/>
<path d="M35 128C35.5523 128 36 127.328 36 126.5C36 125.672 35.5523 125 35 125C34.4477 125 34 125.672 34 126.5C34 127.328 34.4477 128 35 128Z" fill="#E9F3FF"/>
<path d="M115 147C115.552 147 116 146.552 116 146C116 145.448 115.552 145 115 145C114.448 145 114 145.448 114 146C114 146.552 114.448 147 115 147Z" fill="#E9F3FF"/>
<path d="M174 62C174.552 62 175 61.3284 175 60.5C175 59.6716 174.552 59 174 59C173.448 59 173 59.6716 173 60.5C173 61.3284 173.448 62 174 62Z" fill="#9AB3DA"/>
<path d="M161 33C161.552 33 162 32.5523 162 32C162 31.4477 161.552 31 161 31C160.448 31 160 31.4477 160 32C160 32.5523 160.448 33 161 33Z" fill="#E9F3FF"/>
<path d="M52.6734 64H52.6175C52.5815 63.9932 52.5473 63.9801 52.5168 63.9612C52.4864 63.9423 52.4603 63.9181 52.44 63.8899C52.4198 63.8617 52.4057 63.8302 52.3987 63.797C52.3918 63.7639 52.392 63.7298 52.3993 63.6967C52.5234 63.1339 52.4442 62.5492 52.1736 62.0315C51.903 61.5139 51.4558 61.0915 50.9001 60.8287C50.3574 60.5681 49.7421 60.4631 49.1338 60.5272C48.5254 60.5913 47.952 60.8217 47.4877 61.1885C47.462 61.2148 47.4306 61.2359 47.3956 61.2506C47.3605 61.2652 47.3226 61.2731 47.2841 61.2736C47.2457 61.2742 47.2075 61.2674 47.172 61.2538C47.1365 61.2402 47.1044 61.22 47.0778 61.1945C47.0511 61.1689 47.0305 61.1386 47.0172 61.1055C47.0039 61.0723 46.9982 61.0369 47.0005 61.0017C47.0027 60.9664 47.0129 60.9319 47.0303 60.9003C47.0477 60.8688 47.072 60.8409 47.1017 60.8184C47.6507 60.3803 48.3301 60.1036 49.0521 60.0239C49.7741 59.9442 50.5055 60.0652 51.1518 60.3713C53.4678 61.4352 52.9531 63.7841 52.9475 63.8047C52.9324 63.8608 52.8972 63.9106 52.8474 63.9461C52.7977 63.9815 52.7364 64.0005 52.6734 64Z" fill="#404B7C"/>
<path d="M42.7656 80C42.7064 80.0003 42.6493 79.9747 42.6053 79.9282C42.5613 79.8817 42.5337 79.8175 42.5278 79.7483C42.3154 76.7854 41.4658 73.9346 40.0589 71.4639C40.0375 71.4352 40.0214 71.4016 40.0114 71.3653C40.0015 71.3289 39.998 71.2906 40.0011 71.2526C40.0043 71.2146 40.014 71.1777 40.0297 71.1443C40.0454 71.1109 40.0668 71.0816 40.0925 71.0583C40.1182 71.035 40.1477 71.0181 40.1791 71.0087C40.2106 70.9992 40.2434 70.9975 40.2754 71.0035C40.3075 71.0095 40.3382 71.0232 40.3656 71.0437C40.393 71.0642 40.4165 71.0911 40.4347 71.1227C40.5203 71.2514 42.542 74.3839 42.9987 79.6923C43.002 79.7291 42.999 79.7663 42.99 79.8017C42.981 79.8371 42.9661 79.8701 42.9462 79.8987C42.9263 79.9273 42.9018 79.951 42.8741 79.9684C42.8463 79.9857 42.8159 79.9965 42.7846 80H42.7609H42.7656Z" fill="#404B7C"/>
<path d="M137.75 192.932C137.563 196.043 137.332 199 137.332 199L134.11 198.504C134.046 196.429 133.825 193.914 133.619 191.73C133.314 188.905 133 186.638 133 186.638C133 182.319 137.829 184.112 137.986 186.307C138.045 187.344 137.912 190.174 137.75 192.932Z" fill="#ECBDBB"/>
<path d="M137.979 186.328C138.053 187.367 137.92 190.22 137.763 193C135.659 192.867 134.378 192.322 133.618 191.805C133.314 188.958 133 186.672 133 186.672C133.005 182.307 137.803 184.103 137.979 186.328Z" fill="#404B7C"/>
<path d="M138.576 196.145C136.778 195.876 134.941 195.982 133.19 196.457C133.19 196.457 132.371 203.208 126.846 206.007C122.429 208.251 123.027 212 123.027 212H133.551C135.931 210.079 136.729 206.942 136.729 206.942C136.89 208.64 136.885 210.925 136.869 212H139.987C140.087 206.682 139.614 201.369 138.576 196.145Z" fill="#404B7C"/>
<path d="M151 189.341C141.802 192.971 130.792 189.513 130.792 189.513C130.792 189.513 131.831 173.528 131.333 166.435C130.835 159.343 128.298 139.296 128.038 133.078C127.779 126.859 128.704 114.606 135.148 113.198C138.702 112.421 144.253 113.543 145.113 123.656C145.389 126.892 145.622 130.866 145.871 135.17C145.974 136.945 146.077 138.768 146.196 140.623C146.672 148.335 147.278 156.458 148.322 162.811C150.221 174.401 151 189.341 151 189.341Z" fill="#9AB3DA"/>
<path d="M146 141C143.168 138.771 143 133 143 133C143.215 134.867 144.749 135.263 145.686 135.263C145.812 137.141 145.911 139.054 146 141Z" fill="#404B7C"/>
<path d="M129.331 133H129.239C129.168 132.992 129.104 132.955 129.059 132.897C129.015 132.839 128.994 132.766 129.002 132.693C129.011 132.62 129.047 132.553 129.102 132.506C129.157 132.46 129.228 132.437 129.299 132.441C129.507 132.442 129.713 132.399 129.904 132.315C130.096 132.23 130.268 132.106 130.411 131.95C130.952 131.391 131.584 130.151 131.438 127.297C131.436 127.26 131.441 127.224 131.452 127.189C131.464 127.154 131.482 127.122 131.505 127.094C131.529 127.067 131.558 127.045 131.59 127.028C131.622 127.012 131.656 127.003 131.692 127.001C131.727 126.998 131.763 127.002 131.797 127.014C131.831 127.026 131.862 127.044 131.889 127.069C131.916 127.093 131.938 127.123 131.953 127.157C131.968 127.19 131.977 127.227 131.978 127.263C132.102 129.744 131.697 131.458 130.773 132.363C130.389 132.759 129.873 132.986 129.331 133Z" fill="#404B7C"/>
<path d="M141.708 189C138.519 188.972 135.34 188.598 132.215 187.883C132.18 187.875 132.147 187.86 132.118 187.837C132.089 187.815 132.064 187.786 132.044 187.753C132.025 187.72 132.011 187.683 132.005 187.644C131.998 187.605 131.998 187.565 132.006 187.526C132.013 187.487 132.027 187.45 132.047 187.418C132.067 187.385 132.093 187.357 132.123 187.335C132.153 187.314 132.186 187.299 132.221 187.291C132.256 187.284 132.292 187.285 132.327 187.293C132.433 187.293 143.161 189.892 149.636 187.021C149.702 186.992 149.775 186.993 149.84 187.024C149.904 187.055 149.955 187.114 149.981 187.186C150.007 187.259 150.006 187.341 149.978 187.413C149.95 187.485 149.898 187.541 149.833 187.57C147.425 188.657 144.471 189 141.708 189Z" fill="#404B7C"/>
<path d="M146.749 187C146.683 187 146.62 186.971 146.573 186.92C146.527 186.87 146.5 186.801 146.5 186.729C146.565 179.54 145.607 172.314 144.768 165.941C144.529 164.149 144.306 162.455 144.117 160.837C143.248 153.513 143.005 140.408 143 140.277C142.999 140.242 143.005 140.206 143.017 140.173C143.029 140.14 143.047 140.11 143.069 140.084C143.092 140.058 143.119 140.038 143.149 140.023C143.179 140.009 143.211 140.001 143.243 140.001C143.276 139.998 143.309 140.003 143.34 140.016C143.371 140.028 143.4 140.048 143.423 140.073C143.447 140.098 143.466 140.128 143.479 140.161C143.491 140.195 143.497 140.23 143.497 140.267C143.497 140.397 143.745 153.475 144.609 160.772C144.797 162.401 145.021 164.073 145.259 165.865C146.103 172.26 147.061 179.508 146.997 186.734C146.996 186.805 146.969 186.873 146.922 186.922C146.876 186.972 146.814 187 146.749 187Z" fill="#404B7C"/>
<path d="M136.402 165.412C138.451 165.339 140.02 162.68 139.905 159.472C139.791 156.264 138.037 153.723 135.988 153.796C133.939 153.869 132.371 156.529 132.485 159.736C132.599 162.944 134.353 165.485 136.402 165.412Z" fill="#E9F3FF"/>
<path d="M180 197.803L176.473 198C175.982 195.868 175.182 193.246 174.483 191.104C173.72 188.764 173.074 186.984 173.074 186.984C172.306 182.886 177.759 183.589 178.335 185.641C178.567 186.622 178.745 187.615 178.869 188.615C179.413 192.298 180 197.803 180 197.803Z" fill="#ECBDBB"/>
<path d="M179 188.548C177.768 189.745 176.217 190.594 174.517 191C173.736 188.695 173.076 186.941 173.076 186.941C172.289 182.902 177.87 183.595 178.459 185.617C178.695 186.584 178.875 187.562 179 188.548Z" fill="#404B7C"/>
<path d="M180.549 196.145C178.754 195.876 176.921 195.982 175.172 196.457C175.172 196.457 174.355 203.208 168.839 206.007C164.43 208.251 165.027 212 165.027 212H175.565C177.941 210.079 178.737 206.942 178.737 206.942C178.898 208.64 178.893 210.925 178.877 212H181.99C182.079 206.681 181.596 201.368 180.549 196.145Z" fill="#404B7C"/>
<path d="M184 185.43C177.915 188.707 170.873 189.772 164.084 188.442C161.976 177.27 151.408 150.208 147.109 139.733C146.479 138.182 145.952 136.591 145.532 134.972C144.88 134.972 143.577 134.846 143.095 133.839C142.444 132.466 142 122.579 142 122.579L144.349 122.356C144.738 117.693 146.195 113.989 148.73 112.719C153.111 110.54 160.574 113.264 163.033 121.533C164.971 128.07 170.759 142.396 175.408 155.404C180.057 168.413 184 185.43 184 185.43Z" fill="#9AB3DA"/>
<path d="M146.209 134.999C145.401 134.999 143.871 134.853 143.27 133.802C142.523 132.493 142.018 123.637 142 123.263C141.999 123.23 142.005 123.197 142.019 123.166C142.032 123.135 142.053 123.106 142.081 123.082C142.108 123.057 142.14 123.037 142.176 123.024C142.213 123.01 142.252 123.002 142.292 123C142.332 122.998 142.372 123.003 142.41 123.014C142.448 123.026 142.482 123.043 142.512 123.066C142.541 123.088 142.565 123.116 142.582 123.146C142.598 123.177 142.607 123.21 142.608 123.243C142.747 125.769 143.215 132.584 143.822 133.589C144.308 134.438 145.729 134.509 146.355 134.494L145.14 123.278C145.134 123.212 145.158 123.146 145.21 123.095C145.261 123.044 145.334 123.012 145.414 123.006C145.493 123.001 145.571 123.022 145.632 123.065C145.693 123.107 145.732 123.167 145.742 123.233L146.999 134.711C147.006 134.776 146.982 134.842 146.932 134.893C146.882 134.943 146.81 134.976 146.732 134.984C146.558 134.997 146.384 135.002 146.209 134.999Z" fill="#404B7C"/>
<path d="M166.226 165.664C168.376 165.11 169.406 161.891 168.526 158.474C167.646 155.057 165.19 152.735 163.04 153.289C160.89 153.843 159.86 157.062 160.74 160.479C161.62 163.896 164.076 166.217 166.226 165.664Z" fill="#E9F3FF"/>
<path d="M162.966 133C162.37 133.007 161.782 132.888 161.262 132.655C159.246 131.737 159.007 129.354 159.001 129.254C158.996 129.191 159.022 129.13 159.073 129.082C159.125 129.035 159.197 129.005 159.276 129C159.355 128.996 159.433 129.017 159.493 129.058C159.553 129.099 159.591 129.158 159.599 129.221C159.599 129.221 159.826 131.455 161.561 132.244C162.571 132.722 163.953 132.603 165.586 131.938C165.656 131.914 165.734 131.913 165.805 131.934C165.875 131.955 165.934 131.997 165.968 132.051C166.002 132.104 166.009 132.167 165.988 132.225C165.967 132.283 165.92 132.332 165.855 132.363C164.966 132.75 163.978 132.968 162.966 133Z" fill="#404B7C"/>
<path d="M180.73 182.984C180.666 182.983 180.605 182.961 180.556 182.92C180.508 182.88 180.475 182.823 180.464 182.761C177.135 164.848 165.131 133.667 165.012 133.351C164.992 133.286 164.997 133.215 165.027 133.153C165.057 133.091 165.11 133.043 165.173 133.018C165.237 132.994 165.308 132.994 165.372 133.019C165.436 133.045 165.487 133.093 165.517 133.155C165.636 133.471 177.657 164.723 180.996 182.684C181.008 182.755 180.993 182.828 180.952 182.887C180.911 182.946 180.849 182.987 180.779 183H180.73V182.984Z" fill="#404B7C"/>
<path d="M165.277 186.999C165.241 187.002 165.204 186.997 165.17 186.984C165.136 186.971 165.104 186.95 165.078 186.922C165.052 186.895 165.032 186.862 165.018 186.825C165.005 186.789 164.999 186.749 165 186.71C165 186.633 165.028 186.56 165.078 186.505C165.128 186.451 165.196 186.421 165.266 186.421C165.41 186.421 176.363 186.386 181.595 183.043C181.625 183.023 181.658 183.009 181.693 183.003C181.728 182.998 181.763 182.999 181.798 183.008C181.832 183.018 181.864 183.034 181.893 183.057C181.921 183.08 181.945 183.109 181.963 183.142C181.981 183.175 181.993 183.211 181.997 183.249C182.002 183.287 182 183.326 181.991 183.363C181.982 183.4 181.966 183.435 181.945 183.466C181.923 183.496 181.896 183.521 181.866 183.54C176.533 186.953 165.851 186.999 165.277 186.999Z" fill="#404B7C"/>
<path d="M128.671 74.827C123.441 77.7641 111.778 97.4411 114.371 102.454C116.965 107.467 124.357 108.387 131.998 97.0345C141.24 83.3387 136.22 70.5898 128.671 74.827Z" fill="#404B7C"/>
<path d="M127.914 119.981C127.914 119.981 126.938 125.222 127.003 126.791C127.068 128.36 137.625 130 145.904 130C154.183 130 165 126.595 165 124.96C165 123.326 164.024 119 164.024 119L127.914 119.981Z" fill="#E9F3FF"/>
<path d="M132.231 122.002C131.567 122.043 131.501 123.356 131.224 124.653C130.946 125.951 130.786 126.904 131.618 126.997C132.451 127.089 132.582 125.207 132.801 124.433C133.02 123.658 133.283 121.94 132.231 122.002Z" fill="#404B7C"/>
<path d="M139.337 122.012C138.931 122.129 139.059 123.699 139.014 125.264C138.968 126.828 139.014 127.981 139.524 128C140.035 128.018 139.917 125.773 139.981 124.84C140.044 123.908 139.981 121.822 139.337 122.012Z" fill="#404B7C"/>
<path d="M153.361 122.022C152.7 122.171 153.123 123.464 153.261 124.778C153.399 126.091 153.607 127.05 154.49 126.998C155.374 126.947 154.852 125.092 154.798 124.304C154.744 123.516 154.414 121.785 153.361 122.022Z" fill="#404B7C"/>
<path d="M147.28 123.013C146.871 123.126 147.034 124.428 147.024 125.74C147.015 127.052 147.057 128 147.609 128C148.162 128 147.957 126.129 147.985 125.345C148.013 124.561 147.93 122.834 147.28 123.013Z" fill="#404B7C"/>
<path d="M160.202 121.041C159.727 121.246 160.202 122.518 160.497 123.839C160.792 125.159 161.076 126.111 161.719 125.99C162.362 125.869 161.719 124.028 161.586 123.234C161.453 122.44 160.96 120.714 160.202 121.041Z" fill="#404B7C"/>
<path d="M141.982 69.0593C136.29 69.4086 128.661 74.4737 128.661 74.4737C128.661 74.4737 124.072 92.578 125.17 95.7928C126.267 99.0076 129.371 100.645 129.371 100.645C129.371 100.645 126.681 117.505 127.106 120.065C127.531 122.625 133.702 124 144.822 124C155.943 124 165.185 121.085 164.997 119.541C162.022 95.2688 160.473 91.2026 158.875 71.7829C158.88 71.7829 150.687 68.5244 141.982 69.0593Z" fill="#404B7C"/>
<path d="M133.307 97.9966C133.236 98.0094 133.165 97.9854 133.107 97.9299C133.05 97.8744 133.013 97.792 133.003 97.7007C132.993 97.6094 133.011 97.5168 133.054 97.4432C133.098 97.3696 133.162 97.3211 133.233 97.3084C133.302 97.3084 139.997 94.741 149.778 96.799C149.847 96.8142 149.909 96.8639 149.95 96.9373C149.991 97.0107 150.008 97.102 149.997 97.1913C149.985 97.2805 149.946 97.3601 149.889 97.4129C149.832 97.4657 149.761 97.4875 149.692 97.4735C140.067 95.4431 133.452 97.9347 133.388 97.9622L133.307 97.9966Z" fill="#E9F3FF"/>
<path d="M161.735 115C161.671 115 161.609 114.976 161.562 114.931C161.515 114.886 161.486 114.825 161.481 114.76C160.973 109.01 158.036 94.4683 158.006 94.3219C157.999 94.2876 157.998 94.2522 158.004 94.2177C158.011 94.1833 158.024 94.1504 158.042 94.1211C158.061 94.0917 158.085 94.0664 158.113 94.0466C158.141 94.0268 158.173 94.0129 158.206 94.0057C158.24 93.9985 158.274 93.9981 158.308 94.0046C158.341 94.0111 158.373 94.0243 158.401 94.0434C158.43 94.0626 158.455 94.0874 158.474 94.1163C158.493 94.1453 158.507 94.1778 158.514 94.2122C158.544 94.3585 161.496 108.916 161.999 114.713C162.005 114.781 161.984 114.849 161.941 114.902C161.898 114.955 161.837 114.988 161.77 114.995L161.735 115Z" fill="#E9F3FF"/>
<path d="M128.702 99.9998C128.638 100.001 128.575 99.9822 128.523 99.9464C127.015 98.9054 125.86 97.4848 125.195 95.8531C124.406 93.7156 126.162 85.6412 127.775 79.2127C127.792 79.1418 127.84 79.0804 127.906 79.0418C127.972 79.0032 128.053 78.9907 128.129 79.007C128.205 79.0233 128.272 79.0671 128.313 79.1287C128.355 79.1903 128.368 79.2647 128.351 79.3356C126.093 88.3184 125.172 94.1217 125.753 95.6768C126.382 97.2113 127.471 98.5465 128.892 99.5242C128.939 99.5593 128.973 99.6074 128.99 99.6615C129.006 99.7156 129.003 99.7731 128.982 99.8257C128.961 99.8784 128.923 99.9235 128.872 99.9548C128.822 99.986 128.762 100.002 128.702 99.9998Z" fill="#E9F3FF"/>
<path d="M142.124 69.071C139.441 69.3795 136.119 72.438 137.215 77.5065C137.215 77.5065 139.076 74.4788 141.175 74.5405C143.275 74.6022 144.527 78 144.527 78C145.856 76.5911 146.71 74.7914 146.967 72.8595C147.276 69.7856 145.405 68.6958 142.124 69.071Z" fill="#404B7C"/>
<path d="M144.131 77.9999H144.072C144.029 77.9904 143.989 77.9704 143.956 77.9415C143.923 77.9127 143.897 77.876 143.881 77.8347C143.881 77.8027 142.609 74.4776 140.617 74.419H140.558C138.56 74.419 136.726 77.3391 136.71 77.3711C136.682 77.4156 136.642 77.4507 136.594 77.4719C136.546 77.4932 136.493 77.4997 136.441 77.4905C136.389 77.4814 136.342 77.4571 136.304 77.4207C136.266 77.3842 136.239 77.3373 136.228 77.2859C135.64 74.5789 136.196 72.101 137.818 70.2999C137.841 70.2716 137.869 70.2482 137.901 70.2312C137.933 70.2142 137.968 70.204 138.004 70.2011C138.04 70.1982 138.076 70.2028 138.11 70.2145C138.144 70.2262 138.176 70.2448 138.203 70.2692C138.229 70.2936 138.251 70.3232 138.266 70.3563C138.281 70.3893 138.289 70.4251 138.29 70.4614C138.29 70.4977 138.284 70.5338 138.27 70.5674C138.256 70.601 138.236 70.6315 138.21 70.6569C137.525 71.4577 137.029 72.4035 136.758 73.424C136.488 74.4444 136.45 75.5132 136.647 76.5505C137.331 75.6233 138.889 73.8488 140.654 73.8861C142.567 73.9394 143.834 76.2947 144.237 77.2539C145.433 75.8788 146.198 74.1787 146.436 72.3674C146.569 71.0512 146.288 70.0761 145.609 69.4739C145.581 69.4514 145.558 69.4234 145.542 69.3916C145.525 69.3599 145.515 69.325 145.511 69.2892C145.508 69.2534 145.513 69.2173 145.524 69.1831C145.535 69.149 145.553 69.1174 145.577 69.0904C145.6 69.0634 145.629 69.0415 145.661 69.026C145.694 69.0105 145.729 69.0017 145.764 69.0002C145.8 68.9987 145.836 69.0045 145.869 69.0172C145.903 69.03 145.933 69.0494 145.959 69.0743C146.775 69.7937 147.114 70.9234 146.966 72.4207C146.695 74.4961 145.766 76.4284 144.316 77.9306C144.265 77.9769 144.199 78.0018 144.131 77.9999Z" fill="#E9F3FF"/>
<path d="M122.456 73.2139C122.456 73.2139 121.823 68.2609 122.049 67.1892C122.275 66.1176 126.572 64.7953 126.572 64.7953L126.453 58.8186C126.455 58.6153 126.536 58.4197 126.681 58.2692C126.826 58.1187 127.025 58.0239 127.239 58.0029C127.46 57.9855 127.679 58.0472 127.853 58.1758C128.027 58.3043 128.143 58.4901 128.178 58.696L129.976 69.1992L131.881 69.6684C132.577 71.7371 130.117 73.2566 127.171 75L122.456 73.2139Z" fill="#ECBDBB"/>
<path d="M126.784 65.0001C129.656 65.0001 131.561 65.721 130.851 69.019C130.14 72.317 126.671 72.3493 125.721 71.6068C124.772 70.8644 124.825 69.1481 124.825 69.1481C124.825 69.1481 121.941 68.976 122.001 67.4104C122.061 65.8448 124.975 64.9893 126.784 65.0001Z" fill="#ECBDBB"/>
<path d="M126.761 71H126.74C126.712 70.9962 126.685 70.9844 126.66 70.9654C126.636 70.9463 126.614 70.9204 126.596 70.8891C126.578 70.8577 126.565 70.8216 126.557 70.7829C126.549 70.7441 126.547 70.7034 126.55 70.6631C126.601 70.0809 126.573 69.4896 126.465 68.9236C126.405 68.6679 126.302 68.4373 126.167 68.2516C126.031 68.0659 125.867 67.9308 125.687 67.8579L125.159 67.6251C125.131 67.6135 125.105 67.594 125.083 67.5678C125.06 67.5417 125.041 67.5093 125.027 67.4726C125.013 67.4359 125.005 67.3956 125.001 67.354C124.998 67.3124 125.001 67.2703 125.009 67.2301C125.017 67.1898 125.03 67.1523 125.048 67.1196C125.066 67.0869 125.089 67.0597 125.114 67.0395C125.139 67.0193 125.167 67.0066 125.196 67.0019C125.225 66.9973 125.254 67.001 125.281 67.0126L125.81 67.2454C126.056 67.3464 126.281 67.5332 126.466 67.7894C126.651 68.0456 126.79 68.3635 126.871 68.7154C126.996 69.3603 127.031 70.0352 126.972 70.6999C126.971 70.78 126.948 70.8564 126.909 70.9125C126.869 70.9686 126.816 71 126.761 71Z" fill="#404B7C"/>
<path d="M128.761 70H128.74C128.712 69.9962 128.685 69.9844 128.66 69.9654C128.636 69.9463 128.614 69.9204 128.596 69.8891C128.578 69.8577 128.565 69.8216 128.557 69.7829C128.549 69.7441 128.547 69.7034 128.55 69.6631C128.601 69.0809 128.573 68.4895 128.465 67.9236C128.405 67.6676 128.303 67.4367 128.167 67.251C128.032 67.0653 127.867 66.9303 127.687 66.8579L127.159 66.6251C127.131 66.6135 127.105 66.594 127.083 66.5678C127.06 66.5417 127.041 66.5093 127.027 66.4726C126.999 66.3985 126.992 66.3113 127.009 66.2301C127.025 66.1488 127.063 66.0803 127.114 66.0395C127.165 65.9987 127.225 65.9891 127.281 66.0126L127.81 66.2454C128.056 66.3464 128.281 66.5331 128.466 66.7894C128.651 67.0456 128.79 67.3635 128.871 67.7154C128.996 68.3603 129.031 69.0352 128.972 69.6999C128.971 69.78 128.948 69.8564 128.909 69.9125C128.869 69.9686 128.816 70 128.761 70Z" fill="#404B7C"/>
<path d="M127.319 71.9979C126.747 72.0181 126.183 71.8912 125.721 71.6386C124.959 71.1373 124.819 70.1723 124.791 69.7629C124.225 69.7117 123.676 69.5887 123.165 69.3994C123.13 69.3877 123.099 69.3707 123.073 69.3496C123.047 69.3284 123.027 69.3035 123.015 69.2764C123.003 69.2493 122.998 69.2206 123.001 69.192C123.004 69.1635 123.015 69.1357 123.033 69.1105C123.051 69.0852 123.076 69.063 123.106 69.0452C123.136 69.0274 123.171 69.0144 123.208 69.0071C123.245 68.9997 123.284 68.9981 123.322 69.0023C123.36 69.0066 123.396 69.0166 123.429 69.0318C123.948 69.2172 124.509 69.3305 125.082 69.366C125.155 69.3693 125.223 69.3932 125.272 69.433C125.321 69.4727 125.347 69.5251 125.346 69.5791C125.346 69.5791 125.346 70.8324 126.091 71.3253C126.427 71.4725 126.804 71.5603 127.193 71.5821C127.581 71.6038 127.972 71.5588 128.333 71.4507C129.118 71.2501 130.121 70.7363 130.446 69.4329C130.461 69.3792 130.503 69.3319 130.564 69.3007C130.624 69.2696 130.699 69.2571 130.771 69.2658C130.844 69.2759 130.908 69.3071 130.95 69.3525C130.992 69.3979 131.009 69.4538 130.996 69.5081C130.914 70.0308 130.638 70.5262 130.199 70.9387C129.761 71.3512 129.177 71.6645 128.513 71.8434C128.129 71.9434 127.725 71.9957 127.319 71.9979Z" fill="#404B7C"/>
<path d="M130.745 69.0011C129.968 68.9534 128.841 70.4095 128.184 71.3882C128.112 71.4938 128.059 71.615 128.029 71.7444C127.999 71.8738 127.992 72.0088 128.009 72.1414C128.025 72.274 128.065 72.4014 128.126 72.516C128.186 72.6306 128.266 72.73 128.361 72.8084C128.493 72.9182 128.648 72.9836 128.81 72.9973C128.973 73.011 129.135 72.9725 129.279 72.886C129.9 72.5101 130.974 71.8536 131.558 71.4299C132.419 70.7914 131.955 69.0668 130.745 69.0011Z" fill="#ECBDBB"/>
<path d="M128.237 72.9986C128.005 72.9979 127.779 72.9377 127.583 72.8249C127.386 72.712 127.228 72.5509 127.127 72.3599C127.025 72.1689 126.983 71.9555 127.006 71.7438C127.029 71.5321 127.117 71.3306 127.258 71.162C128.003 70.283 129.079 69.1946 129.962 69.0063C129.999 68.9987 130.038 68.998 130.075 69.0041C130.113 69.0103 130.149 69.0232 130.181 69.0422C130.213 69.0611 130.241 69.0857 130.263 69.1146C130.285 69.1434 130.301 69.176 130.309 69.2103C130.317 69.2447 130.318 69.2802 130.311 69.3148C130.304 69.3495 130.29 69.3825 130.27 69.4122C130.249 69.4418 130.222 69.4674 130.191 69.4876C130.16 69.5077 130.124 69.5219 130.087 69.5295C129.518 69.6446 128.664 70.3615 127.702 71.4969C127.646 71.561 127.605 71.635 127.582 71.7142C127.558 71.7934 127.553 71.8761 127.565 71.9574C127.58 72.0549 127.621 72.1476 127.683 72.2278C127.745 72.308 127.827 72.3733 127.923 72.4184C128.018 72.4635 128.123 72.4869 128.231 72.4868C128.338 72.4867 128.443 72.4631 128.539 72.4178C129.005 72.1928 129.882 71.7585 130.548 71.4027C130.58 71.3812 130.617 71.3661 130.656 71.3585C130.695 71.3508 130.735 71.3508 130.774 71.3583C130.813 71.3659 130.85 71.3809 130.882 71.4023C130.914 71.4237 130.941 71.4512 130.961 71.4828C130.981 71.5145 130.994 71.5496 130.998 71.586C131.003 71.6224 130.999 71.6592 130.986 71.6941C130.974 71.729 130.954 71.7611 130.928 71.7884C130.901 71.8157 130.869 71.8377 130.833 71.8527C130.195 72.1928 129.375 72.601 128.806 72.8992C128.628 72.9734 128.432 73.0075 128.237 72.9986Z" fill="#404B7C"/>
<path d="M128.411 89.0091C127.563 95.964 125.189 101.245 122.547 103.969C119.905 106.693 116.737 106.865 114.599 103.333C114.155 102.574 113.817 101.757 113.595 100.906C111.382 92.8311 115.818 77.823 119.073 74.6093C119.82 73.9071 120.736 73.4107 121.732 73.1682C122.727 72.9258 123.769 72.9457 124.754 73.2259C128.298 74.2594 129.979 76.3265 128.411 89.0091Z" fill="#404B7C"/>
<path d="M124.242 102C124.197 102 124.154 101.986 124.117 101.961C124.079 101.936 124.048 101.901 124.028 101.858C124.007 101.816 123.998 101.768 124 101.721C124.003 101.673 124.017 101.627 124.042 101.587C125.991 98.4795 127.404 93.932 127.984 88.7809C129.445 75.9907 127.677 74.4449 124.841 73.5396C124.776 73.5199 124.721 73.4732 124.689 73.4096C124.656 73.3461 124.647 73.271 124.665 73.2008C124.684 73.1306 124.727 73.071 124.785 73.0353C124.844 72.9996 124.913 72.9905 124.977 73.0102C128.495 74.1325 129.85 76.6789 128.466 88.8233C127.876 94.0537 126.449 98.686 124.441 101.862C124.422 101.902 124.393 101.935 124.358 101.959C124.323 101.983 124.283 101.997 124.242 102Z" fill="#E9F3FF"/>
<path d="M122.993 101.905C123.018 102.594 122.977 103.284 122.871 103.965C120.151 106.727 117.113 106.828 114.995 103.337C114.555 102.586 114.22 101.778 114 100.936C114.266 97.6313 116.017 95.082 118.225 95.0022C120.721 94.9064 122.855 98.0039 122.993 101.905Z" fill="#E9F3FF"/>
<path d="M170.892 116L170.578 118.132L171.186 118.665L171.991 118.132C172.102 118.062 172.23 118.027 172.359 118.034C172.488 118.041 172.612 118.088 172.717 118.17C172.86 118.279 172.958 118.446 172.989 118.634C173.021 118.821 172.983 119.015 172.884 119.172L171.986 120.995C171.986 120.995 168.179 122.061 168.159 121.997C168.14 121.933 167.1 117.557 167.002 116.848C166.904 116.139 170.892 116 170.892 116Z" fill="#404B7C"/>
<path d="M164.339 114.199C164.339 114.199 162.767 118.889 163.029 119.621C163.291 120.353 168.28 123.725 169 123.985C169.519 124.17 170.998 122.581 171.795 121.665C171.938 121.501 172.011 121.288 171.999 121.071C171.986 120.855 171.89 120.651 171.729 120.504C171.595 120.379 171.423 120.3 171.24 120.281C171.057 120.261 170.872 120.302 170.714 120.396L169.623 121.047L167.816 119.187C168.085 117.978 168.216 116.743 168.209 115.505C168.144 113.803 165.322 111.591 164.339 114.199Z" fill="#ECBDBB"/>
<path d="M181.085 103.578C179.613 108.511 176.606 114.213 173.605 116.036C169.082 118.777 163.756 115.181 163.49 111.413C163.224 107.645 166.773 100.724 166.773 100.724C166.773 100.724 159.492 93.0875 155.573 85.782C151.653 78.4764 155.921 70.77 159.033 72.1649C165.937 75.2592 176.041 86.6798 180.133 93.3708C181.146 95.0168 181.794 96.3742 181.927 97.256C182.165 98.7791 181.805 101.077 181.085 103.578Z" fill="#404B7C"/>
<path d="M165.192 114.996C165.156 114.997 165.12 114.99 165.087 114.976C165.053 114.963 165.023 114.942 164.997 114.917C163.995 113.954 163.371 112.676 163.234 111.308C162.991 107.826 165.852 101.826 166.388 100.725C165.419 99.6668 159.058 92.682 155.569 86.0464C152.696 80.6278 154.27 75.2093 156.299 73.0979C156.322 73.0698 156.351 73.0466 156.384 73.0298C156.417 73.0131 156.453 73.0032 156.49 73.0006C156.527 72.9981 156.564 73.0031 156.599 73.0152C156.634 73.0273 156.666 73.0463 156.693 73.071C156.721 73.0957 156.742 73.1256 156.757 73.1589C156.772 73.1921 156.779 73.228 156.779 73.2643C156.78 73.3005 156.772 73.3364 156.757 73.3697C156.742 73.403 156.721 73.433 156.694 73.4578C154.773 75.458 153.302 80.6119 156.05 85.803C159.804 92.8989 166.869 100.424 166.929 100.503C166.966 100.542 166.99 100.592 166.997 100.645C167.005 100.697 166.996 100.751 166.972 100.799C166.939 100.868 163.537 107.647 163.791 111.261C163.923 112.505 164.497 113.664 165.414 114.536C165.458 114.574 165.489 114.625 165.501 114.681C165.513 114.738 165.506 114.796 165.481 114.848C165.456 114.9 165.414 114.943 165.362 114.97C165.31 114.996 165.25 115.006 165.192 114.996Z" fill="#E9F3FF"/>
<path d="M181.081 104C178.835 104 177.016 101.513 177 98.4481C177 95.7933 178.335 93.5656 180.159 93C181.164 94.7775 181.806 96.2434 181.938 97.1957C182.152 98.8174 181.795 101.299 181.081 104Z" fill="#E9F3FF"/>
<path d="M167.267 101C167.213 101.001 167.16 100.982 167.115 100.948C167.07 100.913 167.036 100.864 167.017 100.806C166.998 100.749 166.995 100.687 167.008 100.627C167.022 100.568 167.051 100.515 167.093 100.475C167.204 100.368 169.863 97.8139 174.746 98.0108C174.78 98.0124 174.815 98.0216 174.846 98.038C174.878 98.0545 174.906 98.0778 174.93 98.1066C174.953 98.1354 174.972 98.1692 174.984 98.206C174.996 98.2428 175.001 98.2819 175 98.3211C175 98.3608 174.993 98.4001 174.979 98.4365C174.965 98.4729 174.944 98.5056 174.918 98.5325C174.892 98.5594 174.862 98.58 174.828 98.5929C174.795 98.6058 174.76 98.6108 174.724 98.6075C170.053 98.4285 167.463 100.899 167.437 100.922C167.39 100.97 167.33 100.998 167.267 101Z" fill="#E9F3FF"/>
<path d="M144 70.8446C144 70.8446 143.229 72.0557 142.211 71.998C141.193 71.9403 141 71.306 141 71.306L141.05 69.9604L141.11 68.1245L143.895 67L143.927 68.0621L144 70.8446Z" fill="#ECBDBB"/>
<path d="M144 68.0812C143.589 68.9821 142.746 69.888 141 70L141.062 68.1396L143.967 67L144 68.0812Z" fill="#404B7C"/>
<path d="M149 58C151.209 58 153 55.9853 153 53.5C153 51.0147 151.209 49 149 49C146.791 49 145 51.0147 145 53.5C145 55.9853 146.791 58 149 58Z" fill="#404B7C"/>
<path d="M140.494 54.2321C136.15 55.2169 136.449 63.5019 138.208 66.446C139.968 69.39 145.192 68.0092 146.43 63.5019C147.869 58.3017 146.826 52.794 140.494 54.2321Z" fill="#ECBDBB"/>
<path d="M143.075 57.0444C143.774 57.866 144.227 58.9052 144.374 60.0211C144.471 60.5782 144.741 61.0803 145.138 61.4414C145.534 61.8025 146.031 62 146.545 62C146.545 62 149.938 61.3777 148.746 55.0935C148.041 51.3712 142.984 49.0615 139.083 53.2043C135.182 57.3471 143.075 57.0444 143.075 57.0444Z" fill="#404B7C"/>
<path d="M146.252 62.0002C146.252 62.0002 146.829 59.5419 149.002 60.0759C151.174 60.6099 149.634 65.281 146 63.6598L146.252 62.0002Z" fill="#ECBDBB"/>
<path d="M146.264 63H146.232C146.163 62.9912 146.101 62.9523 146.057 62.892C146.014 62.8316 145.994 62.7546 146.001 62.6778C146.091 61.9385 146.417 61.2603 146.919 60.7683C147.421 60.2764 148.065 60.0037 148.733 60.0006C148.767 59.9981 148.802 60.0038 148.835 60.0172C148.868 60.0306 148.898 60.0514 148.923 60.0784C148.948 60.1054 148.968 60.1379 148.981 60.174C148.994 60.21 149.001 60.2487 149 60.2876C149.001 60.3261 148.995 60.3643 148.982 60.4002C148.969 60.436 148.951 60.4687 148.927 60.4965C148.903 60.5242 148.875 60.5464 148.843 60.5619C148.811 60.5773 148.778 60.5856 148.743 60.5864C148.2 60.58 147.674 60.7966 147.264 61.195C146.854 61.5935 146.59 62.1461 146.52 62.7481C146.512 62.8175 146.481 62.881 146.434 62.9273C146.387 62.9735 146.326 62.9993 146.264 63Z" fill="#404B7C"/>
<path d="M147.781 63C147.719 63 147.659 62.9705 147.614 62.9178C147.57 62.8651 147.544 62.7934 147.543 62.7181C147.498 62.2566 147.331 61.8249 147.066 61.4869C147.044 61.4589 147.027 61.4258 147.015 61.3894C147.004 61.3531 146.999 61.3144 147 61.2756C147.002 61.2368 147.009 61.1987 147.023 61.1637C147.037 61.1287 147.057 61.0974 147.081 61.0717C147.105 61.0461 147.133 61.0266 147.164 61.0144C147.194 61.0023 147.226 60.9977 147.258 61.0011C147.291 61.0044 147.322 61.0155 147.35 61.0337C147.378 61.052 147.403 61.077 147.424 61.1072C147.756 61.547 147.959 62.1074 148 62.7008C148.001 62.7386 147.995 62.7762 147.984 62.8114C147.972 62.8466 147.955 62.8787 147.934 62.9059C147.912 62.9332 147.886 62.955 147.857 62.9702C147.829 62.9853 147.798 62.9935 147.767 62.9943L147.781 63Z" fill="#404B7C"/>
<path d="M135 59.6559C138.045 59.1944 141.141 59.3108 144.149 60C144.149 60 144.881 57.0007 146 55.8307C146 55.8307 145.178 51.2428 139.975 52.1088C135.127 52.9002 135 59.6559 135 59.6559Z" fill="#404B7C"/>
<path d="M143 61C142.849 60.7364 142.62 60.5071 142.332 60.3329C142.044 60.1586 141.707 60.0448 141.351 60.0016C141.115 59.9644 141 60.5753 141 60.5753C141.695 60.6076 142.375 60.752 143 61Z" fill="#404B7C"/>
<path d="M137 61C137.154 60.7702 137.379 60.5633 137.661 60.392C137.942 60.2207 138.275 60.0886 138.638 60.0038C139.034 59.9407 138.999 60.6845 138.999 60.6845C138.298 60.6482 137.597 60.7588 137 61Z" fill="#404B7C"/>
<path d="M142.162 62.9418C142.198 62.5381 141.963 62.1869 141.637 62.1574C141.31 62.1278 141.016 62.4311 140.979 62.8348C140.943 63.2384 141.178 63.5896 141.504 63.6192C141.831 63.6487 142.125 63.3454 142.162 62.9418Z" fill="#404B7C"/>
<path d="M141.62 62.6348C141.628 62.5487 141.565 62.4726 141.479 62.4649C141.393 62.4571 141.317 62.5205 141.309 62.6066C141.301 62.6927 141.364 62.7688 141.451 62.7766C141.537 62.7843 141.613 62.7209 141.62 62.6348Z" fill="white"/>
<path d="M139.012 61.8539C139.048 61.4486 138.812 61.0961 138.484 61.0666C138.157 61.0371 137.861 61.3417 137.825 61.7471C137.788 62.1524 138.025 62.5049 138.352 62.5344C138.68 62.5639 138.976 62.2592 139.012 61.8539Z" fill="#404B7C"/>
<path d="M138.141 62.3172C138.148 62.2311 138.085 62.155 137.999 62.1472C137.913 62.1394 137.837 62.2029 137.829 62.289C137.821 62.375 137.884 62.4511 137.971 62.4589C138.057 62.4667 138.133 62.4032 138.141 62.3172Z" fill="white"/>
<path d="M139.433 64.9941C139.136 65.0189 138.836 64.9654 138.583 64.8421C138.329 64.7188 138.136 64.533 138.035 64.3142C137.769 63.6017 139.112 62.3399 139.384 62.0952C139.444 62.0404 139.53 62.0064 139.623 62.0008C139.715 61.9952 139.807 62.0184 139.877 62.0653C139.948 62.1122 139.991 62.1789 139.999 62.2508C140.006 62.3227 139.976 62.3939 139.916 62.4487C139.216 63.047 138.601 63.8791 138.706 64.1565C138.811 64.4339 139.587 64.4339 139.594 64.4339C139.64 64.4285 139.687 64.4302 139.732 64.439C139.777 64.4477 139.819 64.4632 139.857 64.4847C139.894 64.5061 139.925 64.5331 139.949 64.5641C139.973 64.595 139.989 64.6293 139.996 64.665C140.003 64.7007 140.001 64.7372 139.99 64.7722C139.978 64.8072 139.958 64.8402 139.931 64.8693C139.903 64.8983 139.869 64.9228 139.829 64.9415C139.789 64.9601 139.745 64.9724 139.699 64.9778C139.611 64.988 139.522 64.9935 139.433 64.9941Z" fill="#404B7C"/>
<path d="M139 66.6117C139 66.6117 140.608 67.8084 142 66L139 66.6117Z" fill="white"/>
</svg>
