<svg width="142" height="155" viewBox="0 0 142 155" fill="none" xmlns="http://www.w3.org/2000/svg">
<path fill-rule="evenodd" clip-rule="evenodd" d="M71 98C84.8071 98 96 86.8071 96 73C96 59.1929 84.8071 48 71 48C57.1929 48 46 59.1929 46 73C46 86.8071 57.1929 98 71 98ZM64.6368 74.8561C64.6053 74.8877 64.5658 74.9035 64.5184 74.9035H62.0553C62.0079 74.9035 61.9605 74.8877 61.9132 74.8561C61.8816 74.8088 61.8737 74.7614 61.8895 74.714L63.2632 68.5325C63.2632 68.5167 63.2711 68.5088 63.2868 68.5088C63.3026 68.5088 63.3105 68.5167 63.3105 68.5325L64.6842 74.714C64.7 74.7614 64.6842 74.8088 64.6368 74.8561ZM70.8658 80.493L66.2237 65.7614C66.0974 65.3825 65.8684 65.0746 65.5368 64.8377C65.2211 64.6009 64.8658 64.4825 64.4711 64.4825H62.1974C61.7868 64.4825 61.4158 64.6009 61.0842 64.8377C60.7684 65.0746 60.5553 65.3825 60.4447 65.7614L55.8026 80.493C55.7079 80.8088 55.7553 81.1009 55.9447 81.3693C56.15 81.6377 56.4184 81.7719 56.75 81.7719H58.9763C59.3711 81.7719 59.7184 81.6535 60.0184 81.4167C60.3342 81.164 60.5316 80.8482 60.6105 80.4693L61.0132 78.6456C61.0289 78.5193 61.1158 78.4561 61.2737 78.4561H65.3237C65.45 78.4561 65.5289 78.5193 65.5605 78.6456L65.9632 80.4693C66.0421 80.8482 66.2316 81.164 66.5316 81.4167C66.8474 81.6535 67.2026 81.7719 67.5974 81.7719H69.9184C70.25 81.7719 70.5105 81.6377 70.7 81.3693C70.9053 81.1009 70.9605 80.8088 70.8658 80.493ZM80.032 73.0798C80.4425 73.443 80.6477 73.8535 80.6477 74.3114V76.9167C80.6477 77.3746 80.4425 77.7851 80.032 78.1482C79.6372 78.5114 79.1714 78.693 78.6346 78.693C78.0188 78.693 77.5293 78.4403 77.1662 77.9351C76.803 77.414 76.6214 76.6404 76.6214 75.614C76.6214 73.5614 77.2925 72.5351 78.6346 72.5351C79.1714 72.5351 79.6372 72.7167 80.032 73.0798ZM84.6267 64.4114C84.3583 64.143 84.0425 64.0088 83.6793 64.0088H81.8793C81.5162 64.0088 81.2004 64.143 80.9319 64.4114C80.6635 64.6798 80.5293 64.9956 80.5293 65.3588V70.6167C80.5293 70.6325 80.5214 70.6404 80.5056 70.6404C80.4898 70.6404 80.4741 70.6325 80.4583 70.6167C79.4004 69.6851 78.2398 69.2193 76.9767 69.2193C75.5241 69.2193 74.3714 69.7719 73.5188 70.8772C72.6662 71.9667 72.2398 73.5456 72.2398 75.614C72.2398 77.6351 72.6819 79.2061 73.5662 80.3272C74.4662 81.4482 75.603 82.0088 76.9767 82.0088C78.5083 82.0088 79.7556 81.4167 80.7188 80.2325C80.7346 80.2167 80.7504 80.2088 80.7662 80.2088C80.782 80.2088 80.7898 80.2167 80.7898 80.2325V80.4219C80.8056 80.8009 80.9477 81.1246 81.2162 81.393C81.4846 81.6456 81.8083 81.7719 82.1872 81.7719H83.6793C84.0425 81.7719 84.3583 81.6377 84.6267 81.3693C84.8951 81.1009 85.0293 80.7851 85.0293 80.4219V65.3588C85.0293 64.9956 84.8951 64.6798 84.6267 64.4114Z" fill="#000728"/>
<path d="M71.7442 7.3125C75.9083 7.3125 77.4523 8.90625 77.5926 11.25H82.7626C82.5989 8.025 80.1425 5.0625 75.2533 4.10625V0H68.2352V4.05C67.3228 4.2 66.4807 4.44375 65.6619 4.725L69.1943 7.55625C69.9429 7.40625 70.8085 7.3125 71.7442 7.3125ZM55.2985 1.725L52 4.36875L60.0474 10.8188C60.0474 14.7188 63.6968 16.8563 69.1943 18.15L77.4055 24.7313C76.6101 25.65 74.9492 26.4375 71.7442 26.4375C66.9251 26.4375 65.0303 24.7125 64.7729 22.5H59.6263C59.907 26.6063 63.7436 28.9125 68.2352 29.6812V33.75H75.2533V29.7188C77.4991 29.3813 79.5343 28.6875 81.0081 27.6187L86.2015 31.7813L89.5 29.1375L55.2985 1.725Z" fill="#000728"/>
<path d="M25.3691 109.625V121H23.8534L18.1269 112.227V121H16.6191V109.625H18.1269L23.8769 118.422V109.625H25.3691ZM31.65 121.156C31.0615 121.156 30.5276 121.057 30.0484 120.859C29.5745 120.656 29.1656 120.372 28.8219 120.008C28.4833 119.643 28.2229 119.211 28.0406 118.711C27.8583 118.211 27.7672 117.664 27.7672 117.07V116.742C27.7672 116.055 27.8688 115.443 28.0719 114.906C28.275 114.365 28.551 113.906 28.9 113.531C29.249 113.156 29.6448 112.872 30.0875 112.68C30.5302 112.487 30.9885 112.391 31.4625 112.391C32.0667 112.391 32.5875 112.495 33.025 112.703C33.4677 112.911 33.8297 113.203 34.1109 113.578C34.3922 113.948 34.6005 114.385 34.7359 114.891C34.8714 115.391 34.9391 115.938 34.9391 116.531V117.18H28.6266V116H33.4938V115.891C33.4729 115.516 33.3948 115.151 33.2594 114.797C33.1292 114.443 32.9208 114.151 32.6344 113.922C32.3479 113.693 31.9573 113.578 31.4625 113.578C31.1344 113.578 30.8323 113.648 30.5563 113.789C30.2802 113.924 30.0432 114.128 29.8453 114.398C29.6474 114.669 29.4938 115 29.3844 115.391C29.275 115.781 29.2203 116.232 29.2203 116.742V117.07C29.2203 117.471 29.275 117.849 29.3844 118.203C29.499 118.552 29.663 118.859 29.8766 119.125C30.0953 119.391 30.3583 119.599 30.6656 119.75C30.9781 119.901 31.3323 119.977 31.7281 119.977C32.2385 119.977 32.6708 119.872 33.025 119.664C33.3792 119.456 33.6891 119.177 33.9547 118.828L34.8297 119.523C34.6474 119.799 34.4156 120.062 34.1344 120.312C33.8531 120.562 33.5068 120.766 33.0953 120.922C32.6891 121.078 32.2073 121.156 31.65 121.156ZM38.3841 114.227V121H36.9309V112.547H38.3059L38.3841 114.227ZM38.0872 116.453L37.4153 116.43C37.4205 115.852 37.496 115.318 37.6419 114.828C37.7877 114.333 38.0039 113.904 38.2903 113.539C38.5768 113.174 38.9335 112.893 39.3606 112.695C39.7877 112.492 40.2825 112.391 40.845 112.391C41.2408 112.391 41.6054 112.448 41.9388 112.562C42.2721 112.672 42.5611 112.846 42.8059 113.086C43.0507 113.326 43.2408 113.633 43.3763 114.008C43.5117 114.383 43.5794 114.836 43.5794 115.367V121H42.1341V115.438C42.1341 114.995 42.0585 114.641 41.9075 114.375C41.7617 114.109 41.5533 113.917 41.2825 113.797C41.0117 113.672 40.694 113.609 40.3294 113.609C39.9023 113.609 39.5455 113.685 39.2591 113.836C38.9726 113.987 38.7434 114.195 38.5716 114.461C38.3997 114.727 38.2747 115.031 38.1966 115.375C38.1236 115.714 38.0872 116.073 38.0872 116.453ZM43.5638 115.656L42.595 115.953C42.6002 115.49 42.6757 115.044 42.8216 114.617C42.9726 114.19 43.1888 113.81 43.47 113.477C43.7565 113.143 44.108 112.88 44.5247 112.688C44.9414 112.49 45.4179 112.391 45.9544 112.391C46.4075 112.391 46.8085 112.451 47.1575 112.57C47.5117 112.69 47.8085 112.875 48.0481 113.125C48.2929 113.37 48.4778 113.685 48.6028 114.07C48.7278 114.456 48.7903 114.914 48.7903 115.445V121H47.3372V115.43C47.3372 114.956 47.2617 114.589 47.1106 114.328C46.9648 114.062 46.7565 113.878 46.4856 113.773C46.22 113.664 45.9023 113.609 45.5325 113.609C45.2148 113.609 44.9335 113.664 44.6888 113.773C44.444 113.883 44.2382 114.034 44.0716 114.227C43.9049 114.414 43.7773 114.63 43.6888 114.875C43.6054 115.12 43.5638 115.38 43.5638 115.656ZM50.915 116.867V116.688C50.915 116.078 51.0035 115.513 51.1806 114.992C51.3577 114.466 51.6129 114.01 51.9463 113.625C52.2796 113.234 52.6832 112.932 53.1572 112.719C53.6311 112.5 54.1624 112.391 54.7509 112.391C55.3447 112.391 55.8785 112.5 56.3525 112.719C56.8317 112.932 57.2379 113.234 57.5713 113.625C57.9098 114.01 58.1676 114.466 58.3447 114.992C58.5218 115.513 58.6103 116.078 58.6103 116.688V116.867C58.6103 117.477 58.5218 118.042 58.3447 118.562C58.1676 119.083 57.9098 119.539 57.5713 119.93C57.2379 120.315 56.8343 120.617 56.3603 120.836C55.8916 121.049 55.3603 121.156 54.7666 121.156C54.1728 121.156 53.639 121.049 53.165 120.836C52.691 120.617 52.2848 120.315 51.9463 119.93C51.6129 119.539 51.3577 119.083 51.1806 118.562C51.0035 118.042 50.915 117.477 50.915 116.867ZM52.3603 116.688V116.867C52.3603 117.289 52.4098 117.688 52.5088 118.062C52.6077 118.432 52.7561 118.76 52.9541 119.047C53.1572 119.333 53.4098 119.56 53.7119 119.727C54.014 119.888 54.3655 119.969 54.7666 119.969C55.1624 119.969 55.5088 119.888 55.8056 119.727C56.1077 119.56 56.3577 119.333 56.5556 119.047C56.7535 118.76 56.902 118.432 57.0009 118.062C57.1051 117.688 57.1572 117.289 57.1572 116.867V116.688C57.1572 116.271 57.1051 115.878 57.0009 115.508C56.902 115.133 56.7509 114.802 56.5478 114.516C56.3499 114.224 56.0999 113.995 55.7978 113.828C55.5009 113.661 55.152 113.578 54.7509 113.578C54.3551 113.578 54.0061 113.661 53.7041 113.828C53.4072 113.995 53.1572 114.224 52.9541 114.516C52.7561 114.802 52.6077 115.133 52.5088 115.508C52.4098 115.878 52.3603 116.271 52.3603 116.688ZM62.1959 109V121H60.7428V109H62.1959ZM67.36 112.547L63.6725 116.492L61.61 118.633L61.4928 117.094L62.9694 115.328L65.5944 112.547H67.36ZM66.0397 121L63.0241 116.969L63.7741 115.68L67.7428 121H66.0397ZM74.1566 119.555V115.203C74.1566 114.87 74.0889 114.581 73.9534 114.336C73.8232 114.086 73.6253 113.893 73.3597 113.758C73.0941 113.622 72.7659 113.555 72.3753 113.555C72.0107 113.555 71.6904 113.617 71.4144 113.742C71.1435 113.867 70.93 114.031 70.7738 114.234C70.6227 114.438 70.5472 114.656 70.5472 114.891H69.1019C69.1019 114.589 69.18 114.289 69.3363 113.992C69.4925 113.695 69.7165 113.427 70.0081 113.188C70.305 112.943 70.6592 112.75 71.0706 112.609C71.4873 112.464 71.9508 112.391 72.4613 112.391C73.0758 112.391 73.6175 112.495 74.0863 112.703C74.5602 112.911 74.93 113.227 75.1956 113.648C75.4665 114.065 75.6019 114.589 75.6019 115.219V119.156C75.6019 119.438 75.6253 119.737 75.6722 120.055C75.7243 120.372 75.7998 120.646 75.8988 120.875V121H74.3909C74.318 120.833 74.2607 120.612 74.2191 120.336C74.1774 120.055 74.1566 119.794 74.1566 119.555ZM74.4066 115.875L74.4222 116.891H72.9613C72.5498 116.891 72.1826 116.924 71.8597 116.992C71.5368 117.055 71.2659 117.151 71.0472 117.281C70.8284 117.411 70.6618 117.576 70.5472 117.773C70.4326 117.966 70.3753 118.193 70.3753 118.453C70.3753 118.719 70.4352 118.961 70.555 119.18C70.6748 119.398 70.8545 119.573 71.0941 119.703C71.3389 119.828 71.6383 119.891 71.9925 119.891C72.4352 119.891 72.8258 119.797 73.1644 119.609C73.5029 119.422 73.7711 119.193 73.9691 118.922C74.1722 118.651 74.2816 118.388 74.2972 118.133L74.9144 118.828C74.8779 119.047 74.779 119.289 74.6175 119.555C74.456 119.82 74.2399 120.076 73.9691 120.32C73.7034 120.56 73.3857 120.76 73.0159 120.922C72.6514 121.078 72.2399 121.156 71.7816 121.156C71.2086 121.156 70.706 121.044 70.2738 120.82C69.8467 120.596 69.5133 120.297 69.2738 119.922C69.0394 119.542 68.9222 119.117 68.9222 118.648C68.9222 118.195 69.0107 117.797 69.1878 117.453C69.3649 117.104 69.6201 116.815 69.9534 116.586C70.2868 116.352 70.6878 116.174 71.1566 116.055C71.6253 115.935 72.1488 115.875 72.7269 115.875H74.4066ZM79.6328 114.227V121H78.1797V112.547H79.5547L79.6328 114.227ZM79.3359 116.453L78.6641 116.43C78.6693 115.852 78.7448 115.318 78.8906 114.828C79.0365 114.333 79.2526 113.904 79.5391 113.539C79.8255 113.174 80.1823 112.893 80.6094 112.695C81.0365 112.492 81.5312 112.391 82.0938 112.391C82.4896 112.391 82.8542 112.448 83.1875 112.562C83.5208 112.672 83.8099 112.846 84.0547 113.086C84.2995 113.326 84.4896 113.633 84.625 114.008C84.7604 114.383 84.8281 114.836 84.8281 115.367V121H83.3828V115.438C83.3828 114.995 83.3073 114.641 83.1562 114.375C83.0104 114.109 82.8021 113.917 82.5312 113.797C82.2604 113.672 81.9427 113.609 81.5781 113.609C81.151 113.609 80.7943 113.685 80.5078 113.836C80.2214 113.987 79.9922 114.195 79.8203 114.461C79.6484 114.727 79.5234 115.031 79.4453 115.375C79.3724 115.714 79.3359 116.073 79.3359 116.453ZM84.8125 115.656L83.8438 115.953C83.849 115.49 83.9245 115.044 84.0703 114.617C84.2214 114.19 84.4375 113.81 84.7188 113.477C85.0052 113.143 85.3568 112.88 85.7734 112.688C86.1901 112.49 86.6667 112.391 87.2031 112.391C87.6562 112.391 88.0573 112.451 88.4062 112.57C88.7604 112.69 89.0573 112.875 89.2969 113.125C89.5417 113.37 89.7266 113.685 89.8516 114.07C89.9766 114.456 90.0391 114.914 90.0391 115.445V121H88.5859V115.43C88.5859 114.956 88.5104 114.589 88.3594 114.328C88.2135 114.062 88.0052 113.878 87.7344 113.773C87.4688 113.664 87.151 113.609 86.7812 113.609C86.4635 113.609 86.1823 113.664 85.9375 113.773C85.6927 113.883 85.487 114.034 85.3203 114.227C85.1536 114.414 85.026 114.63 84.9375 114.875C84.8542 115.12 84.8125 115.38 84.8125 115.656ZM97.5309 119.555V115.203C97.5309 114.87 97.4632 114.581 97.3278 114.336C97.1976 114.086 96.9997 113.893 96.7341 113.758C96.4684 113.622 96.1403 113.555 95.7497 113.555C95.3851 113.555 95.0648 113.617 94.7887 113.742C94.5179 113.867 94.3044 114.031 94.1481 114.234C93.9971 114.438 93.9216 114.656 93.9216 114.891H92.4762C92.4762 114.589 92.5544 114.289 92.7106 113.992C92.8669 113.695 93.0908 113.427 93.3825 113.188C93.6794 112.943 94.0335 112.75 94.445 112.609C94.8617 112.464 95.3252 112.391 95.8356 112.391C96.4502 112.391 96.9919 112.495 97.4606 112.703C97.9346 112.911 98.3044 113.227 98.57 113.648C98.8408 114.065 98.9762 114.589 98.9762 115.219V119.156C98.9762 119.438 98.9997 119.737 99.0466 120.055C99.0986 120.372 99.1742 120.646 99.2731 120.875V121H97.7653C97.6924 120.833 97.6351 120.612 97.5934 120.336C97.5518 120.055 97.5309 119.794 97.5309 119.555ZM97.7809 115.875L97.7966 116.891H96.3356C95.9242 116.891 95.557 116.924 95.2341 116.992C94.9111 117.055 94.6403 117.151 94.4216 117.281C94.2028 117.411 94.0361 117.576 93.9216 117.773C93.807 117.966 93.7497 118.193 93.7497 118.453C93.7497 118.719 93.8096 118.961 93.9294 119.18C94.0492 119.398 94.2289 119.573 94.4684 119.703C94.7132 119.828 95.0127 119.891 95.3669 119.891C95.8096 119.891 96.2002 119.797 96.5387 119.609C96.8773 119.422 97.1455 119.193 97.3434 118.922C97.5466 118.651 97.6559 118.388 97.6716 118.133L98.2887 118.828C98.2523 119.047 98.1533 119.289 97.9919 119.555C97.8304 119.82 97.6143 120.076 97.3434 120.32C97.0778 120.56 96.7601 120.76 96.3903 120.922C96.0257 121.078 95.6143 121.156 95.1559 121.156C94.583 121.156 94.0804 121.044 93.6481 120.82C93.221 120.596 92.8877 120.297 92.6481 119.922C92.4137 119.542 92.2966 119.117 92.2966 118.648C92.2966 118.195 92.3851 117.797 92.5622 117.453C92.7393 117.104 92.9945 116.815 93.3278 116.586C93.6611 116.352 94.0622 116.174 94.5309 116.055C94.9997 115.935 95.5231 115.875 96.1012 115.875H97.7809ZM103.14 112.547V121H101.687V112.547H103.14ZM101.577 110.305C101.577 110.07 101.648 109.872 101.788 109.711C101.934 109.549 102.148 109.469 102.429 109.469C102.705 109.469 102.916 109.549 103.062 109.711C103.213 109.872 103.288 110.07 103.288 110.305C103.288 110.529 103.213 110.721 103.062 110.883C102.916 111.039 102.705 111.117 102.429 111.117C102.148 111.117 101.934 111.039 101.788 110.883C101.648 110.721 101.577 110.529 101.577 110.305ZM114.991 118.758C114.991 118.549 114.944 118.357 114.85 118.18C114.762 117.997 114.577 117.833 114.296 117.688C114.02 117.536 113.603 117.406 113.046 117.297C112.577 117.198 112.152 117.081 111.772 116.945C111.397 116.81 111.077 116.646 110.811 116.453C110.551 116.26 110.35 116.034 110.21 115.773C110.069 115.513 109.999 115.208 109.999 114.859C109.999 114.526 110.072 114.211 110.217 113.914C110.369 113.617 110.579 113.354 110.85 113.125C111.126 112.896 111.457 112.716 111.842 112.586C112.228 112.456 112.658 112.391 113.132 112.391C113.809 112.391 114.387 112.51 114.866 112.75C115.345 112.99 115.712 113.31 115.967 113.711C116.223 114.107 116.35 114.547 116.35 115.031H114.905C114.905 114.797 114.835 114.57 114.694 114.352C114.559 114.128 114.358 113.943 114.092 113.797C113.832 113.651 113.512 113.578 113.132 113.578C112.731 113.578 112.405 113.641 112.155 113.766C111.91 113.885 111.731 114.039 111.616 114.227C111.507 114.414 111.452 114.612 111.452 114.82C111.452 114.977 111.478 115.117 111.53 115.242C111.587 115.362 111.686 115.474 111.827 115.578C111.967 115.677 112.165 115.771 112.421 115.859C112.676 115.948 113.001 116.036 113.397 116.125C114.09 116.281 114.66 116.469 115.108 116.688C115.556 116.906 115.889 117.174 116.108 117.492C116.327 117.81 116.436 118.195 116.436 118.648C116.436 119.018 116.358 119.357 116.202 119.664C116.051 119.971 115.829 120.237 115.538 120.461C115.251 120.68 114.908 120.852 114.507 120.977C114.111 121.096 113.665 121.156 113.171 121.156C112.426 121.156 111.796 121.023 111.28 120.758C110.764 120.492 110.374 120.148 110.108 119.727C109.842 119.305 109.71 118.859 109.71 118.391H111.163C111.184 118.786 111.298 119.102 111.507 119.336C111.715 119.565 111.97 119.729 112.272 119.828C112.574 119.922 112.874 119.969 113.171 119.969C113.566 119.969 113.897 119.917 114.163 119.812C114.434 119.708 114.639 119.565 114.78 119.383C114.921 119.201 114.991 118.992 114.991 118.758ZM123.827 119.047V112.547H125.28V121H123.897L123.827 119.047ZM124.1 117.266L124.702 117.25C124.702 117.812 124.642 118.333 124.522 118.812C124.407 119.286 124.22 119.698 123.959 120.047C123.699 120.396 123.358 120.669 122.936 120.867C122.514 121.06 122.001 121.156 121.397 121.156C120.985 121.156 120.608 121.096 120.264 120.977C119.926 120.857 119.634 120.672 119.389 120.422C119.144 120.172 118.954 119.846 118.819 119.445C118.689 119.044 118.623 118.562 118.623 118V112.547H120.069V118.016C120.069 118.396 120.11 118.711 120.194 118.961C120.282 119.206 120.399 119.401 120.545 119.547C120.696 119.688 120.863 119.786 121.045 119.844C121.233 119.901 121.426 119.93 121.623 119.93C122.238 119.93 122.725 119.812 123.084 119.578C123.444 119.339 123.702 119.018 123.858 118.617C124.019 118.211 124.1 117.76 124.1 117.266ZM30.2084 133.875V141H28.7631V132.547H30.1694L30.2084 133.875ZM32.8491 132.5L32.8413 133.844C32.7215 133.818 32.6069 133.802 32.4975 133.797C32.3933 133.786 32.2735 133.781 32.1381 133.781C31.8048 133.781 31.5105 133.833 31.2553 133.938C31.0001 134.042 30.784 134.188 30.6069 134.375C30.4298 134.562 30.2892 134.786 30.185 135.047C30.086 135.302 30.0209 135.583 29.9897 135.891L29.5834 136.125C29.5834 135.615 29.6329 135.135 29.7319 134.688C29.836 134.24 29.9949 133.844 30.2084 133.5C30.422 133.151 30.6928 132.88 31.0209 132.688C31.3543 132.49 31.7501 132.391 32.2084 132.391C32.3126 132.391 32.4324 132.404 32.5678 132.43C32.7032 132.451 32.797 132.474 32.8491 132.5ZM37.8566 141.156C37.268 141.156 36.7342 141.057 36.255 140.859C35.781 140.656 35.3722 140.372 35.0284 140.008C34.6899 139.643 34.4295 139.211 34.2472 138.711C34.0649 138.211 33.9738 137.664 33.9738 137.07V136.742C33.9738 136.055 34.0753 135.443 34.2784 134.906C34.4816 134.365 34.7576 133.906 35.1066 133.531C35.4555 133.156 35.8514 132.872 36.2941 132.68C36.7368 132.487 37.1951 132.391 37.6691 132.391C38.2732 132.391 38.7941 132.495 39.2316 132.703C39.6743 132.911 40.0363 133.203 40.3175 133.578C40.5988 133.948 40.8071 134.385 40.9425 134.891C41.0779 135.391 41.1456 135.938 41.1456 136.531V137.18H34.8331V136H39.7003V135.891C39.6795 135.516 39.6014 135.151 39.4659 134.797C39.3357 134.443 39.1274 134.151 38.8409 133.922C38.5545 133.693 38.1639 133.578 37.6691 133.578C37.3409 133.578 37.0389 133.648 36.7628 133.789C36.4868 133.924 36.2498 134.128 36.0519 134.398C35.854 134.669 35.7003 135 35.5909 135.391C35.4816 135.781 35.4269 136.232 35.4269 136.742V137.07C35.4269 137.471 35.4816 137.849 35.5909 138.203C35.7055 138.552 35.8696 138.859 36.0831 139.125C36.3019 139.391 36.5649 139.599 36.8722 139.75C37.1847 139.901 37.5389 139.977 37.9347 139.977C38.4451 139.977 38.8774 139.872 39.2316 139.664C39.5857 139.456 39.8956 139.177 40.1613 138.828L41.0363 139.523C40.854 139.799 40.6222 140.062 40.3409 140.312C40.0597 140.562 39.7133 140.766 39.3019 140.922C38.8956 141.078 38.4139 141.156 37.8566 141.156ZM44.6063 129V141H43.1531V129H44.6063ZM49.7703 132.547L46.0828 136.492L44.0203 138.633L43.9031 137.094L45.3797 135.328L48.0047 132.547H49.7703ZM48.45 141L45.4344 136.969L46.1844 135.68L50.1531 141H48.45ZM53.1528 129V141H51.6997V129H53.1528ZM60.7775 139.555V135.203C60.7775 134.87 60.7098 134.581 60.5744 134.336C60.4442 134.086 60.2463 133.893 59.9806 133.758C59.715 133.622 59.3869 133.555 58.9963 133.555C58.6317 133.555 58.3114 133.617 58.0353 133.742C57.7645 133.867 57.5509 134.031 57.3947 134.234C57.2436 134.438 57.1681 134.656 57.1681 134.891H55.7228C55.7228 134.589 55.8009 134.289 55.9572 133.992C56.1134 133.695 56.3374 133.427 56.6291 133.188C56.9259 132.943 57.2801 132.75 57.6916 132.609C58.1082 132.464 58.5718 132.391 59.0822 132.391C59.6968 132.391 60.2384 132.495 60.7072 132.703C61.1811 132.911 61.5509 133.227 61.8166 133.648C62.0874 134.065 62.2228 134.589 62.2228 135.219V139.156C62.2228 139.438 62.2463 139.737 62.2931 140.055C62.3452 140.372 62.4207 140.646 62.5197 140.875V141H61.0119C60.939 140.833 60.8817 140.612 60.84 140.336C60.7983 140.055 60.7775 139.794 60.7775 139.555ZM61.0275 135.875L61.0431 136.891H59.5822C59.1707 136.891 58.8035 136.924 58.4806 136.992C58.1577 137.055 57.8869 137.151 57.6681 137.281C57.4494 137.411 57.2827 137.576 57.1681 137.773C57.0535 137.966 56.9963 138.193 56.9963 138.453C56.9963 138.719 57.0561 138.961 57.1759 139.18C57.2957 139.398 57.4754 139.573 57.715 139.703C57.9598 139.828 58.2593 139.891 58.6134 139.891C59.0561 139.891 59.4468 139.797 59.7853 139.609C60.1239 139.422 60.3921 139.193 60.59 138.922C60.7931 138.651 60.9025 138.388 60.9181 138.133L61.5353 138.828C61.4989 139.047 61.3999 139.289 61.2384 139.555C61.077 139.82 60.8608 140.076 60.59 140.32C60.3244 140.56 60.0067 140.76 59.6369 140.922C59.2723 141.078 58.8608 141.156 58.4025 141.156C57.8296 141.156 57.327 141.044 56.8947 140.82C56.4676 140.596 56.1343 140.297 55.8947 139.922C55.6603 139.542 55.5431 139.117 55.5431 138.648C55.5431 138.195 55.6317 137.797 55.8088 137.453C55.9858 137.104 56.241 136.815 56.5744 136.586C56.9077 136.352 57.3088 136.174 57.7775 136.055C58.2463 135.935 58.7697 135.875 59.3478 135.875H61.0275ZM66.2537 134.227V141H64.8006V132.547H66.1756L66.2537 134.227ZM65.9569 136.453L65.285 136.43C65.2902 135.852 65.3657 135.318 65.5116 134.828C65.6574 134.333 65.8735 133.904 66.16 133.539C66.4465 133.174 66.8032 132.893 67.2303 132.695C67.6574 132.492 68.1522 132.391 68.7147 132.391C69.1105 132.391 69.4751 132.448 69.8084 132.562C70.1418 132.672 70.4308 132.846 70.6756 133.086C70.9204 133.326 71.1105 133.633 71.2459 134.008C71.3814 134.383 71.4491 134.836 71.4491 135.367V141H70.0037V135.438C70.0037 134.995 69.9282 134.641 69.7772 134.375C69.6314 134.109 69.423 133.917 69.1522 133.797C68.8814 133.672 68.5636 133.609 68.1991 133.609C67.772 133.609 67.4152 133.685 67.1287 133.836C66.8423 133.987 66.6131 134.195 66.4412 134.461C66.2694 134.727 66.1444 135.031 66.0662 135.375C65.9933 135.714 65.9569 136.073 65.9569 136.453ZM71.4334 135.656L70.4647 135.953C70.4699 135.49 70.5454 135.044 70.6912 134.617C70.8423 134.19 71.0584 133.81 71.3397 133.477C71.6261 133.143 71.9777 132.88 72.3944 132.688C72.811 132.49 73.2876 132.391 73.8241 132.391C74.2772 132.391 74.6782 132.451 75.0272 132.57C75.3814 132.69 75.6782 132.875 75.9178 133.125C76.1626 133.37 76.3475 133.685 76.4725 134.07C76.5975 134.456 76.66 134.914 76.66 135.445V141H75.2069V135.43C75.2069 134.956 75.1314 134.589 74.9803 134.328C74.8345 134.062 74.6261 133.878 74.3553 133.773C74.0897 133.664 73.772 133.609 73.4022 133.609C73.0845 133.609 72.8032 133.664 72.5584 133.773C72.3136 133.883 72.1079 134.034 71.9412 134.227C71.7746 134.414 71.647 134.63 71.5584 134.875C71.4751 135.12 71.4334 135.38 71.4334 135.656ZM78.7847 136.867V136.688C78.7847 136.078 78.8732 135.513 79.0503 134.992C79.2274 134.466 79.4826 134.01 79.8159 133.625C80.1493 133.234 80.5529 132.932 81.0269 132.719C81.5008 132.5 82.0321 132.391 82.6206 132.391C83.2144 132.391 83.7482 132.5 84.2222 132.719C84.7013 132.932 85.1076 133.234 85.4409 133.625C85.7795 134.01 86.0373 134.466 86.2144 134.992C86.3915 135.513 86.48 136.078 86.48 136.688V136.867C86.48 137.477 86.3915 138.042 86.2144 138.562C86.0373 139.083 85.7795 139.539 85.4409 139.93C85.1076 140.315 84.704 140.617 84.23 140.836C83.7612 141.049 83.23 141.156 82.6362 141.156C82.0425 141.156 81.5086 141.049 81.0347 140.836C80.5607 140.617 80.1545 140.315 79.8159 139.93C79.4826 139.539 79.2274 139.083 79.0503 138.562C78.8732 138.042 78.7847 137.477 78.7847 136.867ZM80.23 136.688V136.867C80.23 137.289 80.2795 137.688 80.3784 138.062C80.4774 138.432 80.6258 138.76 80.8237 139.047C81.0269 139.333 81.2795 139.56 81.5816 139.727C81.8836 139.888 82.2352 139.969 82.6362 139.969C83.0321 139.969 83.3784 139.888 83.6753 139.727C83.9774 139.56 84.2274 139.333 84.4253 139.047C84.6232 138.76 84.7717 138.432 84.8706 138.062C84.9748 137.688 85.0269 137.289 85.0269 136.867V136.688C85.0269 136.271 84.9748 135.878 84.8706 135.508C84.7717 135.133 84.6206 134.802 84.4175 134.516C84.2196 134.224 83.9696 133.995 83.6675 133.828C83.3706 133.661 83.0217 133.578 82.6206 133.578C82.2248 133.578 81.8758 133.661 81.5737 133.828C81.2769 133.995 81.0269 134.224 80.8237 134.516C80.6258 134.802 80.4774 135.133 80.3784 135.508C80.2795 135.878 80.23 136.271 80.23 136.688ZM90.05 134.227V141H88.5969V132.547H89.9719L90.05 134.227ZM89.7531 136.453L89.0813 136.43C89.0865 135.852 89.162 135.318 89.3078 134.828C89.4536 134.333 89.6698 133.904 89.9563 133.539C90.2427 133.174 90.5995 132.893 91.0266 132.695C91.4536 132.492 91.9484 132.391 92.5109 132.391C92.9068 132.391 93.2714 132.448 93.6047 132.562C93.938 132.672 94.2271 132.846 94.4719 133.086C94.7167 133.326 94.9068 133.633 95.0422 134.008C95.1776 134.383 95.2453 134.836 95.2453 135.367V141H93.8V135.438C93.8 134.995 93.7245 134.641 93.5734 134.375C93.4276 134.109 93.2193 133.917 92.9484 133.797C92.6776 133.672 92.3599 133.609 91.9953 133.609C91.5682 133.609 91.2115 133.685 90.925 133.836C90.6385 133.987 90.4094 134.195 90.2375 134.461C90.0656 134.727 89.9406 135.031 89.8625 135.375C89.7896 135.714 89.7531 136.073 89.7531 136.453ZM95.2297 135.656L94.2609 135.953C94.2661 135.49 94.3417 135.044 94.4875 134.617C94.6385 134.19 94.8547 133.81 95.1359 133.477C95.4224 133.143 95.774 132.88 96.1906 132.688C96.6073 132.49 97.0839 132.391 97.6203 132.391C98.0734 132.391 98.4745 132.451 98.8234 132.57C99.1776 132.69 99.4745 132.875 99.7141 133.125C99.9589 133.37 100.144 133.685 100.269 134.07C100.394 134.456 100.456 134.914 100.456 135.445V141H99.0031V135.43C99.0031 134.956 98.9276 134.589 98.7766 134.328C98.6307 134.062 98.4224 133.878 98.1516 133.773C97.8859 133.664 97.5682 133.609 97.1984 133.609C96.8807 133.609 96.5995 133.664 96.3547 133.773C96.1099 133.883 95.9042 134.034 95.7375 134.227C95.5708 134.414 95.4432 134.63 95.3547 134.875C95.2714 135.12 95.2297 135.38 95.2297 135.656ZM104.534 132.547V141H103.081V132.547H104.534ZM102.972 130.305C102.972 130.07 103.042 129.872 103.182 129.711C103.328 129.549 103.542 129.469 103.823 129.469C104.099 129.469 104.31 129.549 104.456 129.711C104.607 129.872 104.682 130.07 104.682 130.305C104.682 130.529 104.607 130.721 104.456 130.883C104.31 131.039 104.099 131.117 103.823 131.117C103.542 131.117 103.328 131.039 103.182 130.883C103.042 130.721 102.972 130.529 102.972 130.305ZM112.096 138.758C112.096 138.549 112.049 138.357 111.956 138.18C111.867 137.997 111.682 137.833 111.401 137.688C111.125 137.536 110.708 137.406 110.151 137.297C109.682 137.198 109.258 137.081 108.878 136.945C108.503 136.81 108.182 136.646 107.917 136.453C107.656 136.26 107.456 136.034 107.315 135.773C107.174 135.513 107.104 135.208 107.104 134.859C107.104 134.526 107.177 134.211 107.323 133.914C107.474 133.617 107.685 133.354 107.956 133.125C108.232 132.896 108.562 132.716 108.948 132.586C109.333 132.456 109.763 132.391 110.237 132.391C110.914 132.391 111.492 132.51 111.971 132.75C112.45 132.99 112.818 133.31 113.073 133.711C113.328 134.107 113.456 134.547 113.456 135.031H112.01C112.01 134.797 111.94 134.57 111.799 134.352C111.664 134.128 111.463 133.943 111.198 133.797C110.937 133.651 110.617 133.578 110.237 133.578C109.836 133.578 109.51 133.641 109.26 133.766C109.016 133.885 108.836 134.039 108.721 134.227C108.612 134.414 108.557 134.612 108.557 134.82C108.557 134.977 108.583 135.117 108.635 135.242C108.693 135.362 108.792 135.474 108.932 135.578C109.073 135.677 109.271 135.771 109.526 135.859C109.781 135.948 110.107 136.036 110.503 136.125C111.195 136.281 111.766 136.469 112.213 136.688C112.661 136.906 112.995 137.174 113.213 137.492C113.432 137.81 113.542 138.195 113.542 138.648C113.542 139.018 113.463 139.357 113.307 139.664C113.156 139.971 112.935 140.237 112.643 140.461C112.357 140.68 112.013 140.852 111.612 140.977C111.216 141.096 110.771 141.156 110.276 141.156C109.531 141.156 108.901 141.023 108.385 140.758C107.87 140.492 107.479 140.148 107.213 139.727C106.948 139.305 106.815 138.859 106.815 138.391H108.268C108.289 138.786 108.404 139.102 108.612 139.336C108.82 139.565 109.075 139.729 109.378 139.828C109.68 139.922 109.979 139.969 110.276 139.969C110.672 139.969 111.003 139.917 111.268 139.812C111.539 139.708 111.745 139.565 111.885 139.383C112.026 139.201 112.096 138.992 112.096 138.758Z" fill="black"/>
</svg>
