<svg width="190" height="157" viewBox="0 0 190 157" fill="none" xmlns="http://www.w3.org/2000/svg">
<path d="M175.548 147.073H12.51C12.4132 147.073 12.3204 147.036 12.2519 146.969C12.1835 146.903 12.145 146.813 12.145 146.718C12.145 146.624 12.1835 146.534 12.2519 146.467C12.3204 146.401 12.4132 146.363 12.51 146.363H175.548C175.645 146.363 175.738 146.401 175.806 146.467C175.875 146.534 175.913 146.624 175.913 146.718C175.913 146.813 175.875 146.903 175.806 146.969C175.738 147.036 175.645 147.073 175.548 147.073Z" fill="#00283D"/>
<path d="M164.722 40.4527H23.3212C20.7127 40.4527 18.5981 42.5094 18.5981 45.0464V129.806C18.5981 132.343 20.7127 134.4 23.3212 134.4H164.722C167.331 134.4 169.445 132.343 169.445 129.806V45.0464C169.445 42.5094 167.331 40.4527 164.722 40.4527Z" fill="white"/>
<path d="M164.73 134.755H23.3214C21.9662 134.755 20.6664 134.231 19.7081 133.299C18.7498 132.367 18.2114 131.103 18.2114 129.785V45.0393C18.2114 43.7212 18.7498 42.4571 19.7081 41.525C20.6664 40.593 21.9662 40.0693 23.3214 40.0693H164.73C166.085 40.0693 167.385 40.593 168.343 41.525C169.301 42.4571 169.84 43.7212 169.84 45.0393V129.806C169.834 131.121 169.293 132.379 168.335 133.307C167.378 134.234 166.081 134.755 164.73 134.755ZM23.3214 40.8077C22.1598 40.8077 21.0457 41.2566 20.2243 42.0555C19.4029 42.8544 18.9414 43.9379 18.9414 45.0677V129.806C18.9414 130.936 19.4029 132.02 20.2243 132.819C21.0457 133.617 22.1598 134.066 23.3214 134.066H164.73C165.891 134.066 167.005 133.617 167.827 132.819C168.648 132.02 169.11 130.936 169.11 129.806V45.0393C169.11 43.9095 168.648 42.826 167.827 42.0271C167.005 41.2282 165.891 40.7793 164.73 40.7793L23.3214 40.8077Z" fill="#040607"/>
<path d="M169.46 119.895H18.5982C18.5014 119.895 18.4085 119.857 18.3401 119.791C18.2716 119.724 18.2332 119.634 18.2332 119.54C18.2332 119.445 18.2716 119.355 18.3401 119.289C18.4085 119.222 18.5014 119.185 18.5982 119.185H169.46C169.557 119.185 169.65 119.222 169.718 119.289C169.786 119.355 169.825 119.445 169.825 119.54C169.825 119.634 169.786 119.724 169.718 119.791C169.65 119.857 169.557 119.895 169.46 119.895Z" fill="#040607"/>
<path d="M113.301 152.555H74.7424L81.8526 134.4H106.191L113.301 152.555Z" fill="white"/>
<path d="M113.301 152.91H74.7424C74.6838 152.91 74.6258 152.897 74.5736 152.871C74.5214 152.845 74.4766 152.807 74.4431 152.76C74.408 152.714 74.3856 152.66 74.3779 152.603C74.3703 152.546 74.3776 152.487 74.3993 152.434L81.5095 134.272C81.5362 134.205 81.5833 134.147 81.6446 134.106C81.7059 134.066 81.7785 134.044 81.8526 134.045H106.191C106.265 134.043 106.338 134.064 106.4 134.105C106.461 134.146 106.508 134.204 106.534 134.272L113.644 152.434C113.671 152.484 113.685 152.54 113.685 152.597C113.685 152.654 113.671 152.71 113.644 152.76C113.605 152.812 113.552 152.852 113.492 152.878C113.432 152.904 113.367 152.915 113.301 152.91ZM75.268 152.2H112.775L105.95 134.755H82.1008L75.268 152.2Z" fill="#040607"/>
<path d="M117.827 151.49H70.2239C68.9741 151.49 67.9609 152.475 67.9609 153.691V154.188C67.9609 155.403 68.9741 156.389 70.2239 156.389H117.827C119.077 156.389 120.09 155.403 120.09 154.188V153.691C120.09 152.475 119.077 151.49 117.827 151.49Z" fill="white"/>
<path d="M117.827 156.751H70.2164C69.5207 156.749 68.8541 156.479 68.3628 156C67.8716 155.52 67.5957 154.871 67.5957 154.195V153.691C67.5957 153.014 67.8716 152.365 68.3628 151.886C68.8541 151.407 69.5207 151.136 70.2164 151.135H117.827C118.523 151.136 119.191 151.406 119.683 151.885C120.176 152.364 120.453 153.013 120.455 153.691V154.195C120.453 154.872 120.176 155.521 119.683 156C119.191 156.479 118.523 156.749 117.827 156.751ZM70.2164 151.845C69.7143 151.846 69.2334 152.042 68.879 152.388C68.5247 152.734 68.3257 153.202 68.3257 153.691V154.195C68.3257 154.683 68.5247 155.152 68.879 155.498C69.2334 155.843 69.7143 156.039 70.2164 156.041H117.827C118.33 156.039 118.811 155.844 119.167 155.498C119.522 155.152 119.723 154.684 119.725 154.195V153.691C119.723 153.202 119.522 152.733 119.167 152.387C118.811 152.042 118.33 151.846 117.827 151.845H70.2164Z" fill="#040607"/>
<path d="M23.9856 44.876H164.065V113.789H23.9856V44.876Z" fill="#0062DD"/>
<path d="M23.9856 44.876H164.065V113.789H23.9856V44.876Z" fill="#192029"/>
<path d="M78.334 142.693L107.045 137.268L105.921 134.4H81.5825L78.334 142.693Z" fill="#040607"/>
<path d="M78.3341 143.048C78.281 143.048 78.2285 143.036 78.1806 143.014C78.1326 142.992 78.0902 142.96 78.0567 142.92C78.0148 142.871 77.9867 142.813 77.9751 142.751C77.9636 142.689 77.9691 142.624 77.991 142.565L81.2395 134.272C81.2652 134.204 81.3122 134.146 81.3737 134.105C81.4352 134.064 81.5082 134.043 81.5826 134.045H105.95C106.024 134.044 106.097 134.066 106.158 134.106C106.219 134.147 106.266 134.205 106.293 134.272L107.417 137.112C107.439 137.159 107.45 137.21 107.45 137.261C107.45 137.313 107.439 137.363 107.417 137.41C107.39 137.456 107.353 137.495 107.309 137.525C107.265 137.556 107.215 137.577 107.162 137.588L78.4509 143.012L78.3341 143.048ZM81.86 134.755L78.94 142.224L106.578 136.998L105.702 134.755H81.86Z" fill="#040607"/>
<path d="M65.1285 51.3015C64.8661 47.0555 63.8588 42.8844 62.1501 38.9688C61.8946 38.3795 61.3106 37.6837 60.7339 37.989C61.0697 39.7853 61.4055 41.5887 61.7486 43.385C58.3195 41.1799 55.3477 38.3666 52.9886 35.0922C52.7847 34.7532 52.4959 34.4699 52.1491 34.2686C51.9728 34.1769 51.7669 34.1545 51.5741 34.206C51.3812 34.2575 51.216 34.379 51.1125 34.5455C51.0721 34.7023 51.0682 34.8659 51.101 35.0243C51.1339 35.1828 51.2026 35.3321 51.3023 35.4614C52.3138 37.2209 53.4918 38.8847 54.8209 40.4314C53.1127 37.989 49.5795 33.8497 48.7546 34.8295C47.9297 35.8093 50.0321 39.5652 51.806 41.7946L47.5501 37.2151C47.1559 36.7962 46.5208 36.3418 46.0901 36.7039C45.6594 37.066 45.9368 37.7334 46.258 38.1949L49.2145 42.4549C47.7107 41.1769 45.6156 38.0955 44.5279 38.8126C43.4402 39.5297 46.8639 43.527 49.0612 45.0677C51.2585 46.6084 53.7186 47.8367 55.5144 49.8034C56.5942 51.0883 57.5154 52.4918 58.2592 53.9853" fill="#ECBDBB"/>
<path d="M58.208 54.3474C58.1471 54.3474 58.0872 54.3316 58.0346 54.3017C57.982 54.2717 57.9386 54.2287 57.9087 54.177C57.1805 52.706 56.2763 51.3238 55.215 50.059C53.9012 48.7473 52.4164 47.6087 50.7985 46.6723C50.1415 46.2534 49.4626 45.8203 48.8129 45.3659C46.8711 43.9956 43.9073 40.7296 43.9292 39.2741C43.9214 39.1358 43.9503 38.998 44.0129 38.8737C44.0755 38.7494 44.1699 38.6428 44.2869 38.5641C44.9731 38.1097 45.8053 38.628 46.6959 39.4729L45.9294 38.3653C45.3673 37.5488 45.3308 36.8246 45.8345 36.4341C46.3382 36.0436 47.0901 36.2424 47.7763 36.9879L49.302 38.6422C48.426 37.0092 47.842 35.362 48.4698 34.6378C48.5468 34.5479 48.6443 34.4767 48.7546 34.4298C48.8648 34.383 48.9848 34.3618 49.1049 34.368C49.7825 34.5238 50.3957 34.8753 50.8642 35.3762C50.7832 35.228 50.7343 35.0652 50.7205 34.8979C50.7067 34.7306 50.7283 34.5623 50.7839 34.4035C50.8343 34.2919 50.9075 34.1916 50.9992 34.1086C51.0908 34.0256 51.1989 33.9616 51.3168 33.9207C51.4712 33.8658 51.6352 33.8414 51.7994 33.8487C51.9635 33.856 52.1246 33.8949 52.2731 33.9633C52.67 34.1836 52.9999 34.502 53.2294 34.8863C55.4216 37.9217 58.1385 40.5642 61.2594 42.6963C60.9674 41.1485 60.6754 39.6078 60.3907 38.06C60.3791 37.9915 60.3897 37.9211 60.4211 37.8588C60.4525 37.7964 60.5031 37.7451 60.5659 37.7121C60.6828 37.6514 60.8115 37.6156 60.9437 37.6071C61.0758 37.5985 61.2083 37.6173 61.3324 37.6624C61.8484 37.9036 62.2467 38.3318 62.442 38.8552C64.1672 42.8042 65.1844 47.0114 65.4496 51.2944C65.4442 51.3734 65.4095 51.4478 65.352 51.5037C65.2944 51.5597 65.2179 51.5934 65.1367 51.5986C65.0554 51.6038 64.975 51.5802 64.9104 51.532C64.8458 51.4839 64.8013 51.4146 64.7853 51.337C64.5383 47.1291 63.5507 42.9937 61.8653 39.1108C61.7326 38.7557 61.4736 38.4586 61.1353 38.273C61.4517 39.9628 61.7704 41.6526 62.0916 43.3424C62.1024 43.4047 62.0943 43.4688 62.0684 43.5267C62.0425 43.5847 61.9999 43.6341 61.9456 43.669C61.8916 43.7041 61.8281 43.7228 61.7631 43.7228C61.6982 43.7228 61.6346 43.7041 61.5806 43.669C58.0966 41.4381 55.0713 38.5944 52.66 35.2839C52.4811 34.9919 52.2303 34.7478 51.93 34.5739C51.791 34.5245 51.6384 34.5245 51.4993 34.5739C51.4295 34.5964 51.3718 34.6449 51.3387 34.7088C51.2657 34.865 51.3898 35.1135 51.5139 35.3407C51.9957 36.1785 52.514 36.995 53.0615 37.7902C53.8937 38.7771 54.6164 39.7427 55.0106 40.3107C55.037 40.3442 55.0563 40.3825 55.0674 40.4233C55.0786 40.4642 55.0814 40.5067 55.0756 40.5486C55.0698 40.5905 55.0557 40.6308 55.0339 40.6673C55.0121 40.7039 54.9831 40.7359 54.9486 40.7615C54.9141 40.7872 54.8747 40.8059 54.8327 40.8168C54.7908 40.8276 54.747 40.8303 54.704 40.8247C54.6609 40.8191 54.6194 40.8053 54.5819 40.7841C54.5443 40.7629 54.5114 40.7347 54.485 40.7012C53.7847 39.8841 53.1269 39.0334 52.514 38.1523C51.054 36.4625 49.6305 35.0922 49.0173 35.0709C48.9443 35.0709 48.9443 35.0709 48.9297 35.0709C48.3676 35.7383 49.886 38.9901 51.9884 41.6313C52.0355 41.6981 52.0554 41.7796 52.0443 41.8598C52.0331 41.9401 51.9916 42.0135 51.9279 42.0657C51.8642 42.1179 51.7828 42.1453 51.6996 42.1424C51.6163 42.1395 51.5372 42.1066 51.4774 42.0502L47.2215 37.4423C46.9806 37.1796 46.4915 36.7323 46.1922 36.9595C45.8929 37.1867 46.1922 37.7192 46.4258 38.0245L49.3823 42.2845C49.4252 42.3497 49.4429 42.4276 49.4322 42.5043C49.4215 42.5811 49.3831 42.6516 49.3239 42.7034C49.2653 42.7589 49.1867 42.7899 49.1049 42.7899C49.0231 42.7899 48.9445 42.7589 48.8859 42.7034C48.3545 42.2285 47.8524 41.7235 47.3821 41.1911C46.4331 40.1545 45.1191 38.7487 44.6008 39.0611C44.6008 39.0611 44.5424 39.0966 44.5424 39.2244C44.5424 40.332 47.2288 43.4347 49.1414 44.7837C49.7765 45.231 50.4554 45.657 51.1051 46.0759C52.7731 47.0397 54.3024 48.2144 55.653 49.5691C56.752 50.8772 57.6881 52.3071 58.4416 53.8291C58.463 53.8661 58.4763 53.907 58.4808 53.9492C58.4854 53.9914 58.481 54.0341 58.4681 54.0746C58.4551 54.1152 58.4337 54.1527 58.4053 54.1849C58.377 54.2172 58.3421 54.2435 58.3029 54.2622C58.2779 54.2968 58.2455 54.3258 58.208 54.3474Z" fill="#040607"/>
<path d="M137.595 39.2031L135.223 29.9731C132.653 19.955 129.113 9.61738 117.849 6.54308C114.513 5.62008 111.118 5.98928 108.906 8.92158C106.629 7.06138 103.066 8.06248 100.708 9.82328C95.4379 13.7567 93.0435 19.9195 92.9194 26.0823C92.7734 33.0758 92.0215 40.3817 88.2036 46.4877C86.6487 48.9727 84.6339 51.1737 83.2907 53.7652C81.9475 56.3567 81.3343 59.5659 82.7432 62.1219C83.6152 63.5296 84.8347 64.7034 86.291 65.537C93.591 70.1733 102.811 70.6632 111.491 70.0881C120.382 69.4988 129.996 67.5108 135.661 60.8581C138.103 57.9216 139.574 54.3351 139.88 50.5702C140.26 46.2818 138.595 43.1081 137.595 39.2031Z" fill="#404B7C"/>
<path d="M106.023 70.5496C99.6866 70.5496 92.226 69.6479 86.1086 65.75C84.611 64.8756 83.3576 63.6565 82.4586 62.2C81.1592 59.8499 81.3563 56.6904 82.9988 53.538C83.8364 52.0225 84.7931 50.5721 85.8604 49.1999C86.5904 48.2414 87.3204 47.2545 87.919 46.2463C91.8026 40.0409 92.4596 32.5291 92.591 25.9971C92.7297 19.1598 95.6205 13.139 100.511 9.48958C102.862 7.72878 106.417 6.68508 108.855 8.38908C110.899 5.88988 114.111 5.09469 117.944 6.15259C129.398 9.31209 132.923 19.5858 135.551 29.8453L137.924 39.0753C138.201 40.1403 138.523 41.1556 138.836 42.1354C139.691 44.8192 140.494 47.3468 140.223 50.4566C139.906 54.2864 138.407 57.9338 135.924 60.922C131.171 66.531 123.419 69.513 111.52 70.3011C109.841 70.4644 107.987 70.5496 106.023 70.5496ZM105.906 8.19029C104.083 8.27378 102.333 8.91482 100.906 10.0221C96.1826 13.5721 93.3867 19.3941 93.2553 26.0326C93.1239 32.6711 92.445 40.2326 88.4884 46.6226C87.8387 47.6592 87.1087 48.6532 86.3933 49.6188C85.348 50.9682 84.4085 52.3923 83.5828 53.8788C82.8528 55.2988 81.349 58.8488 83.0426 61.9373C83.8815 63.2999 85.062 64.4333 86.4736 65.2317C94.3211 70.2017 104.497 70.2017 111.469 69.726C123.149 68.9521 130.777 66.0411 135.398 60.5812C137.793 57.6854 139.233 54.1542 139.53 50.4495C139.785 47.4675 138.997 44.9967 138.165 42.3768C137.851 41.3899 137.53 40.3604 137.252 39.2812L134.873 30.0512C132.296 19.9763 128.843 9.88718 117.732 6.82708C115.133 6.11708 111.534 5.91828 109.155 9.08488C109.128 9.12044 109.095 9.1502 109.056 9.17221C109.017 9.19423 108.973 9.20802 108.928 9.21268C108.883 9.21926 108.837 9.21633 108.793 9.20409C108.749 9.19184 108.708 9.17056 108.673 9.14169C107.896 8.51447 106.915 8.17713 105.906 8.19029Z" fill="#040607"/>
<path d="M92.9778 50.9181C90.0578 53.5522 83.59 63.4851 77.6843 73.8937L65.4568 48.9514L55.5215 51.7914C55.5215 51.7914 64.5078 97.9414 73.3773 99.83C82.2468 101.719 94.3356 81.157 94.3356 81.157L107.892 44.947C107.892 44.947 97.3213 46.9634 92.9778 50.9181Z" fill="#0062DD"/>
<path d="M127.945 113.583C126.624 100.916 123.864 70.9472 126.405 63.0946C129.646 53.0481 129.551 50.2507 126.405 49.2567C123.258 48.2627 114.725 42.9661 108.885 49.2567C108.885 49.2567 95.4599 56.591 92.8611 69.2432C90.9558 78.5087 93.175 101.804 94.5036 113.583H127.945Z" fill="white"/>
<path d="M101.417 113.583C102.395 99.6099 103.65 88.8534 103.986 84.4159C104.468 78.0259 106.176 59.5659 107.95 51.5074C110.301 46.4806 109.286 45.0251 109.286 45.0251C109.286 45.0251 96.0657 43.2217 92.131 62.4059C91.1674 67.1345 88.9409 90.9408 86.5757 113.583H101.417Z" fill="#0062DD"/>
<path d="M107.914 41.61L107.848 51.4861C107.848 51.4861 108.877 57.0028 115.053 55.3201C116.877 54.8036 118.56 53.8984 119.979 52.6703C121.398 51.4422 122.519 49.922 123.258 48.2201L122.528 31.1233C121.718 28.1325 121.376 25.0401 121.514 21.9501C114.038 21.8791 108.14 16.3695 108.14 16.3695C108.14 16.3695 105.556 20.1396 104.439 21.3395C103.541 22.2333 102.761 23.2326 102.117 24.3144C101.074 26.2172 101.117 28.5744 101.161 30.7044C101.174 33.1986 101.418 35.6866 101.891 38.1381C102.913 42.7744 107.914 41.61 107.914 41.61Z" fill="#ECBDBB"/>
<path d="M112.856 55.9875C111.866 56.0171 110.888 55.7707 110.038 55.2775C108.744 54.4115 107.842 53.0946 107.52 51.5997L107.578 42.0502C106.224 42.2597 104.837 42.0089 103.651 41.3402C103.098 40.9835 102.628 40.519 102.27 39.9764C101.912 39.4338 101.674 38.8247 101.57 38.1878C101.093 35.7153 100.849 33.2058 100.84 30.6902C100.789 28.6667 100.738 26.1533 101.826 24.1582C102.483 23.0511 103.28 22.0279 104.198 21.1123C105.286 19.955 107.848 16.2275 107.848 16.192C107.874 16.1517 107.909 16.1179 107.951 16.0933C107.993 16.0686 108.04 16.0538 108.089 16.05C108.136 16.0442 108.185 16.0489 108.23 16.0636C108.276 16.0784 108.317 16.1028 108.352 16.1352C108.41 16.192 114.257 21.5596 121.536 21.6732C121.581 21.6728 121.625 21.6815 121.667 21.6986C121.708 21.7157 121.745 21.7409 121.776 21.7726C121.807 21.8021 121.831 21.8377 121.846 21.8769C121.861 21.9161 121.867 21.958 121.864 21.9998C121.739 24.7979 122.034 27.5987 122.74 30.3139C122.827 30.5868 122.886 30.8675 122.915 31.1517C122.915 31.1517 122.915 31.4783 123.645 48.2485C123.656 48.2905 123.656 48.3344 123.645 48.3763C122.891 50.1265 121.741 51.6892 120.282 52.9489C118.822 54.2086 117.09 55.133 115.214 55.6538C114.448 55.872 113.654 55.9844 112.856 55.9875ZM108.184 51.5074C108.49 52.7942 109.269 53.9279 110.374 54.6953C111.564 55.4053 113.104 55.5331 114.944 55.029C116.702 54.5271 118.326 53.656 119.701 52.4771C121.076 51.2981 122.168 49.8401 122.901 48.2059C122.85 47.0415 122.207 31.2937 122.171 31.1659C122.137 30.926 122.086 30.6887 122.017 30.4559C121.325 27.7892 121.032 25.0391 121.149 22.2909C114.579 22.0566 109.418 17.9386 108.14 16.8452C107.49 17.7824 105.57 20.523 104.621 21.5312C103.742 22.4049 102.979 23.3829 102.351 24.4422C101.336 26.2882 101.395 28.6099 101.439 30.6547C101.447 33.1303 101.691 35.5999 102.169 38.0316C102.254 38.5774 102.453 39.1003 102.755 39.5681C103.056 40.0358 103.453 40.4384 103.921 40.7509C105.093 41.3637 106.45 41.5547 107.753 41.2905C107.802 41.2791 107.854 41.2789 107.903 41.29C107.953 41.3011 107.999 41.3231 108.038 41.3544C108.077 41.3853 108.108 41.4242 108.13 41.4685C108.151 41.5127 108.162 41.5611 108.162 41.61L108.104 51.4861L108.184 51.5074Z" fill="#040607"/>
<path d="M107.972 46.4806C107.972 46.4806 112.089 46.651 114.739 43.9814C117.389 41.3118 116.995 38.6209 116.995 38.6209C116.995 38.6209 112.52 41.5248 107.914 41.61L107.972 46.4806Z" fill="#040607"/>
<path d="M108.14 46.793H107.943C107.902 46.7921 107.861 46.7833 107.823 46.7671C107.785 46.7509 107.751 46.7276 107.723 46.6986C107.694 46.6696 107.672 46.6354 107.657 46.598C107.642 46.5606 107.635 46.5207 107.636 46.4806L107.592 41.61C107.591 41.569 107.599 41.5282 107.614 41.4899C107.629 41.4516 107.652 41.4167 107.681 41.387C107.71 41.3573 107.745 41.3335 107.784 41.317C107.823 41.3004 107.864 41.2914 107.906 41.2905C112.381 41.1982 116.776 38.3653 116.82 38.3369C116.867 38.3127 116.919 38.3 116.973 38.3C117.026 38.3 117.079 38.3127 117.126 38.3369C117.176 38.3581 117.22 38.3914 117.253 38.4336C117.286 38.4759 117.308 38.5257 117.316 38.5783C117.316 38.6919 117.696 41.4183 114.973 44.2015C112.556 46.6368 109.03 46.793 108.14 46.793ZM108.22 41.9295L108.271 46.1895C109.249 46.1895 112.381 45.9126 114.491 43.7897C115.777 42.5723 116.556 40.937 116.681 39.196C115.44 39.9131 111.95 41.752 108.235 41.9295H108.22Z" fill="#040607"/>
<path d="M111.505 27.41C111.505 27.41 108.242 32.1599 109.016 32.9835C109.79 33.8071 111.936 33.2604 111.936 33.2604" fill="#ECBDBB"/>
<path d="M110.52 33.8C110.206 33.8254 109.889 33.7895 109.59 33.6944C109.29 33.5993 109.013 33.4469 108.775 33.2462C107.921 32.3374 110.235 28.7732 111.235 27.2893C111.283 27.219 111.357 27.1698 111.442 27.1526C111.527 27.1353 111.615 27.1512 111.688 27.197C111.757 27.2456 111.805 27.3183 111.821 27.4002C111.838 27.482 111.821 27.5668 111.775 27.6372C110.111 30.0583 108.936 32.4794 109.257 32.8202C109.782 33.3811 111.33 33.1397 111.885 33.0048C111.926 32.9941 111.969 32.9916 112.011 32.9973C112.054 33.003 112.094 33.0168 112.131 33.038C112.168 33.0591 112.2 33.0872 112.225 33.1205C112.25 33.1538 112.269 33.1917 112.279 33.232C112.299 33.3129 112.286 33.3982 112.242 33.4698C112.199 33.5414 112.128 33.5937 112.045 33.6154C111.545 33.7314 111.034 33.7933 110.52 33.8Z" fill="#040607"/>
<path d="M105.548 26.5555C105.571 25.9908 105.338 25.5233 105.028 25.5112C104.717 25.4991 104.447 25.9471 104.424 26.5117C104.4 27.0764 104.633 27.5439 104.944 27.556C105.254 27.5681 105.525 27.1201 105.548 26.5555Z" fill="#040607"/>
<path d="M114.595 25.8662C114.618 25.3019 114.385 24.8349 114.075 24.8231C113.764 24.8112 113.494 25.259 113.472 25.8232C113.449 26.3875 113.682 26.8545 113.992 26.8663C114.302 26.8782 114.572 26.4304 114.595 25.8662Z" fill="#040607"/>
<path d="M109.286 35.7951L111.878 35.149C111.878 35.149 112.411 38.841 110.951 39.1676C109.491 39.4942 109.286 35.7951 109.286 35.7951Z" fill="#ECBDBB"/>
<path d="M110.768 39.48C110.535 39.4764 110.31 39.3991 110.126 39.2599C109.133 38.5499 108.972 36.072 108.958 35.788C108.954 35.7149 108.977 35.6429 109.022 35.5845C109.068 35.5261 109.133 35.485 109.206 35.4685L111.797 34.8224C111.842 34.8112 111.888 34.8093 111.933 34.8166C111.979 34.8239 112.022 34.8404 112.06 34.865C112.097 34.8906 112.129 34.9233 112.153 34.9611C112.177 34.999 112.192 35.0411 112.199 35.0851C112.257 35.4898 112.724 39.0753 111.016 39.4516C110.935 39.4684 110.852 39.478 110.768 39.48ZM109.6 36.0365C109.688 36.9879 109.972 38.4008 110.491 38.7771C110.54 38.8185 110.599 38.8472 110.663 38.8609C110.727 38.8745 110.793 38.8725 110.856 38.8552C111.659 38.6777 111.695 36.7252 111.586 35.5395L109.6 36.0365Z" fill="#040607"/>
<path d="M119.163 26.0965C119.849 24.3641 122.083 23.7251 123.835 24.0588C124.402 24.1475 124.93 24.397 125.352 24.7758C125.774 25.1547 126.071 25.6462 126.208 26.1888C126.343 26.8664 126.343 27.563 126.208 28.2407C126.005 29.4872 125.578 30.6891 124.945 31.7907C124.653 32.3593 124.218 32.8476 123.682 33.2107C123.336 33.4129 122.934 33.5077 122.531 33.4823C122.128 33.457 121.743 33.3127 121.426 33.0687" fill="#ECBDBB"/>
<path d="M122.74 33.871C122.215 33.86 121.706 33.6941 121.28 33.3953C121.208 33.3453 121.158 33.2694 121.143 33.1842C121.128 33.0991 121.149 33.0116 121.2 32.9409C121.225 32.9062 121.256 32.8767 121.293 32.854C121.329 32.8313 121.37 32.8158 121.413 32.8086C121.456 32.8013 121.5 32.8024 121.542 32.8117C121.584 32.821 121.624 32.8384 121.66 32.8628C121.925 33.0653 122.247 33.1862 122.584 33.2102C122.921 33.2342 123.257 33.1603 123.55 32.9977C124.027 32.6491 124.41 32.1936 124.667 31.67C125.288 30.5915 125.703 29.413 125.894 28.191C126.023 27.5558 126.023 26.9021 125.894 26.2669C125.777 25.7812 125.514 25.3405 125.138 25.0014C124.762 24.6623 124.291 24.4404 123.784 24.3641C122.156 24.0446 120.134 24.6481 119.492 26.203C119.459 26.2825 119.396 26.3465 119.315 26.381C119.234 26.4155 119.143 26.4179 119.061 26.3876C119.02 26.3727 118.982 26.3499 118.95 26.3206C118.918 26.2914 118.893 26.2561 118.875 26.2171C118.857 26.1781 118.848 26.136 118.847 26.0933C118.847 26.0506 118.855 26.0083 118.871 25.9687C119.601 24.0943 122.017 23.3559 123.915 23.7251C124.547 23.8243 125.135 24.1042 125.603 24.529C126.071 24.9538 126.398 25.5044 126.543 26.1107C126.692 26.8301 126.692 27.571 126.543 28.2904C126.34 29.5877 125.898 30.8385 125.237 31.9824C124.923 32.604 124.45 33.137 123.864 33.5302C123.53 33.7439 123.14 33.8619 122.74 33.871Z" fill="#040607"/>
<path d="M140.815 113.583C140.764 113.164 140.72 112.752 140.683 112.361C139.61 100.661 140.683 60.8439 138.121 52.9132C136.887 49.1289 123.799 46.3528 123.799 46.3528C123.799 46.3528 115.703 88.1647 112.52 113.583H140.815Z" fill="#0062DD"/>
<path d="M121.185 93.8589C118.112 93.3477 115.294 91.9561 112.425 90.7775C111.272 90.3018 110.089 89.8758 108.892 89.5137C107.483 89.0877 106.14 88.2783 104.629 88.2357C103.702 88.2357 103.942 89.4924 104.286 89.9681C104.647 90.3888 105.082 90.7445 105.57 91.0189C106.454 91.6082 108.308 92.6803 108.622 93.7098C107.49 94.0293 106.249 93.8589 105.081 93.9867C103.913 94.1145 102.555 94.3062 101.307 94.5405C100.059 94.7748 98.8616 95.0588 97.6571 95.3925C96.5756 95.5781 95.513 95.8561 94.4816 96.2232C94.2407 96.3368 93.9779 96.5214 93.9633 96.7841C93.9049 97.7071 96.0438 97.6006 96.584 97.5438L106.446 96.5782C102.994 96.8985 99.5755 97.4993 96.2263 98.3745C95.8998 98.423 95.6033 98.5874 95.3941 98.836C94.5765 100.057 98.0805 100.121 98.4747 100.128C100.3 100.171 102.12 100.128 103.935 100L99.504 100.71C98.5112 100.874 97.5111 101.03 96.5402 101.271C95.9952 101.371 95.4896 101.617 95.0802 101.981C95.0247 102.028 94.9906 102.095 94.9853 102.166C94.9853 102.265 95.0948 102.329 95.1824 102.372C96.0186 102.701 96.9163 102.855 97.8177 102.826C99.6644 102.861 101.511 102.742 103.337 102.471L97.8615 103.039C97.3728 103.034 96.8987 103.201 96.5256 103.508C96.4748 103.662 96.4797 103.828 96.5394 103.979C96.5992 104.131 96.7102 104.257 96.8541 104.339C97.1409 104.502 97.4637 104.597 97.7958 104.615C99.811 104.74 101.832 104.74 103.848 104.615C106.044 104.626 108.24 104.49 110.418 104.211C114.732 103.687 118.927 102.465 122.828 100.597" fill="#ECBDBB"/>
<path d="M99.9567 105.041C99.2248 105.047 98.4932 105.007 97.7667 104.921C97.382 104.9 97.0085 104.788 96.679 104.594C96.4761 104.467 96.3222 104.279 96.2416 104.058C96.161 103.836 96.1582 103.596 96.2337 103.373C96.2488 103.34 96.2685 103.309 96.2921 103.281C96.373 103.195 96.4637 103.119 96.5622 103.053C96.0417 102.999 95.5337 102.862 95.0584 102.649C94.9514 102.614 94.857 102.55 94.787 102.465C94.7169 102.379 94.6742 102.275 94.6642 102.166C94.6673 102.005 94.7355 101.852 94.854 101.74C95.3118 101.338 95.8754 101.068 96.4819 100.959C97.3141 100.753 98.1682 100.604 99.0077 100.469H98.4894C96.5111 100.426 95.3577 100.114 95.0438 99.5389C94.9721 99.4014 94.9422 99.2468 94.9577 99.0934C94.9732 98.9399 95.0335 98.7939 95.1314 98.6727C95.3842 98.3575 95.7485 98.1449 96.1534 98.0763L97.0586 97.842L96.6352 97.8846C96.2994 97.8846 94.5766 98.055 93.9196 97.4444C93.8274 97.3589 93.7555 97.2549 93.7088 97.1397C93.6622 97.0244 93.6419 96.9006 93.6495 96.777C93.6796 96.5861 93.7638 96.4072 93.8928 96.2605C94.0218 96.1137 94.1903 96.0049 94.3795 95.9463C95.0593 95.6607 95.7728 95.458 96.5038 95.3428C96.8834 95.2647 97.2338 95.1866 97.6061 95.0943C98.8106 94.7606 100.044 94.4766 101.256 94.2423C102.468 94.008 103.797 93.8092 105.059 93.6743C105.512 93.6317 105.972 93.6246 106.417 93.6175C107.001 93.6285 107.585 93.5881 108.162 93.4968C107.494 92.7229 106.694 92.0671 105.797 91.5585L105.264 91.2177C104.792 90.941 104.374 90.5853 104.03 90.1669C103.847 89.9097 103.731 89.6136 103.69 89.3035C103.649 88.9934 103.686 88.6783 103.797 88.3848C103.876 88.2347 104 88.1113 104.152 88.0303C104.304 87.9493 104.478 87.9145 104.651 87.9304C105.694 88.0074 106.712 88.2773 107.651 88.7256C108.118 88.9102 108.556 89.0806 109.009 89.2226C110.218 89.587 111.407 90.0112 112.571 90.4935L114.155 91.168C116.407 92.2403 118.785 93.0414 121.236 93.5536C121.314 93.5766 121.381 93.6264 121.424 93.6938C121.467 93.7612 121.484 93.8416 121.47 93.9199C121.457 93.9982 121.415 94.069 121.351 94.1192C121.288 94.1694 121.208 94.1955 121.127 94.1926C118.62 93.673 116.188 92.8575 113.885 91.7644L112.308 91.0544C111.126 90.5716 109.95 90.1456 108.812 89.8048C108.333 89.6555 107.863 89.4825 107.403 89.2865C106.535 88.8766 105.597 88.624 104.636 88.541C104.588 88.5359 104.539 88.5437 104.495 88.5638C104.452 88.5838 104.414 88.6152 104.388 88.6546C104.336 88.8405 104.326 89.0351 104.359 89.2251C104.392 89.415 104.466 89.5958 104.578 89.7551C104.876 90.1101 105.237 90.4106 105.643 90.6426L106.162 90.9834C107.154 91.6224 108.651 92.588 108.958 93.5891C108.99 93.6688 108.99 93.7578 108.958 93.8376C108.937 93.875 108.909 93.9082 108.875 93.935C108.841 93.9618 108.802 93.9818 108.761 93.9938C108.006 94.1737 107.23 94.2525 106.454 94.2281C106.008 94.2281 105.585 94.2281 105.162 94.2849C103.913 94.4198 102.65 94.6044 101.409 94.8387C100.168 95.073 98.9858 95.357 97.7959 95.6836C97.4236 95.783 97.0659 95.8611 96.6498 95.9392C95.9721 96.0452 95.3102 96.2312 94.6788 96.493C94.4744 96.5924 94.3503 96.6989 94.343 96.777C94.34 96.808 94.3452 96.8392 94.3579 96.8678C94.3707 96.8963 94.3907 96.9213 94.416 96.9403C94.7153 97.2172 95.7665 97.2811 96.606 97.203L106.439 96.28C106.522 96.2809 106.601 96.3114 106.662 96.3658C106.723 96.4201 106.761 96.4944 106.769 96.5744C106.778 96.6544 106.755 96.7346 106.706 96.7995C106.657 96.8643 106.586 96.9094 106.505 96.9261C103.077 97.244 99.6831 97.8401 96.3578 98.7082C96.1139 98.7446 95.8886 98.8567 95.7154 99.0277C95.6205 99.1697 95.6497 99.2265 95.657 99.2407C95.7957 99.4963 96.7447 99.7874 98.5113 99.83C100.278 99.8726 102.161 99.83 103.95 99.6951C104.036 99.6871 104.122 99.7125 104.189 99.7656C104.256 99.8188 104.298 99.8955 104.308 99.9791C104.318 100.063 104.295 100.147 104.244 100.214C104.192 100.282 104.115 100.327 104.03 100.341L99.599 101.051C98.6281 101.207 97.628 101.371 96.679 101.612C96.2428 101.691 95.8308 101.866 95.4745 102.123C96.2425 102.399 97.0578 102.529 97.8762 102.507C98.7376 102.507 99.599 102.507 100.46 102.457L103.38 102.152C103.467 102.144 103.554 102.169 103.622 102.222C103.69 102.275 103.734 102.352 103.745 102.436C103.756 102.519 103.733 102.603 103.681 102.671C103.63 102.738 103.553 102.784 103.468 102.798C102.497 102.94 101.526 103.039 100.548 103.103L97.92 103.38C97.5382 103.384 97.1656 103.495 96.8469 103.699C96.8467 103.778 96.8666 103.856 96.9049 103.925C96.9431 103.995 96.9984 104.054 97.0659 104.097C97.3094 104.225 97.5783 104.3 97.8543 104.317C99.1813 104.445 100.517 104.467 101.847 104.381C102.519 104.381 103.191 104.331 103.869 104.338C106.066 104.346 108.261 104.211 110.439 103.934C114.716 103.424 118.876 102.224 122.747 100.384C122.826 100.346 122.916 100.34 123 100.367C123.083 100.393 123.152 100.45 123.193 100.526C123.231 100.603 123.238 100.692 123.211 100.774C123.184 100.857 123.125 100.925 123.047 100.966C119.112 102.854 114.88 104.087 110.527 104.615C108.329 104.891 106.115 105.027 103.899 105.02C103.227 105.02 102.563 105.02 101.898 105.063C101.234 105.105 100.599 105.041 99.9567 105.041Z" fill="#040607"/>
<path d="M138.121 52.9132C138.121 52.9132 163.861 98.4668 154.634 101.534C150.852 102.784 117.017 104.715 117.017 104.715L113.425 90.5148L138.8 86.6879L138.121 52.9132Z" fill="#0062DD"/>
<path d="M104.84 32.38C103.668 32.38 102.522 32.0419 101.547 31.4084C100.572 30.7749 99.8127 29.8745 99.3641 28.8211C98.9154 27.7676 98.798 26.6084 99.0267 25.4901C99.2555 24.3717 99.82 23.3445 100.649 22.5382C101.478 21.7319 102.534 21.1828 103.684 20.9604C104.834 20.7379 106.026 20.8521 107.109 21.2885C108.192 21.7248 109.118 22.4638 109.769 23.4118C110.42 24.3599 110.768 25.4746 110.768 26.6148C110.766 28.1433 110.141 29.6086 109.03 30.6893C107.919 31.7701 106.412 32.3781 104.84 32.38ZM104.84 21.4957C103.799 21.4943 102.781 21.7933 101.914 22.355C101.048 22.9166 100.372 23.7156 99.9726 24.6509C99.5731 25.5862 99.4678 26.6157 99.6701 27.6091C99.8724 28.6026 100.373 29.5154 101.109 30.232C101.845 30.9487 102.782 31.4369 103.804 31.635C104.825 31.8331 105.883 31.7322 106.846 31.3449C107.808 30.9577 108.63 30.3016 109.209 29.4596C109.788 28.6176 110.096 27.6276 110.096 26.6148C110.098 25.2565 109.546 23.9529 108.56 22.9905C107.575 22.028 106.237 21.4853 104.84 21.4815V21.4957Z" fill="#040607"/>
<path d="M116.396 31.4286C115.224 31.4286 114.078 31.0905 113.103 30.457C112.128 29.8235 111.369 28.9231 110.92 27.8696C110.471 26.8162 110.354 25.657 110.583 24.5387C110.811 23.4203 111.376 22.3931 112.205 21.5868C113.034 20.7805 114.09 20.2314 115.24 20.009C116.39 19.7865 117.582 19.9007 118.665 20.337C119.748 20.7734 120.674 21.5123 121.325 22.4604C121.976 23.4085 122.324 24.5231 122.324 25.6634C122.322 27.1918 121.697 28.6572 120.586 29.7379C119.474 30.8187 117.968 31.4267 116.396 31.4286ZM116.396 20.5514C115.355 20.55 114.336 20.8492 113.469 21.4112C112.603 21.9731 111.927 22.7725 111.528 23.7082C111.129 24.6439 111.024 25.6738 111.227 26.6674C111.429 27.6611 111.931 28.5739 112.667 29.2902C113.404 30.0066 114.342 30.4943 115.364 30.6916C116.386 30.8889 117.445 30.7869 118.407 30.3986C119.369 30.0102 120.191 29.353 120.768 28.5101C121.346 27.6672 121.654 26.6765 121.652 25.6634C121.65 24.3082 121.096 23.009 120.111 22.0507C119.126 21.0925 117.79 20.5533 116.396 20.5514Z" fill="#040607"/>
<path d="M113.425 90.8272C113.347 90.8267 113.271 90.7995 113.211 90.7502C113.151 90.7009 113.11 90.6327 113.097 90.5574C113.084 90.4709 113.107 90.3831 113.16 90.3127C113.213 90.2424 113.293 90.1951 113.381 90.1811L138.391 86.4252L132.361 61.135C132.342 61.0513 132.357 60.9633 132.403 60.8902C132.449 60.8171 132.524 60.7648 132.61 60.7445C132.653 60.7341 132.698 60.7323 132.742 60.7393C132.786 60.7462 132.828 60.7618 132.865 60.7851C132.903 60.8083 132.935 60.8387 132.96 60.8745C132.985 60.9102 133.003 60.9506 133.011 60.993L139.121 86.6169C139.131 86.6607 139.131 86.7059 139.122 86.7498C139.114 86.7937 139.096 86.8354 139.07 86.8725C139.044 86.9088 139.01 86.9394 138.971 86.9626C138.932 86.9858 138.889 87.0011 138.844 87.0074L113.476 90.8272H113.425Z" fill="#040607"/>
<path d="M89.649 86.2477C89.5611 86.237 89.481 86.193 89.4263 86.1252C89.3716 86.0573 89.3467 85.9712 89.357 85.8856C90.4885 76.755 92.6493 59.4026 92.6785 59.0263H93.007L93.08 58.6997C93.3866 58.7636 93.3866 58.7636 92.8318 63.2579L90.014 85.9353C90.0133 85.9798 90.003 86.0237 89.9838 86.0641C89.9646 86.1045 89.9369 86.1406 89.9026 86.17C89.8682 86.1995 89.8279 86.2216 89.7842 86.2349C89.7406 86.2483 89.6945 86.2527 89.649 86.2477Z" fill="#040607"/>
<path d="M82.5899 82.79C82.528 82.7901 82.4673 82.7736 82.4145 82.7423C82.3617 82.7109 82.3188 82.666 82.2906 82.6125L67.1358 53.0552C67.0975 52.9769 67.0921 52.8871 67.1207 52.8049C67.1493 52.7227 67.2097 52.6546 67.2891 52.615C67.3686 52.5781 67.4598 52.573 67.5431 52.6009C67.6264 52.6288 67.6951 52.6874 67.7344 52.7641L82.8892 82.3214C82.9277 82.3979 82.934 82.4859 82.9067 82.5668C82.8794 82.6477 82.8207 82.7151 82.7432 82.7545C82.6951 82.7763 82.6429 82.7883 82.5899 82.79Z" fill="#040607"/>
<path d="M122.01 77.5076C121.93 77.5067 121.853 77.4791 121.791 77.4295C121.73 77.3686 121.696 77.2871 121.696 77.2023C121.696 77.1175 121.73 77.036 121.791 76.9751L129.317 68.5403L124.207 63.4922C124.148 63.4277 124.114 63.3445 124.112 63.2579C124.118 63.1714 124.157 63.0901 124.222 63.0307L129.332 58.3944C127.412 55.5544 124.609 51.4932 124.346 51.2163C124.297 51.1531 124.273 51.0746 124.279 50.9955C124.285 50.9165 124.32 50.8422 124.378 50.7866C124.436 50.731 124.513 50.6978 124.594 50.6933C124.676 50.6887 124.756 50.7131 124.82 50.7619C125.163 51.0956 129.2 57.0738 130.047 58.2666C130.089 58.3304 130.107 58.4063 130.097 58.4814C130.088 58.5565 130.052 58.6261 129.996 58.6784L124.93 63.2792L129.989 68.2989C130.047 68.3583 130.079 68.4371 130.079 68.519C130.079 68.6009 130.047 68.6797 129.989 68.7391L122.236 77.394C122.209 77.4273 122.174 77.4546 122.135 77.4741C122.096 77.4937 122.054 77.5051 122.01 77.5076Z" fill="#040607"/>
<path d="M103.03 75.4273C102.976 75.4268 102.924 75.4137 102.877 75.3889C102.83 75.3642 102.79 75.3286 102.76 75.2853L96.46 66.5949C96.41 66.5276 96.3888 66.4441 96.4011 66.3619C96.4134 66.2797 96.458 66.2054 96.5257 66.1547L102.847 61.2628L99.0004 57.3436C98.9688 57.3116 98.9442 57.2737 98.9279 57.2322C98.9116 57.1908 98.904 57.1466 98.9055 57.1022C98.9109 57.0157 98.9501 56.9345 99.015 56.875L105.965 50.7548C106.029 50.6974 106.115 50.6674 106.203 50.6714C106.29 50.6754 106.373 50.7131 106.432 50.7761C106.491 50.8392 106.522 50.9225 106.518 51.0077C106.513 51.093 106.475 51.1731 106.41 51.2305L99.7158 57.1306L103.585 61.0711C103.616 61.1031 103.64 61.1411 103.655 61.1827C103.67 61.2243 103.676 61.2686 103.672 61.3125C103.669 61.3577 103.656 61.4018 103.635 61.4421C103.614 61.4824 103.584 61.518 103.548 61.5468L97.19 66.46L103.285 74.9019C103.335 74.9732 103.354 75.0602 103.339 75.1448C103.324 75.2294 103.276 75.3052 103.205 75.3563C103.154 75.3938 103.094 75.4182 103.03 75.4273Z" fill="#040607"/>
<path d="M59.1716 47.4888C59.0886 47.4873 59.0092 47.4561 58.9485 47.401C58.8878 47.3459 58.8503 47.271 58.8431 47.1906C58.6168 44.6062 61.4711 43.1578 61.5952 43.101C61.6335 43.0812 61.6755 43.0691 61.7186 43.0652C61.7618 43.0612 61.8053 43.0657 61.8467 43.0782C61.8881 43.0908 61.9266 43.1112 61.9598 43.1382C61.9931 43.1653 62.0205 43.1985 62.0405 43.2359C62.0818 43.3122 62.0904 43.4013 62.0645 43.4838C62.0385 43.5663 61.98 43.6354 61.9018 43.6761C61.9018 43.6761 59.3176 44.9896 59.5074 47.1409C59.5135 47.2264 59.4847 47.3108 59.4274 47.3759C59.37 47.441 59.2886 47.4815 59.2008 47.4888H59.1716Z" fill="#040607"/>
<path d="M23.3213 121.343C32.1426 121.343 39.2937 114.388 39.2937 105.808C39.2937 97.2285 32.1426 90.2734 23.3213 90.2734C14.5 90.2734 7.34888 97.2285 7.34888 105.808C7.34888 114.388 14.5 121.343 23.3213 121.343Z" fill="white"/>
<path d="M23.3213 121.698C20.0901 121.698 16.9314 120.766 14.2447 119.02C11.558 117.274 9.46404 114.792 8.22751 111.889C6.99097 108.985 6.66743 105.791 7.29781 102.708C7.92819 99.6259 9.48418 96.7946 11.769 94.5724C14.0538 92.3502 16.9649 90.8368 20.134 90.2237C23.3032 89.6106 26.5881 89.9253 29.5734 91.1279C32.5586 92.3306 35.1102 94.3672 36.9053 96.9803C38.7005 99.5934 39.6587 102.665 39.6587 105.808C39.6529 110.021 37.9298 114.059 34.8672 117.038C31.8046 120.016 27.6525 121.692 23.3213 121.698ZM23.3213 90.6284C20.2344 90.6284 17.2169 91.5187 14.6503 93.1867C12.0837 94.8546 10.0832 97.2254 8.90194 99.9991C7.72065 102.773 7.41157 105.825 8.01379 108.77C8.616 111.714 10.1025 114.419 12.2852 116.542C14.4679 118.665 17.2489 120.111 20.2764 120.696C23.304 121.282 26.4421 120.981 29.294 119.833C32.1459 118.684 34.5834 116.738 36.2984 114.242C38.0133 111.745 38.9287 108.81 38.9287 105.808C38.9306 101.779 37.2878 97.914 34.3613 95.0623C31.4348 92.2106 27.4639 90.6056 23.3213 90.6V90.6284Z" fill="#00283D"/>
<path d="M22.7301 94.7961H24.0076C24.0543 94.8146 24.1034 94.8266 24.1536 94.8316C26.0837 94.9382 27.9481 95.5516 29.5483 96.6066C31.3097 97.694 32.7192 99.2434 33.6143 101.076C34.5094 102.909 34.8536 104.951 34.6072 106.966C34.3996 109.406 33.3079 111.696 31.5266 113.427C30.3405 114.656 28.8751 115.599 27.2476 116.179C25.6202 116.76 23.8756 116.963 22.1534 116.771C20.3389 116.609 18.5972 115.998 17.0945 114.996C15.7621 114.146 14.6314 113.029 13.7779 111.72C12.9244 110.411 12.3678 108.94 12.1451 107.406C12.094 107.093 12.0648 106.774 12.021 106.454V105.205L12.0648 104.978C12.1305 104.509 12.167 104.033 12.2692 103.558C12.7443 101.341 13.9104 99.3208 15.6085 97.7721C17.3067 96.2234 19.4544 95.2214 21.7592 94.9026C22.0439 94.86 22.3797 94.86 22.7301 94.7961ZM31.6507 111.95C32.9362 110.312 33.6728 108.329 33.7604 106.27H29.2709C29.1979 107.058 29.1541 107.825 29.0446 108.591C28.9351 109.358 28.7745 110.111 28.6431 110.828L31.6507 111.95ZM12.9408 106.27C13.031 108.329 13.7701 110.312 15.0578 111.95L18.0873 110.807C17.7058 109.317 17.4977 107.79 17.4668 106.256L12.9408 106.27ZM33.7385 105.382C33.8334 103.756 32.6143 100.547 31.6288 99.7022L28.5701 100.831C28.9577 102.315 29.1659 103.837 29.1906 105.368L33.7385 105.382ZM18.0946 100.845L15.0651 99.7022C13.9701 100.824 12.7729 104.047 12.97 105.382H17.4668C17.488 103.847 17.6938 102.32 18.08 100.831L18.0946 100.845ZM23.8032 110.217C24.4748 110.274 25.1245 110.303 25.7669 110.374C26.4093 110.445 27.059 110.558 27.716 110.65C27.716 110.601 27.716 110.537 27.7671 110.48C28.0978 109.171 28.2838 107.831 28.3219 106.483C28.3219 106.298 28.2781 106.256 28.0956 106.256H24.0076H23.8032V110.217ZM18.3501 106.256C18.3686 107.722 18.5696 109.181 18.9487 110.601L22.8542 110.168V106.256H18.3501ZM28.2927 105.368C28.2716 103.904 28.0731 102.448 27.7014 101.03L23.7813 101.463V105.368H28.2927ZM18.9487 101.03C18.5689 102.447 18.3679 103.904 18.3501 105.368H22.8542V101.463L18.9487 101.03ZM27.424 100.121C27.1177 99.165 26.6675 98.2582 26.0881 97.4302C25.6974 96.85 25.1756 96.3643 24.5624 96.0102C24.3215 95.8824 24.0587 95.8043 23.7813 95.6907V100.54C25.0117 100.519 26.2368 100.379 27.4386 100.121H27.424ZM23.774 111.112V115.883C24.3216 115.791 24.8293 115.544 25.234 115.173C26.0792 114.377 26.7303 113.406 27.1393 112.333C27.2415 112.085 27.3291 111.829 27.4386 111.552C26.2432 111.297 25.0263 111.15 23.8032 111.112H23.774ZM22.8469 115.897V111.112C21.6199 111.136 20.398 111.272 19.1969 111.517C19.4159 112.028 19.5984 112.511 19.832 112.979C20.2128 113.83 20.7781 114.59 21.4891 115.209C21.8788 115.556 22.3582 115.794 22.8761 115.897H22.8469ZM19.1969 100.114C20.3983 100.357 21.6201 100.493 22.8469 100.519V95.7333C22.4734 95.8075 22.1201 95.9575 21.8103 96.1735C21.0753 96.6948 20.4816 97.3819 20.0802 98.1757C19.8101 98.8005 19.4962 99.4466 19.1896 100.114H19.1969ZM31.001 112.695C30.1566 112.277 29.2681 111.948 28.3511 111.715C27.9159 113.141 27.1688 114.459 26.1611 115.578C28.0151 115.07 29.688 114.072 30.9937 112.695H31.001ZM20.5401 96.0954C19.4159 96.0954 16.2915 97.9982 15.7002 99.0064L18.2917 99.9507C18.6202 99.2407 18.9049 98.5307 19.2334 97.8988C19.5705 97.2356 20.0113 96.6273 20.5401 96.0954ZM15.6929 112.695C17.0187 114.083 18.7143 115.086 20.5912 115.592C19.5596 114.476 18.7943 113.152 18.3501 111.715C17.4271 111.944 16.5333 112.273 15.6856 112.695H15.6929ZM26.1903 96.0954C26.693 96.6425 27.12 97.2512 27.4605 97.9059C27.7817 98.5591 28.0664 99.2265 28.3803 99.9081C29.2857 99.682 30.1623 99.3581 30.9937 98.9425C29.7 97.5692 28.0316 96.5819 26.183 96.0954H26.1903Z" fill="#00283D"/>
<path d="M176.519 99.4466C183.345 99.4466 188.878 94.0649 188.878 87.4263C188.878 80.7877 183.345 75.406 176.519 75.406C169.693 75.406 164.16 80.7877 164.16 87.4263C164.16 94.0649 169.693 99.4466 176.519 99.4466Z" fill="white"/>
<path d="M176.519 99.83C174.002 99.8314 171.541 99.1066 169.447 97.7474C167.354 96.3881 165.722 94.4554 164.758 92.1938C163.794 89.9322 163.541 87.4434 164.032 85.0422C164.523 82.6409 165.735 80.4352 167.515 78.7041C169.295 76.9729 171.562 75.7941 174.031 75.3169C176.5 74.8396 179.059 75.0852 181.384 76.0228C183.71 76.9603 185.697 78.5476 187.094 80.5838C188.492 82.62 189.237 85.0136 189.236 87.4618C189.232 90.7409 187.891 93.8846 185.507 96.2033C183.123 98.522 179.891 99.8263 176.519 99.83ZM176.519 75.7965C174.147 75.7951 171.827 76.4781 169.854 77.759C167.88 79.04 166.342 80.8613 165.433 82.9928C164.524 85.1242 164.285 87.4699 164.747 89.7332C165.209 91.9966 166.351 94.0758 168.028 95.7079C169.705 97.34 171.842 98.4518 174.169 98.9025C176.496 99.3531 178.908 99.1225 181.1 98.2398C183.292 97.3571 185.166 95.8619 186.484 93.9434C187.802 92.0249 188.506 89.7693 188.506 87.4618C188.509 85.928 188.201 84.4087 187.6 82.9906C186.999 81.5725 186.117 80.2834 185.004 79.1969C183.891 78.1104 182.569 77.2477 181.113 76.6582C179.657 76.0687 178.096 75.7638 176.519 75.761V75.7965Z" fill="#00283D"/>
<path d="M183.082 93.8234H169.942C169.188 93.8215 168.466 93.529 167.933 93.0099C167.401 92.4908 167.102 91.7876 167.102 91.0544V83.7911C167.102 83.0579 167.401 82.3547 167.933 81.8356C168.466 81.3165 169.188 81.024 169.942 81.0221H183.082C183.836 81.024 184.558 81.3165 185.09 81.8356C185.623 82.3547 185.921 83.0579 185.921 83.7911V91.0544C185.921 91.7876 185.623 92.4908 185.09 93.0099C184.558 93.529 183.836 93.8215 183.082 93.8234ZM169.942 81.7534C169.382 81.7553 168.845 81.973 168.45 82.359C168.054 82.7449 167.832 83.2675 167.832 83.8124V91.0757C167.832 91.6206 168.054 92.1432 168.45 92.5291C168.845 92.9151 169.382 93.1328 169.942 93.1347H183.082C183.359 93.1347 183.634 93.0814 183.891 92.9778C184.147 92.8743 184.38 92.7225 184.576 92.5312C184.772 92.3399 184.927 92.1129 185.033 91.8631C185.139 91.6133 185.192 91.3458 185.191 91.0757V83.7911C185.192 83.521 185.139 83.2535 185.033 83.0037C184.927 82.7539 184.772 82.5269 184.576 82.3356C184.38 82.1443 184.147 81.9925 183.891 81.889C183.634 81.7854 183.359 81.7321 183.082 81.7321L169.942 81.7534Z" fill="#00283D"/>
<path d="M173.497 91.4662C173.401 91.4627 173.31 91.4241 173.243 91.3583C173.175 91.2925 173.135 91.2042 173.132 91.1112V83.7343C173.132 83.6741 173.148 83.615 173.179 83.5627C173.21 83.5104 173.254 83.4668 173.307 83.4361C173.361 83.4081 173.421 83.3935 173.482 83.3935C173.543 83.3935 173.604 83.4081 173.657 83.4361L181.461 87.1281C181.523 87.1567 181.575 87.202 181.612 87.2586C181.648 87.3153 181.667 87.3809 181.666 87.4476C181.665 87.5139 181.645 87.5789 181.609 87.6352C181.573 87.6915 181.522 87.7372 181.461 87.7671L173.657 91.452C173.605 91.4674 173.551 91.4723 173.497 91.4662ZM173.862 84.3023V90.5432L180.432 87.4263L173.862 84.3023Z" fill="#00283D"/>
<path d="M23.4015 80.9511C35.811 80.9511 45.8709 71.1668 45.8709 59.0973C45.8709 47.0278 35.811 37.2435 23.4015 37.2435C10.992 37.2435 0.932129 47.0278 0.932129 59.0973C0.932129 71.1668 10.992 80.9511 23.4015 80.9511Z" fill="white"/>
<path d="M23.4015 81.3132C18.8835 81.3146 14.4666 80.0129 10.7093 77.5726C6.95209 75.1324 4.02327 71.6632 2.29332 67.6039C0.563362 63.5446 0.109981 59.0775 0.990508 54.7676C1.87104 50.4576 4.04592 46.4985 7.2401 43.3908C10.4343 40.2832 14.5043 38.1666 18.9353 37.3088C23.3664 36.451 27.9595 36.8906 32.1337 38.5718C36.3079 40.2531 39.8757 43.1005 42.3859 46.7541C44.8961 50.4076 46.2359 54.7031 46.2359 59.0973C46.2282 64.9858 43.8202 70.6311 39.5398 74.7955C35.2594 78.96 29.4559 81.3038 23.4015 81.3132ZM23.4015 37.5985C19.0276 37.5971 14.7515 38.8574 11.1142 41.22C7.47678 43.5825 4.64154 46.9412 2.96705 50.8712C1.29257 54.8012 0.854067 59.1259 1.70702 63.2983C2.55997 67.4707 4.66605 71.3033 7.75887 74.3114C10.8517 77.3195 14.7923 79.3678 19.0822 80.1974C23.3721 81.027 27.8187 80.6005 31.8594 78.9719C35.9 77.3433 39.3533 74.5857 41.7825 71.048C44.2116 67.5103 45.5073 63.3514 45.5059 59.0973C45.4982 53.3978 43.1668 47.9339 39.0231 43.9037C34.8794 39.8735 29.2616 37.606 23.4015 37.5985Z" fill="#00283D"/>
<path d="M37.7389 69.1935H9.06446C8.96766 69.1935 8.87482 69.1561 8.80637 69.0895C8.73792 69.0229 8.69946 68.9326 8.69946 68.8385V49.3632C8.69946 49.269 8.73792 49.1787 8.80637 49.1122C8.87482 49.0456 8.96766 49.0082 9.06446 49.0082H37.7389C37.8357 49.0082 37.9285 49.0456 37.997 49.1122C38.0654 49.1787 38.1039 49.269 38.1039 49.3632V68.8385C38.1039 68.9326 38.0654 69.0229 37.997 69.0895C37.9285 69.1561 37.8357 69.1935 37.7389 69.1935ZM9.42946 68.4835H37.3739V49.7182H9.42946V68.4835Z" fill="#00283D"/>
<path d="M9.06441 69.1935C8.98517 69.1951 8.90779 69.17 8.84542 69.1225C8.76842 69.0659 8.717 68.9825 8.70202 68.8898C8.68704 68.797 8.70967 68.7023 8.76511 68.6255L20.0874 53.8007C20.1191 53.7577 20.1607 53.7225 20.2089 53.6978C20.257 53.6732 20.3104 53.6598 20.3648 53.6587C20.4203 53.657 20.4754 53.6676 20.526 53.6898C20.5766 53.7119 20.6213 53.745 20.6568 53.7865L29.5117 63.9963C29.5429 64.0317 29.5665 64.0728 29.5814 64.1171C29.5962 64.1614 29.602 64.2082 29.5982 64.2546C29.5945 64.3011 29.5814 64.3464 29.5597 64.388C29.5379 64.4295 29.508 64.4665 29.4716 64.4968C29.4351 64.5271 29.3929 64.5502 29.3473 64.5646C29.3018 64.579 29.2537 64.5846 29.2059 64.581C29.1581 64.5773 29.1115 64.5646 29.0688 64.5435C29.0261 64.5223 28.9881 64.4932 28.9569 64.4578L20.394 54.5817L9.35641 69.0515C9.32203 69.0952 9.27786 69.1307 9.22727 69.1553C9.17667 69.1799 9.12098 69.1929 9.06441 69.1935Z" fill="#00283D"/>
<path d="M26.8033 61.7811C26.7302 61.7798 26.6592 61.7576 26.5989 61.7172C26.5201 61.6641 26.466 61.5829 26.4482 61.4912C26.4304 61.3995 26.4505 61.3047 26.504 61.2273L31.0884 54.7805C31.1201 54.7374 31.1611 54.7016 31.2085 54.6755C31.2559 54.6495 31.3086 54.6339 31.3629 54.6299C31.4172 54.6258 31.4718 54.6334 31.5227 54.652C31.5737 54.6707 31.6198 54.7 31.6578 54.7379L38.0015 61.1776C38.0551 61.2484 38.0804 61.3357 38.0726 61.4233C38.0648 61.5109 38.0246 61.5927 37.9594 61.6536C37.8941 61.7144 37.8084 61.7501 37.7181 61.754C37.6278 61.7578 37.5391 61.7296 37.4686 61.6746L31.4388 55.5473L27.1099 61.6249C27.0752 61.6727 27.0293 61.7118 26.976 61.739C26.9227 61.7661 26.8635 61.7806 26.8033 61.7811Z" fill="#00283D"/>
<path d="M27.3071 55.3414C26.8837 55.3428 26.4695 55.222 26.1168 54.9942C25.7641 54.7665 25.4888 54.4421 25.3258 54.0621C25.1628 53.6821 25.1194 53.2636 25.2011 52.8596C25.2828 52.4556 25.4859 52.0843 25.7848 51.7926C26.0836 51.501 26.4647 51.3021 26.8798 51.2213C27.2949 51.1404 27.7254 51.1812 28.1166 51.3385C28.5079 51.4957 28.8424 51.7623 29.0777 52.1046C29.3131 52.4468 29.4387 52.8493 29.4387 53.2611C29.4387 53.8116 29.2143 54.3396 28.8148 54.7296C28.4153 55.1195 27.8731 55.3395 27.3071 55.3414ZM27.3071 51.8908C27.0281 51.8894 26.755 51.9685 26.5224 52.1183C26.2897 52.268 26.108 52.4815 26.0002 52.7317C25.8925 52.982 25.8635 53.2577 25.9171 53.524C25.9706 53.7903 26.1042 54.0351 26.301 54.2275C26.4977 54.4198 26.7487 54.5511 27.0222 54.6045C27.2957 54.658 27.5794 54.6312 27.8373 54.5277C28.0951 54.4242 28.3156 54.2486 28.4707 54.0231C28.6259 53.7976 28.7087 53.5324 28.7087 53.2611C28.7087 52.8989 28.5613 52.5514 28.2986 52.2946C28.036 52.0378 27.6795 51.8927 27.3071 51.8908Z" fill="#00283D"/>
<path d="M121.572 105.041C121.492 105.03 121.42 104.991 121.367 104.932C121.315 104.872 121.286 104.797 121.286 104.718C121.286 104.64 121.315 104.564 121.367 104.505C121.42 104.446 121.492 104.407 121.572 104.395L140.194 103.025C140.238 103.02 140.283 103.024 140.325 103.037C140.367 103.049 140.407 103.07 140.44 103.098C140.474 103.126 140.501 103.161 140.52 103.199C140.54 103.238 140.55 103.28 140.552 103.323C140.556 103.366 140.551 103.409 140.538 103.449C140.525 103.49 140.503 103.528 140.474 103.56C140.446 103.593 140.411 103.619 140.371 103.638C140.332 103.657 140.289 103.668 140.245 103.671L121.623 105.041H121.572Z" fill="#040607"/>
<path d="M168.445 60.5173C179.839 60.5173 189.075 51.534 189.075 40.4527C189.075 29.3713 179.839 20.3881 168.445 20.3881C157.052 20.3881 147.815 29.3713 147.815 40.4527C147.815 51.534 157.052 60.5173 168.445 60.5173Z" fill="white"/>
<path d="M168.445 60.8652C164.293 60.8652 160.233 59.6674 156.78 57.4234C153.328 55.1793 150.637 51.9898 149.048 48.2582C147.459 44.5266 147.044 40.4205 147.854 36.4593C148.665 32.4981 150.665 28.8597 153.602 26.0043C156.539 23.1488 160.281 21.2046 164.354 20.4175C168.427 19.6304 172.648 20.0358 176.485 21.5824C180.321 23.129 183.599 25.7473 185.905 29.1063C188.211 32.4652 189.441 36.4138 189.44 40.4527C189.432 45.8654 187.218 51.0541 183.282 54.8807C179.346 58.7074 174.01 60.8596 168.445 60.8652ZM168.445 20.7431C164.437 20.7431 160.519 21.8991 157.187 24.0648C153.854 26.2305 151.257 29.3087 149.723 32.9102C148.189 36.5116 147.788 40.4746 148.57 44.2979C149.352 48.1211 151.282 51.6331 154.116 54.3895C156.95 57.1459 160.561 59.0231 164.492 59.7836C168.423 60.5441 172.497 60.1538 176.2 58.662C179.903 57.1702 183.068 54.644 185.295 51.4028C187.522 48.1616 188.71 44.3509 188.71 40.4527C188.704 35.2271 186.567 30.2172 182.768 26.5221C178.969 22.8271 173.818 20.7487 168.445 20.7431Z" fill="#00283D"/>
<path d="M181.907 48H154.984C154.887 48 154.794 47.9626 154.726 47.896C154.658 47.8294 154.619 47.7391 154.619 47.645V33.2391C154.619 33.1449 154.658 33.0546 154.726 32.9881C154.794 32.9215 154.887 32.8841 154.984 32.8841H181.907C182.003 32.8841 182.096 32.9215 182.165 32.9881C182.233 33.0546 182.272 33.1449 182.272 33.2391V47.6663C182.266 47.7567 182.225 47.8416 182.157 47.9037C182.089 47.9657 182 48.0002 181.907 48ZM155.349 47.29H181.542V33.5941H155.349V47.29Z" fill="#00283D"/>
<path d="M168.453 42.5898C168.378 42.5887 168.305 42.5691 168.241 42.533L154.78 33.5302C154.699 33.4775 154.644 33.3959 154.625 33.3033C154.607 33.2108 154.627 33.1149 154.681 33.0368C154.735 32.9586 154.819 32.9046 154.914 32.8867C155.01 32.8687 155.108 32.8882 155.189 32.9409L168.453 41.8088L181.702 32.9409C181.782 32.8882 181.881 32.8687 181.976 32.8867C182.071 32.9046 182.155 32.9586 182.209 33.0368C182.264 33.1149 182.284 33.2108 182.265 33.3033C182.247 33.3959 182.191 33.4775 182.111 33.5302L168.657 42.533C168.595 42.568 168.525 42.5875 168.453 42.5898Z" fill="#00283D"/>
<path d="M154.984 48C154.925 48.0001 154.866 47.9859 154.814 47.9587C154.762 47.9314 154.717 47.8919 154.685 47.8438C154.657 47.8052 154.638 47.7617 154.627 47.7157C154.617 47.6697 154.616 47.6222 154.625 47.576C154.634 47.5298 154.652 47.4857 154.679 47.4463C154.705 47.407 154.74 47.3732 154.78 47.3468L165.569 40.19C165.649 40.1373 165.748 40.1178 165.843 40.1357C165.938 40.1537 166.022 40.2077 166.076 40.2859C166.131 40.364 166.151 40.4599 166.132 40.5524C166.114 40.645 166.058 40.7266 165.978 40.7793L155.188 47.9574C155.126 47.9919 155.055 48.0068 154.984 48Z" fill="#00283D"/>
<path d="M181.907 48C181.833 48.0006 181.762 47.9782 181.702 47.9361L170.92 40.7438C170.88 40.7177 170.846 40.6843 170.82 40.6453C170.793 40.6064 170.775 40.5628 170.766 40.517C170.757 40.4711 170.757 40.424 170.766 40.3783C170.776 40.3325 170.795 40.2891 170.822 40.2504C170.848 40.2117 170.883 40.1785 170.923 40.1528C170.963 40.127 171.008 40.1092 171.055 40.1003C171.102 40.0914 171.15 40.0916 171.197 40.1009C171.244 40.1102 171.289 40.1284 171.329 40.1545L182.111 47.3681C182.151 47.3945 182.185 47.4283 182.212 47.4677C182.238 47.507 182.256 47.5511 182.265 47.5973C182.274 47.6436 182.273 47.6911 182.263 47.737C182.253 47.783 182.234 47.8266 182.206 47.8651C182.171 47.9093 182.125 47.9447 182.073 47.9682C182.021 47.9916 181.964 48.0026 181.907 48Z" fill="#00283D"/>
<path d="M60.6754 33.6722C70.045 33.6722 77.6406 26.2847 77.6406 17.1718C77.6406 8.05887 70.045 0.671387 60.6754 0.671387C51.3058 0.671387 43.7102 8.05887 43.7102 17.1718C43.7102 26.2847 51.3058 33.6722 60.6754 33.6722Z" fill="white"/>
<path d="M60.6901 34.0272C57.2607 34.0272 53.9084 33.0381 51.0571 31.1849C48.2058 29.3317 45.9836 26.6977 44.6716 23.6161C43.3596 20.5344 43.0167 17.1436 43.6862 13.8724C44.3558 10.6012 46.0077 7.59657 48.4332 5.23859C50.8586 2.88061 53.9485 1.27518 57.3122 0.625336C60.6758 -0.0245058 64.162 0.310442 67.3299 1.58781C70.4978 2.86518 73.205 5.0276 75.1092 7.80156C77.0134 10.5755 78.029 13.8364 78.0275 17.1718C78.0218 21.6416 76.193 25.9267 72.9427 29.0866C69.6923 32.2466 65.2858 34.0234 60.6901 34.0272ZM60.6901 1.01929C57.4054 1.01929 54.1945 1.96662 51.4634 3.74148C48.7323 5.51634 46.6037 8.03901 45.3467 10.9905C44.0897 13.942 43.7609 17.1897 44.4017 20.323C45.0425 23.4563 46.6242 26.3344 48.9468 28.5933C51.2694 30.8523 54.2285 32.3907 57.4501 33.0139C60.6716 33.6372 64.0108 33.3173 67.0455 32.0948C70.0801 30.8722 72.6738 28.8019 74.4987 26.1456C76.3235 23.4894 77.2976 20.3665 77.2976 17.1718C77.2937 12.889 75.5427 8.78277 72.4291 5.7544C69.3154 2.72604 65.0934 1.02305 60.6901 1.01929Z" fill="#00283D"/>
<path d="M58.4197 19.8343H51.93C51.1162 19.8343 50.3356 19.5203 49.7594 18.9613C49.1833 18.4023 48.8586 17.6438 48.8567 16.8523V16.05C48.8586 15.2585 49.1833 14.5 49.7594 13.941C50.3356 13.3819 51.1162 13.068 51.93 13.068H58.4051C58.5019 13.068 58.5947 13.1054 58.6632 13.172C58.7316 13.2385 58.7701 13.3288 58.7701 13.423V19.4793C58.7702 19.571 58.7337 19.6592 58.6684 19.7254C58.6031 19.7916 58.5139 19.8306 58.4197 19.8343ZM51.93 13.778C51.3098 13.778 50.7149 14.0171 50.2756 14.443C49.8364 14.8689 49.5886 15.4468 49.5867 16.05V16.8523C49.5886 17.4555 49.8364 18.0334 50.2756 18.4593C50.7149 18.8852 51.3098 19.1243 51.93 19.1243H58.0401V13.778H51.93Z" fill="#00283D"/>
<path d="M68.866 24.854C68.8105 24.8533 68.7558 24.8412 68.7054 24.8185L58.2591 19.7988C58.1977 19.7695 58.1459 19.7241 58.1098 19.6676C58.0736 19.6111 58.0546 19.5459 58.0547 19.4793V13.2597C58.0554 13.1934 58.0748 13.1285 58.1109 13.0721C58.1469 13.0158 58.1982 12.9701 58.2591 12.9402L68.72 7.92762C68.7733 7.89771 68.8337 7.88196 68.8952 7.88196C68.9567 7.88196 69.0171 7.89771 69.0704 7.92762C69.1236 7.95833 69.1678 8.00195 69.1985 8.05422C69.2292 8.10649 69.2454 8.16562 69.2456 8.22582V24.499C69.242 24.592 69.2024 24.6803 69.1347 24.7461C69.067 24.812 68.9762 24.8505 68.8806 24.854H68.866ZM58.7847 19.2592L68.501 23.9239V8.81512L58.7847 13.4798V19.2592Z" fill="#00283D"/>
<path d="M68.866 19.884C68.7692 19.884 68.6763 19.8466 68.6079 19.78C68.5394 19.7134 68.501 19.6231 68.501 19.529C68.501 19.4348 68.5394 19.3445 68.6079 19.278C68.6763 19.2114 68.7692 19.174 68.866 19.174C69.2831 19.2387 69.7097 19.2147 70.1163 19.1035C70.5229 18.9924 70.8999 18.7968 71.2213 18.5301C71.5426 18.2635 71.8007 17.9323 71.9776 17.5592C72.1546 17.1862 72.2462 16.7803 72.2462 16.3695C72.2462 15.9587 72.1546 15.5527 71.9776 15.1797C71.8007 14.8067 71.5426 14.4754 71.2213 14.2088C70.8999 13.9422 70.5229 13.7466 70.1163 13.6354C69.7097 13.5243 69.2831 13.5002 68.866 13.565C68.7692 13.565 68.6763 13.5276 68.6079 13.461C68.5394 13.3944 68.501 13.3041 68.501 13.21C68.501 13.1158 68.5394 13.0255 68.6079 12.959C68.6763 12.8924 68.7692 12.855 68.866 12.855C69.3405 12.855 69.8104 12.9459 70.2488 13.1225C70.6872 13.2991 71.0856 13.558 71.4211 13.8844C71.7567 14.2107 72.0228 14.5981 72.2044 15.0245C72.386 15.4509 72.4795 15.908 72.4795 16.3695C72.4795 16.831 72.386 17.288 72.2044 17.7144C72.0228 18.1408 71.7567 18.5283 71.4211 18.8546C71.0856 19.181 70.6872 19.4398 70.2488 19.6165C69.8104 19.7931 69.3405 19.884 68.866 19.884Z" fill="#00283D"/>
<path d="M54.7405 26.4515C54.4983 26.4524 54.2583 26.4068 54.0342 26.3173C53.8102 26.2278 53.6065 26.0962 53.4349 25.9299C53.2633 25.7637 53.1272 25.5661 53.0343 25.3486C52.9414 25.1311 52.8936 24.8978 52.8936 24.6623V19.4793C52.8936 19.3851 52.932 19.2948 53.0005 19.2282C53.0689 19.1617 53.1618 19.1243 53.2586 19.1243H56.2224C56.3186 19.1261 56.4103 19.1641 56.4784 19.2303C56.5464 19.2964 56.5855 19.3857 56.5874 19.4793V24.6623C56.5854 25.1374 56.39 25.5925 56.0438 25.9279C55.6977 26.2632 55.229 26.4515 54.7405 26.4515ZM53.6236 19.8343V24.6623C53.6236 24.9504 53.7412 25.2267 53.9507 25.4304C54.1601 25.6341 54.4442 25.7486 54.7405 25.7486C55.0367 25.7486 55.3208 25.6341 55.5302 25.4304C55.7397 25.2267 55.8574 24.9504 55.8574 24.6623V19.8343H53.6236Z" fill="#00283D"/>
<path d="M54.1201 15.6737H51.3826C51.2858 15.6737 51.1929 15.6363 51.1245 15.5697C51.056 15.5031 51.0176 15.4128 51.0176 15.3187C51.0176 15.2245 51.056 15.1342 51.1245 15.0677C51.1929 15.0011 51.2858 14.9637 51.3826 14.9637H54.1201C54.2169 14.9637 54.3097 15.0011 54.3782 15.0677C54.4466 15.1342 54.4851 15.2245 54.4851 15.3187C54.4851 15.4128 54.4466 15.5031 54.3782 15.5697C54.3097 15.6363 54.2169 15.6737 54.1201 15.6737Z" fill="#00283D"/>
<path d="M62.6392 108.762H44.0242C43.9274 108.762 43.8345 108.724 43.7661 108.658C43.6976 108.591 43.6592 108.501 43.6592 108.407C43.6592 108.313 43.6976 108.222 43.7661 108.156C43.8345 108.089 43.9274 108.052 44.0242 108.052H62.6392C62.736 108.052 62.8288 108.089 62.8973 108.156C62.9657 108.222 63.0042 108.313 63.0042 108.407C63.0042 108.501 62.9657 108.591 62.8973 108.658C62.8288 108.724 62.736 108.762 62.6392 108.762Z" fill="#00283D"/>
<path d="M67.0192 104.353H44.0242C43.9274 104.353 43.8345 104.315 43.7661 104.249C43.6976 104.182 43.6592 104.092 43.6592 103.998C43.6592 103.904 43.6976 103.813 43.7661 103.747C43.8345 103.68 43.9274 103.643 44.0242 103.643H67.0192C67.1154 103.645 67.2072 103.683 67.2752 103.749C67.3433 103.815 67.3823 103.904 67.3842 103.998C67.3842 104.092 67.3457 104.182 67.2773 104.249C67.2088 104.315 67.116 104.353 67.0192 104.353Z" fill="#00283D"/>
<path d="M65.9535 100.007H44.0535C43.9567 100.007 43.8638 99.9701 43.7954 99.9035C43.7269 99.8369 43.6885 99.7466 43.6885 99.6525C43.6885 99.5583 43.7269 99.468 43.7954 99.4015C43.8638 99.3349 43.9567 99.2975 44.0535 99.2975H65.9535C66.0503 99.2975 66.1431 99.3349 66.2116 99.4015C66.28 99.468 66.3185 99.5583 66.3185 99.6525C66.3185 99.7466 66.28 99.8369 66.2116 99.9035C66.1431 99.9701 66.0503 100.007 65.9535 100.007Z" fill="#00283D"/>
</svg>
