<svg width="142" height="155" viewBox="0 0 142 155" fill="none" xmlns="http://www.w3.org/2000/svg">
<path fill-rule="evenodd" clip-rule="evenodd" d="M50.4717 61.6628L46 56.902L48.3087 54.444L94.2627 103.37L91.954 105.828L85.2723 98.7138C81.2254 101.715 76.3057 103.475 71 103.475C57.1929 103.475 46 91.558 46 76.858C46 71.2092 47.6528 65.9714 50.4717 61.6628ZM70.2349 82.7041L70.8658 84.8356C70.9605 85.1718 70.9053 85.4828 70.7 85.7685C70.5105 86.0543 70.25 86.1972 69.9184 86.1972H67.5974C67.2026 86.1972 66.8474 86.0711 66.5316 85.819C66.2316 85.55 66.0421 85.2138 65.9632 84.8103L65.5605 82.8687C65.5289 82.7342 65.45 82.667 65.3237 82.667H61.2737C61.1158 82.667 61.0289 82.7342 61.0132 82.8687L60.6105 84.8103C60.5316 85.2138 60.3342 85.55 60.0184 85.819C59.7184 86.0711 59.3711 86.1972 58.9763 86.1972H56.75C56.4184 86.1972 56.15 86.0543 55.9447 85.7685C55.7553 85.4828 55.7079 85.1718 55.8026 84.8356L59.7404 71.5309L62.7201 74.7033L61.8895 78.6829C61.8737 78.7333 61.8816 78.7838 61.9132 78.8342C61.9605 78.8678 62.0079 78.8846 62.0553 78.8846H64.5184C64.5658 78.8846 64.6053 78.8678 64.6368 78.8342C64.6842 78.7838 64.7 78.7333 64.6842 78.6829L64.1774 76.2548L70.2349 82.7041Z" fill="#000728"/>
<path d="M66.2237 69.1513L66.6482 70.5856L72.5302 76.848C72.7429 75.9552 73.0724 75.2052 73.5188 74.598C74.3714 73.4212 75.5241 72.8328 76.9767 72.8328C78.2398 72.8328 79.4004 73.3288 80.4583 74.3206C80.4741 74.3374 80.4898 74.3458 80.5056 74.3458C80.5214 74.3458 80.5293 74.3374 80.5293 74.3206V68.7227C80.5293 68.336 80.6635 67.9998 80.9319 67.714C81.2004 67.4283 81.5162 67.2854 81.8793 67.2854H83.6793C84.0425 67.2854 84.3583 67.4283 84.6267 67.714C84.8951 67.9998 85.0293 68.336 85.0293 68.7227V84.7599C85.0293 85.1465 84.8951 85.4828 84.6267 85.7685C84.3583 86.0543 84.0425 86.1972 83.6793 86.1972H82.1872C81.8083 86.1972 81.4846 86.0627 81.2162 85.7938C80.9477 85.508 80.8056 85.1634 80.7898 84.7599V84.5582C80.7898 84.5414 80.782 84.533 80.7662 84.533C80.7504 84.533 80.7346 84.5414 80.7188 84.5582C80.5741 84.7475 80.4231 84.9227 80.2656 85.0836L89.4308 94.8415C93.5103 90.1049 96 83.791 96 76.858C96 62.1581 84.8071 50.2414 71 50.2414C64.4881 50.2414 58.5577 52.8921 54.1088 57.2354L64.0221 67.7897H64.4711C64.8658 67.7897 65.2211 67.9158 65.5368 68.1679C65.8684 68.4201 66.0974 68.7479 66.2237 69.1513Z" fill="#000728"/>
<path d="M76.8603 81.4581L78.1819 82.8651C78.3243 82.9011 78.4752 82.9192 78.6346 82.9192C79.1714 82.9192 79.6372 82.7258 80.032 82.3392C80.4425 81.9525 80.6477 81.5155 80.6477 81.028V78.2542C80.6477 77.7667 80.4425 77.3297 80.032 76.943C79.6372 76.5564 79.1714 76.3631 78.6346 76.3631C77.2925 76.3631 76.6214 77.4557 76.6214 79.6411C76.6214 80.3647 76.7011 80.9704 76.8603 81.4581Z" fill="#000728"/>
<path d="M71.8384 15.4822C66.2731 14.3259 64.4834 13.1305 64.4834 11.2687C64.4834 9.13253 66.9596 7.6431 71.1029 7.6431C75.4668 7.6431 77.0849 9.30891 77.232 11.7586H82.6501C82.4785 8.38782 79.9043 5.29138 74.7803 4.2919V0H67.4254V4.2331C62.6692 5.05621 58.8446 7.52552 58.8446 11.3079C58.8446 15.8349 63.5273 18.0887 70.3674 19.4017C76.4965 20.5776 77.7223 22.3022 77.7223 24.1248C77.7223 25.477 76.521 27.6328 71.1029 27.6328C66.0525 27.6328 64.0666 25.8298 63.7969 23.5172H58.4033C58.6975 27.8091 62.7182 30.2197 67.4254 31.0232V35.2759H74.7803V31.0624C79.561 30.3372 83.3611 28.1227 83.3611 24.1052C83.3611 18.5394 77.4036 16.6384 71.8384 15.4822Z" fill="#000728"/>
<path d="M9.80719 109.625H11.3072V117.32C11.3072 118.174 11.1171 118.885 10.7369 119.453C10.3567 120.021 9.85146 120.448 9.22125 120.734C8.59625 121.016 7.91656 121.156 7.18219 121.156C6.41136 121.156 5.71344 121.016 5.08844 120.734C4.46865 120.448 3.97646 120.021 3.61188 119.453C3.2525 118.885 3.07281 118.174 3.07281 117.32V109.625H4.565V117.32C4.565 117.914 4.67438 118.404 4.89313 118.789C5.11188 119.174 5.41656 119.461 5.80719 119.648C6.20302 119.836 6.66136 119.93 7.18219 119.93C7.70823 119.93 8.16656 119.836 8.55719 119.648C8.95302 119.461 9.26031 119.174 9.47906 118.789C9.69781 118.404 9.80719 117.914 9.80719 117.32V109.625ZM20.0725 119.812V121H13.9241V119.812H20.0725ZM19.8459 113.57L14.2522 121H13.3694V119.938L18.9241 112.547H19.8459V113.57ZM19.2053 112.547V113.742H13.4319V112.547H19.2053ZM15.51 109.008L16.6897 110.336L17.8694 109.008H19.1194V109.086L17.135 111.227H16.2444L14.2913 109.086V109.008H15.51ZM26.955 118.758C26.955 118.549 26.9081 118.357 26.8144 118.18C26.7258 117.997 26.5409 117.833 26.2597 117.688C25.9836 117.536 25.567 117.406 25.0097 117.297C24.5409 117.198 24.1165 117.081 23.7363 116.945C23.3613 116.81 23.0409 116.646 22.7753 116.453C22.5149 116.26 22.3144 116.034 22.1738 115.773C22.0331 115.513 21.9628 115.208 21.9628 114.859C21.9628 114.526 22.0357 114.211 22.1816 113.914C22.3326 113.617 22.5435 113.354 22.8144 113.125C23.0904 112.896 23.4211 112.716 23.8066 112.586C24.192 112.456 24.6217 112.391 25.0956 112.391C25.7727 112.391 26.3508 112.51 26.83 112.75C27.3092 112.99 27.6764 113.31 27.9316 113.711C28.1868 114.107 28.3144 114.547 28.3144 115.031H26.8691C26.8691 114.797 26.7988 114.57 26.6581 114.352C26.5227 114.128 26.3222 113.943 26.0566 113.797C25.7961 113.651 25.4758 113.578 25.0956 113.578C24.6946 113.578 24.3691 113.641 24.1191 113.766C23.8743 113.885 23.6946 114.039 23.58 114.227C23.4706 114.414 23.4159 114.612 23.4159 114.82C23.4159 114.977 23.442 115.117 23.4941 115.242C23.5514 115.362 23.6503 115.474 23.7909 115.578C23.9316 115.677 24.1295 115.771 24.3847 115.859C24.6399 115.948 24.9654 116.036 25.3613 116.125C26.054 116.281 26.6243 116.469 27.0722 116.688C27.5201 116.906 27.8534 117.174 28.0722 117.492C28.2909 117.81 28.4003 118.195 28.4003 118.648C28.4003 119.018 28.3222 119.357 28.1659 119.664C28.0149 119.971 27.7935 120.237 27.5019 120.461C27.2154 120.68 26.8717 120.852 26.4706 120.977C26.0748 121.096 25.6295 121.156 25.1347 121.156C24.3899 121.156 23.7597 121.023 23.2441 120.758C22.7284 120.492 22.3378 120.148 22.0722 119.727C21.8066 119.305 21.6738 118.859 21.6738 118.391H23.1269C23.1477 118.786 23.2623 119.102 23.4706 119.336C23.679 119.565 23.9342 119.729 24.2363 119.828C24.5383 119.922 24.8378 119.969 25.1347 119.969C25.5305 119.969 25.8613 119.917 26.1269 119.812C26.3977 119.708 26.6034 119.565 26.7441 119.383C26.8847 119.201 26.955 118.992 26.955 118.758ZM32.1891 112.547V121H30.7359V112.547H32.1891ZM30.6266 110.305C30.6266 110.07 30.6969 109.872 30.8375 109.711C30.9833 109.549 31.1969 109.469 31.4781 109.469C31.7542 109.469 31.9651 109.549 32.1109 109.711C32.262 109.872 32.3375 110.07 32.3375 110.305C32.3375 110.529 32.262 110.721 32.1109 110.883C31.9651 111.039 31.7542 111.117 31.4781 111.117C31.1969 111.117 30.9833 111.039 30.8375 110.883C30.6969 110.721 30.6266 110.529 30.6266 110.305ZM36.2747 114.172V124.25H34.8216V112.547H36.1497L36.2747 114.172ZM41.97 116.703V116.867C41.97 117.482 41.8971 118.052 41.7513 118.578C41.6054 119.099 41.3919 119.552 41.1106 119.938C40.8346 120.323 40.4934 120.622 40.0872 120.836C39.6809 121.049 39.2148 121.156 38.6888 121.156C38.1523 121.156 37.6783 121.068 37.2669 120.891C36.8554 120.714 36.5065 120.456 36.22 120.117C35.9335 119.779 35.7044 119.372 35.5325 118.898C35.3658 118.424 35.2513 117.891 35.1888 117.297V116.422C35.2513 115.797 35.3684 115.237 35.5403 114.742C35.7122 114.247 35.9388 113.826 36.22 113.477C36.5065 113.122 36.8528 112.854 37.2591 112.672C37.6653 112.484 38.1341 112.391 38.6653 112.391C39.1966 112.391 39.6679 112.495 40.0794 112.703C40.4908 112.906 40.8372 113.198 41.1184 113.578C41.3997 113.958 41.6106 114.414 41.7513 114.945C41.8971 115.471 41.97 116.057 41.97 116.703ZM40.5169 116.867V116.703C40.5169 116.281 40.4726 115.885 40.3841 115.516C40.2955 115.141 40.1575 114.812 39.97 114.531C39.7877 114.245 39.5533 114.021 39.2669 113.859C38.9804 113.693 38.6393 113.609 38.2434 113.609C37.8789 113.609 37.5611 113.672 37.2903 113.797C37.0247 113.922 36.7981 114.091 36.6106 114.305C36.4231 114.513 36.2695 114.753 36.1497 115.023C36.0351 115.289 35.9492 115.565 35.8919 115.852V117.875C35.996 118.24 36.1419 118.583 36.3294 118.906C36.5169 119.224 36.7669 119.482 37.0794 119.68C37.3919 119.872 37.7851 119.969 38.2591 119.969C38.6497 119.969 38.9856 119.888 39.2669 119.727C39.5533 119.56 39.7877 119.333 39.97 119.047C40.1575 118.76 40.2955 118.432 40.3841 118.062C40.4726 117.688 40.5169 117.289 40.5169 116.867ZM45.5791 113.875V121H44.1338V112.547H45.54L45.5791 113.875ZM48.2197 112.5L48.2119 113.844C48.0921 113.818 47.9775 113.802 47.8681 113.797C47.764 113.786 47.6442 113.781 47.5088 113.781C47.1754 113.781 46.8811 113.833 46.6259 113.938C46.3707 114.042 46.1546 114.188 45.9775 114.375C45.8004 114.562 45.6598 114.786 45.5556 115.047C45.4567 115.302 45.3916 115.583 45.3603 115.891L44.9541 116.125C44.9541 115.615 45.0035 115.135 45.1025 114.688C45.2067 114.24 45.3655 113.844 45.5791 113.5C45.7926 113.151 46.0634 112.88 46.3916 112.688C46.7249 112.49 47.1207 112.391 47.5791 112.391C47.6832 112.391 47.803 112.404 47.9384 112.43C48.0739 112.451 48.1676 112.474 48.2197 112.5ZM53.2272 121.156C52.6386 121.156 52.1048 121.057 51.6256 120.859C51.1517 120.656 50.7428 120.372 50.3991 120.008C50.0605 119.643 49.8001 119.211 49.6178 118.711C49.4355 118.211 49.3444 117.664 49.3444 117.07V116.742C49.3444 116.055 49.4459 115.443 49.6491 114.906C49.8522 114.365 50.1282 113.906 50.4772 113.531C50.8261 113.156 51.222 112.872 51.6647 112.68C52.1074 112.487 52.5657 112.391 53.0397 112.391C53.6439 112.391 54.1647 112.495 54.6022 112.703C55.0449 112.911 55.4069 113.203 55.6881 113.578C55.9694 113.948 56.1777 114.385 56.3131 114.891C56.4485 115.391 56.5163 115.938 56.5163 116.531V117.18H50.2038V116H55.0709V115.891C55.0501 115.516 54.972 115.151 54.8366 114.797C54.7064 114.443 54.498 114.151 54.2116 113.922C53.9251 113.693 53.5345 113.578 53.0397 113.578C52.7116 113.578 52.4095 113.648 52.1334 113.789C51.8574 113.924 51.6204 114.128 51.4225 114.398C51.2246 114.669 51.0709 115 50.9616 115.391C50.8522 115.781 50.7975 116.232 50.7975 116.742V117.07C50.7975 117.471 50.8522 117.849 50.9616 118.203C51.0761 118.552 51.2402 118.859 51.4538 119.125C51.6725 119.391 51.9355 119.599 52.2428 119.75C52.5553 119.901 52.9095 119.977 53.3053 119.977C53.8157 119.977 54.248 119.872 54.6022 119.664C54.9564 119.456 55.2663 119.177 55.5319 118.828L56.4069 119.523C56.2246 119.799 55.9928 120.062 55.7116 120.312C55.4303 120.562 55.084 120.766 54.6725 120.922C54.2663 121.078 53.7845 121.156 53.2272 121.156ZM59.9691 114.352V121H58.5238V112.547H59.8909L59.9691 114.352ZM59.6253 116.453L59.0238 116.43C59.029 115.852 59.1149 115.318 59.2816 114.828C59.4482 114.333 59.6826 113.904 59.9847 113.539C60.2868 113.174 60.6461 112.893 61.0628 112.695C61.4847 112.492 61.9508 112.391 62.4613 112.391C62.8779 112.391 63.2529 112.448 63.5863 112.562C63.9196 112.672 64.2034 112.849 64.4378 113.094C64.6774 113.339 64.8597 113.656 64.9847 114.047C65.1097 114.432 65.1722 114.904 65.1722 115.461V121H63.7191V115.445C63.7191 115.003 63.654 114.648 63.5238 114.383C63.3935 114.112 63.2034 113.917 62.9534 113.797C62.7034 113.672 62.3961 113.609 62.0316 113.609C61.6722 113.609 61.3441 113.685 61.0472 113.836C60.7555 113.987 60.5029 114.195 60.2894 114.461C60.081 114.727 59.917 115.031 59.7972 115.375C59.6826 115.714 59.6253 116.073 59.6253 116.453ZM72.8594 119.047V112.547H74.3125V121H72.9297L72.8594 119.047ZM73.1328 117.266L73.7344 117.25C73.7344 117.812 73.6745 118.333 73.5547 118.812C73.4401 119.286 73.2526 119.698 72.9922 120.047C72.7318 120.396 72.3906 120.669 71.9688 120.867C71.5469 121.06 71.0339 121.156 70.4297 121.156C70.0182 121.156 69.6406 121.096 69.2969 120.977C68.9583 120.857 68.6667 120.672 68.4219 120.422C68.1771 120.172 67.987 119.846 67.8516 119.445C67.7214 119.044 67.6562 118.562 67.6562 118V112.547H69.1016V118.016C69.1016 118.396 69.1432 118.711 69.2266 118.961C69.3151 119.206 69.4323 119.401 69.5781 119.547C69.7292 119.688 69.8958 119.786 70.0781 119.844C70.2656 119.901 70.4583 119.93 70.6562 119.93C71.2708 119.93 71.7578 119.812 72.1172 119.578C72.4766 119.339 72.7344 119.018 72.8906 118.617C73.0521 118.211 73.1328 117.76 73.1328 117.266ZM78.2731 114.227V121H76.82V112.547H78.195L78.2731 114.227ZM77.9762 116.453L77.3044 116.43C77.3096 115.852 77.3851 115.318 77.5309 114.828C77.6768 114.333 77.8929 113.904 78.1794 113.539C78.4658 113.174 78.8226 112.893 79.2497 112.695C79.6768 112.492 80.1716 112.391 80.7341 112.391C81.1299 112.391 81.4945 112.448 81.8278 112.562C82.1611 112.672 82.4502 112.846 82.695 113.086C82.9398 113.326 83.1299 113.633 83.2653 114.008C83.4007 114.383 83.4684 114.836 83.4684 115.367V121H82.0231V115.438C82.0231 114.995 81.9476 114.641 81.7966 114.375C81.6507 114.109 81.4424 113.917 81.1716 113.797C80.9007 113.672 80.583 113.609 80.2184 113.609C79.7914 113.609 79.4346 113.685 79.1481 113.836C78.8617 113.987 78.6325 114.195 78.4606 114.461C78.2887 114.727 78.1637 115.031 78.0856 115.375C78.0127 115.714 77.9762 116.073 77.9762 116.453ZM83.4528 115.656L82.4841 115.953C82.4893 115.49 82.5648 115.044 82.7106 114.617C82.8617 114.19 83.0778 113.81 83.3591 113.477C83.6455 113.143 83.9971 112.88 84.4137 112.688C84.8304 112.49 85.307 112.391 85.8434 112.391C86.2966 112.391 86.6976 112.451 87.0466 112.57C87.4007 112.69 87.6976 112.875 87.9372 113.125C88.182 113.37 88.3669 113.685 88.4919 114.07C88.6169 114.456 88.6794 114.914 88.6794 115.445V121H87.2262V115.43C87.2262 114.956 87.1507 114.589 86.9997 114.328C86.8539 114.062 86.6455 113.878 86.3747 113.773C86.1091 113.664 85.7914 113.609 85.4216 113.609C85.1039 113.609 84.8226 113.664 84.5778 113.773C84.333 113.883 84.1273 114.034 83.9606 114.227C83.794 114.414 83.6664 114.63 83.5778 114.875C83.4945 115.12 83.4528 115.38 83.4528 115.656ZM94.6947 121.156C94.1061 121.156 93.5723 121.057 93.0931 120.859C92.6192 120.656 92.2103 120.372 91.8666 120.008C91.528 119.643 91.2676 119.211 91.0853 118.711C90.903 118.211 90.8119 117.664 90.8119 117.07V116.742C90.8119 116.055 90.9134 115.443 91.1166 114.906C91.3197 114.365 91.5957 113.906 91.9447 113.531C92.2936 113.156 92.6895 112.872 93.1322 112.68C93.5749 112.487 94.0332 112.391 94.5072 112.391C95.1114 112.391 95.6322 112.495 96.0697 112.703C96.5124 112.911 96.8744 113.203 97.1556 113.578C97.4369 113.948 97.6452 114.385 97.7806 114.891C97.916 115.391 97.9837 115.938 97.9837 116.531V117.18H91.6712V116H96.5384V115.891C96.5176 115.516 96.4395 115.151 96.3041 114.797C96.1739 114.443 95.9655 114.151 95.6791 113.922C95.3926 113.693 95.002 113.578 94.5072 113.578C94.1791 113.578 93.877 113.648 93.6009 113.789C93.3249 113.924 93.0879 114.128 92.89 114.398C92.6921 114.669 92.5384 115 92.4291 115.391C92.3197 115.781 92.265 116.232 92.265 116.742V117.07C92.265 117.471 92.3197 117.849 92.4291 118.203C92.5436 118.552 92.7077 118.859 92.9212 119.125C93.14 119.391 93.403 119.599 93.7103 119.75C94.0228 119.901 94.377 119.977 94.7728 119.977C95.2832 119.977 95.7155 119.872 96.0697 119.664C96.4239 119.456 96.7337 119.177 96.9994 118.828L97.8744 119.523C97.6921 119.799 97.4603 120.062 97.1791 120.312C96.8978 120.562 96.5515 120.766 96.14 120.922C95.7337 121.078 95.252 121.156 94.6947 121.156ZM101.437 113.875V121H99.9912V112.547H101.397L101.437 113.875ZM104.077 112.5L104.069 113.844C103.95 113.818 103.835 113.802 103.726 113.797C103.621 113.786 103.502 113.781 103.366 113.781C103.033 113.781 102.739 113.833 102.483 113.938C102.228 114.042 102.012 114.188 101.835 114.375C101.658 114.562 101.517 114.786 101.413 115.047C101.314 115.302 101.249 115.583 101.218 115.891L100.812 116.125C100.812 115.615 100.861 115.135 100.96 114.688C101.064 114.24 101.223 113.844 101.437 113.5C101.65 113.151 101.921 112.88 102.249 112.688C102.582 112.49 102.978 112.391 103.437 112.391C103.541 112.391 103.661 112.404 103.796 112.43C103.931 112.451 104.025 112.474 104.077 112.5ZM110.405 119.555V115.203C110.405 114.87 110.337 114.581 110.202 114.336C110.072 114.086 109.874 113.893 109.608 113.758C109.342 113.622 109.014 113.555 108.624 113.555C108.259 113.555 107.939 113.617 107.663 113.742C107.392 113.867 107.178 114.031 107.022 114.234C106.871 114.438 106.796 114.656 106.796 114.891H105.35C105.35 114.589 105.428 114.289 105.585 113.992C105.741 113.695 105.965 113.427 106.257 113.188C106.553 112.943 106.908 112.75 107.319 112.609C107.736 112.464 108.199 112.391 108.71 112.391C109.324 112.391 109.866 112.495 110.335 112.703C110.809 112.911 111.178 113.227 111.444 113.648C111.715 114.065 111.85 114.589 111.85 115.219V119.156C111.85 119.438 111.874 119.737 111.921 120.055C111.973 120.372 112.048 120.646 112.147 120.875V121H110.639C110.566 120.833 110.509 120.612 110.467 120.336C110.426 120.055 110.405 119.794 110.405 119.555ZM110.655 115.875L110.671 116.891H109.21C108.798 116.891 108.431 116.924 108.108 116.992C107.785 117.055 107.514 117.151 107.296 117.281C107.077 117.411 106.91 117.576 106.796 117.773C106.681 117.966 106.624 118.193 106.624 118.453C106.624 118.719 106.684 118.961 106.803 119.18C106.923 119.398 107.103 119.573 107.342 119.703C107.587 119.828 107.887 119.891 108.241 119.891C108.684 119.891 109.074 119.797 109.413 119.609C109.751 119.422 110.02 119.193 110.217 118.922C110.421 118.651 110.53 118.388 110.546 118.133L111.163 118.828C111.126 119.047 111.027 119.289 110.866 119.555C110.704 119.82 110.488 120.076 110.217 120.32C109.952 120.56 109.634 120.76 109.264 120.922C108.9 121.078 108.488 121.156 108.03 121.156C107.457 121.156 106.954 121.044 106.522 120.82C106.095 120.596 105.762 120.297 105.522 119.922C105.288 119.542 105.171 119.117 105.171 118.648C105.171 118.195 105.259 117.797 105.436 117.453C105.613 117.104 105.869 116.815 106.202 116.586C106.535 116.352 106.936 116.174 107.405 116.055C107.874 115.935 108.397 115.875 108.975 115.875H110.655ZM116.889 119.695L119.202 112.547H120.678L117.639 121H116.67L116.889 119.695ZM114.959 112.547L117.342 119.734L117.506 121H116.538L113.475 112.547H114.959ZM127.561 119.047V112.547H129.014V121H127.631L127.561 119.047ZM127.834 117.266L128.436 117.25C128.436 117.812 128.376 118.333 128.256 118.812C128.141 119.286 127.954 119.698 127.693 120.047C127.433 120.396 127.092 120.669 126.67 120.867C126.248 121.06 125.735 121.156 125.131 121.156C124.719 121.156 124.342 121.096 123.998 120.977C123.66 120.857 123.368 120.672 123.123 120.422C122.878 120.172 122.688 119.846 122.553 119.445C122.423 119.044 122.358 118.562 122.358 118V112.547H123.803V118.016C123.803 118.396 123.844 118.711 123.928 118.961C124.016 119.206 124.134 119.401 124.279 119.547C124.43 119.688 124.597 119.786 124.779 119.844C124.967 119.901 125.16 119.93 125.358 119.93C125.972 119.93 126.459 119.812 126.818 119.578C127.178 119.339 127.436 119.018 127.592 118.617C127.753 118.211 127.834 117.76 127.834 117.266ZM136.459 118.758C136.459 118.549 136.412 118.357 136.318 118.18C136.23 117.997 136.045 117.833 135.763 117.688C135.487 117.536 135.071 117.406 134.513 117.297C134.045 117.198 133.62 117.081 133.24 116.945C132.865 116.81 132.545 116.646 132.279 116.453C132.019 116.26 131.818 116.034 131.678 115.773C131.537 115.513 131.467 115.208 131.467 114.859C131.467 114.526 131.539 114.211 131.685 113.914C131.836 113.617 132.047 113.354 132.318 113.125C132.594 112.896 132.925 112.716 133.31 112.586C133.696 112.456 134.125 112.391 134.599 112.391C135.276 112.391 135.855 112.51 136.334 112.75C136.813 112.99 137.18 113.31 137.435 113.711C137.691 114.107 137.818 114.547 137.818 115.031H136.373C136.373 114.797 136.303 114.57 136.162 114.352C136.026 114.128 135.826 113.943 135.56 113.797C135.3 113.651 134.98 113.578 134.599 113.578C134.198 113.578 133.873 113.641 133.623 113.766C133.378 113.885 133.198 114.039 133.084 114.227C132.974 114.414 132.92 114.612 132.92 114.82C132.92 114.977 132.946 115.117 132.998 115.242C133.055 115.362 133.154 115.474 133.295 115.578C133.435 115.677 133.633 115.771 133.888 115.859C134.144 115.948 134.469 116.036 134.865 116.125C135.558 116.281 136.128 116.469 136.576 116.688C137.024 116.906 137.357 117.174 137.576 117.492C137.795 117.81 137.904 118.195 137.904 118.648C137.904 119.018 137.826 119.357 137.67 119.664C137.519 119.971 137.297 120.237 137.006 120.461C136.719 120.68 136.375 120.852 135.974 120.977C135.579 121.096 135.133 121.156 134.638 121.156C133.894 121.156 133.263 121.023 132.748 120.758C132.232 120.492 131.842 120.148 131.576 119.727C131.31 119.305 131.178 118.859 131.178 118.391H132.631C132.651 118.786 132.766 119.102 132.974 119.336C133.183 119.565 133.438 119.729 133.74 119.828C134.042 119.922 134.342 119.969 134.638 119.969C135.034 119.969 135.365 119.917 135.631 119.812C135.901 119.708 136.107 119.565 136.248 119.383C136.388 119.201 136.459 118.992 136.459 118.758ZM30.7788 129H32.2319V139.359L32.1069 141H30.7788V129ZM37.9428 136.703V136.867C37.9428 137.482 37.8699 138.052 37.7241 138.578C37.5782 139.099 37.3647 139.552 37.0834 139.938C36.8022 140.323 36.4584 140.622 36.0522 140.836C35.6459 141.049 35.1798 141.156 34.6538 141.156C34.1173 141.156 33.6459 141.065 33.2397 140.883C32.8386 140.695 32.5001 140.427 32.2241 140.078C31.948 139.729 31.7267 139.307 31.56 138.812C31.3985 138.318 31.2866 137.76 31.2241 137.141V136.422C31.2866 135.797 31.3985 135.237 31.56 134.742C31.7267 134.247 31.948 133.826 32.2241 133.477C32.5001 133.122 32.8386 132.854 33.2397 132.672C33.6407 132.484 34.1069 132.391 34.6381 132.391C35.1694 132.391 35.6407 132.495 36.0522 132.703C36.4636 132.906 36.8074 133.198 37.0834 133.578C37.3647 133.958 37.5782 134.414 37.7241 134.945C37.8699 135.471 37.9428 136.057 37.9428 136.703ZM36.4897 136.867V136.703C36.4897 136.281 36.4506 135.885 36.3725 135.516C36.2944 135.141 36.1694 134.812 35.9975 134.531C35.8256 134.245 35.5991 134.021 35.3178 133.859C35.0366 133.693 34.6902 133.609 34.2788 133.609C33.9142 133.609 33.5965 133.672 33.3256 133.797C33.06 133.922 32.8334 134.091 32.6459 134.305C32.4584 134.513 32.3048 134.753 32.185 135.023C32.0704 135.289 31.9845 135.565 31.9272 135.852V137.734C32.0105 138.099 32.1459 138.451 32.3334 138.789C32.5261 139.122 32.7814 139.396 33.0991 139.609C33.422 139.823 33.8204 139.93 34.2944 139.93C34.685 139.93 35.0183 139.852 35.2944 139.695C35.5756 139.534 35.8022 139.312 35.9741 139.031C36.1511 138.75 36.2814 138.424 36.3647 138.055C36.448 137.685 36.4897 137.289 36.4897 136.867ZM43.5988 141.156C43.0102 141.156 42.4764 141.057 41.9972 140.859C41.5232 140.656 41.1144 140.372 40.7706 140.008C40.4321 139.643 40.1717 139.211 39.9894 138.711C39.8071 138.211 39.7159 137.664 39.7159 137.07V136.742C39.7159 136.055 39.8175 135.443 40.0206 134.906C40.2238 134.365 40.4998 133.906 40.8488 133.531C41.1977 133.156 41.5935 132.872 42.0363 132.68C42.479 132.487 42.9373 132.391 43.4113 132.391C44.0154 132.391 44.5363 132.495 44.9738 132.703C45.4165 132.911 45.7784 133.203 46.0597 133.578C46.3409 133.948 46.5493 134.385 46.6847 134.891C46.8201 135.391 46.8878 135.938 46.8878 136.531V137.18H40.5753V136H45.4425V135.891C45.4217 135.516 45.3435 135.151 45.2081 134.797C45.0779 134.443 44.8696 134.151 44.5831 133.922C44.2967 133.693 43.906 133.578 43.4113 133.578C43.0831 133.578 42.781 133.648 42.505 133.789C42.229 133.924 41.992 134.128 41.7941 134.398C41.5961 134.669 41.4425 135 41.3331 135.391C41.2238 135.781 41.1691 136.232 41.1691 136.742V137.07C41.1691 137.471 41.2238 137.849 41.3331 138.203C41.4477 138.552 41.6118 138.859 41.8253 139.125C42.0441 139.391 42.3071 139.599 42.6144 139.75C42.9269 139.901 43.281 139.977 43.6769 139.977C44.1873 139.977 44.6196 139.872 44.9738 139.664C45.3279 139.456 45.6378 139.177 45.9034 138.828L46.7784 139.523C46.5961 139.799 46.3644 140.062 46.0831 140.312C45.8019 140.562 45.4555 140.766 45.0441 140.922C44.6378 141.078 44.156 141.156 43.5988 141.156ZM54.6294 133.875V141H53.1841V132.547H54.5903L54.6294 133.875ZM57.27 132.5L57.2622 133.844C57.1424 133.818 57.0278 133.802 56.9184 133.797C56.8143 133.786 56.6945 133.781 56.5591 133.781C56.2257 133.781 55.9315 133.833 55.6763 133.938C55.421 134.042 55.2049 134.188 55.0278 134.375C54.8507 134.562 54.7101 134.786 54.6059 135.047C54.507 135.302 54.4419 135.583 54.4106 135.891L54.0044 136.125C54.0044 135.615 54.0539 135.135 54.1528 134.688C54.257 134.24 54.4158 133.844 54.6294 133.5C54.8429 133.151 55.1138 132.88 55.4419 132.688C55.7752 132.49 56.171 132.391 56.6294 132.391C56.7335 132.391 56.8533 132.404 56.9888 132.43C57.1242 132.451 57.2179 132.474 57.27 132.5ZM62.2775 141.156C61.689 141.156 61.1551 141.057 60.6759 140.859C60.202 140.656 59.7931 140.372 59.4494 140.008C59.1108 139.643 58.8504 139.211 58.6681 138.711C58.4858 138.211 58.3947 137.664 58.3947 137.07V136.742C58.3947 136.055 58.4963 135.443 58.6994 134.906C58.9025 134.365 59.1785 133.906 59.5275 133.531C59.8765 133.156 60.2723 132.872 60.715 132.68C61.1577 132.487 61.616 132.391 62.09 132.391C62.6942 132.391 63.215 132.495 63.6525 132.703C64.0952 132.911 64.4572 133.203 64.7384 133.578C65.0197 133.948 65.228 134.385 65.3634 134.891C65.4989 135.391 65.5666 135.938 65.5666 136.531V137.18H59.2541V136H64.1213V135.891C64.1004 135.516 64.0223 135.151 63.8869 134.797C63.7567 134.443 63.5483 134.151 63.2619 133.922C62.9754 133.693 62.5848 133.578 62.09 133.578C61.7619 133.578 61.4598 133.648 61.1838 133.789C60.9077 133.924 60.6707 134.128 60.4728 134.398C60.2749 134.669 60.1213 135 60.0119 135.391C59.9025 135.781 59.8478 136.232 59.8478 136.742V137.07C59.8478 137.471 59.9025 137.849 60.0119 138.203C60.1265 138.552 60.2905 138.859 60.5041 139.125C60.7228 139.391 60.9858 139.599 61.2931 139.75C61.6056 139.901 61.9598 139.977 62.3556 139.977C62.866 139.977 63.2983 139.872 63.6525 139.664C64.0067 139.456 64.3166 139.177 64.5822 138.828L65.4572 139.523C65.2749 139.799 65.0431 140.062 64.7619 140.312C64.4806 140.562 64.1343 140.766 63.7228 140.922C63.3166 141.078 62.8348 141.156 62.2775 141.156ZM69.0272 129V141H67.5741V129H69.0272ZM74.1913 132.547L70.5038 136.492L68.4413 138.633L68.3241 137.094L69.8006 135.328L72.4256 132.547H74.1913ZM72.8709 141L69.8553 136.969L70.6053 135.68L74.5741 141H72.8709ZM77.5737 129V141H76.1206V129H77.5737ZM85.1984 139.555V135.203C85.1984 134.87 85.1307 134.581 84.9953 134.336C84.8651 134.086 84.6672 133.893 84.4016 133.758C84.1359 133.622 83.8078 133.555 83.4172 133.555C83.0526 133.555 82.7323 133.617 82.4563 133.742C82.1854 133.867 81.9719 134.031 81.8156 134.234C81.6646 134.438 81.5891 134.656 81.5891 134.891H80.1438C80.1438 134.589 80.2219 134.289 80.3781 133.992C80.5344 133.695 80.7583 133.427 81.05 133.188C81.3469 132.943 81.701 132.75 82.1125 132.609C82.5292 132.464 82.9927 132.391 83.5031 132.391C84.1177 132.391 84.6594 132.495 85.1281 132.703C85.6021 132.911 85.9719 133.227 86.2375 133.648C86.5083 134.065 86.6438 134.589 86.6438 135.219V139.156C86.6438 139.438 86.6672 139.737 86.7141 140.055C86.7661 140.372 86.8417 140.646 86.9406 140.875V141H85.4328C85.3599 140.833 85.3026 140.612 85.2609 140.336C85.2193 140.055 85.1984 139.794 85.1984 139.555ZM85.4484 135.875L85.4641 136.891H84.0031C83.5917 136.891 83.2245 136.924 82.9016 136.992C82.5786 137.055 82.3078 137.151 82.0891 137.281C81.8703 137.411 81.7036 137.576 81.5891 137.773C81.4745 137.966 81.4172 138.193 81.4172 138.453C81.4172 138.719 81.4771 138.961 81.5969 139.18C81.7167 139.398 81.8964 139.573 82.1359 139.703C82.3807 139.828 82.6802 139.891 83.0344 139.891C83.4771 139.891 83.8677 139.797 84.2063 139.609C84.5448 139.422 84.813 139.193 85.0109 138.922C85.2141 138.651 85.3234 138.388 85.3391 138.133L85.9563 138.828C85.9198 139.047 85.8208 139.289 85.6594 139.555C85.4979 139.82 85.2818 140.076 85.0109 140.32C84.7453 140.56 84.4276 140.76 84.0578 140.922C83.6932 141.078 83.2818 141.156 82.8234 141.156C82.2505 141.156 81.7479 141.044 81.3156 140.82C80.8885 140.596 80.5552 140.297 80.3156 139.922C80.0813 139.542 79.9641 139.117 79.9641 138.648C79.9641 138.195 80.0526 137.797 80.2297 137.453C80.4068 137.104 80.662 136.815 80.9953 136.586C81.3286 136.352 81.7297 136.174 82.1984 136.055C82.6672 135.935 83.1906 135.875 83.7688 135.875H85.4484ZM90.6747 134.227V141H89.2216V132.547H90.5966L90.6747 134.227ZM90.3778 136.453L89.7059 136.43C89.7111 135.852 89.7867 135.318 89.9325 134.828C90.0783 134.333 90.2945 133.904 90.5809 133.539C90.8674 133.174 91.2242 132.893 91.6513 132.695C92.0783 132.492 92.5731 132.391 93.1356 132.391C93.5315 132.391 93.896 132.448 94.2294 132.562C94.5627 132.672 94.8518 132.846 95.0966 133.086C95.3414 133.326 95.5315 133.633 95.6669 134.008C95.8023 134.383 95.87 134.836 95.87 135.367V141H94.4247V135.438C94.4247 134.995 94.3492 134.641 94.1981 134.375C94.0523 134.109 93.844 133.917 93.5731 133.797C93.3023 133.672 92.9846 133.609 92.62 133.609C92.1929 133.609 91.8361 133.685 91.5497 133.836C91.2632 133.987 91.0341 134.195 90.8622 134.461C90.6903 134.727 90.5653 135.031 90.4872 135.375C90.4143 135.714 90.3778 136.073 90.3778 136.453ZM95.8544 135.656L94.8856 135.953C94.8908 135.49 94.9664 135.044 95.1122 134.617C95.2632 134.19 95.4794 133.81 95.7606 133.477C96.0471 133.143 96.3986 132.88 96.8153 132.688C97.232 132.49 97.7085 132.391 98.245 132.391C98.6981 132.391 99.0992 132.451 99.4481 132.57C99.8023 132.69 100.099 132.875 100.339 133.125C100.584 133.37 100.768 133.685 100.893 134.07C101.018 134.456 101.081 134.914 101.081 135.445V141H99.6278V135.43C99.6278 134.956 99.5523 134.589 99.4013 134.328C99.2554 134.062 99.0471 133.878 98.7763 133.773C98.5106 133.664 98.1929 133.609 97.8231 133.609C97.5054 133.609 97.2242 133.664 96.9794 133.773C96.7346 133.883 96.5289 134.034 96.3622 134.227C96.1955 134.414 96.0679 134.63 95.9794 134.875C95.896 135.12 95.8544 135.38 95.8544 135.656ZM108.76 139.047V132.547H110.213V141H108.831L108.76 139.047ZM109.034 137.266L109.635 137.25C109.635 137.812 109.575 138.333 109.456 138.812C109.341 139.286 109.154 139.698 108.893 140.047C108.633 140.396 108.292 140.669 107.87 140.867C107.448 141.06 106.935 141.156 106.331 141.156C105.919 141.156 105.542 141.096 105.198 140.977C104.859 140.857 104.568 140.672 104.323 140.422C104.078 140.172 103.888 139.846 103.753 139.445C103.622 139.044 103.557 138.562 103.557 138V132.547H105.003V138.016C105.003 138.396 105.044 138.711 105.128 138.961C105.216 139.206 105.333 139.401 105.479 139.547C105.63 139.688 105.797 139.786 105.979 139.844C106.167 139.901 106.359 139.93 106.557 139.93C107.172 139.93 107.659 139.812 108.018 139.578C108.378 139.339 108.635 139.018 108.792 138.617C108.953 138.211 109.034 137.76 109.034 137.266ZM109.557 140.555L110.135 141C109.911 141.167 109.698 141.339 109.495 141.516C109.292 141.698 109.125 141.888 108.995 142.086C108.864 142.289 108.799 142.505 108.799 142.734C108.799 142.906 108.844 143.044 108.932 143.148C109.026 143.253 109.185 143.305 109.409 143.305C109.581 143.305 109.734 143.279 109.87 143.227C110.005 143.18 110.112 143.135 110.19 143.094L110.299 144.047C110.169 144.125 110.003 144.201 109.799 144.273C109.601 144.352 109.349 144.391 109.042 144.391C108.62 144.391 108.263 144.263 107.971 144.008C107.685 143.758 107.542 143.388 107.542 142.898C107.542 142.617 107.609 142.339 107.745 142.062C107.885 141.786 108.104 141.521 108.401 141.266C108.698 141.01 109.083 140.773 109.557 140.555Z" fill="black"/>
<path d="M9.80719 109.625H11.3072V117.32C11.3072 118.174 11.1171 118.885 10.7369 119.453C10.3567 120.021 9.85146 120.448 9.22125 120.734C8.59625 121.016 7.91656 121.156 7.18219 121.156C6.41136 121.156 5.71344 121.016 5.08844 120.734C4.46865 120.448 3.97646 120.021 3.61188 119.453C3.2525 118.885 3.07281 118.174 3.07281 117.32V109.625H4.565V117.32C4.565 117.914 4.67438 118.404 4.89313 118.789C5.11188 119.174 5.41656 119.461 5.80719 119.648C6.20302 119.836 6.66136 119.93 7.18219 119.93C7.70823 119.93 8.16656 119.836 8.55719 119.648C8.95302 119.461 9.26031 119.174 9.47906 118.789C9.69781 118.404 9.80719 117.914 9.80719 117.32V109.625ZM20.0725 119.812V121H13.9241V119.812H20.0725ZM19.8459 113.57L14.2522 121H13.3694V119.938L18.9241 112.547H19.8459V113.57ZM19.2053 112.547V113.742H13.4319V112.547H19.2053ZM15.51 109.008L16.6897 110.336L17.8694 109.008H19.1194V109.086L17.135 111.227H16.2444L14.2913 109.086V109.008H15.51ZM26.955 118.758C26.955 118.549 26.9081 118.357 26.8144 118.18C26.7258 117.997 26.5409 117.833 26.2597 117.688C25.9836 117.536 25.567 117.406 25.0097 117.297C24.5409 117.198 24.1165 117.081 23.7363 116.945C23.3613 116.81 23.0409 116.646 22.7753 116.453C22.5149 116.26 22.3144 116.034 22.1738 115.773C22.0331 115.513 21.9628 115.208 21.9628 114.859C21.9628 114.526 22.0357 114.211 22.1816 113.914C22.3326 113.617 22.5435 113.354 22.8144 113.125C23.0904 112.896 23.4211 112.716 23.8066 112.586C24.192 112.456 24.6217 112.391 25.0956 112.391C25.7727 112.391 26.3508 112.51 26.83 112.75C27.3092 112.99 27.6764 113.31 27.9316 113.711C28.1868 114.107 28.3144 114.547 28.3144 115.031H26.8691C26.8691 114.797 26.7988 114.57 26.6581 114.352C26.5227 114.128 26.3222 113.943 26.0566 113.797C25.7961 113.651 25.4758 113.578 25.0956 113.578C24.6946 113.578 24.3691 113.641 24.1191 113.766C23.8743 113.885 23.6946 114.039 23.58 114.227C23.4706 114.414 23.4159 114.612 23.4159 114.82C23.4159 114.977 23.442 115.117 23.4941 115.242C23.5514 115.362 23.6503 115.474 23.7909 115.578C23.9316 115.677 24.1295 115.771 24.3847 115.859C24.6399 115.948 24.9654 116.036 25.3613 116.125C26.054 116.281 26.6243 116.469 27.0722 116.688C27.5201 116.906 27.8534 117.174 28.0722 117.492C28.2909 117.81 28.4003 118.195 28.4003 118.648C28.4003 119.018 28.3222 119.357 28.1659 119.664C28.0149 119.971 27.7935 120.237 27.5019 120.461C27.2154 120.68 26.8717 120.852 26.4706 120.977C26.0748 121.096 25.6295 121.156 25.1347 121.156C24.3899 121.156 23.7597 121.023 23.2441 120.758C22.7284 120.492 22.3378 120.148 22.0722 119.727C21.8066 119.305 21.6738 118.859 21.6738 118.391H23.1269C23.1477 118.786 23.2623 119.102 23.4706 119.336C23.679 119.565 23.9342 119.729 24.2363 119.828C24.5383 119.922 24.8378 119.969 25.1347 119.969C25.5305 119.969 25.8613 119.917 26.1269 119.812C26.3977 119.708 26.6034 119.565 26.7441 119.383C26.8847 119.201 26.955 118.992 26.955 118.758ZM32.1891 112.547V121H30.7359V112.547H32.1891ZM30.6266 110.305C30.6266 110.07 30.6969 109.872 30.8375 109.711C30.9833 109.549 31.1969 109.469 31.4781 109.469C31.7542 109.469 31.9651 109.549 32.1109 109.711C32.262 109.872 32.3375 110.07 32.3375 110.305C32.3375 110.529 32.262 110.721 32.1109 110.883C31.9651 111.039 31.7542 111.117 31.4781 111.117C31.1969 111.117 30.9833 111.039 30.8375 110.883C30.6969 110.721 30.6266 110.529 30.6266 110.305ZM36.2747 114.172V124.25H34.8216V112.547H36.1497L36.2747 114.172ZM41.97 116.703V116.867C41.97 117.482 41.8971 118.052 41.7513 118.578C41.6054 119.099 41.3919 119.552 41.1106 119.938C40.8346 120.323 40.4934 120.622 40.0872 120.836C39.6809 121.049 39.2148 121.156 38.6888 121.156C38.1523 121.156 37.6783 121.068 37.2669 120.891C36.8554 120.714 36.5065 120.456 36.22 120.117C35.9335 119.779 35.7044 119.372 35.5325 118.898C35.3658 118.424 35.2513 117.891 35.1888 117.297V116.422C35.2513 115.797 35.3684 115.237 35.5403 114.742C35.7122 114.247 35.9388 113.826 36.22 113.477C36.5065 113.122 36.8528 112.854 37.2591 112.672C37.6653 112.484 38.1341 112.391 38.6653 112.391C39.1966 112.391 39.6679 112.495 40.0794 112.703C40.4908 112.906 40.8372 113.198 41.1184 113.578C41.3997 113.958 41.6106 114.414 41.7513 114.945C41.8971 115.471 41.97 116.057 41.97 116.703ZM40.5169 116.867V116.703C40.5169 116.281 40.4726 115.885 40.3841 115.516C40.2955 115.141 40.1575 114.812 39.97 114.531C39.7877 114.245 39.5533 114.021 39.2669 113.859C38.9804 113.693 38.6393 113.609 38.2434 113.609C37.8789 113.609 37.5611 113.672 37.2903 113.797C37.0247 113.922 36.7981 114.091 36.6106 114.305C36.4231 114.513 36.2695 114.753 36.1497 115.023C36.0351 115.289 35.9492 115.565 35.8919 115.852V117.875C35.996 118.24 36.1419 118.583 36.3294 118.906C36.5169 119.224 36.7669 119.482 37.0794 119.68C37.3919 119.872 37.7851 119.969 38.2591 119.969C38.6497 119.969 38.9856 119.888 39.2669 119.727C39.5533 119.56 39.7877 119.333 39.97 119.047C40.1575 118.76 40.2955 118.432 40.3841 118.062C40.4726 117.688 40.5169 117.289 40.5169 116.867ZM45.5791 113.875V121H44.1338V112.547H45.54L45.5791 113.875ZM48.2197 112.5L48.2119 113.844C48.0921 113.818 47.9775 113.802 47.8681 113.797C47.764 113.786 47.6442 113.781 47.5088 113.781C47.1754 113.781 46.8811 113.833 46.6259 113.938C46.3707 114.042 46.1546 114.188 45.9775 114.375C45.8004 114.562 45.6598 114.786 45.5556 115.047C45.4567 115.302 45.3916 115.583 45.3603 115.891L44.9541 116.125C44.9541 115.615 45.0035 115.135 45.1025 114.688C45.2067 114.24 45.3655 113.844 45.5791 113.5C45.7926 113.151 46.0634 112.88 46.3916 112.688C46.7249 112.49 47.1207 112.391 47.5791 112.391C47.6832 112.391 47.803 112.404 47.9384 112.43C48.0739 112.451 48.1676 112.474 48.2197 112.5ZM53.2272 121.156C52.6386 121.156 52.1048 121.057 51.6256 120.859C51.1517 120.656 50.7428 120.372 50.3991 120.008C50.0605 119.643 49.8001 119.211 49.6178 118.711C49.4355 118.211 49.3444 117.664 49.3444 117.07V116.742C49.3444 116.055 49.4459 115.443 49.6491 114.906C49.8522 114.365 50.1282 113.906 50.4772 113.531C50.8261 113.156 51.222 112.872 51.6647 112.68C52.1074 112.487 52.5657 112.391 53.0397 112.391C53.6439 112.391 54.1647 112.495 54.6022 112.703C55.0449 112.911 55.4069 113.203 55.6881 113.578C55.9694 113.948 56.1777 114.385 56.3131 114.891C56.4485 115.391 56.5163 115.938 56.5163 116.531V117.18H50.2038V116H55.0709V115.891C55.0501 115.516 54.972 115.151 54.8366 114.797C54.7064 114.443 54.498 114.151 54.2116 113.922C53.9251 113.693 53.5345 113.578 53.0397 113.578C52.7116 113.578 52.4095 113.648 52.1334 113.789C51.8574 113.924 51.6204 114.128 51.4225 114.398C51.2246 114.669 51.0709 115 50.9616 115.391C50.8522 115.781 50.7975 116.232 50.7975 116.742V117.07C50.7975 117.471 50.8522 117.849 50.9616 118.203C51.0761 118.552 51.2402 118.859 51.4538 119.125C51.6725 119.391 51.9355 119.599 52.2428 119.75C52.5553 119.901 52.9095 119.977 53.3053 119.977C53.8157 119.977 54.248 119.872 54.6022 119.664C54.9564 119.456 55.2663 119.177 55.5319 118.828L56.4069 119.523C56.2246 119.799 55.9928 120.062 55.7116 120.312C55.4303 120.562 55.084 120.766 54.6725 120.922C54.2663 121.078 53.7845 121.156 53.2272 121.156ZM59.9691 114.352V121H58.5238V112.547H59.8909L59.9691 114.352ZM59.6253 116.453L59.0238 116.43C59.029 115.852 59.1149 115.318 59.2816 114.828C59.4482 114.333 59.6826 113.904 59.9847 113.539C60.2868 113.174 60.6461 112.893 61.0628 112.695C61.4847 112.492 61.9508 112.391 62.4613 112.391C62.8779 112.391 63.2529 112.448 63.5863 112.562C63.9196 112.672 64.2034 112.849 64.4378 113.094C64.6774 113.339 64.8597 113.656 64.9847 114.047C65.1097 114.432 65.1722 114.904 65.1722 115.461V121H63.7191V115.445C63.7191 115.003 63.654 114.648 63.5238 114.383C63.3935 114.112 63.2034 113.917 62.9534 113.797C62.7034 113.672 62.3961 113.609 62.0316 113.609C61.6722 113.609 61.3441 113.685 61.0472 113.836C60.7555 113.987 60.5029 114.195 60.2894 114.461C60.081 114.727 59.917 115.031 59.7972 115.375C59.6826 115.714 59.6253 116.073 59.6253 116.453ZM72.8594 119.047V112.547H74.3125V121H72.9297L72.8594 119.047ZM73.1328 117.266L73.7344 117.25C73.7344 117.812 73.6745 118.333 73.5547 118.812C73.4401 119.286 73.2526 119.698 72.9922 120.047C72.7318 120.396 72.3906 120.669 71.9688 120.867C71.5469 121.06 71.0339 121.156 70.4297 121.156C70.0182 121.156 69.6406 121.096 69.2969 120.977C68.9583 120.857 68.6667 120.672 68.4219 120.422C68.1771 120.172 67.987 119.846 67.8516 119.445C67.7214 119.044 67.6562 118.562 67.6562 118V112.547H69.1016V118.016C69.1016 118.396 69.1432 118.711 69.2266 118.961C69.3151 119.206 69.4323 119.401 69.5781 119.547C69.7292 119.688 69.8958 119.786 70.0781 119.844C70.2656 119.901 70.4583 119.93 70.6562 119.93C71.2708 119.93 71.7578 119.812 72.1172 119.578C72.4766 119.339 72.7344 119.018 72.8906 118.617C73.0521 118.211 73.1328 117.76 73.1328 117.266ZM78.2731 114.227V121H76.82V112.547H78.195L78.2731 114.227ZM77.9762 116.453L77.3044 116.43C77.3096 115.852 77.3851 115.318 77.5309 114.828C77.6768 114.333 77.8929 113.904 78.1794 113.539C78.4658 113.174 78.8226 112.893 79.2497 112.695C79.6768 112.492 80.1716 112.391 80.7341 112.391C81.1299 112.391 81.4945 112.448 81.8278 112.562C82.1611 112.672 82.4502 112.846 82.695 113.086C82.9398 113.326 83.1299 113.633 83.2653 114.008C83.4007 114.383 83.4684 114.836 83.4684 115.367V121H82.0231V115.438C82.0231 114.995 81.9476 114.641 81.7966 114.375C81.6507 114.109 81.4424 113.917 81.1716 113.797C80.9007 113.672 80.583 113.609 80.2184 113.609C79.7914 113.609 79.4346 113.685 79.1481 113.836C78.8617 113.987 78.6325 114.195 78.4606 114.461C78.2887 114.727 78.1637 115.031 78.0856 115.375C78.0127 115.714 77.9762 116.073 77.9762 116.453ZM83.4528 115.656L82.4841 115.953C82.4893 115.49 82.5648 115.044 82.7106 114.617C82.8617 114.19 83.0778 113.81 83.3591 113.477C83.6455 113.143 83.9971 112.88 84.4137 112.688C84.8304 112.49 85.307 112.391 85.8434 112.391C86.2966 112.391 86.6976 112.451 87.0466 112.57C87.4007 112.69 87.6976 112.875 87.9372 113.125C88.182 113.37 88.3669 113.685 88.4919 114.07C88.6169 114.456 88.6794 114.914 88.6794 115.445V121H87.2262V115.43C87.2262 114.956 87.1507 114.589 86.9997 114.328C86.8539 114.062 86.6455 113.878 86.3747 113.773C86.1091 113.664 85.7914 113.609 85.4216 113.609C85.1039 113.609 84.8226 113.664 84.5778 113.773C84.333 113.883 84.1273 114.034 83.9606 114.227C83.794 114.414 83.6664 114.63 83.5778 114.875C83.4945 115.12 83.4528 115.38 83.4528 115.656ZM94.6947 121.156C94.1061 121.156 93.5723 121.057 93.0931 120.859C92.6192 120.656 92.2103 120.372 91.8666 120.008C91.528 119.643 91.2676 119.211 91.0853 118.711C90.903 118.211 90.8119 117.664 90.8119 117.07V116.742C90.8119 116.055 90.9134 115.443 91.1166 114.906C91.3197 114.365 91.5957 113.906 91.9447 113.531C92.2936 113.156 92.6895 112.872 93.1322 112.68C93.5749 112.487 94.0332 112.391 94.5072 112.391C95.1114 112.391 95.6322 112.495 96.0697 112.703C96.5124 112.911 96.8744 113.203 97.1556 113.578C97.4369 113.948 97.6452 114.385 97.7806 114.891C97.916 115.391 97.9837 115.938 97.9837 116.531V117.18H91.6712V116H96.5384V115.891C96.5176 115.516 96.4395 115.151 96.3041 114.797C96.1739 114.443 95.9655 114.151 95.6791 113.922C95.3926 113.693 95.002 113.578 94.5072 113.578C94.1791 113.578 93.877 113.648 93.6009 113.789C93.3249 113.924 93.0879 114.128 92.89 114.398C92.6921 114.669 92.5384 115 92.4291 115.391C92.3197 115.781 92.265 116.232 92.265 116.742V117.07C92.265 117.471 92.3197 117.849 92.4291 118.203C92.5436 118.552 92.7077 118.859 92.9212 119.125C93.14 119.391 93.403 119.599 93.7103 119.75C94.0228 119.901 94.377 119.977 94.7728 119.977C95.2832 119.977 95.7155 119.872 96.0697 119.664C96.4239 119.456 96.7337 119.177 96.9994 118.828L97.8744 119.523C97.6921 119.799 97.4603 120.062 97.1791 120.312C96.8978 120.562 96.5515 120.766 96.14 120.922C95.7337 121.078 95.252 121.156 94.6947 121.156ZM101.437 113.875V121H99.9912V112.547H101.397L101.437 113.875ZM104.077 112.5L104.069 113.844C103.95 113.818 103.835 113.802 103.726 113.797C103.621 113.786 103.502 113.781 103.366 113.781C103.033 113.781 102.739 113.833 102.483 113.938C102.228 114.042 102.012 114.188 101.835 114.375C101.658 114.562 101.517 114.786 101.413 115.047C101.314 115.302 101.249 115.583 101.218 115.891L100.812 116.125C100.812 115.615 100.861 115.135 100.96 114.688C101.064 114.24 101.223 113.844 101.437 113.5C101.65 113.151 101.921 112.88 102.249 112.688C102.582 112.49 102.978 112.391 103.437 112.391C103.541 112.391 103.661 112.404 103.796 112.43C103.931 112.451 104.025 112.474 104.077 112.5ZM110.405 119.555V115.203C110.405 114.87 110.337 114.581 110.202 114.336C110.072 114.086 109.874 113.893 109.608 113.758C109.342 113.622 109.014 113.555 108.624 113.555C108.259 113.555 107.939 113.617 107.663 113.742C107.392 113.867 107.178 114.031 107.022 114.234C106.871 114.438 106.796 114.656 106.796 114.891H105.35C105.35 114.589 105.428 114.289 105.585 113.992C105.741 113.695 105.965 113.427 106.257 113.188C106.553 112.943 106.908 112.75 107.319 112.609C107.736 112.464 108.199 112.391 108.71 112.391C109.324 112.391 109.866 112.495 110.335 112.703C110.809 112.911 111.178 113.227 111.444 113.648C111.715 114.065 111.85 114.589 111.85 115.219V119.156C111.85 119.438 111.874 119.737 111.921 120.055C111.973 120.372 112.048 120.646 112.147 120.875V121H110.639C110.566 120.833 110.509 120.612 110.467 120.336C110.426 120.055 110.405 119.794 110.405 119.555ZM110.655 115.875L110.671 116.891H109.21C108.798 116.891 108.431 116.924 108.108 116.992C107.785 117.055 107.514 117.151 107.296 117.281C107.077 117.411 106.91 117.576 106.796 117.773C106.681 117.966 106.624 118.193 106.624 118.453C106.624 118.719 106.684 118.961 106.803 119.18C106.923 119.398 107.103 119.573 107.342 119.703C107.587 119.828 107.887 119.891 108.241 119.891C108.684 119.891 109.074 119.797 109.413 119.609C109.751 119.422 110.02 119.193 110.217 118.922C110.421 118.651 110.53 118.388 110.546 118.133L111.163 118.828C111.126 119.047 111.027 119.289 110.866 119.555C110.704 119.82 110.488 120.076 110.217 120.32C109.952 120.56 109.634 120.76 109.264 120.922C108.9 121.078 108.488 121.156 108.03 121.156C107.457 121.156 106.954 121.044 106.522 120.82C106.095 120.596 105.762 120.297 105.522 119.922C105.288 119.542 105.171 119.117 105.171 118.648C105.171 118.195 105.259 117.797 105.436 117.453C105.613 117.104 105.869 116.815 106.202 116.586C106.535 116.352 106.936 116.174 107.405 116.055C107.874 115.935 108.397 115.875 108.975 115.875H110.655ZM116.889 119.695L119.202 112.547H120.678L117.639 121H116.67L116.889 119.695ZM114.959 112.547L117.342 119.734L117.506 121H116.538L113.475 112.547H114.959ZM127.561 119.047V112.547H129.014V121H127.631L127.561 119.047ZM127.834 117.266L128.436 117.25C128.436 117.812 128.376 118.333 128.256 118.812C128.141 119.286 127.954 119.698 127.693 120.047C127.433 120.396 127.092 120.669 126.67 120.867C126.248 121.06 125.735 121.156 125.131 121.156C124.719 121.156 124.342 121.096 123.998 120.977C123.66 120.857 123.368 120.672 123.123 120.422C122.878 120.172 122.688 119.846 122.553 119.445C122.423 119.044 122.358 118.562 122.358 118V112.547H123.803V118.016C123.803 118.396 123.844 118.711 123.928 118.961C124.016 119.206 124.134 119.401 124.279 119.547C124.43 119.688 124.597 119.786 124.779 119.844C124.967 119.901 125.16 119.93 125.358 119.93C125.972 119.93 126.459 119.812 126.818 119.578C127.178 119.339 127.436 119.018 127.592 118.617C127.753 118.211 127.834 117.76 127.834 117.266ZM136.459 118.758C136.459 118.549 136.412 118.357 136.318 118.18C136.23 117.997 136.045 117.833 135.763 117.688C135.487 117.536 135.071 117.406 134.513 117.297C134.045 117.198 133.62 117.081 133.24 116.945C132.865 116.81 132.545 116.646 132.279 116.453C132.019 116.26 131.818 116.034 131.678 115.773C131.537 115.513 131.467 115.208 131.467 114.859C131.467 114.526 131.539 114.211 131.685 113.914C131.836 113.617 132.047 113.354 132.318 113.125C132.594 112.896 132.925 112.716 133.31 112.586C133.696 112.456 134.125 112.391 134.599 112.391C135.276 112.391 135.855 112.51 136.334 112.75C136.813 112.99 137.18 113.31 137.435 113.711C137.691 114.107 137.818 114.547 137.818 115.031H136.373C136.373 114.797 136.303 114.57 136.162 114.352C136.026 114.128 135.826 113.943 135.56 113.797C135.3 113.651 134.98 113.578 134.599 113.578C134.198 113.578 133.873 113.641 133.623 113.766C133.378 113.885 133.198 114.039 133.084 114.227C132.974 114.414 132.92 114.612 132.92 114.82C132.92 114.977 132.946 115.117 132.998 115.242C133.055 115.362 133.154 115.474 133.295 115.578C133.435 115.677 133.633 115.771 133.888 115.859C134.144 115.948 134.469 116.036 134.865 116.125C135.558 116.281 136.128 116.469 136.576 116.688C137.024 116.906 137.357 117.174 137.576 117.492C137.795 117.81 137.904 118.195 137.904 118.648C137.904 119.018 137.826 119.357 137.67 119.664C137.519 119.971 137.297 120.237 137.006 120.461C136.719 120.68 136.375 120.852 135.974 120.977C135.579 121.096 135.133 121.156 134.638 121.156C133.894 121.156 133.263 121.023 132.748 120.758C132.232 120.492 131.842 120.148 131.576 119.727C131.31 119.305 131.178 118.859 131.178 118.391H132.631C132.651 118.786 132.766 119.102 132.974 119.336C133.183 119.565 133.438 119.729 133.74 119.828C134.042 119.922 134.342 119.969 134.638 119.969C135.034 119.969 135.365 119.917 135.631 119.812C135.901 119.708 136.107 119.565 136.248 119.383C136.388 119.201 136.459 118.992 136.459 118.758ZM30.7788 129H32.2319V139.359L32.1069 141H30.7788V129ZM37.9428 136.703V136.867C37.9428 137.482 37.8699 138.052 37.7241 138.578C37.5782 139.099 37.3647 139.552 37.0834 139.938C36.8022 140.323 36.4584 140.622 36.0522 140.836C35.6459 141.049 35.1798 141.156 34.6538 141.156C34.1173 141.156 33.6459 141.065 33.2397 140.883C32.8386 140.695 32.5001 140.427 32.2241 140.078C31.948 139.729 31.7267 139.307 31.56 138.812C31.3985 138.318 31.2866 137.76 31.2241 137.141V136.422C31.2866 135.797 31.3985 135.237 31.56 134.742C31.7267 134.247 31.948 133.826 32.2241 133.477C32.5001 133.122 32.8386 132.854 33.2397 132.672C33.6407 132.484 34.1069 132.391 34.6381 132.391C35.1694 132.391 35.6407 132.495 36.0522 132.703C36.4636 132.906 36.8074 133.198 37.0834 133.578C37.3647 133.958 37.5782 134.414 37.7241 134.945C37.8699 135.471 37.9428 136.057 37.9428 136.703ZM36.4897 136.867V136.703C36.4897 136.281 36.4506 135.885 36.3725 135.516C36.2944 135.141 36.1694 134.812 35.9975 134.531C35.8256 134.245 35.5991 134.021 35.3178 133.859C35.0366 133.693 34.6902 133.609 34.2788 133.609C33.9142 133.609 33.5965 133.672 33.3256 133.797C33.06 133.922 32.8334 134.091 32.6459 134.305C32.4584 134.513 32.3048 134.753 32.185 135.023C32.0704 135.289 31.9845 135.565 31.9272 135.852V137.734C32.0105 138.099 32.1459 138.451 32.3334 138.789C32.5261 139.122 32.7814 139.396 33.0991 139.609C33.422 139.823 33.8204 139.93 34.2944 139.93C34.685 139.93 35.0183 139.852 35.2944 139.695C35.5756 139.534 35.8022 139.312 35.9741 139.031C36.1511 138.75 36.2814 138.424 36.3647 138.055C36.448 137.685 36.4897 137.289 36.4897 136.867ZM43.5988 141.156C43.0102 141.156 42.4764 141.057 41.9972 140.859C41.5232 140.656 41.1144 140.372 40.7706 140.008C40.4321 139.643 40.1717 139.211 39.9894 138.711C39.8071 138.211 39.7159 137.664 39.7159 137.07V136.742C39.7159 136.055 39.8175 135.443 40.0206 134.906C40.2238 134.365 40.4998 133.906 40.8488 133.531C41.1977 133.156 41.5935 132.872 42.0363 132.68C42.479 132.487 42.9373 132.391 43.4113 132.391C44.0154 132.391 44.5363 132.495 44.9738 132.703C45.4165 132.911 45.7784 133.203 46.0597 133.578C46.3409 133.948 46.5493 134.385 46.6847 134.891C46.8201 135.391 46.8878 135.938 46.8878 136.531V137.18H40.5753V136H45.4425V135.891C45.4217 135.516 45.3435 135.151 45.2081 134.797C45.0779 134.443 44.8696 134.151 44.5831 133.922C44.2967 133.693 43.906 133.578 43.4113 133.578C43.0831 133.578 42.781 133.648 42.505 133.789C42.229 133.924 41.992 134.128 41.7941 134.398C41.5961 134.669 41.4425 135 41.3331 135.391C41.2238 135.781 41.1691 136.232 41.1691 136.742V137.07C41.1691 137.471 41.2238 137.849 41.3331 138.203C41.4477 138.552 41.6118 138.859 41.8253 139.125C42.0441 139.391 42.3071 139.599 42.6144 139.75C42.9269 139.901 43.281 139.977 43.6769 139.977C44.1873 139.977 44.6196 139.872 44.9738 139.664C45.3279 139.456 45.6378 139.177 45.9034 138.828L46.7784 139.523C46.5961 139.799 46.3644 140.062 46.0831 140.312C45.8019 140.562 45.4555 140.766 45.0441 140.922C44.6378 141.078 44.156 141.156 43.5988 141.156ZM54.6294 133.875V141H53.1841V132.547H54.5903L54.6294 133.875ZM57.27 132.5L57.2622 133.844C57.1424 133.818 57.0278 133.802 56.9184 133.797C56.8143 133.786 56.6945 133.781 56.5591 133.781C56.2257 133.781 55.9315 133.833 55.6763 133.938C55.421 134.042 55.2049 134.188 55.0278 134.375C54.8507 134.562 54.7101 134.786 54.6059 135.047C54.507 135.302 54.4419 135.583 54.4106 135.891L54.0044 136.125C54.0044 135.615 54.0539 135.135 54.1528 134.688C54.257 134.24 54.4158 133.844 54.6294 133.5C54.8429 133.151 55.1138 132.88 55.4419 132.688C55.7752 132.49 56.171 132.391 56.6294 132.391C56.7335 132.391 56.8533 132.404 56.9888 132.43C57.1242 132.451 57.2179 132.474 57.27 132.5ZM62.2775 141.156C61.689 141.156 61.1551 141.057 60.6759 140.859C60.202 140.656 59.7931 140.372 59.4494 140.008C59.1108 139.643 58.8504 139.211 58.6681 138.711C58.4858 138.211 58.3947 137.664 58.3947 137.07V136.742C58.3947 136.055 58.4963 135.443 58.6994 134.906C58.9025 134.365 59.1785 133.906 59.5275 133.531C59.8765 133.156 60.2723 132.872 60.715 132.68C61.1577 132.487 61.616 132.391 62.09 132.391C62.6942 132.391 63.215 132.495 63.6525 132.703C64.0952 132.911 64.4572 133.203 64.7384 133.578C65.0197 133.948 65.228 134.385 65.3634 134.891C65.4989 135.391 65.5666 135.938 65.5666 136.531V137.18H59.2541V136H64.1213V135.891C64.1004 135.516 64.0223 135.151 63.8869 134.797C63.7567 134.443 63.5483 134.151 63.2619 133.922C62.9754 133.693 62.5848 133.578 62.09 133.578C61.7619 133.578 61.4598 133.648 61.1838 133.789C60.9077 133.924 60.6707 134.128 60.4728 134.398C60.2749 134.669 60.1213 135 60.0119 135.391C59.9025 135.781 59.8478 136.232 59.8478 136.742V137.07C59.8478 137.471 59.9025 137.849 60.0119 138.203C60.1265 138.552 60.2905 138.859 60.5041 139.125C60.7228 139.391 60.9858 139.599 61.2931 139.75C61.6056 139.901 61.9598 139.977 62.3556 139.977C62.866 139.977 63.2983 139.872 63.6525 139.664C64.0067 139.456 64.3166 139.177 64.5822 138.828L65.4572 139.523C65.2749 139.799 65.0431 140.062 64.7619 140.312C64.4806 140.562 64.1343 140.766 63.7228 140.922C63.3166 141.078 62.8348 141.156 62.2775 141.156ZM69.0272 129V141H67.5741V129H69.0272ZM74.1913 132.547L70.5038 136.492L68.4413 138.633L68.3241 137.094L69.8006 135.328L72.4256 132.547H74.1913ZM72.8709 141L69.8553 136.969L70.6053 135.68L74.5741 141H72.8709ZM77.5737 129V141H76.1206V129H77.5737ZM85.1984 139.555V135.203C85.1984 134.87 85.1307 134.581 84.9953 134.336C84.8651 134.086 84.6672 133.893 84.4016 133.758C84.1359 133.622 83.8078 133.555 83.4172 133.555C83.0526 133.555 82.7323 133.617 82.4563 133.742C82.1854 133.867 81.9719 134.031 81.8156 134.234C81.6646 134.438 81.5891 134.656 81.5891 134.891H80.1438C80.1438 134.589 80.2219 134.289 80.3781 133.992C80.5344 133.695 80.7583 133.427 81.05 133.188C81.3469 132.943 81.701 132.75 82.1125 132.609C82.5292 132.464 82.9927 132.391 83.5031 132.391C84.1177 132.391 84.6594 132.495 85.1281 132.703C85.6021 132.911 85.9719 133.227 86.2375 133.648C86.5083 134.065 86.6438 134.589 86.6438 135.219V139.156C86.6438 139.438 86.6672 139.737 86.7141 140.055C86.7661 140.372 86.8417 140.646 86.9406 140.875V141H85.4328C85.3599 140.833 85.3026 140.612 85.2609 140.336C85.2193 140.055 85.1984 139.794 85.1984 139.555ZM85.4484 135.875L85.4641 136.891H84.0031C83.5917 136.891 83.2245 136.924 82.9016 136.992C82.5786 137.055 82.3078 137.151 82.0891 137.281C81.8703 137.411 81.7036 137.576 81.5891 137.773C81.4745 137.966 81.4172 138.193 81.4172 138.453C81.4172 138.719 81.4771 138.961 81.5969 139.18C81.7167 139.398 81.8964 139.573 82.1359 139.703C82.3807 139.828 82.6802 139.891 83.0344 139.891C83.4771 139.891 83.8677 139.797 84.2063 139.609C84.5448 139.422 84.813 139.193 85.0109 138.922C85.2141 138.651 85.3234 138.388 85.3391 138.133L85.9563 138.828C85.9198 139.047 85.8208 139.289 85.6594 139.555C85.4979 139.82 85.2818 140.076 85.0109 140.32C84.7453 140.56 84.4276 140.76 84.0578 140.922C83.6932 141.078 83.2818 141.156 82.8234 141.156C82.2505 141.156 81.7479 141.044 81.3156 140.82C80.8885 140.596 80.5552 140.297 80.3156 139.922C80.0813 139.542 79.9641 139.117 79.9641 138.648C79.9641 138.195 80.0526 137.797 80.2297 137.453C80.4068 137.104 80.662 136.815 80.9953 136.586C81.3286 136.352 81.7297 136.174 82.1984 136.055C82.6672 135.935 83.1906 135.875 83.7688 135.875H85.4484ZM90.6747 134.227V141H89.2216V132.547H90.5966L90.6747 134.227ZM90.3778 136.453L89.7059 136.43C89.7111 135.852 89.7867 135.318 89.9325 134.828C90.0783 134.333 90.2945 133.904 90.5809 133.539C90.8674 133.174 91.2242 132.893 91.6513 132.695C92.0783 132.492 92.5731 132.391 93.1356 132.391C93.5315 132.391 93.896 132.448 94.2294 132.562C94.5627 132.672 94.8518 132.846 95.0966 133.086C95.3414 133.326 95.5315 133.633 95.6669 134.008C95.8023 134.383 95.87 134.836 95.87 135.367V141H94.4247V135.438C94.4247 134.995 94.3492 134.641 94.1981 134.375C94.0523 134.109 93.844 133.917 93.5731 133.797C93.3023 133.672 92.9846 133.609 92.62 133.609C92.1929 133.609 91.8361 133.685 91.5497 133.836C91.2632 133.987 91.0341 134.195 90.8622 134.461C90.6903 134.727 90.5653 135.031 90.4872 135.375C90.4143 135.714 90.3778 136.073 90.3778 136.453ZM95.8544 135.656L94.8856 135.953C94.8908 135.49 94.9664 135.044 95.1122 134.617C95.2632 134.19 95.4794 133.81 95.7606 133.477C96.0471 133.143 96.3986 132.88 96.8153 132.688C97.232 132.49 97.7085 132.391 98.245 132.391C98.6981 132.391 99.0992 132.451 99.4481 132.57C99.8023 132.69 100.099 132.875 100.339 133.125C100.584 133.37 100.768 133.685 100.893 134.07C101.018 134.456 101.081 134.914 101.081 135.445V141H99.6278V135.43C99.6278 134.956 99.5523 134.589 99.4013 134.328C99.2554 134.062 99.0471 133.878 98.7763 133.773C98.5106 133.664 98.1929 133.609 97.8231 133.609C97.5054 133.609 97.2242 133.664 96.9794 133.773C96.7346 133.883 96.5289 134.034 96.3622 134.227C96.1955 134.414 96.0679 134.63 95.9794 134.875C95.896 135.12 95.8544 135.38 95.8544 135.656ZM108.76 139.047V132.547H110.213V141H108.831L108.76 139.047ZM109.034 137.266L109.635 137.25C109.635 137.812 109.575 138.333 109.456 138.812C109.341 139.286 109.154 139.698 108.893 140.047C108.633 140.396 108.292 140.669 107.87 140.867C107.448 141.06 106.935 141.156 106.331 141.156C105.919 141.156 105.542 141.096 105.198 140.977C104.859 140.857 104.568 140.672 104.323 140.422C104.078 140.172 103.888 139.846 103.753 139.445C103.622 139.044 103.557 138.562 103.557 138V132.547H105.003V138.016C105.003 138.396 105.044 138.711 105.128 138.961C105.216 139.206 105.333 139.401 105.479 139.547C105.63 139.688 105.797 139.786 105.979 139.844C106.167 139.901 106.359 139.93 106.557 139.93C107.172 139.93 107.659 139.812 108.018 139.578C108.378 139.339 108.635 139.018 108.792 138.617C108.953 138.211 109.034 137.76 109.034 137.266ZM109.557 140.555L110.135 141C109.911 141.167 109.698 141.339 109.495 141.516C109.292 141.698 109.125 141.888 108.995 142.086C108.864 142.289 108.799 142.505 108.799 142.734C108.799 142.906 108.844 143.044 108.932 143.148C109.026 143.253 109.185 143.305 109.409 143.305C109.581 143.305 109.734 143.279 109.87 143.227C110.005 143.18 110.112 143.135 110.19 143.094L110.299 144.047C110.169 144.125 110.003 144.201 109.799 144.273C109.601 144.352 109.349 144.391 109.042 144.391C108.62 144.391 108.263 144.263 107.971 144.008C107.685 143.758 107.542 143.388 107.542 142.898C107.542 142.617 107.609 142.339 107.745 142.062C107.885 141.786 108.104 141.521 108.401 141.266C108.698 141.01 109.083 140.773 109.557 140.555Z" fill="black" fill-opacity="0.2"/>
</svg>
