<svg width="177" height="159" viewBox="0 0 177 159" fill="none" xmlns="http://www.w3.org/2000/svg">
<path d="M109.932 155.443H68.8438C68.7883 155.443 68.7352 155.423 68.696 155.387C68.6568 155.351 68.6348 155.302 68.6348 155.251C68.6348 155.2 68.6568 155.151 68.696 155.115C68.7352 155.079 68.7883 155.059 68.8438 155.059H109.932C109.987 155.059 110.041 155.079 110.08 155.115C110.119 155.151 110.141 155.2 110.141 155.251C110.141 155.302 110.119 155.351 110.08 155.387C110.041 155.423 109.987 155.443 109.932 155.443Z" fill="#404B7C"/>
<path d="M135.847 156.754H105.543C105.488 156.754 105.434 156.733 105.395 156.697C105.356 156.661 105.334 156.613 105.334 156.562C105.334 156.511 105.356 156.462 105.395 156.426C105.434 156.39 105.488 156.369 105.543 156.369H135.847C135.903 156.369 135.956 156.39 135.995 156.426C136.034 156.462 136.056 156.511 136.056 156.562C136.056 156.613 136.034 156.661 135.995 156.697C135.956 156.733 135.903 156.754 135.847 156.754Z" fill="#404B7C"/>
<path d="M98.8593 158.229H84.2297C84.1743 158.229 84.1212 158.209 84.082 158.173C84.0428 158.137 84.0208 158.088 84.0208 158.037C84.0208 157.986 84.0428 157.937 84.082 157.901C84.1212 157.865 84.1743 157.845 84.2297 157.845H98.8593C98.9147 157.845 98.9679 157.865 99.0071 157.901C99.0463 157.937 99.0683 157.986 99.0683 158.037C99.0683 158.088 99.0463 158.137 99.0071 158.173C98.9679 158.209 98.9147 158.229 98.8593 158.229Z" fill="#404B7C"/>
<path d="M161.817 155.251C161.817 155.251 167.28 153.072 167.919 150.398C168.559 147.723 164.295 146.466 161.394 150.574C160.157 152.21 158.809 153.772 157.357 155.251H161.817Z" fill="#7891B0"/>
<path d="M144.362 155.251C144.362 155.251 139.137 150.605 138.773 144.906C138.409 139.207 144.625 140.295 145.95 144.457C147.275 148.618 148.805 155.251 148.805 155.251H144.362Z" fill="#404B7C"/>
<path d="M146.297 154.832C146.261 154.832 146.225 154.824 146.194 154.808C146.162 154.792 146.136 154.768 146.117 154.74C143.371 150.536 141.256 142.854 141.231 142.793C141.217 142.742 141.227 142.688 141.257 142.643C141.286 142.598 141.334 142.567 141.39 142.554C141.445 142.542 141.503 142.551 141.552 142.578C141.601 142.605 141.635 142.649 141.649 142.7C141.649 142.777 143.764 150.386 146.502 154.556C146.518 154.586 146.525 154.62 146.523 154.654C146.52 154.688 146.508 154.721 146.487 154.749C146.466 154.777 146.438 154.8 146.404 154.814C146.371 154.829 146.334 154.835 146.297 154.832Z" fill="#7891B0"/>
<path d="M147.843 155.251C147.843 155.251 145.264 147.277 149.235 137.351C153.206 127.425 160.73 127.617 160.73 132.547C160.73 137.478 154.18 149.264 152.09 155.251H147.843Z" fill="#7891B0"/>
<path d="M149.691 154.832C149.636 154.827 149.586 154.803 149.55 154.764C149.515 154.725 149.498 154.675 149.503 154.625C150.757 141.797 156.834 131.137 156.893 131.03C156.921 130.988 156.965 130.958 157.016 130.946C157.067 130.933 157.122 130.939 157.168 130.962C157.215 130.985 157.251 131.023 157.268 131.069C157.285 131.115 157.282 131.166 157.261 131.21C157.198 131.314 151.154 141.913 149.917 154.652C149.915 154.677 149.908 154.702 149.896 154.725C149.883 154.748 149.866 154.769 149.845 154.786C149.824 154.803 149.8 154.815 149.773 154.823C149.747 154.831 149.719 154.834 149.691 154.832Z" fill="#404B7C"/>
<path d="M150.999 155.251C150.999 155.251 153.298 146.413 158.055 140.141C162.811 133.869 167.25 131.302 169.654 132.417C172.057 133.531 168.086 149.36 157.482 155.251H151.003H150.999Z" fill="#404B7C"/>
<path d="M154.97 154.832C154.932 154.832 154.895 154.822 154.863 154.804C154.831 154.786 154.804 154.76 154.787 154.73C154.769 154.699 154.761 154.664 154.763 154.63C154.765 154.595 154.777 154.561 154.799 154.533C154.882 154.421 163.204 143.169 168.003 134.346C168.014 134.322 168.03 134.3 168.051 134.281C168.072 134.263 168.096 134.249 168.123 134.24C168.15 134.23 168.179 134.226 168.208 134.228C168.236 134.229 168.264 134.236 168.29 134.248C168.316 134.26 168.338 134.277 168.357 134.297C168.375 134.318 168.389 134.341 168.397 134.367C168.404 134.392 168.407 134.419 168.403 134.445C168.399 134.471 168.39 134.496 168.375 134.519C163.564 143.357 155.225 154.636 155.141 154.748C155.122 154.774 155.097 154.795 155.067 154.809C155.037 154.824 155.004 154.832 154.97 154.832Z" fill="#7891B0"/>
<path d="M3.42442 42.7896L12.8626 41.3409C10.6263 41.6867 9.12577 43.7964 9.4936 46.0983L0.0554422 47.5586C-0.312387 45.2452 1.18819 43.1355 3.42442 42.7896Z" fill="#ECBDBB"/>
<path d="M60.8895 35.1231C63.1759 34.8272 65.3327 36.4873 65.7047 38.8238L80.2548 130.695C80.6268 133.036 79.0677 135.172 76.7814 135.464L28.88 141.64C26.5894 141.936 24.4368 140.279 24.0648 137.939L9.49371 46.0868C9.1217 43.7503 10.6766 41.6137 12.9672 41.3178L60.8895 35.1231Z" fill="#C1DDFF"/>
<path d="M58.5193 39.381C60.8057 39.0851 62.9583 40.7414 63.3303 43.0778L76.6725 127.206C77.0445 129.546 75.4896 131.683 73.199 131.979L31.2456 137.413C28.955 137.708 26.7982 136.052 26.4262 133.708L13.084 49.5761C12.712 47.2358 14.2669 45.0953 16.5575 44.7994L31.6719 42.8473C32.2567 42.7754 32.8516 42.8583 33.3869 43.0863C33.9222 43.3144 34.3756 43.678 34.694 44.1346C35.0434 44.6636 35.5504 45.0895 36.1548 45.3619C36.7593 45.6343 37.4359 45.7418 38.1048 45.6718C38.7665 45.5725 39.3829 45.2995 39.8797 44.8857C40.3766 44.4718 40.7327 43.9348 40.9053 43.3391C41.0697 42.8191 41.3938 42.3536 41.8386 41.9985C42.2834 41.6434 42.8301 41.4138 43.4132 41.337L58.5193 39.381Z" fill="#7891B0"/>
<path d="M37.34 40.8182C37.6915 40.7915 38.0402 40.893 38.3109 41.1008C38.5815 41.3087 38.7523 41.6061 38.7863 41.9288C38.821 42.0861 38.8216 42.248 38.788 42.4055C38.7544 42.5629 38.6874 42.7127 38.5907 42.8462C38.4939 42.9798 38.3695 43.0945 38.2245 43.1837C38.0794 43.2729 37.9166 43.3349 37.7455 43.3661C37.3929 43.3928 37.0431 43.2909 36.7717 43.0823C36.5002 42.8738 36.329 42.5753 36.295 42.2516C36.2274 41.9342 36.2995 41.6051 36.4953 41.3364C36.6912 41.0677 36.995 40.8814 37.34 40.8182Z" fill="#404B7C"/>
<path d="M24.0646 137.958L14.6265 139.419L0.0554199 47.5471L9.49358 46.0868L24.0646 137.958Z" fill="#50637A"/>
<path d="M28.8798 141.64L19.4417 143.1C17.1511 143.396 14.9985 141.74 14.6265 139.399L24.0646 137.939C24.4366 140.299 26.5893 141.955 28.8798 141.64Z" fill="#384452"/>
<path d="M56.237 49.7222C56.6825 49.6879 57.1248 49.8162 57.4682 50.0794C57.8116 50.3427 58.0285 50.7196 58.072 51.1286L62.0763 76.3763C62.1206 76.5757 62.1214 76.7813 62.0786 76.981C62.0358 77.1807 61.9503 77.3707 61.8271 77.5398C61.7038 77.7089 61.5452 77.8538 61.3606 77.9661C61.1759 78.0784 60.9688 78.1558 60.7513 78.194L26.4763 82.6209C26.0315 82.6542 25.5902 82.5253 25.2478 82.2622C24.9053 81.9991 24.689 81.6228 24.6455 81.2145L20.6412 55.9668C20.5968 55.7676 20.5959 55.5624 20.6384 55.3628C20.6809 55.1633 20.766 54.9735 20.8889 54.8045C21.0117 54.6354 21.1698 54.4905 21.354 54.378C21.5382 54.2655 21.7449 54.1877 21.962 54.1491L56.237 49.7222Z" fill="#E9F3FF"/>
<path d="M49.4491 82.2636C49.7069 82.2443 49.9626 82.3189 50.1612 82.4712C50.3598 82.6236 50.4853 82.8416 50.5108 83.0783L50.5777 83.5356C50.6269 83.7679 50.574 84.0086 50.4307 84.2052C50.2873 84.4018 50.0652 84.5382 49.8127 84.5847L48.3331 84.7768C48.0753 84.7961 47.8195 84.7215 47.621 84.5691C47.4224 84.4168 47.2968 84.1988 47.2714 83.9621L47.2003 83.5048C47.1511 83.2725 47.204 83.0317 47.3473 82.8352C47.4907 82.6386 47.7128 82.5022 47.9652 82.4557L49.4491 82.2636Z" fill="#404B7C"/>
<path d="M65.2614 102.335C65.5206 102.315 65.778 102.389 65.9776 102.542C66.1772 102.696 66.3029 102.915 66.3273 103.153L66.3984 103.607C66.4475 103.84 66.3942 104.082 66.2501 104.279C66.106 104.477 65.8828 104.613 65.6293 104.66L46.197 107.169C45.9379 107.189 45.6805 107.115 45.4809 106.962C45.2812 106.808 45.1556 106.589 45.1311 106.351L45.0601 105.901C45.0352 105.785 45.0353 105.666 45.0605 105.551C45.0857 105.435 45.1354 105.326 45.2069 105.228C45.2783 105.13 45.3701 105.046 45.4769 104.981C45.5837 104.916 45.7034 104.871 45.8292 104.848L65.2614 102.335Z" fill="#E9F3FF"/>
<path d="M57.9844 117.43C59.7734 117.199 61.4662 118.494 61.7463 120.323L61.972 121.738C62.2604 123.567 61.044 125.238 59.2509 125.469L42.6024 127.621C40.8134 127.852 39.1206 126.556 38.8405 124.727L38.6148 123.313C38.3264 121.484 39.5428 119.812 41.3359 119.582L57.9844 117.43Z" fill="#E9F3FF"/>
<path d="M41.4863 110.27C41.7452 110.251 42.002 110.326 42.2014 110.479C42.4007 110.632 42.5267 110.851 42.5521 111.089L42.6232 111.546C42.6481 111.662 42.648 111.781 42.6228 111.896C42.5976 112.012 42.5478 112.122 42.4764 112.219C42.4049 112.317 42.3132 112.401 42.2064 112.466C42.0996 112.532 41.9799 112.577 41.8541 112.599L30.7774 114.029C30.5183 114.047 30.2619 113.97 30.0639 113.815C29.8659 113.661 29.7423 113.441 29.7199 113.203L29.6489 112.745C29.5984 112.512 29.6507 112.271 29.7942 112.073C29.9376 111.876 30.1605 111.739 30.4138 111.692L41.4863 110.27Z" fill="#404B7C"/>
<path d="M62.5194 86.1141C62.8244 86.0906 63.1273 86.1787 63.3621 86.3593C63.5969 86.54 63.7447 86.7984 63.7733 87.0787L64.9562 94.5338C64.986 94.6704 64.9862 94.811 64.9566 94.9476C64.9271 95.0842 64.8686 95.214 64.7843 95.3298C64.7 95.4455 64.5916 95.5447 64.4655 95.6218C64.3393 95.6989 64.1979 95.7523 64.0492 95.7789L56.7595 96.7204C56.4547 96.7429 56.1524 96.6544 55.9179 96.474C55.6833 96.2936 55.5352 96.0357 55.5055 95.7559L54.3393 88.2969C54.3096 88.1603 54.3094 88.0197 54.3389 87.8831C54.3684 87.7465 54.427 87.6167 54.5113 87.501C54.5956 87.3852 54.7039 87.286 54.8301 87.2089C54.9562 87.1318 55.0977 87.0784 55.2464 87.0518L62.5194 86.1141Z" fill="#E9F3FF"/>
<path d="M48.5295 87.9202C48.8346 87.8967 49.1374 87.9849 49.3722 88.1655C49.607 88.3461 49.7548 88.6046 49.7835 88.8848L50.9664 96.34C50.9962 96.4765 50.9963 96.6171 50.9668 96.7537C50.9373 96.8903 50.8787 97.0202 50.7944 97.1359C50.7101 97.2516 50.6018 97.3508 50.4756 97.4279C50.3495 97.505 50.208 97.5584 50.0594 97.5851L42.7655 98.5266C42.4606 98.5491 42.1584 98.4606 41.9238 98.2801C41.6893 98.0997 41.5412 97.8418 41.5115 97.562L40.3286 90.1068C40.2988 89.9703 40.2987 89.8297 40.3282 89.6931C40.3577 89.5565 40.4163 89.4266 40.5006 89.3109C40.5849 89.1952 40.6932 89.096 40.8193 89.0189C40.9455 88.9418 41.087 88.8884 41.2356 88.8617L48.5295 87.9202Z" fill="#E9F3FF"/>
<path d="M44.4749 82.9092C44.7334 82.8888 44.9902 82.9629 45.1897 83.1154C45.3892 83.2679 45.5153 83.4865 45.5408 83.7238L45.6118 84.1812C45.6368 84.2967 45.6366 84.4157 45.6114 84.5312C45.5862 84.6468 45.5365 84.7566 45.465 84.8544C45.3936 84.9522 45.3018 85.0361 45.1951 85.1013C45.0883 85.1664 44.9685 85.2116 44.8427 85.2341L33.7703 86.6636C33.5118 86.684 33.255 86.6099 33.0555 86.4574C32.856 86.3049 32.7298 86.0863 32.7044 85.849L32.6333 85.3917C32.6084 85.2761 32.6086 85.1571 32.6337 85.0416C32.6589 84.926 32.7087 84.8162 32.7801 84.7184C32.8516 84.6206 32.9433 84.5367 33.0501 84.4715C33.1569 84.4064 33.2766 84.3612 33.4024 84.3387L44.4749 82.9092Z" fill="#404B7C"/>
<path d="M34.5393 89.7264C34.8441 89.7039 35.1464 89.7924 35.3809 89.9728C35.6155 90.1532 35.7636 90.4111 35.7933 90.691L36.9762 98.1461C37.0352 98.4218 36.9728 98.7077 36.8028 98.9411C36.6327 99.1746 36.3689 99.3364 36.0691 99.3912L28.7794 100.333C28.4746 100.355 28.1724 100.267 27.9378 100.086C27.7033 99.9059 27.5552 99.648 27.5255 99.3682L26.3342 91.913C26.3044 91.7765 26.3043 91.6358 26.3338 91.4993C26.3633 91.3627 26.4219 91.2328 26.5062 91.1171C26.5905 91.0014 26.6988 90.9021 26.825 90.825C26.9511 90.748 27.0926 90.6945 27.2412 90.6679L34.5393 89.7264Z" fill="#E9F3FF"/>
<path d="M40.7341 105.517C40.9913 105.496 41.247 105.569 41.4462 105.72C41.6455 105.871 41.7725 106.088 41.8 106.324L41.871 106.777C41.896 106.893 41.8958 107.012 41.8706 107.127C41.8454 107.243 41.7957 107.353 41.7242 107.45C41.6528 107.548 41.561 107.632 41.4542 107.697C41.3475 107.763 41.2277 107.808 41.1019 107.83L30.0253 109.26C29.7668 109.279 29.5105 109.204 29.3118 109.051C29.1131 108.897 28.988 108.679 28.9636 108.441L28.8925 107.988C28.8421 107.755 28.8944 107.513 29.0378 107.316C29.1813 107.118 29.4041 106.981 29.6574 106.935L40.7341 105.517Z" fill="#404B7C"/>
<path d="M54.6446 81.5949C54.9024 81.5756 55.1582 81.6502 55.3567 81.8026C55.5553 81.955 55.6809 82.1729 55.7063 82.4096L55.7774 82.8669C55.8266 83.0992 55.7737 83.34 55.6304 83.5366C55.487 83.7332 55.2649 83.8696 55.0125 83.916L53.5328 84.1081C53.275 84.1274 53.0192 84.0529 52.8207 83.9005C52.6221 83.7481 52.4965 83.5301 52.4711 83.2935L52.4 82.8438C52.3508 82.6115 52.4037 82.3708 52.547 82.1742C52.6904 81.9776 52.9125 81.8412 53.165 81.7947L54.6446 81.5949Z" fill="#404B7C"/>
<path d="M66.0139 107.1C66.2728 107.081 66.5296 107.156 66.729 107.309C66.9283 107.462 67.0543 107.681 67.0797 107.919L67.1508 108.376C67.1757 108.491 67.1756 108.61 67.1504 108.726C67.1252 108.841 67.0755 108.951 67.004 109.049C66.9326 109.147 66.8408 109.231 66.734 109.296C66.6272 109.361 66.5075 109.406 66.3817 109.429L46.9495 111.938C46.691 111.959 46.4342 111.884 46.2347 111.732C46.0352 111.579 45.909 111.361 45.8836 111.124L45.8125 110.666C45.7634 110.433 45.8167 110.191 45.9608 109.994C46.1049 109.797 46.3281 109.66 46.5816 109.613L66.0139 107.1Z" fill="#E9F3FF"/>
<path d="M52.8974 53.1961L42.1509 54.5872C40.7298 54.7717 39.7642 56.0936 39.9941 57.5501C39.7642 56.0936 38.4225 55.0676 37.0013 55.2443L26.2549 56.6316L29.4692 76.8951L40.2157 75.504C41.6326 75.3233 42.9702 76.3417 43.2043 77.7866C42.9869 76.3379 43.9525 75.0236 45.3653 74.8391L56.1117 73.4519L52.8974 53.1961ZM33.67 68.6752L32.5456 61.5736L38.6148 64.4173L33.67 68.6752Z" fill="#7891B0"/>
<path d="M42.6357 74.4203C42.5857 74.4198 42.5375 74.4029 42.4999 74.3725C42.4624 74.3422 42.4379 74.3005 42.4309 74.255L39.9229 58.3648C39.9191 58.3395 39.9207 58.3138 39.9276 58.2892C39.9346 58.2645 39.9468 58.2413 39.9635 58.221C39.9972 58.1799 40.0472 58.1528 40.1027 58.1457C40.1581 58.1386 40.2143 58.152 40.259 58.183C40.3037 58.214 40.3332 58.26 40.3409 58.311L42.8488 74.2012C42.853 74.2262 42.8518 74.2517 42.8452 74.2762C42.8386 74.3008 42.8268 74.3239 42.8105 74.3442C42.7942 74.3646 42.7737 74.3818 42.7501 74.3948C42.7266 74.4079 42.7005 74.4165 42.6733 74.4203H42.6357Z" fill="#404B7C"/>
<path d="M56.1076 73.4595L56.5256 76.0919L29.8872 79.5505L29.4692 76.9181L40.2157 75.5308C41.6369 75.3464 42.9744 76.3724 43.2085 77.8366C42.9786 76.3801 43.9441 75.0582 45.3653 74.8737L56.1076 73.4595Z" fill="#404B7C"/>
<path d="M96.7402 138.596L96.6106 140.395L96.3556 143.819H93.0828L92.9532 141.686L92.7693 138.788L96.7402 138.596Z" fill="#ECBDBB"/>
<path d="M96.7443 138.596L96.6106 140.395C95.5363 140.779 94.1444 141.282 92.9532 141.686L92.7734 138.788L96.7443 138.596Z" fill="#404B7C"/>
<path d="M98.8595 149.544C97.6285 149.904 96.5387 150.586 95.7246 151.508C96.313 152.681 96.6072 153.96 96.5857 155.251H98.3454C98.3454 155.251 98.8261 151.631 98.8595 149.544Z" fill="#404B7C"/>
<path d="M98.8594 149.544C97.6286 149.904 96.5389 150.587 95.7245 151.508L95.6994 151.535C94.7827 152.589 93.7268 153.534 92.5561 154.348C91.6964 154.934 90.6546 155.251 89.5842 155.251H82.9508C82.9508 155.251 82.746 153.161 85.1076 151.697C87.8956 149.967 90.1945 146.893 91.3105 142.889C93.3125 142.69 95.3318 142.69 97.3337 142.889C97.3337 142.889 98.8134 147.147 98.8594 149.103C98.8636 149.237 98.8636 149.387 98.8594 149.544Z" fill="#C1DDFF"/>
<path d="M107.361 83.2627C107.236 84.0313 107.098 84.6807 106.943 85.2456C106.266 87.8972 104.816 92.4779 103.378 96.828C101.488 102.573 99.6158 107.919 99.6158 107.919C99.6158 107.919 100.138 113.587 100.556 118.102C100.974 122.618 98.4664 139.622 98.4664 139.622C95.8539 140.199 91.4651 139.814 91.4651 139.814C91.4651 139.814 88.2257 116.949 87.9122 107.054C87.5987 97.1585 87.8077 81.3067 88.3302 75.6385C88.8527 69.9702 88.3302 61.7158 96.1674 61.3238C108.335 60.7128 108.59 75.869 107.361 83.2627Z" fill="#7891B0"/>
<path d="M96.293 138.788H96.2679C96.2131 138.782 96.1634 138.755 96.1297 138.715C96.096 138.675 96.081 138.624 96.0882 138.573C96.0882 138.45 97.7601 126.407 97.6096 122.433C97.5678 121.315 97.4508 119.774 97.3296 118.137C97.0036 113.806 96.5981 108.414 97.2084 106.301C98.0443 103.457 102.454 82.7593 102.5 82.5518C102.505 82.5265 102.516 82.5025 102.531 82.481C102.547 82.4595 102.566 82.4411 102.589 82.4266C102.612 82.4121 102.638 82.402 102.666 82.3968C102.693 82.3916 102.721 82.3913 102.749 82.3961C102.776 82.4009 102.802 82.4106 102.826 82.4247C102.849 82.4388 102.869 82.457 102.885 82.4782C102.901 82.4995 102.912 82.5233 102.917 82.5485C102.923 82.5736 102.923 82.5996 102.918 82.6248C102.872 82.8323 98.4498 103.545 97.6222 106.401C97.0286 108.453 97.4299 113.806 97.7559 118.11C97.8771 119.747 97.9942 121.296 98.036 122.418C98.1823 126.422 96.5271 138.496 96.5103 138.619C96.5041 138.667 96.4781 138.712 96.4378 138.743C96.3975 138.774 96.3457 138.791 96.293 138.788Z" fill="#404B7C"/>
<path d="M107.361 83.2627C107.236 84.0313 107.098 84.6807 106.943 85.2456C106.266 87.8972 104.816 92.4779 103.378 96.828L100.92 81.7832L106.943 82.5864L107.361 83.2627Z" fill="#404B7C"/>
<path d="M128.967 138.596L128.833 140.395L128.582 143.819H125.31L125.176 141.686L124.996 138.788L128.967 138.596Z" fill="#ECBDBB"/>
<path d="M128.967 138.596L128.833 140.395C127.759 140.779 126.367 141.282 125.176 141.686L124.979 138.788L128.967 138.596Z" fill="#404B7C"/>
<path d="M131.082 149.544C129.851 149.904 128.761 150.586 127.947 151.508C128.535 152.681 128.83 153.96 128.808 155.251H130.568C130.568 155.251 131.048 151.631 131.082 149.544Z" fill="#404B7C"/>
<path d="M131.082 149.544C129.851 149.904 128.762 150.587 127.947 151.508L127.922 151.535C127.005 152.589 125.949 153.534 124.779 154.348C123.919 154.934 122.877 155.251 121.807 155.251H115.173C115.173 155.251 114.969 153.161 117.33 151.697C120.118 149.967 122.417 146.893 123.533 142.889C125.535 142.69 127.554 142.69 129.556 142.889C129.556 142.889 131.036 147.147 131.082 149.103C131.086 149.237 131.086 149.387 131.082 149.544Z" fill="#C1DDFF"/>
<path d="M98.9054 64.5902C98.9054 64.5902 102.458 84.381 102.981 85.726C103.503 87.071 114.684 106.958 116.461 111.185C118.237 115.412 123.358 139.622 123.358 139.622C123.358 139.622 127.538 139.91 130.463 139.334C130.463 139.334 131.613 123.674 130.777 117.334C129.941 110.993 128.792 108.975 127.433 104.748C126.075 100.521 124.089 80.4421 122.94 75.2542C121.79 70.0663 120.745 66.1274 118.028 63.0531C115.311 59.9788 97.8604 53.4459 98.9054 64.5902Z" fill="#7891B0"/>
<path d="M119.178 74.3895C112.908 74.3895 111.499 67.7529 111.483 67.6837C111.478 67.6585 111.478 67.6326 111.484 67.6076C111.49 67.5825 111.501 67.5588 111.517 67.5377C111.533 67.5167 111.553 67.4987 111.577 67.4849C111.6 67.471 111.627 67.4615 111.654 67.457C111.681 67.4525 111.71 67.4529 111.737 67.4584C111.764 67.4639 111.79 67.4742 111.813 67.4888C111.836 67.5035 111.855 67.5221 111.87 67.5437C111.885 67.5652 111.896 67.5893 111.901 67.6146C111.955 67.8912 113.334 74.3626 119.692 73.9899C119.719 73.9878 119.747 73.9908 119.773 73.9989C119.8 74.0069 119.824 74.0198 119.845 74.0367C119.865 74.0535 119.882 74.0741 119.894 74.0971C119.906 74.1201 119.912 74.1451 119.913 74.1705C119.915 74.1957 119.911 74.221 119.902 74.2449C119.893 74.2689 119.879 74.2909 119.861 74.3098C119.843 74.3288 119.821 74.3442 119.796 74.3552C119.771 74.3663 119.744 74.3727 119.717 74.3742C119.546 74.3895 119.353 74.3895 119.178 74.3895Z" fill="#404B7C"/>
<path d="M128.373 138.469C128.346 138.468 128.319 138.461 128.294 138.45C128.27 138.439 128.247 138.424 128.229 138.405C128.211 138.386 128.197 138.364 128.188 138.34C128.179 138.316 128.175 138.291 128.177 138.266C128.177 138.131 129.013 124.574 128.699 119.459C128.511 116.35 127.027 112.319 125.702 108.764C124.866 106.458 124.106 104.452 123.897 103.146C123.746 102.193 123.366 99.5372 122.881 96.1747C121.715 88.0355 119.955 75.7345 119.512 74.2473C118.893 72.1645 116.958 66.9459 116.937 66.8921C116.919 66.8437 116.923 66.7908 116.948 66.745C116.973 66.6992 117.016 66.6644 117.069 66.648C117.122 66.6317 117.179 66.6353 117.229 66.658C117.279 66.6807 117.317 66.7207 117.334 66.7691C117.334 66.8229 119.295 72.0492 119.913 74.1474C120.361 75.6577 122.124 87.9817 123.295 96.1248C123.776 99.4873 124.156 102.139 124.306 103.088C124.511 104.36 125.243 106.343 126.095 108.641C127.42 112.219 128.925 116.277 129.113 119.439C129.423 124.577 128.599 138.154 128.591 138.293C128.586 138.342 128.561 138.388 128.521 138.421C128.48 138.454 128.427 138.471 128.373 138.469Z" fill="#404B7C"/>
<path d="M102.145 82.2674H102.111C102.003 82.2674 99.478 81.8524 99.0224 80.7302C98.6044 79.7042 95.6576 66.7153 95.5322 66.1619C95.5211 66.111 95.5325 66.058 95.5639 66.0148C95.5952 65.9716 95.644 65.9415 95.6994 65.9314C95.7548 65.9212 95.8124 65.9316 95.8594 65.9605C95.9065 65.9893 95.9391 66.0341 95.9502 66.0851C95.9795 66.2196 99.0182 79.5966 99.4237 80.5957C99.6954 81.2567 101.096 81.6717 101.898 81.8293L98.8845 65.77C98.8751 65.719 98.888 65.6667 98.9206 65.6245C98.9531 65.5824 99.0025 65.5538 99.0579 65.5451C99.1134 65.5365 99.1703 65.5484 99.2161 65.5783C99.262 65.6082 99.293 65.6537 99.3025 65.7046L102.366 82.0368C102.373 82.066 102.372 82.0963 102.364 82.1252C102.355 82.154 102.34 82.1807 102.318 82.2031C102.297 82.2255 102.27 82.2429 102.24 82.2541C102.21 82.2652 102.177 82.2698 102.145 82.2674Z" fill="#404B7C"/>
<path d="M67.7151 59.8174L65.0316 60.8088C65.0316 60.8088 60.3627 59.9288 59.5267 59.4792C58.6907 59.0296 58.185 59.7674 58.9708 60.5053C59.6369 61.0721 60.3669 61.5719 61.1485 61.9963C59.8688 62.5395 58.5402 62.9792 57.1776 63.3105C55.5934 63.6141 54.444 63.6295 54.4105 64.2405C54.3771 64.8515 55.3343 65.0091 55.3343 65.0091C55.3343 65.0091 54.5861 65.1859 54.7073 65.7777C54.8285 66.3695 56.3792 66.2427 56.3792 66.2427C56.3792 66.2427 55.5976 66.5155 55.769 66.9805C55.9404 67.4455 57.5998 67.2841 57.5998 67.2841C57.5342 67.3193 57.4777 67.3672 57.4343 67.4245C57.3909 67.4818 57.3617 67.5471 57.3485 67.6159C57.3354 67.6847 57.3387 67.7552 57.3583 67.8227C57.3779 67.8902 57.4132 67.9529 57.4618 68.0065C57.8297 68.4216 63.7316 68.0296 66.4736 63.8024L70.131 62.8648L67.7151 59.8174Z" fill="#ECBDBB"/>
<path d="M55.9738 65.1013C55.9463 65.1036 55.9187 65.1009 55.8924 65.0933C55.8661 65.0858 55.8416 65.0735 55.8205 65.0573C55.7778 65.0245 55.751 64.9774 55.746 64.9265C55.741 64.8755 55.7582 64.8248 55.7939 64.7855C55.8295 64.7463 55.8807 64.7216 55.9361 64.717C55.9612 64.717 58.3103 64.3328 59.698 63.9485C59.7255 63.9411 59.7542 63.9389 59.7826 63.9418C59.811 63.9447 59.8385 63.9527 59.8636 63.9653C59.8886 63.978 59.9107 63.9951 59.9285 64.0156C59.9464 64.0361 59.9597 64.0597 59.9676 64.0849C59.9756 64.1101 59.9781 64.1365 59.9749 64.1627C59.9718 64.1888 59.9631 64.2141 59.9493 64.2371C59.9355 64.2601 59.9169 64.2804 59.8946 64.2968C59.8723 64.3132 59.8467 64.3254 59.8192 64.3328C58.3939 64.717 56.0197 65.1013 55.9988 65.1244H55.9612L55.9738 65.1013Z" fill="#404B7C"/>
<path d="M57.09 66.2734C57.0625 66.2767 57.0346 66.275 57.0079 66.2684C56.9812 66.2617 56.9562 66.2503 56.9342 66.2348C56.9123 66.2193 56.8939 66.1999 56.8801 66.1779C56.8663 66.1558 56.8574 66.1315 56.8538 66.1063C56.8502 66.081 56.8521 66.0554 56.8593 66.0308C56.8665 66.0063 56.8789 65.9832 56.8958 65.9631C56.9127 65.9429 56.9337 65.926 56.9577 65.9133C56.9817 65.9006 57.0082 65.8924 57.0356 65.8891C57.0356 65.8891 59.1256 65.3742 60.4799 64.8861C60.5058 64.8748 60.5341 64.8685 60.5628 64.8677C60.5915 64.8668 60.6201 64.8714 60.6469 64.8812C60.6736 64.891 60.6978 64.9057 60.718 64.9245C60.7383 64.9433 60.7541 64.9657 60.7644 64.9903C60.7748 65.015 60.7796 65.0413 60.7784 65.0677C60.7772 65.0942 60.77 65.1201 60.7574 65.1438C60.7449 65.1676 60.7271 65.1887 60.7052 65.2059C60.6833 65.223 60.6578 65.2358 60.6303 65.2435C59.2426 65.7393 57.1652 66.2542 57.1443 66.258L57.09 66.2734Z" fill="#404B7C"/>
<path d="M58.0262 67.311C57.9708 67.3181 57.9145 67.3047 57.8698 67.2737C57.8251 67.2427 57.7957 67.1967 57.7879 67.1457C57.7802 67.0948 57.7947 67.0431 57.8285 67.002C57.8622 66.9609 57.9122 66.9338 57.9677 66.9267C59.0917 66.6203 60.1957 66.2546 61.2739 65.8315C61.3244 65.8101 61.382 65.808 61.4341 65.8256C61.4863 65.8433 61.5286 65.8793 61.5519 65.9256C61.5752 65.972 61.5775 66.025 61.5583 66.0729C61.5391 66.1208 61.4999 66.1598 61.4495 66.1812C60.359 66.6113 59.2426 66.9834 58.1056 67.2956L58.0262 67.311Z" fill="#404B7C"/>
<path d="M70.5868 56.9045L67.2972 58.7952C67.2972 58.7952 66.3233 62.4766 69.6672 64.3366L74.194 63.4719C74.194 63.4719 75.2892 58.1842 70.5868 56.9045Z" fill="#7891B0"/>
<path d="M93.1747 45.7563C92.5644 51.3861 91.5028 57.4117 89.9186 58.2034C89.0115 58.6607 86.7502 59.337 84.1671 60.0287C79.1512 61.366 72.9358 62.7648 72.9358 62.7648C70.9002 61.3238 70.9001 57.7691 70.9001 57.7691L83.7533 51.7166C83.7533 51.7166 83.9121 48.6884 84.2757 44.8455C84.6394 41.0027 83.7282 35.1461 86.7293 32.5983C90.1276 29.7162 93.7348 32.5022 93.785 36.4412C93.8059 38.0629 93.6052 41.8135 93.1747 45.7563Z" fill="#C1DDFF"/>
<path d="M93.1746 45.7563C92.5644 51.3861 91.5027 57.4117 89.9185 58.2034C89.0115 58.6607 86.7502 59.337 84.167 60.0287C86.5662 56.2128 91.4609 48.431 93.1746 45.7563Z" fill="#404B7C"/>
<path d="M93.2124 10.2866C93.2124 10.2866 97.7768 7.72345 101.363 10.3827C104.95 13.042 104.958 16.7465 104.891 19.5441C104.824 22.3417 108.895 21.9152 111.09 24.6052C113.284 27.2952 113.548 33.6359 105.656 35.6534C97.7643 37.6709 91.6533 35.223 89.7724 31.6684C87.8914 28.1137 91.2646 26.7034 91.4987 25.5198C91.8289 23.8404 88.903 22.9412 90.7839 20.524C92.6649 18.1069 89.5299 13.9258 89.5299 13.9258C90.1915 12.3161 91.5137 11.0093 93.2124 10.2866Z" fill="#404B7C"/>
<path d="M121.217 66.7499C121.217 66.7499 119.742 67.1342 117.397 67.5684C113.677 68.287 107.783 69.2209 102.099 69.2478C92.8486 69.2977 88.8234 66.992 88.8234 66.992C89.4002 62.6688 89.1411 52.8695 89.1411 52.8695C89.1411 52.8695 85.6885 47.3434 85.6885 46.0484C85.6885 44.7533 87.6238 36.5373 87.6238 36.5373L86.7334 32.5983C86.7334 32.5983 93.881 26.9762 99.2104 26.5919C105.234 26.1615 112.808 29.4741 112.808 29.4741C112.808 29.4741 114.011 35.7226 114.688 38.1705C115.081 39.5885 117.196 48.9305 118.931 56.5778C120.177 62.1231 121.217 66.7499 121.217 66.7499Z" fill="#C1DDFF"/>
<path d="M121.218 66.7499C121.218 66.7499 119.742 67.1342 117.397 67.5684C112.36 63.3105 106.066 57.9613 105.388 57.2888L118.931 56.5778C120.177 62.1231 121.218 66.7499 121.218 66.7499Z" fill="#404B7C"/>
<path d="M89.1913 57.4809C89.1358 57.4809 89.0827 57.4607 89.0435 57.4247C89.0043 57.3886 88.9823 57.3398 88.9823 57.2888C88.9823 55.0292 88.9321 53.2346 88.9237 52.9233C88.5768 52.3661 85.4753 47.3358 85.4753 46.0484C85.4753 44.761 87.2434 37.2098 87.4023 36.5373L86.7293 33.5514C86.7182 33.5004 86.7296 33.4475 86.761 33.4043C86.7923 33.361 86.8411 33.331 86.8965 33.3208C86.9519 33.3106 87.0095 33.3211 87.0565 33.3499C87.1036 33.3788 87.1362 33.4236 87.1473 33.4745L87.8286 36.5027C87.8351 36.5293 87.8351 36.5568 87.8286 36.5834C87.8286 36.6641 85.9017 44.7918 85.9017 46.0522C85.9017 47.0744 88.372 51.2516 89.3208 52.7773C89.3388 52.8053 89.3488 52.837 89.3501 52.8695C89.3501 52.8695 89.4002 54.814 89.4086 57.2926C89.4086 57.3436 89.3866 57.3925 89.3474 57.4285C89.3082 57.4645 89.255 57.4848 89.1996 57.4848L89.1913 57.4809Z" fill="#ECBDBB"/>
<path d="M98.6043 25.6581C95.762 25.8272 94.3742 28.5403 93.927 31.9988C93.927 31.9988 95.9668 30.6769 97.5593 30.4847C99.1518 30.2926 102.341 31.6145 102.341 31.6145C102.341 31.6145 103.8 25.3468 98.6043 25.6581Z" fill="#7891B0"/>
<path d="M96.6774 51.9395C96.6774 51.9395 90.7545 50.1795 90.5455 50.1449C90.3366 50.1103 82.6372 51.4899 82.3948 51.7473C82.352 51.8111 82.3253 51.8827 82.3165 51.9571C82.3076 52.0316 82.317 52.1069 82.3438 52.1775C82.3706 52.2482 82.4143 52.3125 82.4715 52.3657C82.5288 52.4189 82.5983 52.4597 82.6748 52.4852C82.9549 52.612 87.3061 52.1662 87.3061 52.1662C87.1506 52.6621 87.0223 53.1649 86.9216 53.6726C86.9216 53.8955 88.209 55.8169 88.9781 55.9783C89.5036 56.0631 90.0442 56.0194 90.5455 55.8515L91.1015 55.4365C91.5348 55.5422 91.9788 55.6066 92.4265 55.6286C92.7734 55.5979 93.4715 54.9561 93.4715 54.9561L96.0504 55.8515L96.6774 51.9395Z" fill="#ECBDBB"/>
<path d="M87.8121 54.3759H87.7494C87.7229 54.3684 87.6984 54.3562 87.6771 54.34C87.6558 54.3238 87.6383 54.3038 87.6254 54.2813C87.6126 54.2588 87.6048 54.2341 87.6024 54.2088C87.6 54.1835 87.603 54.158 87.6114 54.1338L88.3262 52.0048C88.3342 51.9796 88.3474 51.956 88.3653 51.9355C88.3832 51.915 88.4052 51.8979 88.4303 51.8853C88.4553 51.8726 88.4828 51.8646 88.5112 51.8617C88.5396 51.8588 88.5684 51.8611 88.5958 51.8684C88.6233 51.8757 88.6489 51.8879 88.6712 51.9043C88.6935 51.9208 88.7121 51.9411 88.7258 51.9641C88.7396 51.9871 88.7483 52.0124 88.7515 52.0385C88.7546 52.0646 88.7521 52.091 88.7442 52.1163L88.0294 54.2452C88.0145 54.2863 87.985 54.3216 87.9455 54.3453C87.906 54.3691 87.859 54.3798 87.8121 54.3759Z" fill="#404B7C"/>
<path d="M88.6646 55.2559C88.6091 55.2559 88.556 55.2357 88.5168 55.1996C88.4776 55.1636 88.4556 55.1147 88.4556 55.0638C88.4556 55.01 88.4556 54.9754 89.5549 52.7273C89.5797 52.684 89.6215 52.6511 89.6718 52.6352C89.7221 52.6193 89.7771 52.6216 89.8256 52.6417C89.8741 52.6618 89.9125 52.6981 89.9328 52.7433C89.9532 52.7885 89.9541 52.8391 89.9352 52.8848C89.5507 53.6765 88.9237 54.9638 88.8694 55.1099C88.8581 55.1518 88.8317 55.1891 88.7946 55.2156C88.7574 55.2421 88.7116 55.2563 88.6646 55.2559Z" fill="#404B7C"/>
<path d="M100.648 51.4592C100.648 51.4592 102.145 55.9092 98.2116 59.1141L94.7297 57.3541C94.7297 57.3541 93.7893 52.7427 96.8197 51.0787L100.648 51.4592Z" fill="#7891B0"/>
<path d="M118.551 64.252C113.769 64.9591 101.275 59.2909 97.9524 57.7192C97.8067 56.7638 97.8684 55.7914 98.1338 54.858C98.3993 53.9247 98.8633 53.049 99.499 52.2815L113.744 53.9262C113.744 53.9262 111.027 45.9907 109.092 40.4762C107.157 34.9617 108.908 28.3596 112.804 29.4741C119.178 31.3033 121.268 40.8105 122.417 48.9805C123.567 57.1504 124.089 63.4373 118.551 64.252Z" fill="#C1DDFF"/>
<path d="M113.744 54.1261H113.719L99.4822 52.4852C99.4267 52.4785 99.3764 52.4519 99.3423 52.4112C99.3082 52.3705 99.2931 52.319 99.3003 52.268C99.3075 52.2171 99.3365 52.1708 99.3808 52.1395C99.4251 52.1081 99.4811 52.0943 99.5365 52.1009L113.46 53.7072C112.954 52.2354 110.613 45.4066 108.908 40.5377C107.691 37.0791 107.888 32.9327 109.368 30.7153C109.381 30.6915 109.399 30.6705 109.421 30.6535C109.443 30.6365 109.469 30.624 109.497 30.6167C109.525 30.6094 109.554 30.6075 109.583 30.611C109.611 30.6146 109.639 30.6236 109.663 30.6375C109.688 30.6514 109.709 30.6698 109.726 30.6917C109.742 30.7135 109.754 30.7383 109.759 30.7643C109.765 30.7904 109.765 30.8173 109.758 30.8433C109.752 30.8692 109.74 30.8937 109.723 30.9152C108.298 33.0479 108.122 37.0445 109.305 40.4186C111.219 45.8793 113.932 53.7994 113.957 53.8686C113.969 53.8989 113.973 53.9314 113.967 53.9633C113.962 53.9952 113.948 54.0253 113.927 54.0509C113.906 54.0766 113.878 54.0969 113.846 54.11C113.814 54.1232 113.779 54.1287 113.744 54.1261Z" fill="#ECBDBB"/>
<path d="M117.644 64.5056C112.331 64.5056 101.284 59.5099 97.8603 57.8998C97.8359 57.8882 97.8142 57.8722 97.7965 57.8529C97.7787 57.8336 97.7653 57.8113 97.7569 57.7872C97.7486 57.7631 97.7455 57.7377 97.7478 57.7125C97.7501 57.6873 97.7578 57.6628 97.7704 57.6404C97.7831 57.6179 97.8004 57.598 97.8214 57.5817C97.8424 57.5653 97.8667 57.553 97.8929 57.5453C97.9191 57.5377 97.9467 57.5348 97.9741 57.5369C98.0015 57.5391 98.0282 57.5461 98.0526 57.5577C100.627 58.7682 113.702 64.7747 118.534 64.0637L118.898 63.9984C118.953 63.9877 119.011 63.9977 119.058 64.0261C119.106 64.0546 119.139 64.0992 119.151 64.1502C119.162 64.2011 119.151 64.2543 119.12 64.2979C119.089 64.3415 119.041 64.372 118.985 64.3827L118.597 64.4518C118.281 64.4932 117.962 64.5112 117.644 64.5056Z" fill="#ECBDBB"/>
<path d="M119.458 57.8959C119.418 57.8957 119.38 57.885 119.346 57.8653C119.313 57.8456 119.286 57.8175 119.27 57.7845C118.275 55.8016 114.672 54.6641 114.672 54.6526C114.619 54.6362 114.576 54.6014 114.551 54.5556C114.526 54.5099 114.523 54.4569 114.54 54.4085C114.558 54.3601 114.596 54.3202 114.646 54.2975C114.695 54.2748 114.753 54.2712 114.806 54.2875C114.96 54.3374 118.597 55.4903 119.667 57.6231C119.683 57.6538 119.689 57.6877 119.686 57.7215C119.683 57.7552 119.67 57.7876 119.649 57.8153C119.627 57.843 119.598 57.865 119.565 57.8792C119.532 57.8934 119.495 57.8991 119.458 57.8959Z" fill="#ECBDBB"/>
<path d="M100.318 27.3874C100.124 27.6979 99.8643 27.9701 99.5552 28.1884C99.2461 28.4067 98.8931 28.5667 98.5166 28.6594C98.1736 28.722 97.819 28.7046 97.4853 28.6085C97.1516 28.5125 96.8494 28.3411 96.6064 28.1099L96.3849 26.3806L96.0588 23.8558L99.0642 22.0766L99.3693 23.5061L100.318 27.3874Z" fill="#ECBDBB"/>
<path d="M99.3694 23.5023C99.2306 24.1995 98.8722 24.8439 98.3387 25.3555C97.8052 25.8672 97.1201 26.2236 96.3683 26.3806L96.0422 23.8558L99.0643 22.0766L99.3694 23.5023Z" fill="#404B7C"/>
<path d="M93.7098 12.0813C90.4662 12.896 89.6344 15.7012 92.2469 21.6577C94.0985 25.8848 98.6212 25.5544 99.9086 20.3357C101.367 14.4408 97.0161 11.2474 93.7098 12.0813Z" fill="#ECBDBB"/>
<path d="M88.8654 18.2837C88.8654 18.2837 93.8479 17.4651 96.1802 13.9412C96.1802 13.9412 96.3558 15.9895 98.1657 16.9194L98.7592 19.3866C98.7592 19.3866 101.443 18.0723 100.569 14.1679C99.6955 10.2636 95.4655 7.60433 91.0933 9.97153C86.2697 12.5847 88.8654 18.2837 88.8654 18.2837Z" fill="#404B7C"/>
<path d="M99.2315 18.9984C99.1445 18.5484 99.2293 18.0846 99.4715 17.6854C99.7137 17.2863 100.099 16.9763 100.561 16.808C100.738 16.7377 100.93 16.7014 101.123 16.7014C101.316 16.7014 101.508 16.7377 101.685 16.808C102.939 17.3537 102.697 20.6201 99.5952 21.0659L99.2315 18.9984Z" fill="#ECBDBB"/>
<path d="M100.318 20.2051C100.269 20.2049 100.222 20.1891 100.185 20.1603C100.147 20.1315 100.122 20.0916 100.113 20.0475C100.113 19.9553 99.662 17.7764 101.217 17.2422C101.243 17.2334 101.27 17.2293 101.298 17.2302C101.325 17.2311 101.352 17.237 101.377 17.2476C101.402 17.2581 101.425 17.273 101.444 17.2916C101.462 17.3101 101.477 17.3319 101.487 17.3556C101.496 17.3793 101.501 17.4045 101.5 17.4298C101.499 17.4551 101.492 17.48 101.481 17.503C101.469 17.526 101.453 17.5467 101.433 17.564C101.413 17.5812 101.389 17.5946 101.363 17.6034C100.134 18.0262 100.527 19.9591 100.527 19.9783C100.537 20.0283 100.525 20.0797 100.494 20.1215C100.462 20.1632 100.414 20.1919 100.36 20.2012H100.318V20.2051Z" fill="#404B7C"/>
<path d="M101.484 19.0907C101.451 19.0908 101.418 19.0836 101.388 19.0695C101.358 19.0555 101.332 19.0351 101.313 19.01C101.07 18.7323 100.738 18.532 100.364 18.4374C100.309 18.4246 100.261 18.3922 100.232 18.3471C100.202 18.3021 100.194 18.2482 100.207 18.1972C100.221 18.1462 100.257 18.1024 100.306 18.0754C100.355 18.0484 100.413 18.0404 100.469 18.0531C100.937 18.1686 101.352 18.4208 101.652 18.7717C101.679 18.8001 101.696 18.8351 101.702 18.8726C101.707 18.91 101.701 18.9481 101.683 18.9822C101.665 19.0162 101.637 19.0447 101.601 19.064C101.566 19.0833 101.525 19.0926 101.484 19.0907Z" fill="#404B7C"/>
<path d="M93.5843 1.37503H93.0367C92.7827 1.37503 92.5769 1.56429 92.5769 1.79775V5.22943C92.5769 5.46289 92.7827 5.65214 93.0367 5.65214H93.5843C93.8382 5.65214 94.044 5.46289 94.044 5.22943V1.79775C94.044 1.56429 93.8382 1.37503 93.5843 1.37503Z" fill="#7891B0"/>
<path d="M85.266 4.33631L84.8788 4.69227C84.6993 4.85735 84.6993 5.125 84.8788 5.29008L87.5152 7.71393C87.6948 7.87901 87.9859 7.87901 88.1655 7.71393L88.5527 7.35796C88.7322 7.19288 88.7322 6.92523 88.5527 6.76015L85.9163 4.3363C85.7367 4.17122 85.4456 4.17123 85.266 4.33631Z" fill="#7891B0"/>
<path d="M101.747 4.69235L101.36 4.33638C101.18 4.1713 100.889 4.1713 100.709 4.33638L98.0729 6.76023C97.8933 6.92531 97.8933 7.19296 98.0729 7.35804L98.4601 7.71401C98.6396 7.87909 98.9308 7.87909 99.1103 7.71401L101.747 5.29016C101.926 5.12508 101.926 4.85743 101.747 4.69235Z" fill="#7891B0"/>
<path d="M120.457 30.9651C120.457 30.9651 123.429 31.2994 125.836 30.2811C128.05 31.3597 130.619 31.6455 133.049 31.0833C135.478 30.5211 137.594 29.1509 138.988 27.2375C140.383 25.324 140.956 23.0033 140.597 20.724C140.238 18.4447 138.973 16.3687 137.045 14.8973C135.118 13.4258 132.666 12.6636 130.163 12.7578C127.66 12.852 125.284 13.7961 123.494 15.4074C121.705 17.0188 120.628 19.183 120.473 21.4816C120.318 23.7803 121.096 26.0502 122.655 27.8524C122.229 28.7132 121.372 30.2503 120.457 30.9651Z" fill="#7891B0"/>
<path d="M132.282 21.0313C132.328 21.0538 132.381 21.0608 132.432 21.0513C132.483 21.0418 132.529 21.0164 132.562 20.9792C132.595 20.9421 132.613 20.8956 132.613 20.8477C132.613 20.7997 132.595 20.7532 132.562 20.7162C132.219 20.3753 131.8 20.108 131.332 19.9333C130.865 19.7586 130.361 19.6808 129.857 19.7055C127.124 19.7055 128.988 22.7145 129.439 23.4216C129.891 24.1287 130.957 25.7773 130.886 26.2884C130.827 26.7188 129.887 26.957 129.318 26.2576C129.292 26.2162 129.25 26.1845 129.201 26.168C129.152 26.1515 129.098 26.1511 129.049 26.167C129 26.1829 128.958 26.214 128.931 26.255C128.904 26.2961 128.893 26.3445 128.9 26.3921C128.923 26.7153 129.03 27.0287 129.213 27.3057C129.396 27.5826 129.648 27.815 129.949 27.9831C131.5 29.0091 134.1 27.9831 133.711 25.8387C133.469 24.5399 131.429 22.2341 131.203 21.2926C131.003 20.6701 131.642 20.72 132.282 21.0313Z" fill="#E9F3FF"/>
<path d="M129.928 18.3605C130.709 18.3605 131.341 17.779 131.341 17.0616C131.341 16.3443 130.709 15.7627 129.928 15.7627C129.148 15.7627 128.516 16.3443 128.516 17.0616C128.516 17.779 129.148 18.3605 129.928 18.3605Z" fill="#E9F3FF"/>
<path d="M97.4549 17.1731C97.4549 17.1731 96.5228 16.0509 95.5949 16.7081C95.5753 16.636 95.5283 16.5727 95.4623 16.5297C95.3964 16.4867 95.3159 16.4669 95.2354 16.4737C94.9637 16.5159 95.1017 17.2922 95.1017 17.2922C95.8694 17.1077 96.6698 17.0672 97.4549 17.1731Z" fill="#404B7C"/>
<path d="M91.8081 18.7986C91.8081 18.7986 91.62 17.5189 92.4936 17.7265C92.483 17.6702 92.4904 17.6123 92.5149 17.5597C92.5394 17.5072 92.5799 17.4624 92.6315 17.4306C92.9199 17.3306 93.1373 18.0493 93.1373 18.0493C92.6188 18.1629 92.1533 18.4253 91.8081 18.7986Z" fill="#404B7C"/>
<path d="M96.4731 19.5401C96.7837 19.475 96.9644 19.1354 96.8766 18.7816C96.7889 18.4277 96.466 18.1936 96.1554 18.2587C95.8448 18.3238 95.6641 18.6634 95.7519 19.0173C95.8396 19.3711 96.1625 19.6052 96.4731 19.5401Z" fill="#404B7C"/>
<path d="M96.1661 18.8348C96.2493 18.8174 96.3015 18.7411 96.2825 18.6646C96.2635 18.588 96.1806 18.5401 96.0973 18.5575C96.0141 18.575 95.9619 18.6512 95.9809 18.7278C95.9999 18.8043 96.0828 18.8523 96.1661 18.8348Z" fill="white"/>
<path d="M93.1538 20.2316C93.4644 20.1665 93.645 19.8269 93.5573 19.4731C93.4696 19.1192 93.1467 18.8851 92.8361 18.9502C92.5255 19.0153 92.3448 19.3549 92.4325 19.7088C92.5202 20.0626 92.8432 20.2967 93.1538 20.2316Z" fill="#404B7C"/>
<path d="M93.3278 19.9183C93.4115 19.9011 93.4641 19.8247 93.4453 19.7477C93.4265 19.6708 93.3434 19.6224 93.2597 19.6396C93.176 19.6569 93.1234 19.7333 93.1422 19.8103C93.161 19.8872 93.2441 19.9356 93.3278 19.9183Z" fill="white"/>
<path d="M94.6293 21.5155C94.4921 21.5208 94.3556 21.4939 94.2328 21.4375C94.11 21.381 94.0048 21.2968 93.927 21.1927C93.8722 21.1276 93.8365 21.0507 93.8233 20.9693C93.8101 20.8878 93.8199 20.8047 93.8518 20.7277C93.9168 20.6187 94.0045 20.5225 94.1099 20.4447C94.2153 20.3669 94.3364 20.309 94.4662 20.2743L94.2071 19.1944C94.1954 19.1435 94.2063 19.0903 94.2373 19.0467C94.2682 19.0031 94.3168 18.9726 94.3722 18.9619C94.4276 18.9512 94.4854 18.9612 94.5328 18.9897C94.5803 19.0181 94.6134 19.0628 94.6251 19.1137L94.926 20.3665C94.9374 20.4154 94.9276 20.4664 94.8987 20.5087C94.8698 20.551 94.8242 20.5813 94.7714 20.5932C94.5646 20.6259 94.376 20.7221 94.2364 20.8661C94.2307 20.8851 94.2308 20.9052 94.2367 20.9242C94.2426 20.9432 94.254 20.9603 94.2698 20.9737C94.4997 21.2849 95.0514 21.0352 95.0556 21.0313C95.1043 21.0127 95.1589 21.0116 95.2084 21.0285C95.2579 21.0453 95.2986 21.0787 95.3225 21.122C95.3463 21.1653 95.3514 21.2153 95.3368 21.2619C95.3222 21.3085 95.2889 21.3483 95.2437 21.3733C95.0529 21.462 94.843 21.5106 94.6293 21.5155Z" fill="#404B7C"/>
<path d="M95.0808 22.6568C95.0808 22.6568 96.782 23.2794 97.3714 21.3964L95.0808 22.6568Z" fill="white"/>
<path d="M111.967 10.3866C114.218 10.3866 116.043 8.70907 116.043 6.63977C116.043 4.57047 114.218 2.89297 111.967 2.89297C109.717 2.89297 107.892 4.57047 107.892 6.63977C107.892 8.70907 109.717 10.3866 111.967 10.3866Z" fill="#E9F3FF"/>
<path d="M116.753 3.29644C116.814 3.35214 116.862 3.41832 116.895 3.49118C116.928 3.56405 116.945 3.64218 116.945 3.72108C116.945 3.79998 116.928 3.8781 116.895 3.95097C116.862 4.02384 116.814 4.09002 116.753 4.14572L112.44 8.08466C112.379 8.14054 112.307 8.18489 112.228 8.21515C112.149 8.2454 112.064 8.26098 111.978 8.26098C111.892 8.26098 111.807 8.2454 111.728 8.21515C111.649 8.18489 111.577 8.14054 111.516 8.08466L109.464 6.19781C109.36 6.08206 109.307 5.93495 109.315 5.78517C109.323 5.63539 109.391 5.49366 109.506 5.38763C109.622 5.28159 109.776 5.21884 109.939 5.21162C110.101 5.20439 110.262 5.2532 110.387 5.34853L111.976 6.80882L115.834 3.29644C115.956 3.18474 116.121 3.12204 116.294 3.12204C116.466 3.12204 116.631 3.18474 116.753 3.29644Z" fill="#C1DDFF"/>
<path d="M152.642 42.8396V50.6522C152.642 51.493 152.279 52.2994 151.632 52.894C150.985 53.4885 150.108 53.8225 149.193 53.8225H138.292L133.139 58.5646V53.8225H132.169C131.254 53.8225 130.377 53.4885 129.73 52.894C129.084 52.2994 128.72 51.493 128.72 50.6522V42.8396C128.72 41.9988 129.084 41.1924 129.73 40.5978C130.377 40.0033 131.254 39.6693 132.169 39.6693H149.193C150.108 39.6693 150.985 40.0033 151.632 40.5978C152.279 41.1924 152.642 41.9988 152.642 42.8396Z" fill="#E9F3FF"/>
<path d="M135.383 49.138H133.711C133.471 49.138 133.276 49.317 133.276 49.5377V50.0834C133.276 50.3041 133.471 50.483 133.711 50.483H135.383C135.623 50.483 135.818 50.3041 135.818 50.0834V49.5377C135.818 49.317 135.623 49.138 135.383 49.138Z" fill="#7891B0"/>
<path d="M144.721 45.8716H133.711C133.471 45.8716 133.276 46.0505 133.276 46.2712V46.8169C133.276 47.0377 133.471 47.2166 133.711 47.2166H144.721C144.961 47.2166 145.156 47.0377 145.156 46.8169V46.2712C145.156 46.0505 144.961 45.8716 144.721 45.8716Z" fill="#7891B0"/>
<path d="M138.347 42.6052H133.711C133.471 42.6052 133.276 42.7841 133.276 43.0048V43.5505C133.276 43.7712 133.471 43.9502 133.711 43.9502H138.347C138.587 43.9502 138.781 43.7712 138.781 43.5505V43.0048C138.781 42.7841 138.587 42.6052 138.347 42.6052Z" fill="#7891B0"/>
<path d="M80.6101 23.3639C80.6101 23.3639 76.798 23.7905 73.7091 22.4878C70.8702 23.8721 67.5738 24.2396 64.4572 23.5192C61.3407 22.7988 58.6254 21.0417 56.8361 18.5876C55.0469 16.1334 54.3109 13.1565 54.7705 10.2325C55.23 7.30839 56.8524 4.64479 59.324 2.75661C61.7956 0.868434 64.9409 -0.110213 68.1517 0.00987495C71.3626 0.129963 74.4111 1.34025 76.7077 3.40676C79.0043 5.47327 80.386 8.24923 80.5857 11.198C80.7853 14.1467 79.7888 17.0588 77.7886 19.3712C78.3362 20.4626 79.4188 22.434 80.6101 23.3639Z" fill="#C1DDFF"/>
<path d="M64.5675 10.4058C64.5675 10.4058 67.2134 8.96469 67.9114 6.88186C68.6095 4.79902 70.5239 5.92114 70.4194 7.42754C70.3792 8.26749 70.1664 9.09286 69.7924 9.86008H74.1478C75.1217 9.86008 75.1594 11.8123 74.1478 12.0697C74.1478 12.0697 75.1594 13.5761 73.6964 14.5676C73.8388 14.8987 73.8577 15.2639 73.7503 15.606C73.643 15.9481 73.4152 16.2478 73.1029 16.4583C73.1029 16.4583 73.3829 17.9647 71.502 18.1222C69.621 18.2798 64.3711 17.3844 64.3711 17.3844L64.5675 10.4058Z" fill="white"/>
<path d="M64.5676 9.44507H60.9771C60.6123 9.44507 60.3167 9.71691 60.3167 10.0522V17.2615C60.3167 17.5968 60.6123 17.8686 60.9771 17.8686H64.5676C64.9323 17.8686 65.228 17.5968 65.228 17.2615V10.0522C65.228 9.71691 64.9323 9.44507 64.5676 9.44507Z" fill="#7891B0"/>
<path d="M46.8784 33.7743C50.5858 33.7743 53.5913 31.0111 53.5913 27.6026C53.5913 24.1941 50.5858 21.431 46.8784 21.431C43.171 21.431 40.1655 24.1941 40.1655 27.6026C40.1655 31.0111 43.171 33.7743 46.8784 33.7743Z" fill="#E9F3FF"/>
<path d="M46.8783 30.6769C52.5546 28.179 50.6402 24.8165 49.2483 24.5591C47.8564 24.3016 46.8783 25.5198 46.8783 25.5198C46.8783 25.5198 45.9044 24.3016 44.5083 24.5591C43.1122 24.8165 41.202 28.179 46.8783 30.6769Z" fill="#C1DDFF"/>
<path d="M70.7498 30.1081C71.5947 30.1081 72.2796 29.4784 72.2796 28.7017C72.2796 27.9249 71.5947 27.2952 70.7498 27.2952C69.9049 27.2952 69.22 27.9249 69.22 28.7017C69.22 29.4784 69.9049 30.1081 70.7498 30.1081Z" fill="#E9F3FF"/>
<path d="M64.9731 31.507C65.3909 31.507 65.7297 31.1955 65.7297 30.8114C65.7297 30.4273 65.3909 30.1158 64.9731 30.1158C64.5553 30.1158 64.2166 30.4273 64.2166 30.8114C64.2166 31.1955 64.5553 31.507 64.9731 31.507Z" fill="#E9F3FF"/>
<path d="M50.979 152.281C52.5488 152.281 53.8213 151.111 53.8213 149.667C53.8213 148.224 52.5488 147.054 50.979 147.054C49.4093 147.054 48.1367 148.224 48.1367 149.667C48.1367 151.111 49.4093 152.281 50.979 152.281Z" fill="#E9F3FF"/>
<path d="M43.288 147.681C44.066 147.681 44.6966 147.101 44.6966 146.386C44.6966 145.67 44.066 145.091 43.288 145.091C42.5101 145.091 41.8794 145.67 41.8794 146.386C41.8794 147.101 42.5101 147.681 43.288 147.681Z" fill="#E9F3FF"/>
<path d="M135.918 69.2516C137.223 69.2516 138.28 68.2795 138.28 67.0804C138.28 65.8813 137.223 64.9092 135.918 64.9092C134.614 64.9092 133.557 65.8813 133.557 67.0804C133.557 68.2795 134.614 69.2516 135.918 69.2516Z" fill="#E9F3FF"/>
<path d="M129.531 65.4279C130.178 65.4279 130.702 64.9462 130.702 64.3519C130.702 63.7577 130.178 63.2759 129.531 63.2759C128.885 63.2759 128.361 63.7577 128.361 64.3519C128.361 64.9462 128.885 65.4279 129.531 65.4279Z" fill="#E9F3FF"/>
<path d="M143.965 135.791C144.592 135.637 144.912 134.867 144.681 134.071C144.449 133.276 143.754 132.756 143.127 132.91C142.5 133.064 142.18 133.834 142.411 134.629C142.643 135.425 143.338 135.945 143.965 135.791Z" fill="#E9F3FF"/>
<path d="M146.773 130.803C147.254 130.743 147.57 130.2 147.48 129.59C147.39 128.98 146.928 128.534 146.448 128.594C145.967 128.654 145.651 129.197 145.741 129.807C145.831 130.417 146.293 130.863 146.773 130.803Z" fill="#E9F3FF"/>
<path d="M166.445 127.237C166.759 126.291 166.407 125.355 165.661 125.146C164.914 124.937 164.055 125.535 163.742 126.481C163.429 127.428 163.78 128.364 164.527 128.573C165.273 128.781 166.132 128.184 166.445 127.237Z" fill="#E9F3FF"/>
<path d="M171.885 146.002C172.522 145.205 172.528 144.214 171.899 143.79C171.27 143.365 170.244 143.668 169.607 144.465C168.971 145.263 168.965 146.253 169.594 146.677C170.223 147.102 171.249 146.799 171.885 146.002Z" fill="#E9F3FF"/>
<path d="M175.57 143.359C175.927 142.913 175.929 142.357 175.575 142.119C175.222 141.88 174.646 142.049 174.29 142.495C173.933 142.942 173.931 143.497 174.285 143.736C174.638 143.974 175.214 143.806 175.57 143.359Z" fill="#E9F3FF"/>
</svg>
