<svg width="275" height="195" viewBox="0 0 275 195" fill="none" xmlns="http://www.w3.org/2000/svg">
<g clip-path="url(#clip0_3286_2750)">
<path d="M187.657 195H201.494C202.449 195 203.223 194.227 203.223 193.274C203.223 192.321 202.449 191.549 201.494 191.549H187.657C186.702 191.549 185.928 192.321 185.928 193.274C185.928 194.227 186.702 195 187.657 195Z" fill="#636677"/>
<path d="M187.657 195H201.494C202.449 195 203.223 194.227 203.223 193.274C203.223 192.321 202.449 191.549 201.494 191.549H187.657C186.702 191.549 185.928 192.321 185.928 193.274C185.928 194.227 186.702 195 187.657 195Z" fill="white" fill-opacity="0.8"/>
<path d="M101.179 195H177.28C178.235 195 179.009 194.227 179.009 193.274C179.009 192.321 178.235 191.549 177.28 191.549H101.179C100.224 191.549 99.4495 192.321 99.4495 193.274C99.4495 194.227 100.224 195 101.179 195Z" fill="#636677"/>
<path d="M101.179 195H177.28C178.235 195 179.009 194.227 179.009 193.274C179.009 192.321 178.235 191.549 177.28 191.549H101.179C100.224 191.549 99.4495 192.321 99.4495 193.274C99.4495 194.227 100.224 195 101.179 195Z" fill="white" fill-opacity="0.8"/>
<path d="M159.984 188.097H187.657C188.612 188.097 189.387 187.325 189.387 186.372C189.387 185.418 188.612 184.646 187.657 184.646H159.984C159.029 184.646 158.255 185.418 158.255 186.372C158.255 187.325 159.029 188.097 159.984 188.097Z" fill="#636677"/>
<path d="M159.984 188.097H187.657C188.612 188.097 189.387 187.325 189.387 186.372C189.387 185.418 188.612 184.646 187.657 184.646H159.984C159.029 184.646 158.255 185.418 158.255 186.372C158.255 187.325 159.029 188.097 159.984 188.097Z" fill="white" fill-opacity="0.8"/>
<path d="M73.5062 188.097H149.607C150.562 188.097 151.336 187.325 151.336 186.372C151.336 185.418 150.562 184.646 149.607 184.646H73.5062C72.551 184.646 71.7767 185.418 71.7767 186.372C71.7767 187.325 72.551 188.097 73.5062 188.097Z" fill="#636677"/>
<path d="M73.5062 188.097H149.607C150.562 188.097 151.336 187.325 151.336 186.372C151.336 185.418 150.562 184.646 149.607 184.646H73.5062C72.551 184.646 71.7767 185.418 71.7767 186.372C71.7767 187.325 72.551 188.097 73.5062 188.097Z" fill="white" fill-opacity="0.8"/>
<path d="M269.811 58.6724H183.333C181.423 58.6724 179.874 60.2176 179.874 62.1237V157.035C179.874 158.941 181.423 160.487 183.333 160.487H269.811C271.722 160.487 273.27 158.941 273.27 157.035V62.1237C273.27 60.2176 271.722 58.6724 269.811 58.6724Z" fill="white" stroke="#BDC9D9" stroke-width="4"/>
<path d="M235.22 93.1855H217.924C212.193 93.1855 207.547 97.8212 207.547 103.54C207.547 109.258 212.193 113.894 217.924 113.894H235.22C240.951 113.894 245.597 109.258 245.597 103.54C245.597 97.8212 240.951 93.1855 235.22 93.1855Z" fill="#0062DD"/>
<path d="M235.22 93.1855H217.924C212.193 93.1855 207.547 97.8212 207.547 103.54C207.547 109.258 212.193 113.894 217.924 113.894H235.22C240.951 113.894 245.597 109.258 245.597 103.54C245.597 97.8212 240.951 93.1855 235.22 93.1855Z" fill="white" fill-opacity="0.8"/>
<path d="M235.22 112.168C239.996 112.168 243.868 108.305 243.868 103.539C243.868 98.7742 239.996 94.9111 235.22 94.9111C230.444 94.9111 226.572 98.7742 226.572 103.539C226.572 108.305 230.444 112.168 235.22 112.168Z" fill="#E9F3FF" stroke="#8B98A9" stroke-opacity="0.8" stroke-width="4"/>
<path d="M232.625 100.951L237.814 106.128M237.814 100.951L232.625 106.128" stroke="#8B98A9" stroke-opacity="0.8" stroke-width="2" stroke-linecap="round"/>
<path d="M235.22 120.796H217.924C212.193 120.796 207.547 125.432 207.547 131.15C207.547 136.869 212.193 141.504 217.924 141.504H235.22C240.951 141.504 245.597 136.869 245.597 131.15C245.597 125.432 240.951 120.796 235.22 120.796Z" fill="#0062DD"/>
<path d="M235.22 120.796H217.924C212.193 120.796 207.547 125.432 207.547 131.15C207.547 136.869 212.193 141.504 217.924 141.504H235.22C240.951 141.504 245.597 136.869 245.597 131.15C245.597 125.432 240.951 120.796 235.22 120.796Z" fill="white" fill-opacity="0.8"/>
<path d="M235.22 139.779C239.996 139.779 243.868 135.916 243.868 131.15C243.868 126.385 239.996 122.522 235.22 122.522C230.444 122.522 226.572 126.385 226.572 131.15C226.572 135.916 230.444 139.779 235.22 139.779Z" fill="#E9F3FF" stroke="#8B98A9" stroke-opacity="0.8" stroke-width="4"/>
<path d="M232.625 128.562L237.814 133.739M237.814 128.562L232.625 133.739" stroke="#8B98A9" stroke-opacity="0.8" stroke-width="2" stroke-linecap="round"/>
<path d="M212.736 64.7124H240.409C240.867 64.7124 241.307 64.8942 241.632 65.2178C241.956 65.5415 242.138 65.9804 242.138 66.4381C242.138 66.8957 241.956 67.3347 241.632 67.6583C241.307 67.9819 240.867 68.1637 240.409 68.1637H212.736C212.277 68.1637 211.837 67.9819 211.513 67.6583C211.188 67.3347 211.006 66.8957 211.006 66.4381C211.006 65.9804 211.188 65.5415 211.513 65.2178C211.837 64.8942 212.277 64.7124 212.736 64.7124Z" fill="#636677"/>
<path d="M212.736 64.7124H240.409C240.867 64.7124 241.307 64.8942 241.632 65.2178C241.956 65.5415 242.138 65.9804 242.138 66.4381C242.138 66.8957 241.956 67.3347 241.632 67.6583C241.307 67.9819 240.867 68.1637 240.409 68.1637H212.736C212.277 68.1637 211.837 67.9819 211.513 67.6583C211.188 67.3347 211.006 66.8957 211.006 66.4381C211.006 65.9804 211.188 65.5415 211.513 65.2178C211.837 64.8942 212.277 64.7124 212.736 64.7124Z" fill="white" fill-opacity="0.8"/>
<path d="M200.629 73.9012L270.676 73.6406" stroke="#BDC9D9" stroke-width="2" stroke-linecap="square"/>
<path d="M91.6666 67.3008H5.18861C3.27819 67.3008 1.72949 68.846 1.72949 70.7521V157.035C1.72949 158.941 3.27819 160.487 5.18861 160.487H91.6666C93.577 160.487 95.1257 158.941 95.1257 157.035V70.7521C95.1257 68.846 93.577 67.3008 91.6666 67.3008Z" fill="white" stroke="#BDC9D9" stroke-width="4"/>
<path d="M19.8899 100.951V150.133" stroke="#BDC9D9" stroke-width="4" stroke-linecap="round"/>
<path d="M33.7264 73.3408H61.3993C61.858 73.3408 62.298 73.5226 62.6223 73.8463C62.9467 74.1699 63.1289 74.6088 63.1289 75.0665C63.1289 75.5242 62.9467 75.9631 62.6223 76.2867C62.298 76.6103 61.858 76.7921 61.3993 76.7921H33.7264C33.2677 76.7921 32.8278 76.6103 32.5034 76.2867C32.179 75.9631 31.9968 75.5242 31.9968 75.0665C31.9968 74.6088 32.179 74.1699 32.5034 73.8463C32.8278 73.5226 33.2677 73.3408 33.7264 73.3408Z" fill="#636677"/>
<path d="M33.7264 73.3408H61.3993C61.858 73.3408 62.298 73.5226 62.6223 73.8463C62.9467 74.1699 63.1289 74.6088 63.1289 75.0665C63.1289 75.5242 62.9467 75.9631 62.6223 76.2867C62.298 76.6103 61.858 76.7921 61.3993 76.7921H33.7264C33.2677 76.7921 32.8278 76.6103 32.5034 76.2867C32.179 75.9631 31.9968 75.5242 31.9968 75.0665C31.9968 74.6088 32.179 74.1699 32.5034 73.8463C32.8278 73.5226 33.2677 73.3408 33.7264 73.3408Z" fill="white" fill-opacity="0.8"/>
<path d="M11.2422 141.504H83.0189" stroke="#BDC9D9" stroke-width="4" stroke-linecap="round"/>
<path d="M4.32373 82.5296L74.3709 82.269" stroke="#BDC9D9" stroke-width="2" stroke-linecap="square"/>
<path fill-rule="evenodd" clip-rule="evenodd" d="M40.6447 108.717V105.265C40.6447 103.435 41.3736 101.679 42.671 100.385C43.9684 99.09 45.7281 98.3628 47.5629 98.3628C49.3977 98.3628 51.1574 99.09 52.4548 100.385C53.7523 101.679 54.4811 103.435 54.4811 105.265V108.717H57.9403V125.973H37.1855V108.717H40.6447ZM44.1038 108.717H51.022V105.265C51.022 104.35 50.6576 103.472 50.0089 102.825C49.3602 102.178 48.4803 101.814 47.5629 101.814C46.6455 101.814 45.7656 102.178 45.1169 102.825C44.4682 103.472 44.1038 104.35 44.1038 105.265V108.717ZM40.6447 112.168V122.522H54.4811V112.168H40.6447ZM45.8333 115.619H49.2925V119.071H45.8333V115.619Z" fill="#A7A7A7"/>
<path d="M191.116 18.1196H83.8836C80.0627 18.1196 76.9653 21.2101 76.9653 25.0223V167.39C76.9653 171.202 80.0627 174.292 83.8836 174.292H191.116C194.937 174.292 198.035 171.202 198.035 167.39V25.0223C198.035 21.2101 194.937 18.1196 191.116 18.1196Z" fill="#E1E3EE" stroke="#636677" stroke-width="4"/>
<path d="M169.497 25.0225H105.503C103.593 25.0225 102.044 26.5677 102.044 28.4738V30.1995C102.044 32.1056 103.593 33.6508 105.503 33.6508H169.497C171.407 33.6508 172.956 32.1056 172.956 30.1995V28.4738C172.956 26.5677 171.407 25.0225 169.497 25.0225Z" fill="#0062DD" stroke="white" stroke-width="2"/>
<path fill-rule="evenodd" clip-rule="evenodd" d="M181.579 102.677C181.596 102.185 181.604 101.69 181.604 101.196C181.604 77.3369 162.784 57.8921 139.229 56.981V102.677H181.579Z" fill="white" stroke="#0062DD" stroke-width="4"/>
<path fill-rule="evenodd" clip-rule="evenodd" d="M133.176 69.0371C113.516 69.4944 97.72 85.5396 97.72 105.266C97.72 125.28 113.981 141.505 134.041 141.505C152.844 141.505 168.45 127.199 170.199 108.717H133.176V69.0371Z" fill="white" stroke="#7891B0" stroke-width="2"/>
<path d="M79.5596 39.3882L195.44 39.1294" stroke="#7891B0" stroke-width="2" stroke-linecap="square"/>
<path fill-rule="evenodd" clip-rule="evenodd" d="M156.525 88.8719C157.443 88.8719 158.322 89.2355 158.971 89.8827C159.62 90.53 159.984 91.4079 159.984 92.3232C159.984 93.2385 159.62 94.1164 158.971 94.7637C158.322 95.4109 157.443 95.7745 156.525 95.7745C155.608 95.7745 154.728 95.4109 154.079 94.7637C153.43 94.1164 153.066 93.2385 153.066 92.3232C153.066 91.4079 153.43 90.53 154.079 89.8827C154.728 89.2355 155.608 88.8719 156.525 88.8719ZM156.525 71.6152C158.938 71.6152 160.609 74.1174 159.761 76.4626L156.525 88.8719L153.289 76.4626C152.442 74.1174 154.112 71.6152 156.525 71.6152Z" fill="#0062DD"/>
<path d="M170.362 128.562H186.792M96.8552 60.3984H127.123" stroke="#7891B0" stroke-width="4" stroke-linecap="round"/>
<path d="M96.8552 153.584H178.145M96.8552 161.35H164.308" stroke="white" stroke-width="4" stroke-linecap="round"/>
<path d="M170.362 135.465H179.874" stroke="#7891B0" stroke-width="4" stroke-linecap="round"/>
<path d="M214.465 46.5928H175.55C174.595 46.5928 173.821 47.3654 173.821 48.3184C173.821 49.2715 174.595 50.0441 175.55 50.0441H214.465C215.421 50.0441 216.195 49.2715 216.195 48.3184C216.195 47.3654 215.421 46.5928 214.465 46.5928Z" fill="#636677"/>
<path d="M214.465 46.5928H175.55C174.595 46.5928 173.821 47.3654 173.821 48.3184C173.821 49.2715 174.595 50.0441 175.55 50.0441H214.465C215.421 50.0441 216.195 49.2715 216.195 48.3184C216.195 47.3654 215.421 46.5928 214.465 46.5928Z" fill="white" fill-opacity="0.8"/>
<path d="M224.998 48.3185H243.868C256.764 48.3185 267.217 37.8886 267.217 25.022C267.217 12.1555 256.764 1.72559 243.868 1.72559C230.972 1.72559 220.519 12.1555 220.519 25.022C220.511 30.8555 222.704 36.4782 226.662 40.7713M149.607 65.5751C149.607 56.0443 157.35 48.3185 166.903 48.3185" stroke="#7891B0" stroke-width="4" stroke-linecap="round"/>
<path fill-rule="evenodd" clip-rule="evenodd" d="M241.744 12.3972C241.859 12.0534 242.079 11.7544 242.374 11.5425C242.668 11.3307 243.022 11.2167 243.385 11.2168H244.351C244.714 11.2167 245.068 11.3307 245.362 11.5425C245.657 11.7544 245.877 12.0534 245.992 12.3972L246.9 15.1177C247.543 15.3127 248.159 15.5689 248.742 15.8795L251.314 14.5965C251.638 14.4344 252.006 14.3783 252.364 14.4362C252.723 14.4942 253.054 14.6631 253.311 14.9192L253.994 15.6008C254.25 15.857 254.42 16.1873 254.478 16.5449C254.536 16.9025 254.48 17.2692 254.317 17.5931L253.032 20.1583C253.343 20.7407 253.599 21.3551 253.795 21.9962L256.521 22.903C256.866 23.0175 257.166 23.2373 257.378 23.5312C257.59 23.8252 257.705 24.1783 257.704 24.5406V25.5036C257.705 25.8659 257.59 26.2191 257.378 26.513C257.166 26.8069 256.866 27.0267 256.521 27.1412L253.795 28.0472C253.601 28.6829 253.345 29.2984 253.032 29.885L254.317 32.4511C254.48 32.775 254.536 33.1417 254.478 33.4993C254.42 33.8569 254.25 34.1872 253.994 34.4434L253.311 35.125C253.054 35.3811 252.723 35.5501 252.364 35.608C252.006 35.6659 251.638 35.6098 251.314 35.4477L248.743 34.1647C248.159 34.4753 247.543 34.7316 246.901 34.9266L245.992 37.6471C245.877 37.9908 245.657 38.2898 245.362 38.5017C245.068 38.7135 244.714 38.8275 244.351 38.8274H243.385C243.022 38.8275 242.668 38.7135 242.374 38.5017C242.079 38.2898 241.859 37.9908 241.744 37.6471L240.836 34.9266C240.199 34.7328 239.582 34.478 238.994 34.1655L236.422 35.4477C236.098 35.6098 235.73 35.6659 235.372 35.608C235.013 35.5501 234.682 35.3811 234.425 35.125L233.742 34.4434C233.486 34.1872 233.316 33.8569 233.258 33.4993C233.2 33.1417 233.256 32.775 233.419 32.4511L234.705 29.8859C234.391 29.2993 234.136 28.6838 233.941 28.0481L231.215 27.1412C230.87 27.0267 230.57 26.8069 230.358 26.513C230.146 26.2191 230.031 25.8659 230.031 25.5036V24.5406C230.031 24.1783 230.146 23.8252 230.358 23.5312C230.57 23.2373 230.87 23.0175 231.215 22.903L233.941 21.997C234.137 21.3551 234.393 20.7407 234.705 20.1592L233.419 17.5931C233.256 17.2692 233.2 16.9025 233.258 16.5449C233.316 16.1873 233.486 15.857 233.742 15.6008L234.425 14.9192C234.682 14.6631 235.013 14.4942 235.372 14.4362C235.73 14.3783 236.098 14.4344 236.422 14.5965L238.993 15.8787C239.577 15.5689 240.193 15.3127 240.835 15.1177L241.744 12.3972ZM243.868 31.9248C245.703 31.9248 247.462 31.1975 248.76 29.903C250.057 28.6085 250.786 26.8528 250.786 25.0221C250.786 23.1914 250.057 21.4357 248.76 20.1412C247.462 18.8467 245.703 18.1195 243.868 18.1195C242.033 18.1195 240.273 18.8467 238.976 20.1412C237.679 21.4357 236.95 23.1914 236.95 25.0221C236.95 26.8528 237.679 28.6085 238.976 29.903C240.273 31.1975 242.033 31.9248 243.868 31.9248Z" fill="#636677"/>
</g>
<defs>
<clipPath id="clip0_3286_2750">
<rect width="275" height="195" fill="white"/>
</clipPath>
</defs>
</svg>
