<svg width="110" height="106" viewBox="0 0 110 106" fill="none" xmlns="http://www.w3.org/2000/svg">
<path d="M9.21618 82.8544C8.08901 82.8578 6.9723 82.6383 5.93029 82.2085C4.88827 81.7787 3.94152 81.1471 3.14449 80.3501C2.34746 79.5531 1.71589 78.6063 1.2861 77.5643C0.856316 76.5223 0.636795 75.4056 0.640175 74.2784V0.640015H68.2114V74.2784C17.7346 79.0144 13.9074 82.8544 9.21618 82.8544Z" fill="white"/>
<path d="M9.21602 83.4944C8.00505 83.4969 6.8055 83.2603 5.68622 82.798C4.56694 82.3358 3.54997 81.657 2.69368 80.8007C1.83739 79.9444 1.15864 78.9275 0.696392 77.8082C0.234141 76.6889 -0.00251069 75.4894 2.00855e-05 74.2784V0.64C2.00855e-05 0.470261 0.067448 0.307474 0.187471 0.187451C0.307495 0.0674279 0.470281 0 0.64002 0H68.2112C68.381 0 68.5437 0.0674279 68.6638 0.187451C68.7838 0.307474 68.8512 0.470261 68.8512 0.64V74.2784C68.8519 74.4386 68.7924 74.5932 68.6846 74.7117C68.5767 74.8302 68.4284 74.904 68.2688 74.9184C32.0256 78.304 19.9616 81.2096 14.1632 82.5984C11.8592 83.1616 10.5856 83.4944 9.21602 83.4944ZM1.28002 1.28V74.2784C1.27749 75.3213 1.48103 76.3544 1.87896 77.3184C2.27688 78.2823 2.86134 79.1582 3.59877 79.8956C4.33621 80.6331 5.21207 81.2175 6.17605 81.6155C7.14003 82.0134 8.17314 82.2169 9.21602 82.2144C10.496 82.2144 11.6864 81.92 13.8944 81.3888C19.6928 79.9936 31.7248 77.0944 67.6032 73.7088V1.28H1.28002Z" fill="#093F68"/>
<path d="M26.2788 17.888H87.0788C90.3899 17.8897 93.5649 19.2058 95.9062 21.5471C98.2474 23.8883 99.5635 27.0633 99.5652 30.3744V104.909H41.7476C35.4372 104.909 34.8228 99.8464 34.8228 97.9264V34.5216C30.8932 26.9184 26.2788 17.888 26.2788 17.888Z" fill="white"/>
<path d="M99.5653 105.549H41.7477C34.7077 105.549 34.1829 99.712 34.1829 97.9264V34.6816C30.2725 27.104 25.7093 18.176 25.7093 18.176C25.6531 18.0787 25.6235 17.9684 25.6235 17.856C25.6235 17.7437 25.6531 17.6333 25.7093 17.536C25.7669 17.4438 25.8471 17.3678 25.9423 17.3151C26.0375 17.2625 26.1445 17.235 26.2533 17.2352H87.0533C90.5392 17.2352 93.8825 18.6191 96.3486 21.0828C98.8147 23.5465 100.202 26.8885 100.205 30.3744V104.909C100.205 105.079 100.138 105.241 100.018 105.361C99.8978 105.481 99.735 105.549 99.5653 105.549ZM27.3221 18.5088C28.6021 21.0048 32.2245 28.0704 35.3925 34.208C35.4391 34.2991 35.4633 34.4001 35.4629 34.5024V97.9072C35.4629 99.8272 36.1029 104.25 41.7477 104.25H98.9253V30.3744C98.9202 27.2313 97.6689 24.2185 95.4458 21.9966C93.2227 19.7747 90.2092 18.525 87.0661 18.5216L27.3221 18.5088Z" fill="#093F68"/>
<path d="M99.565 104.909H101.767C103.599 104.907 105.355 104.178 106.65 102.882C107.945 101.586 108.672 99.8289 108.672 97.9968V90.9184H46.5282V97.9136C46.5282 101.402 44.3458 104.762 40.269 104.762L99.565 104.909Z" fill="#1877F2"/>
<path d="M101.766 105.549H99.5649L40.2689 105.402C40.0992 105.402 39.9364 105.334 39.8164 105.214C39.6963 105.094 39.6289 104.931 39.6289 104.762C39.6289 104.592 39.6963 104.429 39.8164 104.309C39.9364 104.189 40.0992 104.122 40.2689 104.122C44.1089 104.122 45.8881 100.922 45.8881 97.9136V90.9184C45.8881 90.7487 45.9555 90.5859 46.0756 90.4659C46.1956 90.3459 46.3584 90.2784 46.5281 90.2784H108.672C108.842 90.2784 109.005 90.3459 109.125 90.4659C109.245 90.5859 109.312 90.7487 109.312 90.9184V97.9968C109.31 99.9981 108.515 101.917 107.101 103.333C105.686 104.749 103.768 105.545 101.766 105.549ZM99.5649 104.269H101.766C103.428 104.265 105.021 103.603 106.195 102.428C107.37 101.252 108.03 99.6587 108.032 97.9968V91.5584H47.1681V97.9136C47.1985 99.1015 46.9551 100.28 46.4568 101.359C45.9585 102.438 45.2186 103.387 44.2945 104.134L99.5649 104.269Z" fill="#093F68"/>
<path d="M9.21631 82.8544H34.8163V26.432C34.8476 25.2899 34.6496 24.1531 34.2341 23.0888C33.8186 22.0245 33.1941 21.0542 32.3973 20.2353C31.6005 19.4165 30.6477 18.7656 29.5952 18.3211C28.5426 17.8767 27.4117 17.6477 26.2691 17.6477C25.1266 17.6477 23.9956 17.8767 22.9431 18.3211C21.8905 18.7656 20.9377 19.4165 20.1409 20.2353C19.3441 21.0542 18.7196 22.0245 18.3041 23.0888C17.8886 24.1531 17.6906 25.2899 17.7219 26.432V74.2784C17.7304 76.5433 16.8393 78.7189 15.2443 80.3271C13.6494 81.9352 11.4812 82.8443 9.21631 82.8544Z" fill="#1877F2"/>
<path d="M34.8162 83.4944H9.21617C9.04643 83.4944 8.88365 83.427 8.76362 83.3069C8.6436 83.1869 8.57617 83.0241 8.57617 82.8544C8.57617 82.6846 8.6436 82.5219 8.76362 82.4018C8.88365 82.2818 9.04643 82.2144 9.21617 82.2144C11.3114 82.2025 13.3165 81.3606 14.792 79.873C16.2676 78.3855 17.0933 76.3736 17.0882 74.2784V26.432C17.0558 25.2051 17.2695 23.9842 17.7166 22.8412C18.1637 21.6982 18.8353 20.6564 19.6916 19.7772C20.5479 18.898 21.5717 18.1992 22.7024 17.722C23.8332 17.2449 25.0481 16.9991 26.2754 16.9991C27.5027 16.9991 28.7176 17.2449 29.8483 17.722C30.9791 18.1992 32.0028 18.898 32.8591 19.7772C33.7155 20.6564 34.387 21.6982 34.8341 22.8412C35.2813 23.9842 35.495 25.2051 35.4626 26.432V82.8544C35.4626 82.939 35.4458 83.0227 35.4133 83.1008C35.3807 83.1789 35.333 83.2497 35.2729 83.3092C35.2128 83.3687 35.1414 83.4157 35.0631 83.4475C34.9847 83.4793 34.9008 83.4952 34.8162 83.4944ZM13.8498 82.2144H34.1762V26.432C34.2063 25.3747 34.024 24.3221 33.6401 23.3364C33.2563 22.3508 32.6787 21.4521 31.9415 20.6936C31.2042 19.9351 30.3224 19.3322 29.348 18.9205C28.3737 18.5087 27.3267 18.2966 26.269 18.2966C25.2112 18.2966 24.1642 18.5087 23.1899 18.9205C22.2156 19.3322 21.3337 19.9351 20.5965 20.6936C19.8593 21.4521 19.2816 22.3508 18.8978 23.3364C18.514 24.3221 18.3317 25.3747 18.3618 26.432V74.2784C18.3662 75.8789 17.9529 77.4528 17.1627 78.8446C16.3725 80.2365 15.2328 81.398 13.8562 82.2144H13.8498Z" fill="#093F68"/>
<path d="M88.474 51.9104H47.4564C47.2867 51.9104 47.1239 51.8429 47.0039 51.7229C46.8838 51.6029 46.8164 51.4401 46.8164 51.2704V29.0304C46.8164 28.8606 46.8838 28.6979 47.0039 28.5778C47.1239 28.4578 47.2867 28.3904 47.4564 28.3904C47.6261 28.3904 47.7889 28.4578 47.909 28.5778C48.029 28.6979 48.0964 28.8606 48.0964 29.0304V50.6304H88.474C88.6437 50.6304 88.8065 50.6978 88.9266 50.8178C89.0466 50.9378 89.114 51.1006 89.114 51.2704C89.114 51.4401 89.0466 51.6029 88.9266 51.7229C88.8065 51.8429 88.6437 51.9104 88.474 51.9104Z" fill="#093F68"/>
<path d="M53.1841 40.576H59.2257V51.2704H53.1841V40.576Z" fill="#F56132"/>
<path d="M59.226 51.9104H53.1844C53.0147 51.9104 52.8519 51.843 52.7319 51.723C52.6119 51.603 52.5444 51.4402 52.5444 51.2704V40.576C52.5444 40.4063 52.6119 40.2435 52.7319 40.1235C52.8519 40.0035 53.0147 39.936 53.1844 39.936H59.226C59.3958 39.936 59.5586 40.0035 59.6786 40.1235C59.7986 40.2435 59.866 40.4063 59.866 40.576V51.2704C59.866 51.4402 59.7986 51.603 59.6786 51.723C59.5586 51.843 59.3958 51.9104 59.226 51.9104ZM53.8244 50.6304H58.586V41.216H53.8244V50.6304Z" fill="#093F68"/>
<path d="M64.9282 34.72H70.9698V51.2704H64.9282V34.72Z" fill="#FFBC0E"/>
<path d="M70.9697 51.9104H64.9281C64.7583 51.9104 64.5956 51.843 64.4755 51.723C64.3555 51.6029 64.2881 51.4402 64.2881 51.2704V34.72C64.2881 34.5503 64.3555 34.3875 64.4755 34.2675C64.5956 34.1474 64.7583 34.08 64.9281 34.08H70.9697C71.1394 34.08 71.3022 34.1474 71.4222 34.2675C71.5423 34.3875 71.6097 34.5503 71.6097 34.72V51.2704C71.6097 51.4402 71.5423 51.6029 71.4222 51.723C71.3022 51.843 71.1394 51.9104 70.9697 51.9104ZM65.5681 50.6304H70.3297V35.36H65.5681V50.6304Z" fill="#093F68"/>
<path d="M76.6724 28.3328H82.714V51.2704H76.6724V28.3328Z" fill="#70CC40"/>
<path d="M82.7138 51.9104H76.6722C76.5025 51.9104 76.3397 51.843 76.2197 51.723C76.0997 51.6029 76.0322 51.4401 76.0322 51.2704V28.3328C76.0322 28.1631 76.0997 28.0003 76.2197 27.8803C76.3397 27.7602 76.5025 27.6928 76.6722 27.6928H82.7138C82.8836 27.6928 83.0464 27.7602 83.1664 27.8803C83.2864 28.0003 83.3538 28.1631 83.3538 28.3328V51.2704C83.3538 51.4401 83.2864 51.6029 83.1664 51.723C83.0464 51.843 82.8836 51.9104 82.7138 51.9104ZM77.3122 50.6304H82.0738V28.9728H77.3122V50.6304Z" fill="#093F68"/>
<path d="M89.7346 62.0352H47.4242C47.2544 62.0352 47.0917 61.9678 46.9716 61.8478C46.8516 61.7278 46.7842 61.565 46.7842 61.3952C46.7842 61.2255 46.8516 61.0627 46.9716 60.9427C47.0917 60.8227 47.2544 60.7552 47.4242 60.7552H89.7346C89.9043 60.7552 90.0671 60.8227 90.1871 60.9427C90.3072 61.0627 90.3746 61.2255 90.3746 61.3952C90.3746 61.565 90.3072 61.7278 90.1871 61.8478C90.0671 61.9678 89.9043 62.0352 89.7346 62.0352Z" fill="#DFEAEF"/>
<path d="M89.7346 69.1776H47.4242C47.2544 69.1776 47.0917 69.1102 46.9716 68.9902C46.8516 68.8702 46.7842 68.7074 46.7842 68.5376C46.7842 68.3679 46.8516 68.2051 46.9716 68.0851C47.0917 67.9651 47.2544 67.8976 47.4242 67.8976H89.7346C89.9043 67.8976 90.0671 67.9651 90.1871 68.0851C90.3072 68.2051 90.3746 68.3679 90.3746 68.5376C90.3746 68.7074 90.3072 68.8702 90.1871 68.9902C90.0671 69.1102 89.9043 69.1776 89.7346 69.1776Z" fill="#DFEAEF"/>
<path d="M89.7346 76.32H47.4242C47.2544 76.32 47.0917 76.2526 46.9716 76.1326C46.8516 76.0126 46.7842 75.8498 46.7842 75.68C46.7842 75.5103 46.8516 75.3475 46.9716 75.2275C47.0917 75.1075 47.2544 75.04 47.4242 75.04H89.7346C89.9043 75.04 90.0671 75.1075 90.1871 75.2275C90.3072 75.3475 90.3746 75.5103 90.3746 75.68C90.3746 75.8498 90.3072 76.0126 90.1871 76.1326C90.0671 76.2526 89.9043 76.32 89.7346 76.32Z" fill="#DFEAEF"/>
<path d="M77.933 83.4944H47.4242C47.2544 83.4944 47.0917 83.427 46.9716 83.307C46.8516 83.1869 46.7842 83.0242 46.7842 82.8544C46.7842 82.6847 46.8516 82.5219 46.9716 82.4019C47.0917 82.2818 47.2544 82.2144 47.4242 82.2144H77.933C78.1027 82.2144 78.2655 82.2818 78.3855 82.4019C78.5055 82.5219 78.573 82.6847 78.573 82.8544C78.573 83.0242 78.5055 83.1869 78.3855 83.307C78.2655 83.427 78.1027 83.4944 77.933 83.4944Z" fill="#DFEAEF"/>
<path d="M26.1426 81.3832L29.5141 83.765L25.164 89.9226L21.7924 87.5408L26.1426 81.3832Z" fill="#093F68"/>
<path d="M25.1777 90.5664C25.0465 90.5642 24.9192 90.5218 24.8129 90.4448L21.4401 88.064C21.3021 87.9661 21.2085 87.8176 21.1797 87.6509C21.151 87.4842 21.1893 87.3129 21.2865 87.1744L25.6385 81.0112C25.7374 80.8742 25.8863 80.7819 26.053 80.7543C26.2196 80.7267 26.3904 80.7662 26.5281 80.864L29.9009 83.2448C30.0389 83.3415 30.1332 83.4886 30.1633 83.6544C30.189 83.8224 30.1502 83.9939 30.0545 84.1344L25.7025 90.2912C25.6539 90.3602 25.5921 90.4189 25.5207 90.4639C25.4493 90.509 25.3697 90.5394 25.2865 90.5536L25.1777 90.5664ZM22.7009 87.3664L25.0241 89.0048L28.6401 83.8848L26.3105 82.2464L22.7009 87.3664Z" fill="#093F68"/>
<path d="M28.6484 75.9285L33.8233 79.5844L29.4732 85.742L24.2983 82.0861L28.6484 75.9285Z" fill="white"/>
<path d="M29.4851 86.3808C29.3546 86.3805 29.2273 86.3403 29.1203 86.2656L23.9363 82.6112C23.8671 82.5627 23.8082 82.501 23.7629 82.4296C23.7177 82.3582 23.6871 82.2785 23.6728 82.1952C23.6585 82.1119 23.6609 82.0266 23.6797 81.9442C23.6986 81.8618 23.7336 81.784 23.7827 81.7152L28.1347 75.5584C28.2314 75.4205 28.3785 75.3262 28.5443 75.296C28.7123 75.2703 28.8838 75.3092 29.0243 75.4048L34.2019 79.0592C34.3399 79.1571 34.4335 79.3056 34.4623 79.4723C34.491 79.639 34.4527 79.8103 34.3555 79.9488L30.0035 86.112C29.9446 86.1947 29.8669 86.2623 29.7767 86.309C29.6866 86.3557 29.5866 86.3803 29.4851 86.3808ZM25.2163 81.9328L29.3443 84.8512L32.9603 79.7312L28.8259 76.8128L25.2163 81.9328Z" fill="#093F68"/>
<path d="M25.5812 88.9152L22.6122 86.8177C22.0031 86.3874 21.1604 86.5323 20.7301 87.1414L12.3215 99.0437C11.8912 99.6528 12.0362 100.495 12.6453 100.926L15.6143 103.023C16.2234 103.454 17.0661 103.309 17.4964 102.7L25.905 90.7973C26.3353 90.1882 26.1904 89.3456 25.5812 88.9152Z" fill="white"/>
<path d="M16.3972 103.917C15.9866 103.918 15.586 103.79 15.2516 103.552L12.282 101.453C11.8523 101.148 11.5611 100.685 11.4723 100.165C11.3835 99.6456 11.5044 99.1121 11.8084 98.6816L20.218 86.7776C20.5222 86.3469 20.9848 86.0544 21.5043 85.9644C22.0239 85.8744 22.558 85.9943 22.9892 86.2976L25.9588 88.3968C26.3896 88.701 26.6821 89.1636 26.7721 89.6832C26.8621 90.2027 26.7422 90.7368 26.4388 91.168L18.0292 103.078C17.8437 103.338 17.5987 103.55 17.3149 103.695C17.031 103.841 16.7164 103.917 16.3972 103.917ZM21.8436 87.2128C21.7293 87.2114 21.6165 87.2381 21.5149 87.2906C21.4133 87.343 21.3262 87.4196 21.2612 87.5136L12.8516 99.4176C12.7974 99.4938 12.7587 99.58 12.7379 99.6711C12.717 99.7623 12.7143 99.8567 12.73 99.9488C12.7455 100.042 12.7796 100.13 12.8302 100.209C12.8808 100.288 12.9469 100.357 13.0244 100.41L15.994 102.509C16.1479 102.616 16.3378 102.658 16.5224 102.625C16.707 102.593 16.8714 102.489 16.9796 102.336L25.3892 90.432C25.4436 90.356 25.4823 90.27 25.5034 90.179C25.5244 90.088 25.5273 89.9937 25.5118 89.9015C25.4964 89.8094 25.4629 89.7212 25.4133 89.642C25.3637 89.5628 25.299 89.4942 25.2228 89.44L22.2468 87.3344C22.1276 87.2544 21.9872 87.2121 21.8436 87.2128Z" fill="#093F68"/>
<path d="M45.6963 57.312C43.2896 55.6111 40.4326 54.6621 37.4866 54.585C34.5406 54.5079 31.6379 55.3063 29.1456 56.879C26.6533 58.4518 24.6835 60.7283 23.4851 63.4207C22.2868 66.1131 21.9138 69.1004 22.4134 72.0048C22.913 74.9092 24.2627 77.6002 26.2918 79.7374C28.3208 81.8747 30.9382 83.3622 33.8127 84.0118C36.6872 84.6614 39.6899 84.444 42.4408 83.387C45.1918 82.33 47.5675 80.4809 49.2675 78.0736C51.5463 74.8466 52.4502 70.8467 51.7805 66.9534C51.1108 63.0601 48.9223 59.5921 45.6963 57.312Z" fill="white"/>
<path d="M37.0691 85.0112C34.6263 85.0119 32.2177 84.4365 30.039 83.3316C27.8604 82.2267 25.973 80.6235 24.5302 78.6522C23.0875 76.681 22.13 74.3972 21.7356 71.9864C21.3411 69.5757 21.5209 67.1058 22.2602 64.7776C22.9995 62.4493 24.2775 60.3282 25.9904 58.5866C27.7034 56.845 29.803 55.5319 32.1187 54.7541C34.4344 53.9762 36.9009 53.7556 39.3179 54.1099C41.7349 54.4643 44.0342 55.3838 46.0291 56.7936C48.7218 58.6966 50.739 61.407 51.7889 64.5326C52.8388 67.6581 52.8668 71.0367 51.8689 74.1793C50.871 77.3219 48.8991 80.0654 46.2384 82.0127C43.5777 83.9601 40.3663 85.0102 37.0691 85.0112ZM37.1139 55.232C33.7146 55.2308 30.4271 56.4457 27.8454 58.6571C25.2637 60.8684 23.5582 63.9303 23.0372 67.2894C22.5162 70.6486 23.214 74.0832 25.0046 76.9727C26.7951 79.8622 29.5602 82.0159 32.8001 83.0445C36.04 84.073 39.541 83.9087 42.6704 82.5811C45.7997 81.2536 48.3509 78.8503 49.8628 75.8058C51.3748 72.7613 51.7478 69.2764 50.9144 65.9808C50.081 62.6853 48.0962 59.7966 45.3187 57.8368C42.9195 56.1398 40.0526 55.2297 37.1139 55.232Z" fill="#093F68"/>
<path d="M37.0946 79.616C42.6935 79.616 47.2322 75.0773 47.2322 69.4784C47.2322 63.8796 42.6935 59.3408 37.0946 59.3408C31.4958 59.3408 26.957 63.8796 26.957 69.4784C26.957 75.0773 31.4958 79.616 37.0946 79.616Z" fill="white"/>
<path d="M37.0945 80.256C34.9629 80.256 32.8791 79.6239 31.1068 78.4397C29.3344 77.2554 27.953 75.5722 27.1373 73.6028C26.3216 71.6335 26.1081 69.4665 26.524 67.3758C26.9398 65.2852 27.9663 63.3648 29.4736 61.8575C30.9809 60.3502 32.9012 59.3238 34.9919 58.9079C37.0825 58.492 39.2496 58.7055 41.2189 59.5212C43.1883 60.3369 44.8715 61.7183 46.0557 63.4907C47.24 65.2631 47.8721 67.3468 47.8721 69.4784C47.8704 72.3363 46.7344 75.0766 44.7135 77.0975C42.6927 79.1183 39.9524 80.2543 37.0945 80.256ZM37.0945 59.9872C35.2158 59.9872 33.3793 60.5444 31.8173 61.5883C30.2552 62.6322 29.0379 64.1159 28.3193 65.8517C27.6006 67.5875 27.4129 69.4975 27.7799 71.3401C28.1469 73.1826 29.052 74.8749 30.381 76.2029C31.7099 77.5309 33.4028 78.435 35.2455 78.8007C37.0883 79.1664 38.9982 78.9774 40.7335 78.2576C42.4689 77.5378 43.9517 76.3195 44.9946 74.7567C46.0374 73.194 46.5934 71.3571 46.5921 69.4784C46.5887 66.9611 45.5868 64.548 43.8062 62.7686C42.0256 60.9892 39.6118 59.9889 37.0945 59.9872Z" fill="#093F68"/>
<path d="M37.0948 69.4784H47.2324C47.2284 71.6123 46.55 73.6902 45.294 75.4152C44.038 77.1403 42.2689 78.4241 40.2394 79.0832C38.2099 79.7423 36.024 79.7429 33.9942 79.085C31.9643 78.4271 30.1944 77.1443 28.9375 75.42C27.6805 73.6957 27.0008 71.6181 26.9956 69.4843C26.9904 67.3505 27.6599 65.2696 28.9085 63.5392C30.157 61.8088 31.9206 60.5173 33.9472 59.8495C35.9738 59.1817 38.1597 59.1716 40.1924 59.8208L37.0948 69.4784Z" fill="#1877F2"/>
<path d="M37.0944 80.256C35.6574 80.291 34.2279 80.0382 32.8901 79.5125C31.5522 78.9868 30.333 78.1987 29.3043 77.1948C28.2756 76.1908 27.4581 74.9912 26.8999 73.6666C26.3417 72.3419 26.0542 70.919 26.0542 69.4816C26.0542 68.0441 26.3417 66.6212 26.8999 65.2966C27.4581 63.9719 28.2756 62.7723 29.3043 61.7684C30.333 60.7644 31.5522 59.9764 32.8901 59.4507C34.2279 58.9249 35.6574 58.6722 37.0944 58.7072C38.2042 58.7047 39.3076 58.8753 40.3648 59.2128C40.4452 59.2382 40.5198 59.2793 40.5842 59.3337C40.6487 59.388 40.7018 59.4546 40.7404 59.5295C40.7791 59.6044 40.8026 59.6863 40.8095 59.7703C40.8164 59.8543 40.8067 59.9389 40.7808 60.0192L37.9712 68.8384H47.232C47.4017 68.8384 47.5645 68.9058 47.6846 69.0258C47.8046 69.1459 47.872 69.3086 47.872 69.4784C47.8686 72.3357 46.732 75.0751 44.7116 77.0955C42.6911 79.116 39.9518 80.2526 37.0944 80.256ZM37.0944 59.9872C35.2428 59.9863 33.4313 60.5267 31.8827 61.5419C30.3342 62.5571 29.1162 64.0028 28.3785 65.7012C27.6409 67.3996 27.4158 69.2765 27.7309 71.1012C28.0461 72.9258 28.8877 74.6185 30.1522 75.9711C31.4168 77.3237 33.0492 78.2771 34.8485 78.7141C36.6478 79.1511 38.5357 79.0526 40.2798 78.4307C42.0239 77.8088 43.5481 76.6907 44.6651 75.2138C45.782 73.737 46.4429 71.9659 46.5664 70.1184H37.0944C36.9915 70.1232 36.8889 70.103 36.7954 70.0596C36.7019 70.0163 36.6203 69.951 36.5574 69.8693C36.4946 69.7876 36.4524 69.6919 36.4345 69.5905C36.4166 69.489 36.4234 69.3847 36.4544 69.2864L39.3344 60.2624C38.6016 60.0805 37.8495 59.9881 37.0944 59.9872Z" fill="#093F68"/>
</svg>
