<svg width="208" height="156" viewBox="0 0 208 156" fill="none" xmlns="http://www.w3.org/2000/svg">
<path d="M177.502 30.8152H30.4927C26.6329 30.8152 23.5039 33.9442 23.5039 37.804V118.196C23.5039 122.056 26.6329 125.185 30.4927 125.185H177.502C181.362 125.185 184.491 122.056 184.491 118.196V37.804C184.491 33.9442 181.362 30.8152 177.502 30.8152Z" fill="#DFE0E0"/>
<path d="M177.502 125.445H30.4981C28.5773 125.438 26.7369 124.672 25.3782 123.314C24.0194 121.957 23.2524 120.117 23.2441 118.196V37.804C23.2524 35.8831 24.0194 34.0433 25.3782 32.6855C26.7369 31.3278 28.5773 30.562 30.4981 30.5552H177.502C179.423 30.562 181.263 31.3278 182.622 32.6855C183.981 34.0433 184.748 35.8831 184.756 37.804V118.196C184.748 120.117 183.981 121.957 182.622 123.314C181.263 124.672 179.423 125.438 177.502 125.445ZM30.4981 31.0752C28.7152 31.082 27.0071 31.793 25.7459 33.0532C24.4846 34.3135 23.7724 36.021 23.7641 37.804V118.196C23.7724 119.979 24.4846 121.686 25.7459 122.947C27.0071 124.207 28.7152 124.918 30.4981 124.925H177.502C179.285 124.918 180.993 124.207 182.254 122.947C183.516 121.686 184.228 119.979 184.236 118.196V37.804C184.228 36.021 183.516 34.3135 182.254 33.0532C180.993 31.793 179.285 31.082 177.502 31.0752H30.4981Z" fill="#231F20"/>
<path d="M39.3486 50.128H92.191V113.937H39.3486V50.128Z" fill="white"/>
<path d="M92.1858 50.128V113.937H39.3486V50.128H92.1858ZM92.1858 49.608H39.3486C39.2107 49.608 39.0784 49.6628 38.9809 49.7603C38.8834 49.8579 38.8286 49.9901 38.8286 50.128V113.937C38.8286 114.075 38.8834 114.207 38.9809 114.305C39.0784 114.402 39.2107 114.457 39.3486 114.457H92.1858C92.3237 114.457 92.456 114.402 92.5535 114.305C92.651 114.207 92.7058 114.075 92.7058 113.937V50.128C92.7058 49.9901 92.651 49.8579 92.5535 49.7603C92.456 49.6628 92.3237 49.608 92.1858 49.608Z" fill="#231F20"/>
<path d="M48.5058 78.0832C47.029 80.4544 46.6546 83.3092 46.457 86.1172H86.445C86.4841 85.9572 86.5033 85.7931 86.5022 85.6284C86.5022 82.732 81.8898 81.9104 81.2502 79.2324C80.8706 77.6724 81.9002 76.1124 82.1186 74.4848C82.4774 71.7652 80.5586 69.3576 79.321 66.9032C77.8234 63.882 78.5878 60.0548 76.6482 57.408C74.0794 53.898 69.9194 53.1804 65.7646 53.1804C63.4403 53.151 61.1361 53.6153 59.0046 54.5428C57.0182 55.3904 56.1238 57.3352 55.6506 59.4308C54.855 59.0824 53.9242 59.4308 53.2066 59.9508C50.0138 62.1244 49.1454 66.3988 49.7746 70.0024C50.0762 71.7288 50.7106 73.5124 50.1906 75.2024C49.8682 76.258 49.0986 77.1264 48.5058 78.0832Z" fill="#141622"/>
<path d="M86.4447 86.3876H46.4567C46.3918 86.3858 46.3295 86.362 46.2799 86.32C46.2325 86.2634 46.2083 86.1909 46.2123 86.1172C46.3995 83.4912 46.7323 80.4752 48.2923 77.9532C48.4691 77.6776 48.6563 77.402 48.8435 77.1316C49.3185 76.5249 49.6957 75.8476 49.9615 75.1244C50.3515 73.8816 50.0603 72.5244 49.7743 71.2192C49.6911 70.8344 49.6079 70.4496 49.5403 70.0648C48.9735 66.8096 49.5403 62.1504 53.0867 59.7428C53.4216 59.4763 53.8076 59.2816 54.2209 59.1706C54.6342 59.0597 55.0659 59.035 55.4891 59.098C56.1027 56.6072 57.2311 55.0368 58.9263 54.3088C61.0891 53.3739 63.4238 52.9027 65.7799 52.9256C69.4719 52.9256 74.0635 53.4456 76.8819 57.2624C77.9843 58.7652 78.2443 60.6476 78.4991 62.4624C78.6231 63.9564 78.9865 65.4207 79.5755 66.7992C79.8563 67.3608 80.1839 67.938 80.4959 68.4944C81.5723 70.3924 82.6851 72.358 82.3991 74.5316C82.2967 75.153 82.1383 75.7639 81.9259 76.3568C81.6035 77.3344 81.3019 78.2652 81.5255 79.1856C81.8011 80.34 82.8879 81.1304 84.0371 81.9676C85.3839 82.9452 86.7775 83.9644 86.7827 85.644C86.7866 85.8314 86.7656 86.0185 86.7203 86.2004C86.7019 86.2579 86.6647 86.3076 86.6148 86.3415C86.5648 86.3754 86.505 86.3917 86.4447 86.3876ZM46.7479 85.8676H86.2211C86.2262 85.7949 86.2262 85.7219 86.2211 85.6492C86.2211 84.2348 84.9939 83.3456 83.6939 82.3992C82.5187 81.5412 81.3019 80.6572 80.9795 79.3104C80.7195 78.2392 81.0627 77.1992 81.3903 76.1904C81.5902 75.6289 81.7415 75.0513 81.8427 74.464C82.1079 72.4672 81.0367 70.5796 80.0071 68.744C79.6847 68.1824 79.3571 67.6 79.0711 67.0228C78.454 65.5926 78.0729 64.0718 77.9427 62.5196C77.6827 60.6892 77.4227 58.9576 76.4243 57.564C73.7463 53.924 69.3159 53.4508 65.7539 53.4508C63.4712 53.4249 61.2086 53.8802 59.1135 54.7872C57.5015 55.4788 56.4823 56.9764 55.9155 59.4672C55.9068 59.5056 55.8895 59.5416 55.8651 59.5726C55.8406 59.6035 55.8096 59.6286 55.7742 59.6461C55.7389 59.6635 55.7001 59.6728 55.6606 59.6734C55.6212 59.6739 55.5822 59.6657 55.5463 59.6492C54.7767 59.3112 53.8459 59.8156 53.3623 60.1432C50.0447 62.4052 49.5039 66.8304 50.0447 69.9296C50.1123 70.3092 50.1903 70.6888 50.2735 71.0684C50.5699 72.4464 50.8767 73.866 50.4503 75.2284C50.1661 76.0044 49.7645 76.7322 49.2595 77.3864C49.0775 77.6516 48.8903 77.9064 48.7395 78.1872C47.2835 80.5532 46.9299 83.356 46.7479 85.852V85.8676Z" fill="#231F20"/>
<path d="M92.1858 95.5032V113.937H39.3486V95.5136C44.6838 90.4488 52.3486 88.712 58.8902 88.14C61.4174 87.9164 63.773 87.8644 65.7698 87.8644H66.2378C68.0994 87.8644 70.2522 87.9268 72.535 88.1296C72.573 88.1247 72.6115 88.1247 72.6494 88.1296C79.2014 88.712 86.8402 90.4488 92.1858 95.5032Z" fill="#5890FF"/>
<path d="M72.7999 91.6708L67.8235 108.893L66.3623 113.922H65.1767L63.7155 108.872L58.7495 91.7124C58.7518 91.6986 58.7518 91.6846 58.7495 91.6708C62.1035 90.6724 69.4355 90.6724 72.7999 91.6708Z" fill="#231F20"/>
<path d="M58.7598 91.676C58.7598 91.676 60.5122 95.498 65.6342 95.498C67.0565 95.5312 68.4633 95.1969 69.7186 94.5274C70.9739 93.8578 72.0351 92.8757 72.7998 91.676L72.1134 76.6584H59.415L58.7598 91.676Z" fill="#ECBDBB"/>
<path d="M65.6085 95.7684C60.3773 95.7684 58.5053 91.8268 58.4897 91.7904C58.48 91.7494 58.48 91.7066 58.4897 91.6656L59.1761 76.6428C59.18 76.5747 59.2096 76.5106 59.2587 76.4634C59.3079 76.4161 59.3731 76.3892 59.4413 76.388H72.1241C72.1932 76.3879 72.2597 76.4142 72.31 76.4616C72.3603 76.509 72.3905 76.5738 72.3945 76.6428L73.0757 91.6656C73.0779 91.7143 73.0672 91.7628 73.0445 91.806C72.248 93.0478 71.1459 94.0643 69.8439 94.7581C68.5419 95.4519 67.0835 95.7998 65.6085 95.7684ZM59.0045 91.6084C59.2437 92.092 61.0065 95.2224 65.6085 95.2224C66.9771 95.2533 68.331 94.9354 69.5427 94.2986C70.7545 93.6618 71.7842 92.7271 72.5349 91.5824L71.8693 76.8976H59.6753L59.0045 91.6084Z" fill="#231F20"/>
<path d="M59.4153 83.0856C60.3977 84.5082 61.7182 85.6643 63.2581 86.45C65.7749 87.8436 69.5397 89.4088 72.5921 88.9408L72.0721 82.5916C69.8283 82.8727 67.5592 82.8867 65.3121 82.6332C63.3413 82.4616 61.3081 82.2744 59.4985 81.51C59.2281 81.3696 59.0253 82.472 59.4153 83.0856Z" fill="#231F20"/>
<path d="M71.4271 89.284C68.3487 89.284 64.9895 87.724 63.1071 86.684C61.5235 85.8829 60.1691 84.6931 59.1707 83.226C59.0115 82.9482 58.9277 82.6336 58.9277 82.3134C58.9277 81.9932 59.0115 81.6786 59.1707 81.4008C59.2242 81.33 59.3002 81.2795 59.3862 81.2578C59.4723 81.2361 59.5632 81.2443 59.6439 81.2812C61.4431 82.0352 63.5335 82.2224 65.3639 82.3836C67.5833 82.634 69.8246 82.6201 72.0407 82.342C72.1124 82.3325 72.1851 82.3511 72.2435 82.394C72.2964 82.4407 72.3299 82.5057 72.3371 82.576L72.8571 88.9252C72.8619 88.9907 72.8423 89.0557 72.8019 89.1076C72.7616 89.1595 72.7034 89.1946 72.6387 89.206C72.2372 89.2612 71.8323 89.2873 71.4271 89.284ZM59.5295 81.7856C59.4679 81.9759 59.4454 82.1767 59.4633 82.376C59.4811 82.5752 59.539 82.7688 59.6335 82.9452C60.5879 84.3351 61.8774 85.4618 63.3827 86.2212C65.3743 87.3236 69.1443 89.0864 72.3163 88.712L71.8535 82.8828C69.685 83.1265 67.496 83.1265 65.3275 82.8828C63.4815 82.732 61.3859 82.55 59.5295 81.7856Z" fill="#231F20"/>
<path d="M65.7697 99.4656L63.3569 97.604L65.7697 95.7372L68.1877 97.604L65.7697 99.4656Z" fill="white"/>
<path d="M67.8238 108.909L66.3626 113.937H65.177L63.7158 108.888L64.9118 98.8052V98.8L64.9586 98.4516L64.9846 98.2384H66.5602L66.5862 98.462L66.6278 98.8V98.8052L67.8238 108.909Z" fill="white"/>
<path d="M47.9025 114.202C47.837 114.202 47.7738 114.178 47.7242 114.135C47.6747 114.092 47.642 114.033 47.6321 113.968L45.5781 98.488C45.5783 98.4241 45.6015 98.3625 45.6435 98.3144C45.6854 98.2663 45.7433 98.2349 45.8066 98.2261C45.8698 98.2172 45.9341 98.2315 45.9876 98.2662C46.0412 98.3009 46.0804 98.3538 46.0981 98.4152L48.1781 113.901C48.187 113.972 48.1673 114.043 48.1234 114.1C48.0796 114.156 48.0151 114.193 47.9441 114.202H47.9025Z" fill="#231F20"/>
<path d="M83.6419 114.202H83.6055C83.5354 114.192 83.4723 114.155 83.4295 114.098C83.3867 114.042 83.3677 113.971 83.3767 113.901L85.4307 98.4152C85.4531 98.3591 85.4938 98.3121 85.5461 98.2818C85.5984 98.2514 85.6593 98.2395 85.7192 98.2479C85.7791 98.2563 85.8344 98.2845 85.8763 98.328C85.9183 98.3715 85.9445 98.4278 85.9507 98.488L83.8707 113.968C83.8633 114.027 83.837 114.082 83.7957 114.124C83.7544 114.166 83.7003 114.194 83.6419 114.202Z" fill="#231F20"/>
<path d="M73.7778 73.2056C74.199 69.68 78.5566 68.8116 78.3434 72.9664C78.3292 74.3484 77.9255 75.6983 77.1786 76.8612C76.435 77.9012 75.2286 78.364 74.2562 77.7816" fill="#ECBDBB"/>
<path d="M75.1662 78.3016C74.7995 78.3008 74.44 78.2002 74.1262 78.0104C74.0659 77.9728 74.0229 77.913 74.0063 77.8439C73.9898 77.7748 74.0011 77.702 74.0378 77.6412C74.0744 77.5813 74.1333 77.5383 74.2015 77.5217C74.2698 77.5052 74.3418 77.5163 74.4018 77.5528C75.2026 78.0312 76.2582 77.6828 76.9758 76.7052C77.6899 75.5824 78.0737 74.2814 78.0834 72.9508C78.1614 71.4792 77.6362 70.5484 76.6742 70.4652C75.5718 70.3612 74.2666 71.4636 74.0742 73.2368C74.0521 73.2928 74.0119 73.3398 73.96 73.3704C73.9082 73.4009 73.8476 73.4133 73.7879 73.4055C73.7282 73.3978 73.6728 73.3703 73.6304 73.3275C73.5881 73.2847 73.5613 73.229 73.5542 73.1692C73.8142 71.0216 75.4158 69.8152 76.7574 69.9296C77.7506 70.018 78.7698 70.8604 78.6554 72.9768C78.6381 74.4121 78.2183 75.8138 77.4438 77.0224C77.193 77.4012 76.8556 77.7148 76.4596 77.9372C76.0635 78.1597 75.6201 78.2846 75.1662 78.3016Z" fill="#231F20"/>
<path d="M57.3456 73.2056C56.9244 69.68 52.5668 68.8116 52.78 72.9664C52.7943 74.3484 53.198 75.6983 53.9448 76.8612C54.6884 77.9012 55.8948 78.364 56.8672 77.7816" fill="#ECBDBB"/>
<path d="M55.9519 78.3016C55.5069 78.2765 55.0739 78.1478 54.6875 77.9257C54.3011 77.7036 53.9719 77.3943 53.7263 77.0224C52.951 75.8141 52.5312 74.4123 52.5147 72.9768C52.4003 70.8604 53.4195 70.018 54.4127 69.9296C55.7491 69.8152 57.3559 71.0216 57.6107 73.1692C57.6158 73.2045 57.6137 73.2404 57.6046 73.2748C57.5955 73.3093 57.5796 73.3415 57.5577 73.3697C57.5359 73.3978 57.5086 73.4213 57.4775 73.4387C57.4464 73.456 57.4121 73.467 57.3767 73.4708C57.3065 73.4782 57.2362 73.4578 57.1809 73.4141C57.1255 73.3704 57.0894 73.3067 57.0803 73.2368C56.8671 71.4636 55.5515 70.3612 54.4803 70.4652C53.5235 70.5484 52.9983 71.5052 53.0763 72.9508C53.086 74.2814 53.4698 75.5824 54.1839 76.7052C54.9015 77.6828 55.9571 78.0312 56.7579 77.5528C56.8179 77.5163 56.8899 77.5052 56.9582 77.5217C57.0264 77.5383 57.0853 77.5813 57.1219 77.6412C57.1586 77.702 57.1699 77.7748 57.1534 77.8439C57.1368 77.913 57.0938 77.9728 57.0335 78.0104C56.7075 78.2073 56.3326 78.3083 55.9519 78.3016Z" fill="#231F20"/>
<path d="M75.161 65.468V75.6808C75.161 76.8462 74.9313 78.0002 74.4852 79.0769C74.039 80.1535 73.3851 81.1317 72.5608 81.9555C71.7365 82.7794 70.7579 83.4327 69.681 83.8782C68.6041 84.3237 67.45 84.5527 66.2846 84.552H65.2446C64.0791 84.5527 62.925 84.3237 61.8481 83.8782C60.7712 83.4327 59.7926 82.7794 58.9683 81.9555C58.144 81.1317 57.4901 80.1535 57.0439 79.0769C56.5978 78.0002 56.3682 76.8462 56.3682 75.6808V65.9932L61.953 65.5304L62.5926 61.1L63.9914 66.1128L67.959 65.5928C68.3646 63.8196 67.959 59.9924 67.8966 59.8208L70.7566 65.182L75.161 65.468Z" fill="#ECBDBB"/>
<path d="M66.2845 84.8224H65.2445C62.8203 84.8197 60.4962 83.8558 58.7816 82.1422C57.067 80.4285 56.1018 78.1049 56.0977 75.6808V65.9932C56.0986 65.9267 56.1241 65.8628 56.1692 65.8139C56.2143 65.765 56.2758 65.7344 56.3421 65.728L61.7189 65.2808L62.3273 61.0584C62.3375 60.9979 62.3676 60.9426 62.4128 60.9012C62.458 60.8597 62.5157 60.8345 62.5769 60.8296C62.6388 60.8241 62.7007 60.841 62.7513 60.8773C62.8019 60.9136 62.8378 60.9667 62.8525 61.0272L64.1889 65.8164L67.7353 65.3484C68.0577 63.5804 67.6729 60.06 67.6365 59.8728C67.6123 59.8039 67.6166 59.7281 67.6483 59.6623C67.68 59.5965 67.7365 59.5459 67.8055 59.5218C67.8744 59.4977 67.9501 59.5019 68.016 59.5336C68.0818 59.5653 68.1323 59.6219 68.1565 59.6908L70.9437 64.922L75.1921 65.2028C75.2597 65.2068 75.3232 65.2365 75.3696 65.2858C75.416 65.3351 75.4418 65.4003 75.4417 65.468V75.6808C75.4389 78.1072 74.4727 80.4331 72.7556 82.1474C71.0384 83.8616 68.7108 84.8238 66.2845 84.8224ZM56.6385 66.2428V75.6808C56.6426 77.9629 57.5513 80.1503 59.1655 81.7635C60.7797 83.3766 62.9676 84.2841 65.2497 84.2868H66.2897C68.5686 84.2799 70.7519 83.3705 72.3619 81.7576C73.9719 80.1447 74.8773 77.9597 74.8801 75.6808V65.7228L70.7201 65.4472C70.6752 65.4427 70.632 65.4276 70.594 65.4032C70.5561 65.3788 70.5244 65.3458 70.5017 65.3068L68.2865 61.1468C68.4453 62.6455 68.4173 64.1582 68.2033 65.65C68.1913 65.7032 68.1635 65.7515 68.1236 65.7886C68.0837 65.8257 68.0335 65.8499 67.9797 65.858L64.0121 66.378C63.9486 66.3855 63.8846 66.3703 63.8313 66.3351C63.778 66.2999 63.7388 66.2469 63.7209 66.1856L62.6809 62.3948L62.2233 65.5668C62.215 65.6272 62.1862 65.683 62.1417 65.7247C62.0972 65.7663 62.0397 65.7914 61.9789 65.7956L56.6385 66.2428Z" fill="#231F20"/>
<path d="M73.7778 103.875H82.4722V106.189H73.7778V103.875Z" fill="white"/>
<path d="M65.9101 76.778C65.4826 76.7782 65.0555 76.7539 64.6309 76.7052C64.5383 76.6923 64.4499 76.6584 64.3724 76.6061C64.2949 76.5539 64.2303 76.4846 64.1837 76.4036C63.5181 75.296 65.2549 70.6316 65.6137 69.7112C65.6385 69.6422 65.6897 69.5859 65.756 69.5547C65.8223 69.5235 65.8983 69.52 65.9673 69.5448C66.0362 69.5696 66.0925 69.6208 66.1237 69.6871C66.1549 69.7534 66.1585 69.8294 66.1337 69.8984C65.3485 71.9472 64.2565 75.4468 64.6621 76.1384C64.6621 76.18 64.7037 76.18 64.7193 76.18C65.5522 76.2731 66.3928 76.2731 67.2257 76.18C67.2967 76.1711 67.3683 76.1908 67.4248 76.2347C67.4814 76.2785 67.5182 76.343 67.5273 76.414C67.5348 76.4847 67.5146 76.5556 67.471 76.6118C67.4273 76.6681 67.3637 76.7052 67.2933 76.7156C66.8338 76.7631 66.372 76.7839 65.9101 76.778Z" fill="#231F20"/>
<path d="M184.496 41.08H23.5041C23.4352 41.08 23.3691 41.0526 23.3203 41.0038C23.2715 40.9551 23.2441 40.889 23.2441 40.82C23.2455 40.7515 23.2733 40.6861 23.3218 40.6376C23.3702 40.5891 23.4356 40.5613 23.5041 40.56H184.496C184.565 40.5613 184.63 40.5891 184.679 40.6376C184.727 40.6861 184.755 40.7515 184.756 40.82C184.756 40.889 184.729 40.9551 184.68 41.0038C184.631 41.0526 184.565 41.08 184.496 41.08Z" fill="#231F20"/>
<path d="M169.297 55.3748H125.606C124.994 55.3748 124.499 55.8695 124.499 56.4798C124.499 57.0901 124.994 57.5848 125.606 57.5848H169.297C169.908 57.5848 170.404 57.0901 170.404 56.4798C170.404 55.8695 169.908 55.3748 169.297 55.3748Z" fill="white"/>
<path d="M151.325 73.008H125.606C124.994 73.008 124.499 73.5027 124.499 74.113C124.499 74.7233 124.994 75.218 125.606 75.218H151.325C151.937 75.218 152.433 74.7233 152.433 74.113C152.433 73.5027 151.937 73.008 151.325 73.008Z" fill="white"/>
<path d="M163.904 89.8144H125.606C124.994 89.8144 124.499 90.3091 124.499 90.9194C124.499 91.5297 124.994 92.0244 125.606 92.0244H163.904C164.516 92.0244 165.012 91.5297 165.012 90.9194C165.012 90.3091 164.516 89.8144 163.904 89.8144Z" fill="white"/>
<path d="M158.839 106.621H125.606C124.994 106.621 124.499 107.116 124.499 107.726C124.499 108.336 124.994 108.831 125.606 108.831H158.839C159.451 108.831 159.947 108.336 159.947 107.726C159.947 107.116 159.451 106.621 158.839 106.621Z" fill="white"/>
<path d="M112.954 61.0168V59.5816C112.954 58.7541 112.626 57.9605 112.041 57.3754C111.455 56.7903 110.662 56.4616 109.834 56.4616C109.007 56.4616 108.213 56.7903 107.628 57.3754C107.043 57.9605 106.714 58.7541 106.714 59.5816V61.0168H112.954Z" fill="white"/>
<path d="M112.954 61.2768H106.751C106.682 61.2768 106.616 61.2494 106.567 61.2006C106.518 61.1519 106.491 61.0858 106.491 61.0168V59.5816C106.473 59.129 106.547 58.6775 106.708 58.2541C106.869 57.8307 107.113 57.4441 107.427 57.1176C107.741 56.7911 108.118 56.5313 108.535 56.3539C108.951 56.1764 109.4 56.085 109.853 56.085C110.306 56.085 110.754 56.1764 111.171 56.3539C111.587 56.5313 111.964 56.7911 112.278 57.1176C112.592 57.4441 112.837 57.8307 112.998 58.2541C113.159 58.6775 113.232 59.129 113.214 59.5816V61.0168C113.214 61.0858 113.187 61.1519 113.138 61.2006C113.09 61.2494 113.023 61.2768 112.954 61.2768ZM107.011 60.7568H112.694V59.5816C112.711 59.1982 112.65 58.8154 112.514 58.4563C112.379 58.0972 112.172 57.7693 111.907 57.4922C111.641 57.2151 111.322 56.9946 110.969 56.8439C110.616 56.6933 110.236 56.6156 109.853 56.6156C109.469 56.6156 109.089 56.6933 108.736 56.8439C108.383 56.9946 108.064 57.2151 107.799 57.4922C107.533 57.7693 107.327 58.0972 107.191 58.4563C107.056 58.8154 106.994 59.1982 107.011 59.5816V60.7568Z" fill="#D1D3D4"/>
<path d="M109.85 56.4772C111.071 56.4772 112.06 55.4877 112.06 54.2672C112.06 53.0466 111.071 52.0572 109.85 52.0572C108.63 52.0572 107.64 53.0466 107.64 54.2672C107.64 55.4877 108.63 56.4772 109.85 56.4772Z" fill="white"/>
<path d="M109.85 56.7372C109.36 56.7372 108.882 56.5919 108.475 56.3197C108.067 56.0475 107.75 55.6606 107.563 55.208C107.376 54.7554 107.327 54.2575 107.423 53.7772C107.519 53.2969 107.755 52.8559 108.102 52.5099C108.448 52.164 108.89 51.9287 109.371 51.8337C109.851 51.7388 110.349 51.7886 110.801 51.9767C111.253 52.1649 111.639 52.4829 111.911 52.8906C112.182 53.2984 112.326 53.7774 112.325 54.2672C112.325 54.592 112.261 54.9136 112.137 55.2136C112.012 55.5137 111.83 55.7862 111.6 56.0156C111.37 56.245 111.097 56.4269 110.797 56.5507C110.497 56.6745 110.175 56.7379 109.85 56.7372ZM109.85 52.312C109.463 52.312 109.085 52.4267 108.764 52.6415C108.442 52.8564 108.192 53.1617 108.044 53.519C107.896 53.8763 107.857 54.2694 107.933 54.6486C108.008 55.0279 108.194 55.3763 108.468 55.6497C108.741 55.9232 109.089 56.1094 109.469 56.1848C109.848 56.2603 110.241 56.2216 110.598 56.0736C110.956 55.9256 111.261 55.675 111.476 55.3535C111.691 55.0319 111.805 54.6539 111.805 54.2672C111.805 54.0104 111.755 53.7562 111.657 53.519C111.558 53.2818 111.414 53.0662 111.233 52.8847C111.051 52.7031 110.836 52.5591 110.598 52.4608C110.361 52.3626 110.107 52.312 109.85 52.312Z" fill="#D1D3D4"/>
<path d="M113.391 77.7244H105.55V72.098L109.471 69.8412L113.391 72.098V77.7244Z" fill="white"/>
<path d="M113.391 78H105.56C105.491 78 105.425 77.9726 105.376 77.9238C105.327 77.8751 105.3 77.8089 105.3 77.74V72.098C105.3 72.0526 105.312 72.0081 105.335 71.9689C105.358 71.9297 105.391 71.8971 105.43 71.8744L109.351 69.6176C109.39 69.5948 109.435 69.5828 109.481 69.5828C109.526 69.5828 109.571 69.5948 109.611 69.6176L113.531 71.8744C113.571 71.8962 113.605 71.9286 113.628 71.968C113.651 72.0075 113.662 72.0524 113.661 72.098V77.7192C113.664 77.7559 113.66 77.7929 113.647 77.8276C113.635 77.8623 113.615 77.894 113.59 77.9206C113.564 77.9471 113.533 77.9679 113.499 77.9816C113.465 77.9953 113.428 78.0016 113.391 78ZM105.809 77.48H113.131V72.28L109.491 70.174L105.851 72.28L105.809 77.48Z" fill="#D1D3D4"/>
<path d="M108.108 73.7828H110.838V77.7244H108.108V73.7828Z" fill="white"/>
<path d="M110.838 78H108.108C108.039 78 107.973 77.9726 107.924 77.9238C107.876 77.8751 107.848 77.8089 107.848 77.74V73.8036C107.848 73.7346 107.876 73.6685 107.924 73.6197C107.973 73.571 108.039 73.5436 108.108 73.5436H110.838C110.907 73.5436 110.973 73.571 111.022 73.6197C111.071 73.6685 111.098 73.7346 111.098 73.8036V77.74C111.098 77.8089 111.071 77.8751 111.022 77.9238C110.973 77.9726 110.907 78 110.838 78ZM108.368 77.48H110.578V74.0636H108.368V77.48Z" fill="#D1D3D4"/>
<path d="M104.338 72.7584L109.47 69.8412L114.566 72.7584" fill="white"/>
<path d="M114.567 73.0184C114.523 73.0186 114.48 73.0079 114.442 72.9872L109.471 70.1428L104.468 72.9872C104.408 73.0209 104.337 73.0294 104.271 73.0109C104.205 72.9924 104.148 72.9483 104.115 72.8884C104.097 72.8592 104.085 72.8267 104.081 72.7929C104.076 72.7592 104.078 72.7248 104.087 72.6918C104.095 72.6588 104.111 72.6279 104.131 72.601C104.152 72.574 104.178 72.5515 104.208 72.5348L109.346 69.6176C109.384 69.5947 109.428 69.5826 109.473 69.5826C109.518 69.5826 109.562 69.5947 109.601 69.6176L114.697 72.5348C114.745 72.5638 114.783 72.6079 114.805 72.6604C114.826 72.713 114.83 72.7711 114.815 72.8259C114.8 72.8807 114.768 72.9292 114.723 72.9639C114.678 72.9987 114.623 73.0178 114.567 73.0184Z" fill="#D1D3D4"/>
<path d="M113.417 89.284H105.612C105.201 89.284 104.868 89.6169 104.868 90.0276V93.678C104.868 94.0887 105.201 94.4216 105.612 94.4216H113.417C113.828 94.4216 114.161 94.0887 114.161 93.678V90.0276C114.161 89.6169 113.828 89.284 113.417 89.284Z" fill="white"/>
<path d="M113.422 94.6816H105.622C105.49 94.6816 105.36 94.6557 105.238 94.6052C105.116 94.5548 105.006 94.4809 104.913 94.3877C104.819 94.2945 104.745 94.1838 104.695 94.0621C104.645 93.9403 104.619 93.8098 104.619 93.678V90.038C104.62 89.7723 104.726 89.5178 104.914 89.3299C105.102 89.142 105.356 89.0358 105.622 89.0344H113.422C113.688 89.0358 113.942 89.142 114.13 89.3299C114.318 89.5178 114.424 89.7723 114.426 90.038V93.678C114.426 93.8098 114.4 93.9403 114.349 94.0621C114.299 94.1838 114.225 94.2945 114.132 94.3877C114.039 94.4809 113.928 94.5548 113.806 94.6052C113.685 94.6557 113.554 94.6816 113.422 94.6816ZM105.622 89.544C105.494 89.544 105.371 89.595 105.28 89.6857C105.19 89.7764 105.139 89.8994 105.139 90.0276V93.6676C105.139 93.7959 105.19 93.9189 105.28 94.0096C105.371 94.1003 105.494 94.1512 105.622 94.1512H113.422C113.551 94.1512 113.674 94.1003 113.764 94.0096C113.855 93.9189 113.906 93.7959 113.906 93.6676V90.0276C113.906 89.8994 113.855 89.7764 113.764 89.6857C113.674 89.595 113.551 89.544 113.422 89.544H105.622Z" fill="#D1D3D4"/>
<path d="M108.561 87.88H110.667C110.904 87.88 111.131 87.9742 111.299 88.142C111.467 88.3097 111.561 88.5372 111.561 88.7744V89.2944H107.671V88.7744C107.671 88.5381 107.765 88.3114 107.932 88.1438C108.098 87.9762 108.324 87.8814 108.561 87.88Z" fill="white"/>
<path d="M111.555 89.544H107.666C107.597 89.544 107.531 89.5166 107.482 89.4678C107.433 89.4191 107.406 89.3529 107.406 89.284V88.764C107.405 88.6122 107.434 88.4618 107.492 88.3214C107.55 88.181 107.635 88.0535 107.742 87.9462C107.85 87.8388 107.977 87.7538 108.118 87.696C108.258 87.6383 108.408 87.6089 108.56 87.6096H110.64C110.792 87.6096 110.941 87.6395 111.081 87.6975C111.221 87.7556 111.348 87.8407 111.455 87.948C111.561 88.0553 111.646 88.1826 111.703 88.3226C111.761 88.4626 111.79 88.6126 111.789 88.764V89.284C111.79 89.3486 111.766 89.4111 111.723 89.4592C111.679 89.5073 111.62 89.5375 111.555 89.544ZM107.915 89.024H111.28V88.7692C111.28 88.6018 111.214 88.4412 111.096 88.3224C110.978 88.2036 110.818 88.1361 110.651 88.1348H108.571C108.402 88.1348 108.241 88.2016 108.122 88.3206C108.003 88.4396 107.936 88.6009 107.936 88.7692L107.915 89.024Z" fill="#D1D3D4"/>
<path d="M106.938 104.161H113.625V111.946H106.938V104.161Z" fill="white"/>
<path d="M113.625 112.211H106.938C106.869 112.211 106.803 112.183 106.754 112.135C106.706 112.086 106.678 112.02 106.678 111.951V104.151C106.678 104.082 106.706 104.016 106.754 103.967C106.803 103.918 106.869 103.891 106.938 103.891H113.625C113.694 103.891 113.761 103.918 113.809 103.967C113.858 104.016 113.885 104.082 113.885 104.151V111.951C113.885 112.02 113.858 112.086 113.809 112.135C113.761 112.183 113.694 112.211 113.625 112.211ZM107.198 111.691H113.36V104.411H107.198V111.691Z" fill="#D1D3D4"/>
<path d="M105.284 103.022H111.971V110.807H105.284V103.022Z" fill="white"/>
<path d="M111.972 111.067H105.284C105.215 111.067 105.149 111.039 105.101 110.991C105.052 110.942 105.024 110.876 105.024 110.807V103.007C105.024 102.938 105.052 102.872 105.101 102.823C105.149 102.774 105.215 102.747 105.284 102.747H111.972C112.041 102.747 112.107 102.774 112.155 102.823C112.204 102.872 112.232 102.938 112.232 103.007V110.807C112.232 110.876 112.204 110.942 112.155 110.991C112.107 111.039 112.041 111.067 111.972 111.067ZM105.544 110.547H111.712V103.267H105.56L105.544 110.547Z" fill="#D1D3D4"/>
<path d="M110.282 105.269H106.694C106.625 105.269 106.559 105.241 106.51 105.193C106.461 105.144 106.434 105.078 106.434 105.009C106.434 104.94 106.461 104.874 106.51 104.825C106.559 104.776 106.625 104.749 106.694 104.749H110.282C110.351 104.749 110.417 104.776 110.465 104.825C110.514 104.874 110.542 104.94 110.542 105.009C110.54 105.077 110.512 105.143 110.464 105.191C110.416 105.24 110.35 105.268 110.282 105.269Z" fill="#D1D3D4"/>
<path d="M110.282 106.6H106.694C106.625 106.6 106.559 106.573 106.51 106.524C106.461 106.475 106.434 106.409 106.434 106.34C106.434 106.271 106.461 106.205 106.51 106.156C106.559 106.107 106.625 106.08 106.694 106.08H110.282C110.351 106.08 110.417 106.107 110.465 106.156C110.514 106.205 110.542 106.271 110.542 106.34C110.542 106.409 110.514 106.475 110.465 106.524C110.417 106.573 110.351 106.6 110.282 106.6Z" fill="#D1D3D4"/>
<path d="M110.282 107.879H106.694C106.625 107.879 106.559 107.852 106.51 107.803C106.461 107.754 106.434 107.688 106.434 107.619C106.434 107.55 106.461 107.484 106.51 107.435C106.559 107.387 106.625 107.359 106.694 107.359H110.282C110.35 107.361 110.416 107.388 110.464 107.437C110.512 107.485 110.54 107.551 110.542 107.619C110.542 107.688 110.514 107.754 110.465 107.803C110.417 107.852 110.351 107.879 110.282 107.879Z" fill="#D1D3D4"/>
<path d="M110.282 109.2H106.694C106.625 109.2 106.559 109.173 106.51 109.124C106.461 109.075 106.434 109.009 106.434 108.94C106.434 108.871 106.461 108.805 106.51 108.756C106.559 108.707 106.625 108.68 106.694 108.68H110.282C110.351 108.68 110.417 108.707 110.465 108.756C110.514 108.805 110.542 108.871 110.542 108.94C110.54 109.009 110.512 109.074 110.464 109.122C110.416 109.171 110.35 109.199 110.282 109.2Z" fill="#D1D3D4"/>
<path fill-rule="evenodd" clip-rule="evenodd" d="M47.8583 9.0447C45.9739 7.22468 43.4501 6.2176 40.8303 6.24037C38.2106 6.26313 35.7046 7.31392 33.8522 9.16641C31.9997 11.0189 30.9489 13.5249 30.9261 16.1446C30.9033 18.7643 31.9104 21.2882 33.7304 23.1726L86.6151 76.0572L33.7304 128.942C32.7762 129.864 32.015 130.966 31.4913 132.185C30.9677 133.404 30.6921 134.715 30.6806 136.042C30.669 137.368 30.9218 138.684 31.4242 139.912C31.9266 141.14 32.6685 142.255 33.6066 143.194C34.5447 144.132 35.6603 144.874 36.8882 145.376C38.1161 145.878 39.4318 146.131 40.7584 146.12C42.0851 146.108 43.3962 145.832 44.6151 145.309C45.8341 144.785 46.9366 144.024 47.8583 143.07L100.743 90.1851L153.628 143.07C155.512 144.89 158.036 145.897 160.656 145.874C163.275 145.851 165.781 144.801 167.634 142.948C169.486 141.096 170.537 138.59 170.56 135.97C170.583 133.35 169.576 130.826 167.755 128.942L114.871 76.0572L167.755 23.1726C169.576 21.2882 170.583 18.7643 170.56 16.1446C170.537 13.5249 169.486 11.0189 167.634 9.16641C165.781 7.31392 163.275 6.26313 160.656 6.24037C158.036 6.2176 155.512 7.22468 153.628 9.0447L100.743 61.9293L47.8583 9.0447Z" fill="#CF0000"/>
</svg>
