<svg width="142" height="153" viewBox="0 0 142 153" fill="none" xmlns="http://www.w3.org/2000/svg">
<path d="M117.866 152.295H4.59812C4.59812 152.295 -1.63888 99.18 1.29692 89.7741C4.79972 78.5979 30.6171 67.0941 42.6816 61.7706H42.7194C47.8917 59.49 51.489 58.167 51.489 58.167L82.8504 58.9104C86.5054 59.8372 90.0855 61.0376 93.5604 62.5014C104.226 66.9114 119.39 75.8511 122.351 91.5129C126.988 116.127 117.866 152.295 117.866 152.295Z" fill="#5890FF"/>
<path d="M73.5201 152.617C73.4349 152.617 73.3531 152.583 73.2929 152.523C73.2326 152.462 73.1988 152.381 73.1988 152.295V101.265C73.1972 101.184 73.2265 101.105 73.2807 101.045L102.727 68.077C102.754 68.0396 102.788 68.0083 102.828 67.9851C102.868 67.9619 102.912 67.9474 102.957 67.9424C103.003 67.9374 103.049 67.9421 103.093 67.9561C103.137 67.9702 103.177 67.9934 103.212 68.0241C103.246 68.0548 103.273 68.0923 103.292 68.1343C103.311 68.1763 103.321 68.2218 103.321 68.2678C103.321 68.3138 103.311 68.3593 103.292 68.4013C103.274 68.4434 103.246 68.481 103.212 68.5117L73.8477 101.385V152.314C73.8428 152.397 73.806 152.475 73.7449 152.532C73.6838 152.588 73.6032 152.618 73.5201 152.617Z" fill="#FFD2D2"/>
<path d="M59.1684 152.617C59.1257 152.617 59.0832 152.61 59.0435 152.594C59.0038 152.578 58.9676 152.555 58.9371 152.525C58.9066 152.495 58.8824 152.459 58.8659 152.42C58.8493 152.38 58.8408 152.338 58.8408 152.295V101.366L29.4765 68.4926C29.448 68.4612 29.4259 68.4244 29.4116 68.3844C29.3972 68.3445 29.3909 68.3021 29.393 68.2597C29.395 68.2173 29.4054 68.1757 29.4235 68.1373C29.4416 68.0989 29.4671 68.0644 29.4986 68.0359C29.53 68.0073 29.5668 67.9852 29.6067 67.9709C29.6467 67.9566 29.6891 67.9502 29.7315 67.9523C29.7739 67.9543 29.8155 67.9647 29.8539 67.9828C29.8923 68.001 29.9268 68.0265 29.9553 68.0579L59.4078 101.026C59.4595 101.088 59.4884 101.166 59.4897 101.246V152.276C59.4923 152.32 59.4859 152.364 59.4709 152.405C59.4559 152.446 59.4327 152.484 59.4026 152.516C59.3725 152.548 59.3362 152.573 59.2959 152.59C59.2556 152.608 59.2123 152.617 59.1684 152.617Z" fill="#FFD2D2"/>
<path d="M93.5793 62.4825L66.7098 89.7741L42.6816 61.7706H42.7194C47.8917 59.49 51.489 58.167 51.489 58.167L82.8504 58.9104C86.5113 59.8301 90.0978 61.0242 93.5793 62.4825Z" fill="#231F20"/>
<path d="M62.6338 70.1432L65.1349 73.961L62.6338 85.0238L66.7099 89.774L71.0002 85.1498L68.1274 73.961L71.0002 70.1432L66.7099 67.5476L62.6338 70.1432Z" fill="#5890FF"/>
<path d="M101.24 152.295C101.24 152.295 104.466 86.517 107.654 87.1218C118.301 89.1441 107.622 144.603 107.622 152.295H101.24Z" fill="#231F20"/>
<path d="M77.0167 3.53979L77.0986 3.60279C77.6278 3.96819 79.48 6.12279 79.9462 6.15429C85.6162 6.32439 90.2656 9.49959 91.1854 15.1696C91.5823 17.6266 91.5949 20.1718 92.395 22.5343C93.9826 27.2341 98.5753 30.97 98.443 35.9281C98.38 38.2654 97.2271 40.4641 97.1074 42.8014C96.9436 45.8632 98.4871 49.0699 101.24 50.4181H35.0524C33.8365 50.4937 32.6143 50.5 31.3984 50.5756C34.8067 49.051 36.0415 44.8426 36.2746 41.1256C36.5077 37.4086 36.1864 33.4333 37.9945 30.1636C39.6514 27.1774 42.8518 25.2685 44.4583 22.2571C46.0648 19.2457 45.8569 15.5476 46.9783 12.2968C50.1283 3.04209 64.1143 -1.06551 72.7075 1.44189C74.2458 1.90914 75.7002 2.61722 77.0167 3.53979Z" fill="#202432"/>
<path d="M31.3982 50.9031C31.3257 50.9037 31.2551 50.8797 31.1979 50.8351C31.1407 50.7905 31.1003 50.7279 31.0832 50.6574C31.0633 50.5829 31.0707 50.5038 31.1043 50.4344C31.1378 50.365 31.1952 50.31 31.2659 50.2794C34.9451 48.6351 35.783 43.8156 35.9531 41.094C35.9972 40.3317 36.0224 39.5505 36.0476 38.7756C36.1421 35.7705 36.2366 32.6583 37.7108 29.9934C38.6119 28.5291 39.7076 27.1939 40.9679 26.0243C42.2182 24.8706 43.2979 23.5448 44.1746 22.0869C45.0881 20.3733 45.3968 18.4707 45.7181 16.4547C45.91 15.0069 46.224 13.578 46.6568 12.1833C48.1373 7.82995 52.0496 4.25785 57.6755 2.15995C62.7659 0.269952 68.417 -0.139547 72.7955 1.13305C74.3708 1.61499 75.8594 2.3444 77.2055 3.29395L77.0228 3.55855L77.2433 3.31285L77.2937 3.35695C77.6701 3.66728 78.0238 4.00413 78.3521 4.36495C78.8428 4.91823 79.392 5.41673 79.9901 5.85175C86.1893 6.03445 90.6119 9.58765 91.5128 15.1317C91.6388 15.9507 91.7333 16.7823 91.8215 17.5887C91.9399 19.2373 92.2378 20.8682 92.7098 22.4523C93.4252 24.2919 94.3624 26.0373 95.5007 27.6498C97.1513 30.2139 98.8586 32.8662 98.7704 35.9595C98.6891 37.1774 98.4607 38.3811 98.09 39.5441C97.7657 40.611 97.5545 41.7091 97.46 42.8202C97.3025 45.9009 98.9279 48.906 101.416 50.1282C101.482 50.1605 101.535 50.2144 101.566 50.2809C101.597 50.3473 101.604 50.4224 101.587 50.4936C101.571 50.5652 101.531 50.6293 101.473 50.6751C101.416 50.721 101.345 50.7458 101.272 50.7456H35.0522C34.46 50.7834 33.8489 50.8023 33.2315 50.8212C32.6141 50.8401 32.0219 50.859 31.4171 50.9031H31.3982ZM66.842 0.931452C57.9338 0.931452 49.3406 6.31795 47.2679 12.3912C46.8512 13.754 46.5478 15.1489 46.3607 16.5618C46.0457 18.54 45.7307 20.5875 44.7479 22.3956C43.8429 23.9105 42.7248 25.2875 41.4278 26.4843C40.2125 27.6132 39.1531 28.8993 38.2778 30.3084C36.8855 32.8284 36.7847 35.865 36.6965 38.7945C36.6965 39.582 36.6461 40.3632 36.602 41.1381C36.4382 43.6959 35.7074 48.0177 32.7149 50.1912H33.2126C33.8426 50.1912 34.4222 50.1534 35.027 50.1156H100.075C98.9673 49.2618 98.0875 48.1484 97.5128 46.8738C96.9381 45.5992 96.6863 44.2026 96.7796 42.8076C96.8822 41.6419 97.1103 40.4907 97.46 39.3741C97.8057 38.2522 98.0172 37.0933 98.09 35.9216C98.1719 33.0299 96.5906 30.5793 94.94 27.9837C93.7731 26.3257 92.8126 24.5317 92.0798 22.6413C91.594 21.0118 91.2856 19.3347 91.16 17.6391C91.0718 16.839 90.9836 16.02 90.8576 15.2199C90.0134 10.0035 85.8176 6.65185 79.9334 6.48175C79.5491 6.48175 79.0136 5.95885 77.8733 4.79965C77.5688 4.4719 77.2471 4.16066 76.9094 3.86725L76.8212 3.80425C75.5319 2.89732 74.1073 2.19991 72.6002 1.73785C70.7282 1.2 68.7897 0.92853 66.842 0.931452Z" fill="#231F20"/>
<path d="M54.9034 31.9652C53.908 26.1566 44.2312 24.8273 44.7856 31.688C44.9746 34.0379 45.7558 36.4319 47.4316 38.1014C49.1074 39.7709 51.7849 40.5332 53.9269 39.5441" fill="#FFD2D2"/>
<path d="M51.8543 40.3065C50.1036 40.2804 48.4325 39.5704 47.1986 38.3283C45.2204 36.3564 44.6156 33.6411 44.4581 31.7133C44.1935 28.4436 46.1654 27.0198 48.0995 26.7741C50.9912 26.4087 54.6263 28.431 55.2248 31.9149C55.232 31.9567 55.2308 31.9995 55.2214 32.0408C55.212 32.0822 55.1945 32.1213 55.1699 32.1558C55.1453 32.1904 55.1141 32.2197 55.0781 32.2422C55.0421 32.2646 55.002 32.2797 54.9602 32.2866C54.9183 32.2947 54.8752 32.2942 54.8335 32.2851C54.7918 32.2761 54.7524 32.2587 54.7176 32.2339C54.6828 32.2092 54.6535 32.1776 54.6313 32.1412C54.6091 32.1048 54.5945 32.0642 54.5885 32.022C54.0467 28.872 50.8085 27.0954 48.1814 27.423C46.0646 27.6876 44.918 29.2752 45.107 31.6629C45.2519 33.4773 45.8189 36.0351 47.627 37.8684C49.328 39.5631 51.8543 40.1301 53.7632 39.2481C53.8397 39.2228 53.9229 39.2266 53.9969 39.2589C54.0708 39.2912 54.1302 39.3495 54.1637 39.4229C54.1973 39.4962 54.2026 39.5793 54.1787 39.6563C54.1547 39.7334 54.1033 39.7988 54.0341 39.8403C53.3487 40.1485 52.6057 40.3074 51.8543 40.3065Z" fill="#231F20"/>
<path d="M78.9819 32.1166C79.8513 26.2828 89.4966 24.7456 89.0934 31.6063C89.0477 33.9956 88.1546 36.2909 86.5734 38.0827C84.9354 39.7837 82.2768 40.6027 80.1096 39.6703" fill="#FFD2D2"/>
<path d="M82.0881 40.3885C81.3694 40.3922 80.6576 40.2485 79.9965 39.9664C79.913 39.9321 79.8465 39.8661 79.8116 39.7828C79.7768 39.6995 79.7764 39.6058 79.8107 39.5223C79.8449 39.4387 79.911 39.3722 79.9942 39.3373C80.0775 39.3025 80.1713 39.3021 80.2548 39.3364C82.1889 40.1743 84.6963 39.5506 86.3595 37.8244C88.1613 35.9344 88.6653 33.4144 88.7724 31.5244C88.911 29.1367 87.7266 27.5743 85.6224 27.3538C83.0205 27.0829 79.7886 28.9666 79.3224 32.0977C79.3267 32.147 79.3198 32.1967 79.3021 32.243C79.2845 32.2893 79.2565 32.331 79.2204 32.3649C79.1843 32.3988 79.141 32.4241 79.0937 32.4389C79.0465 32.4537 78.9965 32.4575 78.9475 32.4502C78.8985 32.4428 78.8518 32.4245 78.8109 32.3965C78.7701 32.3685 78.7361 32.3316 78.7115 32.2885C78.687 32.2455 78.6725 32.1975 78.6692 32.1481C78.6659 32.0986 78.6738 32.0491 78.6924 32.0032C79.2153 28.5067 82.8063 26.4088 85.7043 26.7112C87.6384 26.9128 89.6418 28.2925 89.4843 31.5685C89.3709 33.4963 88.8543 36.2242 86.8887 38.2402C86.2761 38.9052 85.5346 39.4385 84.7093 39.8079C83.884 40.1772 82.9922 40.3747 82.0881 40.3885Z" fill="#231F20"/>
<path d="M75.7878 59.3011C75.7878 59.3011 70.4328 67.6297 66.7095 67.5478C62.9862 67.4659 58.8408 59.8492 58.8408 59.8492L59.0739 55.7731L59.622 46.3231L60.1449 37.5031L75.3216 37.333L75.9075 44.5591L76.0839 46.9027L75.7878 59.3011Z" fill="#FFD2D2"/>
<path d="M66.7599 67.8754H66.7032C62.835 67.7872 58.7274 60.3154 58.551 60.0004C58.5259 59.9472 58.513 59.8891 58.5132 59.8303L59.8173 37.4401C59.822 37.3576 59.8578 37.2799 59.9174 37.2227C59.977 37.1654 60.056 37.1328 60.1386 37.1314L75.3153 36.9676C75.3978 36.9641 75.4784 36.9932 75.5397 37.0486C75.6009 37.104 75.638 37.1812 75.6429 37.2637L76.4115 46.8334L76.1154 59.3074C76.1142 59.3676 76.0968 59.4263 76.065 59.4775C75.8445 59.8177 70.6155 67.8754 66.7599 67.8754ZM59.1684 59.7736C59.622 60.5737 63.4209 67.1509 66.7284 67.2202H66.7788C70.0926 67.2202 74.9373 60.013 75.4791 59.194L75.7752 46.846L75.0318 37.6102L60.4599 37.774L59.1684 59.7736Z" fill="#231F20"/>
<path d="M76.0842 46.8901C74.8886 48.9572 73.1922 50.6904 71.1513 51.9301C67.9131 54.0469 63.0495 56.4283 59.0742 55.7794L59.6223 46.3294C62.528 46.723 65.4736 46.723 68.3793 46.3294C70.9371 46.0396 73.5705 45.6994 75.9078 44.5654L76.0842 46.8901Z" fill="#231F20"/>
<path d="M60.4791 56.1952C59.9917 56.1986 59.5048 56.1607 59.0238 56.0818C58.9476 56.0694 58.8788 56.0289 58.8309 55.9682C58.7831 55.9076 58.7598 55.8312 58.7655 55.7542L59.3136 46.3042C59.3141 46.2612 59.3246 46.2188 59.3443 46.1805C59.364 46.1423 59.3923 46.1091 59.427 46.0837C59.4609 46.0556 59.5002 46.035 59.5425 46.023C59.5848 46.0111 59.6292 46.0082 59.6727 46.0144C62.5488 46.4091 65.4654 46.4091 68.3415 46.0144C70.7166 45.7498 73.413 45.4537 75.7692 44.2819C75.814 44.2587 75.8637 44.2466 75.9141 44.2466C75.9645 44.2466 76.0142 44.2587 76.059 44.2819C76.1042 44.3058 76.1425 44.3409 76.1701 44.384C76.1977 44.427 76.2137 44.4765 76.2165 44.5276L76.3992 46.8712C76.4025 46.9303 76.3894 46.9891 76.3614 47.0413C75.149 49.1696 73.4145 50.954 71.3214 52.2262C68.9085 53.7634 64.5174 56.1952 60.4791 56.1952ZM59.4081 55.5022C63.5346 56.0251 68.4108 53.3413 70.9812 51.6655C72.9569 50.4644 74.6007 48.7881 75.7629 46.7893L75.6306 44.9938C73.2807 46.0459 70.704 46.3357 68.4108 46.5877C65.5949 46.9765 62.7408 47.0019 59.9184 46.6633L59.4081 55.5022Z" fill="#231F20"/>
<path d="M68.3603 48.4398H66.8042C63.2663 48.4785 59.858 47.1105 57.3285 44.6366C54.7991 42.1627 53.3558 38.7855 53.3159 35.2476C53.2844 32.4315 53.2466 25.1172 53.2151 22.3011C53.2151 22.3011 52.9442 21.1041 57.0455 21.1734C57.6755 18.9999 58.5197 17.6265 59.1749 15.4593C59.1687 16.9263 59.3315 18.3892 59.66 19.8189C59.6968 20.0821 59.8159 20.3268 60.0002 20.5182C60.277 20.6941 60.6115 20.7551 60.9326 20.6883L69.1226 20.0205C69.6528 17.8433 70.5019 15.7564 71.6426 13.8276C71.8442 15.5727 71.9891 18.1116 72.1907 19.8504C73.6831 19.9398 75.18 19.9229 76.67 19.8C76.5125 19.7181 77.7032 16.2657 77.93 16.02C78.2068 17.1244 78.3735 18.2534 78.4277 19.3905C78.4277 19.3905 80.3177 19.7244 81.1241 19.8441C81.7919 22.4145 81.9998 31.3605 81.5525 34.9011C80.6327 42.2595 75.7313 48.3579 68.3603 48.4398Z" fill="#FFD2D2"/>
<path d="M66.6531 48.78C63.0556 48.7802 59.6033 47.3611 57.046 44.831C54.4887 42.3008 53.0329 38.8638 52.9947 35.2665C52.9947 33.8553 52.9569 31.3227 52.9443 28.7901C52.9317 26.2575 52.9065 23.7501 52.8939 22.3389C52.8802 22.2256 52.8912 22.1107 52.926 22.0019C52.9607 21.8932 53.0186 21.7933 53.0955 21.7089C53.568 21.1293 54.7839 20.8332 56.718 20.8332H56.8062C57.1212 19.8378 57.474 18.9936 57.8079 18.1809C58.21 17.2701 58.5633 16.3385 58.8663 15.39C58.8871 15.3143 58.9354 15.249 59.0019 15.207C59.0683 15.1651 59.148 15.1494 59.2254 15.1632C59.3022 15.1752 59.3723 15.2141 59.4231 15.2729C59.4738 15.3318 59.502 15.4068 59.5026 15.4845C59.4947 16.9284 59.6553 18.3683 59.9814 19.7748C60.0022 19.9681 60.0813 20.1505 60.2082 20.2977C60.4245 20.4057 60.6711 20.4368 60.9075 20.3859L68.8959 19.7559C69.441 17.6274 70.2897 15.5884 71.4159 13.7016C71.4513 13.6425 71.5045 13.5961 71.5678 13.569C71.6312 13.5418 71.7015 13.5353 71.7687 13.5504C71.8348 13.5636 71.895 13.5976 71.9404 13.6475C71.9858 13.6974 72.0139 13.7606 72.0207 13.8276C72.1215 14.7033 72.2097 15.7932 72.2979 16.8453C72.3735 17.7903 72.4554 18.7353 72.5436 19.5795C73.8359 19.6604 75.1321 19.6604 76.4244 19.5795C76.7311 18.3135 77.1681 17.0826 77.7285 15.9066C77.7668 15.8682 77.814 15.8397 77.8658 15.8236C77.9176 15.8075 77.9726 15.8043 78.026 15.8142C78.0793 15.8241 78.1295 15.8469 78.1721 15.8806C78.2146 15.9143 78.2483 15.9578 78.2703 16.0074C78.5516 17.0595 78.7185 18.1389 78.768 19.2267C79.3098 19.3149 80.5887 19.5417 81.2061 19.6299C81.2689 19.6392 81.3276 19.6669 81.3747 19.7095C81.4218 19.7521 81.4552 19.8078 81.4707 19.8693C82.1763 22.5468 82.3464 31.5873 81.9117 35.046C80.8785 43.236 75.4479 48.7422 68.3982 48.8178H66.8421L66.6531 48.78ZM56.718 21.5073C54.4878 21.5073 53.82 21.9168 53.6373 22.1058C53.4546 22.2948 53.5365 22.2633 53.5365 22.2696C53.5365 23.7186 53.5743 26.2512 53.5932 28.7838C53.6121 31.3164 53.5932 33.8238 53.6436 35.2602C53.6601 36.9711 54.0137 38.662 54.6842 40.2361C55.3548 41.8102 56.3291 43.2366 57.5514 44.4338C58.7738 45.631 60.2202 46.5755 61.8079 47.2131C63.3956 47.8508 65.0934 48.1692 66.8043 48.15H68.3604C73.9422 48.087 80.091 43.9794 81.2313 34.92C81.6912 31.3227 81.4644 22.8933 80.8659 20.1969C79.9839 20.0583 78.3774 19.7748 78.3774 19.7748C78.3053 19.7636 78.2393 19.7281 78.19 19.6743C78.1408 19.6205 78.1113 19.5515 78.1065 19.4787C78.075 18.9936 77.9868 17.9163 77.8482 17.091C77.5122 17.9605 77.2323 18.8506 77.0103 19.7559C77.0228 19.8034 77.0228 19.8534 77.0103 19.9008C76.998 19.9708 76.9629 20.0347 76.9105 20.0825C76.8581 20.1304 76.7913 20.1596 76.7205 20.1654C75.2153 20.2801 73.704 20.2927 72.1971 20.2032C72.1208 20.1979 72.0488 20.1659 71.9935 20.113C71.9383 20.0601 71.9033 19.9895 71.8947 19.9134C71.7939 19.0377 71.7057 17.9478 71.6175 16.8894C71.5671 16.2216 71.5104 15.5412 71.4474 14.9049C70.5734 16.5546 69.9089 18.307 69.4692 20.1213C69.4536 20.1885 69.4171 20.249 69.3651 20.2943C69.3131 20.3395 69.2481 20.3672 69.1794 20.3733L60.9579 21.0033C60.5531 21.0777 60.1352 20.9918 59.7924 20.7639C59.5507 20.5295 59.3934 20.2215 59.3451 19.8882C59.1381 18.9968 58.997 18.0914 58.923 17.1792C58.7529 17.6139 58.5828 18.0297 58.4127 18.4392C58.0121 19.3636 57.6588 20.3077 57.3543 21.2679C57.3349 21.3344 57.2942 21.3927 57.2384 21.4337C57.1826 21.4747 57.1148 21.4961 57.0456 21.4947H56.718V21.5073Z" fill="#231F20"/>
<path d="M67.8499 38.8827C67.2796 38.8866 66.7095 38.8571 66.1426 38.7945C66.0126 38.7815 65.8875 38.7375 65.7779 38.6663C65.6683 38.595 65.5774 38.4986 65.5126 38.385C64.4857 36.7344 67.2199 29.25 67.5412 28.368C67.5736 28.2881 67.6356 28.2238 67.7143 28.1886C67.793 28.1534 67.8822 28.1499 67.9633 28.179C68.0428 28.2101 68.107 28.2709 68.1423 28.3485C68.1775 28.4262 68.1812 28.5145 68.1523 28.5948C66.9994 31.6944 65.4118 37.0053 66.0544 38.0448C66.1048 38.133 66.1552 38.1456 66.193 38.1456C67.4508 38.2666 68.7179 38.2539 69.973 38.1078C70.0154 38.1007 70.0588 38.1023 70.1005 38.1126C70.1422 38.1228 70.1814 38.1415 70.2156 38.1675C70.2498 38.1934 70.2784 38.2261 70.2995 38.2635C70.3206 38.3009 70.3339 38.3423 70.3384 38.385C70.3493 38.4701 70.3263 38.556 70.2745 38.6243C70.2226 38.6926 70.1461 38.7379 70.0612 38.7504C69.3274 38.8378 68.589 38.882 67.8499 38.8827Z" fill="#231F20"/>
<path d="M61.9361 29.7761C62.4441 29.7705 62.8471 28.965 62.8362 27.9769C62.8253 26.9888 62.4048 26.1923 61.8968 26.1979C61.3888 26.2035 60.9859 27.009 60.9967 27.9971C61.0076 28.9852 61.4282 29.7817 61.9361 29.7761Z" fill="#231F20"/>
<path d="M74.1368 29.6481C74.6448 29.6426 75.0478 28.837 75.0369 27.8489C75.026 26.8609 74.6054 26.0644 74.0975 26.07C73.5895 26.0756 73.1865 26.8811 73.1974 27.8692C73.2083 28.8573 73.6289 29.6537 74.1368 29.6481Z" fill="#231F20"/>
<path d="M67.2202 42.02C64.171 42.02 61.0966 40.5647 58.0663 37.6856C58.0078 37.6246 57.9751 37.5434 57.9751 37.4588C57.9751 37.3743 58.0078 37.293 58.0663 37.232C58.0962 37.2013 58.132 37.177 58.1715 37.1603C58.211 37.1437 58.2534 37.1351 58.2963 37.1351C58.3391 37.1351 58.3815 37.1437 58.421 37.1603C58.4605 37.177 58.4963 37.2013 58.5262 37.232C61.6762 40.2371 64.8892 41.642 68.014 41.3459C72.5563 40.949 75.4291 37.1186 75.4543 37.0808C75.4766 37.0396 75.5074 37.0036 75.5448 36.9754C75.5821 36.9471 75.6251 36.9272 75.6708 36.9169C75.7165 36.9066 75.7638 36.9063 75.8097 36.9159C75.8555 36.9255 75.8988 36.9448 75.9365 36.9726C75.9743 37.0003 76.0056 37.0358 76.0285 37.0767C76.0513 37.1176 76.0652 37.1629 76.069 37.2096C76.0729 37.2563 76.0667 37.3032 76.0508 37.3473C76.035 37.3914 76.0099 37.4316 75.9772 37.4651C75.8575 37.6352 72.9091 41.5664 68.077 41.9948C67.8061 42.0074 67.5226 42.02 67.2202 42.02Z" fill="#231F20"/>
<path d="M76.204 56.8062C76.204 56.8062 82.504 57.2598 82.8568 58.8978C83.2096 60.5358 81.3763 72.5184 79.1209 75.2778C76.8655 78.0372 67.2202 67.5603 67.2202 67.5603L76.204 56.8062Z" fill="white"/>
<path d="M78.0622 76.0527C74.6413 76.0527 67.2766 68.121 66.9616 67.7808C66.9101 67.7213 66.8818 67.6452 66.8818 67.5666C66.8818 67.4879 66.9101 67.4119 66.9616 67.3524L75.9643 56.5983C75.9968 56.5588 76.0385 56.5278 76.0857 56.5081C76.1329 56.4883 76.1842 56.4804 76.2352 56.4849C77.3314 56.5605 82.7998 57.0456 83.1652 58.8285C83.5306 60.6114 81.6847 72.6507 79.3852 75.4731C79.2336 75.6598 79.0412 75.8092 78.8227 75.9097C78.6042 76.0102 78.3656 76.0591 78.1252 76.0527H78.0622ZM67.6357 67.5477C69.8848 69.948 75.5989 75.4983 78.1063 75.4038C78.2506 75.4069 78.3938 75.3781 78.5256 75.3192C78.6574 75.2604 78.7745 75.1731 78.8686 75.0636C81.0295 72.4302 82.888 60.6114 82.5352 58.9608C82.3336 58.0221 78.856 57.3417 76.3486 57.1464L67.6357 67.5477Z" fill="#231F20"/>
<path d="M58.2237 56.384C58.2237 56.384 51.9237 56.5352 51.489 58.1543C51.0543 59.7734 52.3206 71.8316 54.4437 74.6855C56.5668 77.5394 66.7098 67.5476 66.7098 67.5476L58.2237 56.384Z" fill="white"/>
<path d="M55.5714 75.5235H55.4013C55.1649 75.5137 54.9336 75.4522 54.7235 75.3434C54.5134 75.2345 54.3298 75.081 54.1854 74.8935C51.9993 71.9577 50.7204 59.7735 51.174 58.0851C51.6276 56.3967 57.1212 56.0943 58.2174 56.0691C58.2684 56.0671 58.3192 56.0775 58.3653 56.0994C58.4114 56.1214 58.4514 56.1542 58.482 56.1951L66.9681 67.365C67.0208 67.4239 67.0499 67.5002 67.0499 67.5792C67.0499 67.6582 67.0208 67.7345 66.9681 67.7934C66.5901 68.1021 59.0301 75.5235 55.5714 75.5235ZM58.0914 56.7117C55.5714 56.7936 52.0686 57.3039 51.8229 58.2363C51.3945 59.8617 52.6923 71.7561 54.7272 74.4903C54.8152 74.6046 54.9276 74.6979 55.0562 74.7632C55.1848 74.8286 55.3264 74.8645 55.4706 74.8683C57.9591 75.0384 63.9441 69.8283 66.3003 67.5162L58.0914 56.7117Z" fill="#231F20"/>
<path d="M12.9202 152.295C12.9202 152.295 4.45297 102.784 6.24847 95.3433C8.04397 87.903 10.8664 84.5703 10.8664 84.5703C10.8664 84.5703 15.4843 80.9793 18.0484 87.651C20.6125 94.3227 20.8708 152.295 20.8708 152.295H12.9202Z" fill="#231F20"/>
<path d="M91.16 125.117C91.16 127.08 90.3801 128.963 88.9918 130.352C87.6036 131.74 85.7207 132.52 83.7575 132.52C81.7942 132.52 79.9114 131.74 78.5231 130.352C77.1349 128.963 76.355 127.08 76.355 125.117H91.16Z" fill="white"/>
<path d="M83.7386 132.847C81.6945 132.837 79.7373 132.018 78.2948 130.57C76.8523 129.122 76.0417 127.161 76.04 125.117C76.04 125.074 76.0485 125.032 76.0651 124.993C76.0816 124.953 76.1059 124.917 76.1364 124.888C76.1669 124.858 76.203 124.834 76.2427 124.818C76.2825 124.803 76.3249 124.795 76.3676 124.796H91.16C91.2028 124.795 91.2452 124.803 91.2849 124.818C91.3246 124.834 91.3608 124.858 91.3913 124.888C91.4218 124.917 91.4461 124.953 91.4626 124.993C91.4791 125.032 91.4876 125.074 91.4876 125.117C91.4868 126.134 91.2857 127.14 90.8957 128.079C90.5058 129.017 89.9347 129.87 89.215 130.588C88.4954 131.306 87.6413 131.875 86.7016 132.262C85.762 132.65 84.7551 132.849 83.7386 132.847ZM76.67 125.445C76.7638 127.257 77.5497 128.964 78.8656 130.214C80.1816 131.463 81.9271 132.16 83.7418 132.16C85.5565 132.16 87.302 131.463 88.6179 130.214C89.9339 128.964 90.7198 127.257 90.8135 125.445H76.67Z" fill="#231F20"/>
<path d="M91.1602 125.445C91.0971 125.445 91.0354 125.426 90.9827 125.392C90.9301 125.357 90.8888 125.307 90.8641 125.249L83.7388 109.26L76.6324 125.23C76.6242 125.277 76.606 125.321 76.5789 125.36C76.5518 125.398 76.5165 125.43 76.4756 125.454C76.4347 125.477 76.3892 125.491 76.3422 125.495C76.2952 125.499 76.248 125.492 76.2038 125.476C76.1596 125.46 76.1196 125.434 76.0866 125.4C76.0536 125.366 76.0284 125.326 76.0128 125.281C75.9972 125.237 75.9915 125.189 75.9963 125.143C76.001 125.096 76.016 125.05 76.0402 125.01L83.4427 108.372C83.4723 108.319 83.5154 108.276 83.5674 108.245C83.6194 108.215 83.6786 108.199 83.7388 108.199C83.799 108.199 83.8582 108.215 83.9102 108.245C83.9622 108.276 84.0052 108.319 84.0349 108.372L91.4374 125.01C91.461 125.059 91.4717 125.114 91.4682 125.169C91.4648 125.224 91.4474 125.276 91.4177 125.323C91.388 125.369 91.347 125.406 91.2987 125.432C91.2503 125.458 91.1961 125.471 91.1413 125.47L91.1602 125.445Z" fill="#231F20"/>
<path d="M83.7387 125.445C83.6519 125.445 83.5685 125.41 83.5071 125.349C83.4457 125.287 83.4111 125.204 83.4111 125.117V108.479C83.4111 108.436 83.4196 108.393 83.4361 108.353C83.4525 108.314 83.4767 108.277 83.5071 108.247C83.5375 108.217 83.5736 108.193 83.6134 108.176C83.6531 108.16 83.6957 108.151 83.7387 108.151C83.7818 108.151 83.8244 108.16 83.8641 108.176C83.9038 108.193 83.94 108.217 83.9704 108.247C84.0008 108.277 84.0249 108.314 84.0414 108.353C84.0579 108.393 84.0663 108.436 84.0663 108.479V125.117C84.0663 125.16 84.0579 125.203 84.0414 125.242C84.0249 125.282 84.0008 125.318 83.9704 125.349C83.94 125.379 83.9038 125.403 83.8641 125.42C83.8244 125.436 83.7818 125.445 83.7387 125.445Z" fill="#231F20"/>
<path d="M56.9007 125.117C56.9007 127.08 56.1208 128.963 54.7326 130.352C53.3443 131.74 51.4615 132.52 49.4982 132.52C47.5349 132.52 45.6521 131.74 44.2638 130.352C42.8756 128.963 42.0957 127.08 42.0957 125.117H56.9007Z" fill="white"/>
<path d="M49.4982 132.847C47.4485 132.845 45.4833 132.03 44.034 130.581C42.5847 129.132 41.7697 127.167 41.7681 125.117C41.7681 125.074 41.7766 125.032 41.7931 124.993C41.8096 124.953 41.8339 124.917 41.8644 124.888C41.8949 124.858 41.9311 124.834 41.9708 124.818C42.0105 124.803 42.0529 124.795 42.0957 124.796H56.9007C56.9434 124.795 56.9858 124.803 57.0256 124.818C57.0653 124.834 57.1014 124.858 57.1319 124.888C57.1624 124.917 57.1867 124.953 57.2032 124.993C57.2198 125.032 57.2283 125.074 57.2283 125.117C57.2266 127.167 56.4116 129.132 54.9623 130.581C53.513 132.03 51.5478 132.845 49.4982 132.847ZM42.4233 125.445C42.517 127.257 43.3029 128.964 44.6189 130.214C45.9348 131.463 47.6803 132.16 49.495 132.16C51.3098 132.16 53.0552 131.463 54.3712 130.214C55.6871 128.964 56.473 127.257 56.5668 125.445H42.4233Z" fill="#231F20"/>
<path d="M56.9006 125.445C56.8375 125.445 56.7758 125.426 56.7232 125.392C56.6705 125.357 56.6292 125.308 56.6045 125.25L49.4981 109.26L42.3917 125.231C42.3559 125.309 42.2913 125.37 42.2116 125.401C42.1318 125.433 42.0429 125.433 41.9633 125.401C41.8849 125.364 41.8236 125.298 41.7919 125.217C41.7603 125.136 41.7608 125.046 41.7932 124.966L49.202 108.328C49.2317 108.275 49.2747 108.232 49.3267 108.201C49.3788 108.171 49.4379 108.155 49.4981 108.155C49.5583 108.155 49.6175 108.171 49.6695 108.201C49.7215 108.232 49.7646 108.275 49.7942 108.328L57.1967 125.01C57.2204 125.06 57.231 125.114 57.2275 125.169C57.2241 125.224 57.2067 125.277 57.177 125.323C57.1473 125.369 57.1064 125.407 57.058 125.432C57.0096 125.458 56.9554 125.471 56.9006 125.47V125.445Z" fill="#231F20"/>
<path d="M49.4984 125.445C49.4554 125.445 49.4128 125.436 49.373 125.42C49.3333 125.403 49.2972 125.379 49.2668 125.349C49.2363 125.318 49.2122 125.282 49.1957 125.243C49.1793 125.203 49.1708 125.16 49.1708 125.117V108.479C49.1569 108.43 49.1545 108.379 49.1637 108.329C49.173 108.279 49.1937 108.232 49.2243 108.192C49.2548 108.151 49.2943 108.118 49.3397 108.096C49.3851 108.073 49.4351 108.061 49.4858 108.061C49.5365 108.061 49.5865 108.073 49.6319 108.096C49.6773 108.118 49.7168 108.151 49.7473 108.192C49.7779 108.232 49.7986 108.279 49.8079 108.329C49.8172 108.379 49.8147 108.43 49.8008 108.479V125.117C49.8026 125.2 49.7721 125.281 49.7157 125.342C49.6593 125.403 49.5814 125.44 49.4984 125.445Z" fill="#231F20"/>
<path d="M48.6729 107.471H84.5639V108.479H48.6729V107.471Z" fill="#231F20"/>
<path d="M66.6153 109.468L62.9424 108.309H70.2945L66.6153 109.468Z" fill="#231F20"/>
<path d="M65.6011 105.946H67.6297V107.975H65.6011V105.946Z" fill="#231F20"/>
<path d="M66.5902 106.69C66.505 106.69 66.4233 106.656 66.3631 106.595C66.3028 106.535 66.269 106.454 66.269 106.368V95.6583C66.255 95.6095 66.2526 95.5582 66.2619 95.5084C66.2712 95.4585 66.2919 95.4115 66.3224 95.371C66.3529 95.3306 66.3925 95.2977 66.4378 95.2751C66.4832 95.2525 66.5332 95.2407 66.584 95.2407C66.6347 95.2407 66.6847 95.2525 66.7301 95.2751C66.7754 95.2977 66.8149 95.3306 66.8455 95.371C66.876 95.4115 66.8967 95.4585 66.906 95.5084C66.9153 95.5582 66.9129 95.6095 66.899 95.6583V106.368C66.899 106.451 66.8669 106.531 66.8093 106.591C66.7518 106.651 66.6733 106.686 66.5902 106.69Z" fill="#231F20"/>
<path d="M48.106 80.1477C48.106 80.1477 68.077 76.5567 69.4441 78.1569C70.8112 79.7571 77.3506 88.0353 77.1616 90.7569C76.9726 93.4785 64.8514 100.761 62.6338 98.0712C61.1262 96.1119 59.8573 93.9801 58.8538 91.7208L48.1438 95.3748L48.106 80.1477Z" fill="#FFD2D2"/>
<path d="M64.24 98.9532C63.8919 98.9889 63.5403 98.9438 63.2125 98.8214C62.8847 98.699 62.5895 98.5027 62.35 98.2476C60.8745 96.3483 59.627 94.2825 58.633 92.0925L48.1813 95.652C48.132 95.669 48.0794 95.6741 48.0277 95.6667C47.9761 95.6593 47.927 95.6397 47.8845 95.6095C47.842 95.5793 47.8073 95.5394 47.7833 95.4931C47.7593 95.4468 47.7467 95.3954 47.7466 95.3433V80.1477C47.7469 80.0709 47.7742 79.9966 47.8237 79.9379C47.8732 79.8791 47.9418 79.8397 48.0175 79.8264C51.3817 79.1964 68.2405 76.2858 69.658 77.9364C69.7399 78.0309 77.6716 87.6069 77.4511 90.738C77.2999 92.8737 71.0314 97.101 66.7411 98.4681C65.9361 98.7533 65.0932 98.9168 64.24 98.9532ZM58.8409 91.3932C58.9047 91.3936 58.9669 91.413 59.0196 91.4489C59.0724 91.4848 59.1132 91.5356 59.137 91.5948C60.144 93.8366 61.4129 95.9513 62.917 97.8948C63.421 98.5248 64.7314 98.5248 66.6025 97.8948C71.2267 96.4206 76.7518 92.3067 76.8652 90.738C77.0353 88.3881 71.2393 80.7651 69.2233 78.4026C68.4547 77.4954 58.1101 78.7239 48.4648 80.4501V94.9401L58.7653 91.431C58.7866 91.404 58.8121 91.3806 58.8409 91.3617V91.3932Z" fill="#231F20"/>
<path d="M10.8663 84.5704C10.8663 84.5704 34.8504 78.157 48.9624 77.6404L49.8318 97.1704C49.8318 97.1704 14.0415 109.14 7.89896 116.537C7.89896 116.537 5.15846 105.197 6.24836 95.3119C7.04846 88.1425 10.8663 84.5704 10.8663 84.5704Z" fill="white"/>
<path d="M7.89926 116.896H7.82997C7.77148 116.881 7.7179 116.851 7.67473 116.809C7.63156 116.767 7.60034 116.714 7.58426 116.656C7.58426 116.536 4.84377 105.133 5.92737 95.318C6.72747 88.073 10.4886 84.4883 10.6461 84.3371C10.6863 84.3023 10.7336 84.2765 10.7847 84.2615C11.0241 84.1985 34.9641 77.8355 48.9501 77.3315C49.0361 77.3313 49.119 77.3637 49.1821 77.4221C49.2453 77.4806 49.2839 77.5608 49.2903 77.6465L50.1597 97.1765C50.1622 97.2467 50.1421 97.3157 50.1024 97.3735C50.0627 97.4314 50.0055 97.475 49.9392 97.4978C49.5801 97.6175 14.1615 109.55 8.15127 116.763C8.12225 116.803 8.08442 116.836 8.04072 116.859C7.99701 116.882 7.94861 116.894 7.89926 116.896ZM11.0493 84.8663C10.5831 85.3388 7.30707 88.8668 6.58887 95.381C5.65647 103.798 7.55277 113.405 8.09457 115.888C15.0246 108.75 46.2222 98.0837 49.5108 96.9875L48.6666 77.9993C35.0901 78.5537 12.5865 84.4505 11.0367 84.8663H11.0493Z" fill="#231F20"/>
<path d="M98.8525 83.6064H141.491V137.345H98.8525V83.6064Z" fill="white"/>
<path d="M141.491 137.667H98.8525C98.8095 137.667 98.7669 137.658 98.7271 137.642C98.6874 137.625 98.6513 137.601 98.6209 137.571C98.5904 137.54 98.5663 137.504 98.5498 137.464C98.5334 137.425 98.5249 137.382 98.5249 137.339V83.6064C98.5249 83.5195 98.5594 83.4362 98.6209 83.3748C98.6823 83.3133 98.7656 83.2788 98.8525 83.2788H141.491C141.534 83.2788 141.576 83.2873 141.615 83.3039C141.655 83.3204 141.69 83.3446 141.72 83.3751C141.75 83.4056 141.774 83.4418 141.79 83.4815C141.805 83.5212 141.813 83.5637 141.812 83.6064V137.339C141.813 137.382 141.805 137.424 141.79 137.464C141.774 137.504 141.75 137.54 141.72 137.57C141.69 137.601 141.655 137.625 141.615 137.642C141.576 137.658 141.534 137.667 141.491 137.667ZM99.1738 137.037H141.163V83.9277H99.1738V137.037Z" fill="#231F20"/>
<path d="M135.26 92.3885H105.02C104.937 92.3885 104.856 92.3554 104.797 92.2963C104.738 92.2372 104.705 92.1571 104.705 92.0735C104.705 91.99 104.738 91.9099 104.797 91.8508C104.856 91.7917 104.937 91.7585 105.02 91.7585H135.26C135.343 91.7602 135.422 91.7939 135.481 91.8526C135.54 91.9113 135.573 91.9905 135.575 92.0735C135.575 92.1571 135.542 92.2372 135.483 92.2963C135.424 92.3554 135.344 92.3885 135.26 92.3885Z" fill="#0F171B"/>
<path d="M135.26 99.7281H105.02C104.937 99.7281 104.856 99.695 104.797 99.6359C104.738 99.5768 104.705 99.4967 104.705 99.4131C104.705 99.3296 104.738 99.2495 104.797 99.1904C104.856 99.1313 104.937 99.0981 105.02 99.0981H135.26C135.344 99.0981 135.424 99.1313 135.483 99.1904C135.542 99.2495 135.575 99.3296 135.575 99.4131C135.575 99.4967 135.542 99.5768 135.483 99.6359C135.424 99.695 135.344 99.7281 135.26 99.7281Z" fill="#0F171B"/>
<path d="M135.26 107.067H105.02C104.937 107.067 104.856 107.034 104.797 106.975C104.738 106.916 104.705 106.836 104.705 106.752C104.705 106.669 104.738 106.589 104.797 106.53C104.856 106.471 104.937 106.438 105.02 106.438H135.26C135.344 106.438 135.424 106.471 135.483 106.53C135.542 106.589 135.575 106.669 135.575 106.752C135.573 106.836 135.54 106.915 135.481 106.973C135.422 107.032 135.343 107.066 135.26 107.067Z" fill="#0F171B"/>
<path d="M135.26 114.401H105.02C104.937 114.401 104.856 114.368 104.797 114.308C104.738 114.249 104.705 114.169 104.705 114.086C104.705 114.002 104.738 113.922 104.797 113.863C104.856 113.804 104.937 113.771 105.02 113.771H135.26C135.343 113.772 135.422 113.806 135.481 113.865C135.54 113.924 135.573 114.003 135.575 114.086C135.575 114.169 135.542 114.249 135.483 114.308C135.424 114.368 135.344 114.401 135.26 114.401Z" fill="#0F171B"/>
<path d="M128.38 121.74H105.07C104.987 121.74 104.907 121.707 104.848 121.648C104.789 121.589 104.755 121.509 104.755 121.425C104.755 121.342 104.789 121.262 104.848 121.203C104.907 121.144 104.987 121.11 105.07 121.11H128.38C128.464 121.11 128.544 121.144 128.603 121.203C128.662 121.262 128.695 121.342 128.695 121.425C128.695 121.509 128.662 121.589 128.603 121.648C128.544 121.707 128.464 121.74 128.38 121.74Z" fill="#0F171B"/>
<path d="M133.162 132.665C135.097 132.665 136.665 131.096 136.665 129.162C136.665 127.227 135.097 125.659 133.162 125.659C131.227 125.659 129.659 127.227 129.659 129.162C129.659 131.096 131.227 132.665 133.162 132.665Z" fill="#5890FF"/>
<path d="M105.31 133.2C105.248 133.202 105.186 133.185 105.134 133.152C105.081 133.119 105.04 133.07 105.015 133.013C104.991 132.956 104.984 132.892 104.996 132.831C105.008 132.77 105.039 132.714 105.083 132.671C106.798 130.88 108.774 129.357 110.942 128.154C112.832 127.102 114.432 126.944 115.528 127.713C115.643 127.78 115.743 127.871 115.82 127.979C115.897 128.088 115.95 128.212 115.976 128.343C115.987 128.568 115.92 128.79 115.787 128.973C116.104 128.954 116.421 128.954 116.738 128.973C116.974 128.963 117.209 129.005 117.427 129.097C117.645 129.188 117.84 129.326 117.998 129.502C118.058 129.587 118.105 129.68 118.137 129.779C119.297 129.392 120.561 129.455 121.677 129.955C121.715 129.973 121.749 129.998 121.777 130.029C121.805 130.06 121.827 130.096 121.841 130.135C121.855 130.174 121.861 130.216 121.859 130.257C121.857 130.299 121.847 130.34 121.828 130.378C121.812 130.415 121.787 130.449 121.757 130.477C121.727 130.505 121.691 130.527 121.653 130.541C121.614 130.555 121.573 130.561 121.531 130.559C121.49 130.557 121.45 130.547 121.413 130.529C120.899 130.302 120.346 130.18 119.785 130.168C119.224 130.156 118.666 130.255 118.143 130.459C118.061 130.754 117.912 131.025 117.708 131.253C117.22 131.782 116.563 132.125 115.85 132.223C115.791 132.231 115.731 132.221 115.677 132.196C115.624 132.17 115.578 132.129 115.547 132.079C115.513 132.028 115.495 131.969 115.495 131.908C115.495 131.848 115.513 131.788 115.547 131.738C116.037 130.983 116.732 130.385 117.551 130.012C117.539 129.962 117.518 129.915 117.488 129.874C117.374 129.716 117.129 129.628 116.719 129.603C116.259 129.576 115.797 129.591 115.339 129.647C114.553 130.703 113.571 131.599 112.448 132.286C112.187 132.48 111.863 132.566 111.541 132.526C111.423 132.501 111.311 132.451 111.215 132.378C111.119 132.305 111.041 132.211 110.986 132.104C110.914 131.969 110.869 131.82 110.856 131.667C110.843 131.515 110.862 131.361 110.911 131.215C111.09 130.807 111.4 130.47 111.793 130.258C112.765 129.642 113.855 129.234 114.993 129.061L115.258 128.658C115.314 128.581 115.353 128.493 115.371 128.399C115.371 128.399 115.371 128.305 115.188 128.198C114.067 127.417 112.435 128.021 111.27 128.67C109.157 129.846 107.233 131.332 105.562 133.08C105.532 133.118 105.493 133.148 105.45 133.169C105.406 133.19 105.358 133.2 105.31 133.2ZM114.376 129.855C113.574 130.052 112.81 130.38 112.114 130.825C111.843 130.963 111.623 131.184 111.484 131.455C111.446 131.578 111.458 131.711 111.515 131.827C111.529 131.854 111.548 131.879 111.572 131.898C111.596 131.918 111.624 131.932 111.654 131.94C111.817 131.941 111.975 131.885 112.101 131.782C112.954 131.248 113.721 130.587 114.376 129.823V129.855Z" fill="#0F171B"/>
<path d="M115.358 85.5405C114.816 87.2667 116.486 89.1819 118.3 89.1441C120.115 89.1063 121.639 87.4431 121.828 85.6413C121.56 86.1673 121.485 86.7708 121.616 87.3466C121.747 87.9223 122.077 88.4336 122.546 88.7913C123.041 89.1242 123.632 89.2854 124.227 89.2502C124.822 89.2149 125.389 88.9851 125.841 88.596C126.278 88.1893 126.582 87.6603 126.714 87.0781C126.845 86.4959 126.798 85.8876 126.578 85.3326C127.108 86.6367 126.396 88.0227 127.927 89.0685C128.966 89.7804 129.993 90.3285 130.396 88.596C131.015 85.9648 131.39 83.2823 131.518 80.5824C131.596 79.9798 131.506 79.3673 131.259 78.8121C130.755 77.8986 129.565 77.6529 128.519 77.5521C123.727 77.1024 118.895 77.7376 114.382 79.4106C113.267 79.8201 112.051 80.4186 111.679 81.5526C111.549 82.0583 111.512 82.5836 111.572 83.1024C111.641 84.5388 110.942 88.9425 113.185 89.0874C115.15 89.2386 114.986 86.7186 115.358 85.5405Z" fill="#FFD2D2"/>
<path d="M129.42 90.1016C128.803 90.0175 128.223 89.7621 127.744 89.3645C127.262 89.0521 126.897 88.5892 126.705 88.0478C126.544 88.3551 126.33 88.6322 126.075 88.8668C125.564 89.3002 124.927 89.5555 124.258 89.5942C123.59 89.6328 122.927 89.4527 122.37 89.081C121.91 88.7402 121.566 88.2647 121.387 87.7202C121.047 88.2299 120.592 88.6534 120.06 88.9574C119.527 89.2613 118.932 89.4374 118.319 89.4716C117.788 89.4617 117.265 89.3298 116.792 89.0863C116.319 88.8427 115.908 88.4939 115.591 88.0667C115.475 87.9121 115.371 87.7477 115.283 87.5753C115.024 88.5644 114.508 89.5283 113.172 89.4653C111.055 89.3267 111.169 86.1452 111.238 84.2426C111.238 83.8079 111.238 83.4299 111.238 83.1716C111.178 82.6121 111.221 82.0462 111.364 81.5021C111.793 80.2421 113.134 79.568 114.262 79.1522C118.821 77.4588 123.702 76.8129 128.544 77.2622C129.546 77.3504 130.938 77.6024 131.537 78.686C131.817 79.2941 131.92 79.9689 131.833 80.6327C131.706 83.3518 131.329 86.0533 130.705 88.703C130.535 89.4338 130.245 89.8685 129.811 90.0323C129.686 90.0792 129.553 90.1027 129.42 90.1016ZM127.07 85.8617C127.12 86.1493 127.151 86.4396 127.165 86.7311C127.215 87.5375 127.265 88.2368 128.128 88.829C128.689 89.2133 129.256 89.5535 129.596 89.4212C129.937 89.2889 130.012 88.892 130.094 88.5455C130.706 85.9347 131.077 83.2734 131.203 80.5949C131.278 80.052 131.204 79.4987 130.989 78.9947C130.541 78.1883 129.426 77.9867 128.506 77.8985C123.749 77.4491 118.951 78.0779 114.47 79.7381C113.481 80.1035 112.303 80.6579 111.95 81.6785C111.833 82.1478 111.801 82.6343 111.856 83.1149V84.2363C111.786 86.0129 111.692 88.6904 113.179 88.7912C114.313 88.8605 114.571 87.8651 114.81 86.4476C114.86 86.112 114.929 85.7796 115.018 85.4522C115.044 85.3687 115.102 85.2988 115.179 85.2581C115.257 85.2173 115.347 85.209 115.431 85.2349C115.514 85.2608 115.584 85.3188 115.625 85.3962C115.666 85.4736 115.674 85.564 115.648 85.6475C115.551 85.9976 115.54 86.366 115.615 86.7214C115.691 87.0768 115.851 87.4087 116.083 87.6887C116.338 88.0334 116.667 88.3158 117.047 88.5144C117.427 88.713 117.847 88.8228 118.275 88.8353C118.914 88.7797 119.524 88.5491 120.04 88.169C120.556 87.7889 120.956 87.2739 121.198 86.6807C121.214 86.263 121.329 85.855 121.532 85.49C121.568 85.4253 121.626 85.3753 121.695 85.3488C121.764 85.3223 121.84 85.321 121.91 85.3451C121.982 85.3667 122.043 85.4124 122.085 85.4745C122.126 85.5365 122.145 85.6111 122.137 85.6853C122.095 86.0819 121.995 86.4702 121.841 86.8382C121.848 87.1733 121.93 87.5027 122.081 87.8016C122.233 88.1005 122.45 88.3613 122.717 88.5644C123.152 88.854 123.67 88.9935 124.192 88.9617C124.714 88.9298 125.211 88.7284 125.608 88.388C125.92 88.1003 126.156 87.7412 126.298 87.3417C126.439 86.9422 126.482 86.5143 126.421 86.0948C126.39 85.8923 126.337 85.6937 126.264 85.5026C126.234 85.4222 126.237 85.3336 126.271 85.2551C126.305 85.1765 126.368 85.114 126.446 85.0805C126.527 85.0494 126.616 85.0511 126.695 85.0853C126.774 85.1195 126.836 85.1834 126.868 85.2632C126.959 85.4542 127.026 85.655 127.07 85.8617Z" fill="#231F20"/>
<path d="M65.1662 31.4739H56.8628C56.4138 31.4722 55.9837 31.2931 55.6663 30.9757C55.3488 30.6582 55.1697 30.2281 55.1681 29.7792V25.9236C55.1656 25.6994 55.2076 25.477 55.2916 25.2692C55.3757 25.0614 55.5001 24.8724 55.6577 24.713C55.8153 24.5536 56.003 24.4271 56.2098 24.3407C56.4167 24.2544 56.6386 24.2099 56.8628 24.21H65.1662C65.6156 24.21 66.0467 24.3885 66.3645 24.7063C66.6823 25.0241 66.8609 25.4552 66.8609 25.9047V29.7603C66.8625 29.9842 66.82 30.2062 66.7356 30.4136C66.6513 30.621 66.5268 30.8098 66.3694 30.969C66.2119 31.1282 66.0246 31.2547 65.8181 31.3414C65.6116 31.428 65.3901 31.473 65.1662 31.4739ZM56.8628 24.8778C56.5854 24.8778 56.3194 24.9879 56.1233 25.1841C55.9272 25.3802 55.817 25.6462 55.817 25.9236V29.7792C55.817 30.0565 55.9272 30.3225 56.1233 30.5187C56.3194 30.7148 56.5854 30.825 56.8628 30.825H65.1662C65.443 30.8233 65.7081 30.7126 65.9038 30.5168C66.0996 30.3211 66.2103 30.056 66.212 29.7792V25.9236C66.212 25.6462 66.1018 25.3802 65.9057 25.1841C65.7095 24.9879 65.4435 24.8778 65.1662 24.8778H56.8628Z" fill="#231F20"/>
<path d="M78.2702 31.4739H69.9668C69.5178 31.4722 69.0877 31.2931 68.7703 30.9757C68.4528 30.6582 68.2737 30.2281 68.2721 29.7792V25.9236C68.2696 25.6994 68.3116 25.477 68.3956 25.2692C68.4797 25.0614 68.6041 24.8724 68.7617 24.713C68.9193 24.5536 69.107 24.4271 69.3139 24.3408C69.5207 24.2544 69.7426 24.21 69.9668 24.21H78.2702C78.493 24.2091 78.7137 24.2524 78.9197 24.3373C79.1257 24.4221 79.3128 24.5469 79.4704 24.7045C79.6279 24.862 79.7527 25.0492 79.8376 25.2552C79.9224 25.4611 79.9657 25.6819 79.9649 25.9047V29.7603C79.9674 29.9844 79.9254 30.2068 79.8413 30.4146C79.7573 30.6224 79.6329 30.8115 79.4752 30.9708C79.3176 31.1302 79.13 31.2567 78.9231 31.3431C78.7163 31.4294 78.4943 31.4739 78.2702 31.4739ZM69.9668 24.8778C69.6894 24.8778 69.4234 24.988 69.2273 25.1841C69.0312 25.3802 68.921 25.6462 68.921 25.9236V29.7792C68.9226 30.056 69.0333 30.3211 69.2291 30.5168C69.4249 30.7126 69.6899 30.8233 69.9668 30.825H78.2702C78.5475 30.825 78.8135 30.7148 79.0097 30.5187C79.2058 30.3225 79.316 30.0565 79.316 29.7792V25.9236C79.316 25.6462 79.2058 25.3802 79.0097 25.1841C78.8135 24.988 78.5475 24.8778 78.2702 24.8778H69.9668Z" fill="#231F20"/>
<path d="M66.5395 28.809C66.4556 28.8086 66.3749 28.7771 66.3127 28.7208C66.282 28.6909 66.2577 28.6551 66.241 28.6156C66.2244 28.5761 66.2158 28.5337 66.2158 28.4908C66.2158 28.448 66.2244 28.4056 66.241 28.3661C66.2577 28.3266 66.282 28.2908 66.3127 28.2609C66.5173 28.0318 66.7664 27.8467 67.0447 27.7167C67.323 27.5868 67.6248 27.5147 67.9318 27.5049C68.1288 27.5276 68.3176 27.5966 68.4829 27.706C68.6482 27.8155 68.7853 27.9624 68.8831 28.1349C68.9282 28.2078 68.9429 28.2955 68.924 28.3791C68.9052 28.4627 68.8543 28.5356 68.7823 28.5822C68.7461 28.605 68.7056 28.6204 68.6633 28.6274C68.621 28.6344 68.5778 28.6329 68.5361 28.6229C68.4944 28.6129 68.4552 28.5947 68.4206 28.5693C68.3861 28.5439 68.357 28.5119 68.335 28.4751C68.2908 28.3842 68.2254 28.3052 68.1442 28.2449C68.0631 28.1846 67.9686 28.1447 67.8688 28.1286C67.4495 28.1709 67.062 28.3714 66.7852 28.6893C66.7559 28.7264 66.7186 28.7564 66.676 28.7772C66.6335 28.7979 66.5868 28.8088 66.5395 28.809Z" fill="#231F20"/>
<path d="M52.7931 28.8089C52.7284 28.8089 52.6652 28.7898 52.6114 28.7539C52.5576 28.718 52.5156 28.667 52.4907 28.6073C52.4593 28.5262 52.4609 28.436 52.495 28.356C52.5292 28.276 52.5931 28.2125 52.6734 28.1789L55.3698 27.0953C55.4095 27.0791 55.452 27.0709 55.4948 27.0713C55.5377 27.0717 55.58 27.0807 55.6193 27.0977C55.6587 27.1148 55.6942 27.1395 55.7238 27.1704C55.7535 27.2014 55.7766 27.238 55.7919 27.278C55.8234 27.3575 55.8225 27.4461 55.7896 27.525C55.7566 27.6038 55.6942 27.6667 55.6155 27.7001L52.9128 28.7837C52.8755 28.8016 52.8344 28.8102 52.7931 28.8089Z" fill="#231F20"/>
<path d="M81.792 28.5697H81.6723L79.5618 27.7192C79.482 27.6869 79.4181 27.6246 79.3839 27.5456C79.3497 27.4666 79.348 27.3773 79.3791 27.2971C79.3944 27.257 79.4175 27.2204 79.4471 27.1895C79.4768 27.1585 79.5123 27.1338 79.5516 27.1168C79.591 27.0997 79.6333 27.0908 79.6762 27.0903C79.719 27.0899 79.7615 27.0981 79.8012 27.1144L81.918 27.9649C81.9966 27.9983 82.0591 28.0612 82.0921 28.14C82.125 28.2189 82.1258 28.3075 82.0944 28.387C82.0673 28.4436 82.0243 28.4911 81.9705 28.5236C81.9168 28.5561 81.8547 28.5721 81.792 28.5697Z" fill="#231F20"/>
</svg>
